<?xml version="1.0" standalone="no"?>
<!DOCTYPE svg PUBLIC "-//W3C//DTD SVG 1.1//EN" "http://www.w3.org/Graphics/SVG/1.1/DTD/svg11.dtd" >
<!--
2013-9-30: Created.
-->
<svg>
<metadata>
Created by iconfont
</metadata>
<defs>

<font id="iconfont" horiz-adv-x="1024" >
  <font-face
    font-family="iconfont"
    font-weight="500"
    font-stretch="normal"
    units-per-em="1024"
    ascent="896"
    descent="-128"
  />
    <missing-glyph />
    
    <glyph glyph-name="tupian" unicode="&#58880;" d="M427.045253 383.545697q-29.984028 0-55.879326 11.357587t-44.976043 30.892635-30.438332 45.430346-11.357587 54.970719 11.357587 54.970719 30.438332 44.976043 44.976043 30.438332 55.879326 11.357587q29.075421 0 54.970719-11.357587t44.976043-30.438332 30.438332-44.976043 11.357587-54.970719-11.357587-54.970719-30.438332-45.430346-44.976043-30.892635-54.970719-11.357587zM1137.575865-128l-1137.575865 0 0 1024 1137.575865 0 0-113.575865 0-910.424135zM1024 782.424135l-909.515528 0 0-702.35315q16.354925 23.62378 36.344277 47.24756t41.795918 42.704525 44.976043 31.346939 46.793256 12.266193q28.166815 0 48.61047-4.088731t36.344277-10.44898 29.529725-14.083407 29.529725-14.083407 35.889973-10.44898 48.156167-4.088731 48.61047 16.809228 37.707187 42.250222 34.527063 54.516415 39.070098 54.516415 51.790594 42.250222 72.688554 16.809228q36.344277 0 69.962733-22.26087t62.239574-57.696539 52.699201-79.048802 42.250222-85.409051l0 643.2937z"  horiz-adv-x="1138" />

    
    <glyph glyph-name="daohang" unicode="&#58911;" d="M887.212 535.356h-567.129c-29.826 0-54.012 23.896-54.012 53.724s24.186 53.724 54.012 53.724h567.128c29.827 0 54.012-23.896 54.012-53.724s-24.184-53.724-54.011-53.724zM887.212 237.574h-567.129c-29.826 0-54.012 24.409-54.012 54.235 0 29.828 24.186 54.235 54.012 54.235h567.128c29.827 0 54.012-24.407 54.012-54.235 0.001-29.827-24.184-54.235-54.011-54.235zM887.212-59.185h-567.129c-29.826 0-54.012 24.408-54.012 54.235s24.186 54.235 54.012 54.235h567.128c29.827 0 54.012-24.408 54.012-54.235s-24.184-54.235-54.011-54.235zM153.565 542.056h-47.261c-13.055 0-23.63 10.601-23.63 23.656v47.235c0 13.081 10.575 23.63 23.63 23.63h47.261c13.054 0 23.63-10.549 23.63-23.63v-47.235c0-13.053-10.576-23.656-23.63-23.656v0zM153.565-52.076h-47.261c-13.055 0-23.63 10.6-23.63 23.656v47.234c0 13.081 10.575 23.631 23.63 23.631h47.261c13.054 0 23.63-10.55 23.63-23.631v-47.234c0-13.055-10.576-23.656-23.63-23.656v0zM153.565 258.493h-47.261c-13.055 0-23.63 10.601-23.63 23.656v47.235c0 13.081 10.575 23.63 23.63 23.63h47.261c13.054 0 23.63-10.549 23.63-23.63v-47.235c0-13.054-10.576-23.656-23.63-23.656v0z"  horiz-adv-x="1024" />

    
    <glyph glyph-name="icon" unicode="&#58921;" d="M679.271166 729.20416c7.78429-31.82073 8.56405-34.497699 7.832386-67.148329-0.291642-12.603039-7.444553-70.848605-5.498224-88.659249 1.606591-14.742772 5.256724-15.910365 10.994402-28.028357 9.979282-21.167089 6.621814-50.314942 2.824325-71.579245-2.142803-11.68104-6.567579-28.271904-13.284561-37.761022-7.442506-10.465352-22.284539-10.55745-28.854165-22.820752-9.44-17.613146-4.087085-42.334177-10.073426-61.312414-6.763031-21.60404-24.035416-23.116487-25.350364-51.336202 8.469905-1.215688 16.884552-2.484587 25.350364-3.650133 8.465812-18.295692 23.989367-54.986335 39.804565-65.983807 13.284561-3.696182 26.52205-7.349385 39.804565-10.996448 46.470381-19.364023 98.149391-42.431392 144.764058-62.334697 42.431392-18.147312 75.762521-24.572652 91.092671-69.635987 0-30.651091 2.874467-82.867336 2.094708-122.961496L63.910077-35.003979c-0.779759 40.09416 2.045589 92.310406 2.045589 122.961496 15.376199 45.063335 56.202023 51.487651 98.634438 69.635987 46.567595 19.903306 98.243535 42.970674 144.764058 62.334697 13.234419 3.647063 26.521027 7.300266 39.802518 10.996448 15.815197 10.997472 31.338752 47.689139 39.804565 65.983807l18.833951 4.623297c-4.284583 24.088628-19.030425 25.935696-25.159006 43.014676-2.385327 25.6461-4.768607 51.339272-7.203052 76.983325 0.097214-1.218758-17.321504 3.212158-19.611663 4.671393-24.570605 15.615653-25.056676 78.975702-27.490098 105.297185-1.070378 12.021801 15.474436 21.946848 10.899234 44.040029-26.957978 129.24255 11.630898 189.775204 72.6486 209.822796 42.335201 17.418718 121.410164 49.635467 195.130166 3.698229l18.293645-17.225313 29.638017-5.155417C669.778978 758.013299 679.271166 729.20416 679.271166 729.20416z"  horiz-adv-x="1024" />

    
    <glyph glyph-name="bofang" unicode="&#58928;" d="M512 827.808922c-245.204631 0-443.808922-198.60429-443.808922-443.808922s198.60429-443.808922 443.808922-443.808922 443.808922 198.60429 443.808922 443.808922S757.203608 827.808922 512 827.808922zM423.23842 184.286446 423.23842 583.714578l266.284739-199.713554L423.23842 184.286446z"  horiz-adv-x="1024" />

    
    <glyph glyph-name="ai-book" unicode="&#58925;" d="M893.615 775.155c-19.081 0-31.801-12.72-31.801-31.801v-737.789c0-31.801-31.801-63.602-63.602-63.602l-559.702-0c-38.161 0-82.683 31.801-82.683 63.602v69.963c0 31.801 38.161 50.882 76.323 50.882h534.261c19.081 0 31.801 12.72 31.801 31.801v623.304c0 69.963-50.882 114.484-127.205 114.484h-432.497c-69.963 0-139.925-38.161-139.925-114.484v-782.311c0 0 0 0 0-6.36s0-6.36 0-12.72c6.36-57.242 63.602-101.764 120.845-108.124 0 0 6.36 0 6.36 0 0 0 0 0 6.36 0h566.062c69.963 0 127.205 57.242 127.205 120.845l0 750.509c0 12.72-12.72 31.801-31.801 31.801zM772.77 62.807h-521.54c-19.081 0-31.801-12.72-31.801-31.801s12.72-31.801 31.801-31.801h521.54c19.081 0 31.801 12.72 31.801 31.801s-12.72 31.801-31.801 31.801z"  horiz-adv-x="1024" />

    
    <glyph glyph-name="mydata" unicode="&#59004;" d="M618.484731 65.027272c-6.379291 0-11.55108 5.172813-11.55108 11.550057 0 76.854389-33.79878 148.903332-92.728938 197.667965-4.91494 4.067642-5.603625 11.348466-1.535983 16.263405 4.066619 4.91494 11.347442 5.606695 16.263405 1.534959 64.253396-53.169967 101.103676-131.704624 101.103676-215.46633C630.035812 70.200084 624.864022 65.027272 618.484731 65.027272zM89.604272 65.027272c-6.379291 0-11.55108 5.172813-11.55108 11.550057 0 74.373894 28.693506 144.3005 80.794118 196.902532 52.130288 52.628638 121.450073 81.612763 195.189518 81.612763 4.417613 0 8.915044-0.106424 13.368472-0.320295 6.372128-0.303922 11.292184-5.715165 10.988262-12.088316-0.303922-6.372128-5.709025-11.304464-12.088316-10.986215-4.088108 0.193405-8.216125 0.293689-12.268418 0.293689-139.439796 0-252.881474-114.578572-252.881474-255.415181C101.155353 70.200084 95.983563 65.027272 89.604272 65.027272zM354.04399 331.252659c-100.063997 0-181.471075 82.104973-181.471075 183.0265 0 100.922551 81.408101 183.028547 181.471075 183.028547 100.063997 0 181.472098-82.105996 181.472098-183.028547C535.516088 413.357632 454.10901 331.252659 354.04399 331.252659zM354.04399 674.206568c-87.324858 0-158.369937-71.742974-158.369937-159.927409 0-88.183412 71.044056-159.926386 158.369937-159.926386S512.413927 426.095747 512.413927 514.279159C512.413927 602.463594 441.369871 674.206568 354.04399 674.206568zM828.267619 297.663656 708.7782 297.663656c-6.378268 0-11.550057 5.172813-11.550057 11.552104 0 6.377244 5.17179 11.550057 11.550057 11.550057L828.267619 320.765817c6.378268 0 11.550057-5.172813 11.550057-11.550057C839.817676 302.835446 834.646909 297.663656 828.267619 297.663656zM828.267619 415.464619 625.20683 415.464619c-6.378268 0-11.55108 5.170766-11.55108 11.55108s5.172813 11.55108 11.55108 11.55108L828.267619 438.56678c6.378268 0 11.550057-5.17179 11.550057-11.55108S834.646909 415.464619 828.267619 415.464619zM828.267619 533.270698 625.20683 533.270698c-6.378268 0-11.55108 5.170766-11.55108 11.55108s5.172813 11.55108 11.55108 11.55108L828.267619 556.372859c6.378268 0 11.550057-5.17179 11.550057-11.55108S834.646909 533.270698 828.267619 533.270698zM892.623345 61.116195 738.023268 61.116195c-6.378268 0-11.550057 5.170766-11.550057 11.550057s5.17179 11.552104 11.550057 11.552104L892.623345 84.218356c16.663518 0 30.219255 13.69286 30.219255 30.521131L922.842601 653.25949c0 16.830317-13.555737 30.523177-30.219255 30.523177L543.034319 683.782667c-6.378268 0-11.550057 5.17179-11.550057 11.55108 0 6.379291 5.17179 11.55108 11.550057 11.55108L892.623345 706.884828c29.401634 0 53.321416-24.055882 53.321416-53.625338l0-538.520003C945.944761 85.171054 922.024979 61.116195 892.623345 61.116195z"  horiz-adv-x="1024" />

    
    <glyph glyph-name="sousuo" unicode="&#58901;" d="M701.269691 222.527398c1.041726-2.379187 2.517333-4.613064 4.468778-6.565533l17.990746-17.990746c7.635911-7.635911 19.49603-8.368598 28.010961-2.310625L952.466804-5.066133c5.677303-5.677303 5.677303-14.882965 0-20.560268l-30.841426-30.841426c-5.677303-5.677303-14.882965-5.677303-20.561291 0L700.339506 144.258801c6.057973 8.515954 5.325285 20.376073-2.310625 28.011984l-17.990746 17.990746c-1.952468 1.952468-4.186346 3.428076-6.565533 4.469801-142.699026-128.258129-362.464265-123.756605-499.741815 13.520945-141.941779 141.941779-141.941779 372.07618 0 514.016937 141.941779 141.942803 372.075157 141.942803 514.01796 0C825.026296 584.99064 829.526797 365.226424 701.269691 222.527398zM225.13248 670.86752c-113.553219-113.553219-113.553219-297.66033 0-411.213549 113.554242-113.554242 297.661354-113.554242 411.214573 0 113.553219 113.553219 113.553219 297.66033 0 411.213549C522.79281 784.421762 338.685699 784.421762 225.13248 670.86752z"  horiz-adv-x="1024" />

    
    <glyph glyph-name="fenxiang-copy" unicode="&#58930;" d="M805.501 524.244c84.927 0 153.994 69.093 153.994 153.992 0 84.898-69.068 153.992-153.994 153.992s-153.992-69.094-153.992-153.992c0-7.518 0.711-14.847 1.778-22.093l-323.79-124.517c-28.108 29.859-67.837 48.615-111.966 48.615-84.927 0-153.992-69.095-153.992-153.993s69.066-153.992 153.992-153.992c33.083 0 63.707 10.609 88.835 28.436l219.366-146.226c-9.050-19.578-14.217-41.26-14.217-64.2 0-84.899 69.067-153.992 153.992-153.992 84.899 0 153.993 69.093 153.993 153.992 0 84.897-69.094 153.992-153.993 153.992-41.835 0-79.759-16.814-107.537-43.993l-211.958 141.305c16.079 24.334 25.511 53.4 25.511 84.679 0 20.233-4.019 39.51-11.156 57.228l310.882 119.568c26.387-46.947 76.642-78.801 134.253-78.801zM217.53 328.253c-54.028 0-97.996 43.967-97.996 97.995 0 54.029 43.968 97.996 97.996 97.996s97.995-43.966 97.995-97.996c-0-54.027-43.966-97.995-97.995-97.995zM665.508 188.26c54.029 0 97.995-43.965 97.995-97.995 0-54.029-43.966-97.995-97.995-97.995s-97.995 43.966-97.995 97.995c-0.001 54.030 43.965 97.995 97.995 97.995zM805.501 776.231c54.029 0 97.996-43.966 97.996-97.995 0-54.029-43.967-97.995-97.996-97.995-54.030 0-97.995 43.965-97.995 97.995-0.001 54.028 43.964 97.995 97.995 97.995z"  horiz-adv-x="1024" />

    
    <glyph glyph-name="mima" unicode="&#58956;" d="M768.9216 473.27232 372.06016 473.27232C378.88 530.78016 329.37984 764.57984 512.2048 770.27328c173.83424 6.59456 146.78016-213.34016 146.78016-213.34016l85.13536-0.57344c0 0 24.73984 294.4-231.91552 295.8336C232.09984 837.98016 297.82016 518.81984 289.28 473.27232c1.98656 0 4.56704 0 7.29088 0-55.88992 0-101.21216-45.34272-101.21216-101.21216l0-337.38752c0-55.88992 45.34272-101.21216 101.21216-101.21216l472.35072 0c55.88992 0 101.21216 45.34272 101.21216 101.21216L870.13376 372.06016C870.13376 427.9296 824.79104 473.27232 768.9216 473.27232zM566.4768 178.97472l0-76.84096c0-18.57536-15.1552-33.73056-33.73056-33.73056-18.57536 0-33.73056 15.1552-33.73056 33.73056l0 76.84096c-20.09088 11.69408-33.73056 33.21856-33.73056 58.12224 0 37.2736 30.208 67.4816 67.4816 67.4816 37.2736 0 67.4816-30.208 67.4816-67.4816C600.22784 212.19328 586.58816 190.6688 566.4768 178.97472z"  horiz-adv-x="1024" />

    
    <glyph glyph-name="jifenzhang-copy" unicode="&#58883;" d="M1001.834 79.294c0 0-96.925-19.396-194.986-39.536-65.498-73.019-130.626-145.668-130.626-145.668l-140.409 239.41c-7.901-0.385-15.817-1.13-23.901-1.13-8.093 0-15.811 0.745-23.909 1.13l-140.211-239.41c0 0-65.133 72.65-130.626 145.668-98.249 20.14-195.001 39.536-195.001 39.536l152.646 260.493c-24.661 49.301-38.765 104.268-38.765 162.991 0 204.405 168.257 370.413 375.866 370.413 207.793 0 376.048-166.007 376.048-370.413 0-58.723-14.298-113.69-38.759-162.991l152.633-260.493zM683.378 5.129c0 0 47.051 44.619 91.279 87.524 62.676 17.875 125.919 35.947 125.919 35.947l-88.842 151.33c-50.998-66.623-124.407-115.565-209.296-136.272l80.941-138.528zM123.435 128.599c0 0 63.243-18.071 125.918-35.947 44.234-42.905 91.091-87.524 91.091-87.524l81.129 138.528c-84.889 20.708-158.299 69.649-209.49 136.277l-88.649-151.335zM511.913 768.188c-144.468 0-261.552-117.412-261.552-262.038 0-144.789 117.084-262.19 261.552-262.19 144.46 0 261.553 117.401 261.553 262.19 0 144.626-117.092 262.038-261.553 262.038v0zM511.911 333.3c-95.294 0-172.679 77.232-172.679 172.684 0 95.44 77.386 172.672 172.679 172.672 95.44 0 172.672-77.232 172.672-172.672 0-95.452-77.23-172.684-172.672-172.684v0zM511.913 659.003z"  horiz-adv-x="1024" />

    
    <glyph glyph-name="lishijilu" unicode="&#58907;" d="M537.6 870.4c-179.2 0-339.2-96-419.2-246.4L0 742.4v-332.8h332.8l-144 144C256 681.6 384 768 537.6 768c211.2 0 384-172.8 384-384s-172.8-384-384-384c-169.6 0-307.2 108.8-364.8 256H67.2c57.6-204.8 246.4-358.4 470.4-358.4C809.6-102.4 1024 118.4 1024 384S803.2 870.4 537.6 870.4z m-76.8-256V352l240-144 41.6 67.2-204.8 121.6V611.2h-76.8z"  horiz-adv-x="1024" />

    
    <glyph glyph-name="xiugaiziliao" unicode="&#58898;" d="M972.8 672c-153.6-147.2-307.2-307.2-454.4-460.8l-12.8-12.8c-64-102.4-172.8-115.2-275.2-147.2-19.2-6.4-51.2 32-44.8 51.2 19.2 64 32 128 51.2 185.6 6.4 12.8 12.8 19.2 19.2 25.6C396.8 448 544 588.8 684.8 723.2c32 32 64 70.4 96 108.8 44.8 51.2 102.4 51.2 147.2 6.4 32-25.6 128-89.6 44.8-166.4z m-230.4 12.8L326.4 268.8l70.4-70.4c140.8 134.4 281.6 275.2 416 409.6-25.6 25.6-51.2 51.2-70.4 76.8z m32 57.6c32-32 64-64 102.4-96 6.4 6.4 25.6 19.2 32 32 57.6 64 51.2 57.6-12.8 121.6l-6.4 6.4c-19.2 12.8-32 12.8-51.2 0l-64-64zM256 121.6c32 12.8 57.6 25.6 76.8 32-12.8 19.2-25.6 38.4-44.8 57.6-12.8-32-19.2-57.6-32-89.6zM460.8-102.4H185.6c-51.2 0-96 12.8-128 57.6-19.2 25.6-25.6 57.6-25.6 89.6V595.2c0 96 64 160 160 160h300.8c19.2 0 44.8 0 44.8-32-6.4-19.2-25.6-32-57.6-32H192c-70.4 0-108.8-38.4-108.8-108.8v-531.2c0-57.6 38.4-96 89.6-96h569.6c44.8 0 76.8 32 76.8 83.2V403.2v25.6c6.4 12.8 19.2 25.6 32 25.6s19.2-19.2 25.6-32V44.8c0-102.4-44.8-147.2-147.2-147.2H460.8z"  horiz-adv-x="1024" />

    
    <glyph glyph-name="VIP1" unicode="&#59016;" d="M683.195363 328.384531v-349.144399h73.369442V106.024983c117.268312-1.739582 176.721095 3.479165 193.195962 103.55631 5.218747 29.265914-5.218747 62.113321-18.214449 80.123114-38.680124 52.392126-155.027481 39.396423-248.350955 38.680124zM756.564805 165.375437v101.816728c54.438693 1.739582 112.049565 7.776956 121.566103-36.224243 15.656241-73.574098-60.373738-67.332068-121.566103-65.592485zM541.879884 326.644949c0.818627-115.52873 0.818627-231.876087 1.739582-347.404817h71.629859V328.384531c-24.149495-1.023284-48.401319-1.023284-73.369441-1.739582zM680.739482 793.876287c-113.072849-112.868192-225.838713-224.917758-339.730189-337.990607V793.876287H67.690217c0.818627-22.409913 0.818627-45.638453 1.739582-68.150695h66.411112v-745.973818c271.579494 271.784151 542.340362 542.545018 813.919856 814.124513H680.739482z"  horiz-adv-x="1024" />

    
    <glyph glyph-name="VIP" unicode="&#59022;" d="M605.693 28.163h-63.715v304.621h63.715v-304.621M881.428 176.348c-16.991-25.486-43.449-38.108-79.493-38.108h-73.060v-110.077h-63.715v304.621h139.325c29.491 0 52.671-8.738 69.42-26.093 16.869-17.355 25.244-41.142 25.244-71.483 0.122-21.36-5.825-41.021-17.718-58.861M186.383 28.163v648.685c0 2.67-2.185 4.854-4.854 4.854h-49.637c-2.67 0-4.854 2.185-4.854 4.854v49.759c0 2.67 2.185 4.854 4.854 4.854h227.92c2.67 0 4.854-2.185 4.854-4.854v-292.242l297.703 295.641c0.85 0.85 2.185 1.456 3.398 1.456h221.972c4.369 0 6.432-5.219 3.398-8.253l-704.754-704.754M822.446 270.404c-8.738 6.432-23.059 9.709-42.962 9.709h-50.608v-89.202h59.104c20.389 0 34.224 6.19 41.628 18.569 4.005 6.796 5.947 16.384 5.947 28.763 0 14.928-4.369 25.607-13.107 32.161M822.446 270.404z"  horiz-adv-x="1024" />

    
    <glyph glyph-name="vip" unicode="&#58908;" d="M823.86944 793.6l51.65056-71.14752a20.48 20.48 0 1 1 33.1776 24.08448l-57.83552 79.58528a20.48 20.48 0 0 1-16.5888 8.43776H189.72672a20.48 20.48 0 0 1-16.5888-8.43776l-148.76672-204.8a20.48 20.48 0 0 1 33.1776-24.08448L200.13056 793.6h623.73888z m91.46368-125.952l51.11808-70.41024a20.48 20.48 0 1 1 33.1776 24.08448l-51.15904 70.41024a20.48 20.48 0 0 1-33.13664-24.08448zM24.69888 514.90816l55.62368-72.54016a20.48 20.48 0 0 1 32.48128 24.90368L57.22112 539.81184a20.48 20.48 0 1 1-32.52224-24.90368z m139.264-114.36032a20.48 20.48 0 1 1-32.48128-24.94464l364.25728-475.136a20.48 20.48 0 0 1 32.52224 0l273.89952 357.29408a20.48 20.48 0 1 1-32.52224 24.94464l-257.6384-336.0768-347.99616 453.91872z m697.18016-65.82272l138.15808 180.18304a20.48 20.48 0 0 1-32.52224 24.90368l-138.11712-180.18304a20.48 20.48 0 0 1 32.48128-24.90368zM654.9504 435.24096c0-3.19488-2.00704-4.79232-5.98016-4.79232-7.20896 0-14.49984-5.20192-21.87264-15.5648-7.3728-10.40384-16.50688-27.77088-27.27936-52.18304l-63.52896-141.43488a399.9744 399.9744 0 0 0-9.29792-21.2992c-2.62144-5.36576-4.7104-8.06912-6.30784-8.06912h-20.35712c-1.6384 0-3.03104 1.18784-4.21888 3.60448-0.8192 1.59744-4.17792 9.0112-10.19904 22.15936a19970.048 19970.048 0 0 0-38.33856 89.2928 1592.1152 1592.1152 0 0 1-42.5984 89.94816c-7.168 14.336-13.06624 23.552-17.6128 27.56608-4.62848 3.97312-11.91936 5.98016-21.9136 5.98016-3.19488 0-4.79232 1.6384-4.79232 4.79232 0 5.61152 0.2048 9.0112 0.6144 10.19904 0.4096 1.59744 1.76128 2.41664 4.17792 2.41664h119.27552c5.20192 0 7.7824-1.4336 7.7824-4.21888v-10.19904c0-1.96608-2.99008-2.99008-9.0112-2.99008-8.35584 0-15.1552-1.39264-20.35712-4.17792-5.20192-2.82624-7.7824-7.61856-7.7824-14.41792 0-7.168 10.77248-35.55328 32.3584-85.11488 17.2032-39.5264 29.57312-66.92864 37.19168-82.08384l54.51776 133.03808c3.19488 7.61856 5.81632 14.90944 7.7824 21.87264 2.048 7.00416 3.03104 12.288 3.03104 15.89248 0 5.20192-3.11296 9.0112-9.29792 11.38688-6.18496 2.41664-14.86848 3.60448-26.09152 3.60448-3.97312 0-5.98016 1.2288-5.98016 3.60448v10.19904c0 2.37568 1.2288 3.60448 3.60448 3.60448h96.50176c3.97312 0 5.98016-1.80224 5.98016-5.40672v-7.20896zM143.36 568.32h733.184a20.48 20.48 0 1 1 0 40.96H143.36a20.48 20.48 0 0 1 0-40.96z"  horiz-adv-x="1024" />

    
    <glyph glyph-name="youshengxiaoshuo" unicode="&#58989;" d="M894.27968 655.89248c0 81.87904-68.8128 121.40544-71.4752 122.88-16.60928 9.68704-39.64928 3.42016-49.13152-13.29152a35.84 35.84 0 0 1 13.23008-48.78336c1.45408-0.86016 35.6352-21.62688 35.6352-60.8256V326.2464H201.46176V655.872c0 39.48544 35.18464 60.5184 35.7376 60.84608a36.00384 36.00384 0 0 1 13.02528 48.90624c-9.56416 16.5888-32.78848 22.65088-48.86528 13.25056-2.92864-1.65888-71.63904-41.90208-71.63904-123.00288v-635.35104c0-19.78368 16.0768-35.88096 35.88096-35.88096h300.48256c19.78368 0 35.88096 16.09728 35.88096 35.88096V254.50496h20.11136v-233.984c0-19.78368 16.0768-35.88096 35.86048-35.88096h300.50304c19.7632 0 35.84 16.09728 35.84 35.88096V655.89248zM201.46176 56.38144v198.12352h228.7616v-198.12352H201.46176z m392.33536 0v198.12352h228.74112v-198.12352H593.79712z"  horiz-adv-x="1024" />

    
    <glyph glyph-name="xiaoshuo" unicode="&#58902;" d="M841.2 712.5c-16.5 0-27.4-10.7-27.4-26.7v-619.4c0-26.7-27.4-53.4-54.8-53.4H276.4c-32.9 0-71.3 26.7-71.3 53.4v58.7c0 26.7 32.9 42.7 65.8 42.7h460.7c16.5 0 27.4 10.7 27.4 26.7V717.8c0 58.7-43.9 96.1-109.7 96.1H276.4c-60.3 0-120.6-32-120.6-96.1V45c5.5-48.1 54.8-85.4 104.2-90.8h499c60.3 0 109.7 48.1 109.7 101.5V685.8c0 10.7-11 26.7-27.5 26.7zM737 114.5H287.3c-16.5 0-27.4-10.7-27.4-26.7s11-26.7 27.4-26.7H737c16.5 0 27.4 10.7 27.4 26.7 0.1 16-10.9 26.7-27.4 26.7z"  horiz-adv-x="1024" />

    
    <glyph glyph-name="shoucang" unicode="&#59003;" d="M905.05088 792.49024c-24.99328 24.99328-57.75232 37.48992-90.51008 37.48992h-614.4c-32.75776 0-65.51552-12.49664-90.5088-37.48992s-37.4912-57.75232-37.4912-90.51008v-614.4c0-32.75776 12.49664-65.51552 37.4912-90.51008 24.99328-24.992 57.75104-37.48992 90.5088-37.48992h614.4c32.75776 0 65.5168 12.49792 90.51008 37.48992 24.99328 24.99456 37.48992 57.75232 37.48992 90.51008v614.4c0 32.75776-12.49536 65.51552-37.48992 90.51008z m-74.03264-338.1696l-163.96672-119.12832c-4.22656-3.07072-7.56224-7.45088-9.30048-12.8s-1.61536-10.85312 0-15.8208l62.6304-192.7552c2.88256-8.86912-0.08192-18.94656-8.032-24.7232-7.95008-5.77536-18.44992-5.48096-25.9968 0.00256l-163.96544 119.12704c-4.22784 3.06944-9.42336 4.88832-15.04768 4.88832s-10.82112-1.8176-15.04768-4.88832l-163.96544-119.12704c-7.5456-5.48352-18.04672-5.77792-25.99552 0-7.95008 5.77536-10.91584 15.8528-8.03328 24.72192l62.62912 192.75264c1.61408 4.96896 1.73824 10.47424 0 15.82208s-5.07264 9.73056-9.30048 12.8l-163.96672 119.12832c-7.5456 5.48224-11.06944 15.37792-8.03328 24.7232 3.03744 9.344 11.70432 15.27936 21.0304 15.27936h202.67392c5.22496 0 10.49728 1.58208 15.0464 4.88832s7.68512 7.83104 9.30048 12.8l62.6304 192.75776c2.88256 8.86912 11.20384 15.28064 21.02912 15.28064s18.14912-6.41152 21.02912-15.28064l62.6304-192.75776c1.61536-4.96896 4.75008-9.49376 9.30048-12.8s9.82272-4.88832 15.04768-4.88832h202.6752c9.32608 0 17.99424-5.93536 21.0304-15.27936 3.04-9.34528-0.48512-19.24096-8.032-24.7232z"  horiz-adv-x="1024" />

    
    <glyph glyph-name="youshengshu" unicode="&#59046;" d="M931.3 653.1v-655.6c-0.1-32.9-27.8-59.5-61.9-59.6H188.6c-34.1 0.1-61.8 26.7-61.9 59.6V772.3c0.1 32.9 27.8 59.5 61.9 59.6h557l185.7-178.8zM931.3 655.1H807.5c-16.4 0-32.2 6.2-43.8 17.3-11.6 11.1-18.1 26-18.1 41.7V831.9l185.7-176.8zM539.8 337.5c-21.1 10.6-44.7 16.1-68.7 16-69 0-124.9-42.8-124.9-95.7 0-52.7 55.9-95.7 124.9-95.7S596 205.2 596 257.8V536.4c10.3-4.5 46.5-19.8 97.1 8.3 17.8 9.6 10 19.5-0.3 19.5-65.3 0-109.9 26.8-134 40.6-12.5 7.3-19.1 5.1-19.1-5.4v-261.9z"  horiz-adv-x="1024" />

    
    <glyph glyph-name="gengduo" unicode="&#58983;" d="M439.808 896l459.690667-450.56 61.866666-60.672-62.293333-61.098667-459.264-450.133333-61.866667 60.672L837.12 384.341333 377.941333 834.474667 439.808 896zM61.866667 896l459.776-450.56 61.866666-60.672-62.293333-61.098667-459.349333-450.133333L0-65.792l459.264 450.133333L0 834.474667 61.866667 896z"  horiz-adv-x="1024" />

    
    <glyph glyph-name="zanting" unicode="&#59032;" d="M521.216 832c-246.272 0-448-201.728-448-448s201.728-448 448-448 448 201.728 448 448-201.728 448-448 448z m-64-608.768c0-16.384-11.776-28.16-28.16-28.16s-30.72 11.776-30.72 28.16V542.72c0 16.384 14.336 30.72 30.72 30.72s28.16-14.336 28.16-30.72v-319.488z m158.72-28.672c-16.384 0-28.16 14.336-28.16 28.16V542.72c0 16.384 11.776 30.72 28.16 30.72s28.16-14.336 28.16-28.16V225.28c2.56-18.944-11.776-30.72-28.16-30.72z"  horiz-adv-x="1024" />

    
    <glyph glyph-name="shoucang1" unicode="&#58881;" d="M511.3-64.2c-247.1 0-448.1 201-448.1 448.1C63.2 631 264.2 832 511.3 832s448.1-201 448.1-448.1c0-247.1-201-448.1-448.1-448.1z m0 867.4C280.1 803.2 92 615.1 92 383.9c0-231.2 188.1-419.3 419.3-419.3 231.2 0 419.3 188.1 419.3 419.3 0 231.2-188.1 419.3-419.3 419.3zM652 168.4c-2.3 0-4.6 0.5-6.7 1.7l-134.1 70.5-134.1-70.5c-4.9-2.5-10.7-2.1-15.2 1.1-4.4 3.2-6.7 8.7-5.7 14.1l25.6 149.3-108.4 105.7c-3.9 3.8-5.3 9.5-3.6 14.8 1.7 5.2 6.2 9 11.6 9.8l149.9 21.8 67 135.8c2.4 4.9 7.4 8 12.9 8s10.5-3.1 12.9-8l67-135.8L741 464.9c5.4-0.8 9.9-4.6 11.6-9.8 1.7-5.2 0.3-10.9-3.6-14.8L640.6 334.6l25.6-149.3c0.9-5.4-1.3-10.9-5.7-14.1-2.5-1.8-5.5-2.8-8.5-2.8zM511.3 271.2c2.3 0 4.6-0.6 6.7-1.7l115-60.4-22 128c-0.8 4.7 0.7 9.4 4.1 12.7l93 90.6-128.5 18.7c-4.7 0.7-8.7 3.6-10.8 7.9l-57.5 116.5L453.8 467c-2.1-4.2-6.2-7.2-10.8-7.9l-128.5-18.7 93-90.6c3.4-3.3 4.9-8.1 4.1-12.7l-22-128 115 60.4c2.1 1.2 4.4 1.7 6.7 1.7z"  horiz-adv-x="1024" />

    
    <glyph glyph-name="shengjihuiyuan" unicode="&#58959;" d="M512 896C229.376 896 0 666.624 0 384s229.376-512 512-512 512 229.376 512 512S794.624 896 512 896zM422.912 219.136c-17.408-17.408-124.928-91.136-145.92-70.144-20.992 20.992 52.736 128.512 70.144 145.92 17.408 17.408 48.64 14.336 69.12-6.656 20.992-20.992 24.064-51.712 6.656-69.12z m244.736 119.808c-10.24-10.24-20.992-19.456-32.256-27.648-3.072-2.56-5.632-5.632-6.656-9.728-9.216-37.376-28.672-73.216-58.88-103.424-13.312-13.312-28.16-25.088-44.544-34.816-13.824-8.192-30.208 5.632-24.576 20.992 8.704 23.552 13.312 49.664 13.312 75.776-2.048-0.512-4.608-1.024-6.656-1.024a1113.60512 1113.60512 0 0 0-120.32 120.32c0.512 2.048 1.024 4.608 1.024 6.656-26.624 0-52.224-4.096-75.776-13.312-14.848-5.632-29.184 10.752-20.992 24.576 9.728 16.384 21.504 31.232 34.816 44.544 29.696 29.696 66.048 49.664 103.424 58.88 4.096 1.024 7.168 3.072 9.728 6.656 8.192 11.264 17.92 22.528 27.648 32.256 71.68 71.68 172.032 96.768 264.192 75.776l12.8-12.8c20.48-91.648-4.608-192.512-76.288-263.68zM547.068774 419.305066a57.344 57.344 0 1 1 81.095247 81.098078 57.344 57.344 0 1 1-81.095247-81.098078Z"  horiz-adv-x="1024" />

    
    <glyph glyph-name="jingyin" unicode="&#58934;" d="M53.492537-21.3006l855.166411 855.594923 45.13656-45.13656-855.16641-855.594923L53.492537-21.3006z m12.712513 148.26503C26.496304 156.103222 0.642767 203.096666 0.642767 256.089273V511.76789c0 88.273399 71.561445 159.834844 159.692008 159.834844h63.848235c0 8.855907 7.141861 15.997768 15.997768 15.997768v4.285117c88.844748 67.847678 176.546799 133.40996 254.107407 181.688938 87.130702 54.135305 145.122611 1.142698 145.122611-89.558934v-83.274097L66.20505 126.96443z m573.205746 227.968197v-363.663552c0-110.413168-57.277724-146.693821-145.69396-93.986888-58.277584 34.709443-121.840145 77.98912-186.973915 124.982564l332.667875 332.667876zM799.102804 383.928581c0 35.709304-16.854791 67.419166-42.851165 87.844888l45.422235 45.422235c37.566188-32.138374 61.277166-79.988841 61.277165-133.267123 0-86.130841-61.991352-157.692286-143.694239-172.690193v65.562282c46.136421 13.712373 79.846004 56.4207 79.846004 107.127911z m159.692007 0c0 79.846004-34.423769 151.550286-89.27326 201.1148L914.800949 630.322779c66.419305-61.277166 107.984935-148.979216 107.984935-246.394198 0-163.405775-116.840843-299.386804-271.533548-329.239782v65.562282c118.983401 28.71028 207.542475 135.695355 207.542475 263.6775z"  horiz-adv-x="1024" />

    
    <glyph glyph-name="gengduo1" unicode="&#58888;" d="M443.2 831.5H99.4c-19 0-34.4-15.4-34.4-34.4v-343.8c0-19 15.4-34.4 34.4-34.4h343.8c19 0 34.4 15.4 34.4 34.4V797.1c0 19-15.4 34.4-34.4 34.4zM133.8 762.8h275v-275h-275zM924.5 831.5H580.7c-19 0-34.4-15.4-34.4-34.4v-343.8c0-19 15.4-34.4 34.4-34.4h343.8c19 0 34.4 15.4 34.4 34.4V797.1c-0.1 19-15.5 34.4-34.4 34.4z m-34.4-343.7h-275v275h275v-275zM443.2 350.3H99.4c-19 0-34.4-15.4-34.4-34.4v-343.8c0-19 15.4-34.4 34.4-34.4h343.8c19 0 34.4 15.4 34.4 34.4V315.9c0 19-15.4 34.4-34.4 34.4zM133.8 281.5h275v-275h-275zM924.5 350.3H580.7c-19 0-34.4-15.4-34.4-34.4v-343.8c0-19 15.4-34.4 34.4-34.4h343.8c19 0 34.4 15.4 34.4 34.4V315.9c-0.1 19-15.5 34.4-34.4 34.4zM615.1 281.5h275v-275h-275z"  horiz-adv-x="1024" />

    
    <glyph glyph-name="shangyiqu" unicode="&#58912;" d="M272.168421 316.442947l652.476632-423.82821c31.636211-20.129684 71.868632 2.883368 71.868631 40.232421V806.669474c0 37.376-43.115789 60.362105-74.725052 40.232421L272.168421 423.127579V846.901895C272.168421 872.771368 252.038737 895.784421 223.312842 895.784421h-146.593684C47.966316 895.784421 27.836632 875.654737 27.836632 846.901895v-914.054737c0-25.869474 20.129684-45.972211 48.882526-45.972211h146.593684c25.869474 0 48.855579 20.102737 48.855579 48.855579V316.442947z"  horiz-adv-x="1024" />

    
    <glyph glyph-name="wode" unicode="&#58929;" d="M78.964186-88.875654c0-21.51839-18.157253-39.115454-39.675644-39.115454-21.242742 0-39.124346 17.597064-39.124346 39.399995 0 71.53531 29.34326 125.189016 69.863634 164.597902 56.445761 53.929354 135.245751 77.679611 182.194966 81.876587 9.496546 1.120379 17.881605 4.748273 23.750257 10.332384 3.636786 3.636786 5.868652 8.385059 6.989031 12.857683-36.883588 30.463639-54.213895 72.38004-68.183065 107.8676-7.26468 17.321415-13.40898 31.850775-16.770118 36.04775l-0.835838 0.275649-0.275649 0.275649h-0.275649v0.28454c-16.485577 15.080657-39.684536 43.588078-51.697488 76.007935-12.297493 32.135315-15.37409 67.622876 3.076596 100.033839-9.781087 29.6278-14.8139 62.038764-14.8139 95.570108-0.56019 42.75224 6.144301 86.073562 19.562173 125.749205l1.671677 3.352245C173.413914 782.147886 205.83377 822.943909 247.189983 850.615492c44.148268 30.179098 98.922352 43.872619 160.400927 45.268647 22.914418 0.275649 54.213895 0.835838 84.668642-5.032814 34.927371-6.144301 67.907416-19.562173 88.020887-47.785054 41.356212 3.636786 77.403962-19.277632 105.626842-52.808975 34.651722-40.235833 59.522358-98.922352 64.83082-133.574075 4.472624-25.706474 4.472624-52.533327 0.56019-81.040748-2.792056-22.07858-7.824869-45.828836-14.538252-69.303444 21.242742-33.531343 18.441794-70.975121 6.144301-103.955166-12.297493-32.419856-35.211912-61.478575-51.982029-76.283583l-0.560189-0.560189-0.56019-0.56019v-0.275649c-4.196975-3.912435-10.341276-18.717443-17.321415-35.763209-13.693521-35.211912-30.18799-76.292475-66.226848-106.187032 0.835838-5.317354 3.627894-10.341276 7.549221-14.538251 5.584111-5.584111 14.529359-9.212005 23.750256-10.332384 46.664675-4.196975 125.464665-27.947232 181.919318-81.876587 40.235833-39.124346 69.854742-93.062592 69.854742-164.873551 0-21.51839-17.890496-39.115454-39.115455-39.115454-21.794039 0-39.124346 17.597064-39.124346 39.399995 0 46.949215-19.553281 81.876586-46.113377 107.591952-41.640753 39.960184-99.758191 57.841789-134.409913 60.358195-27.947232 2.792056-53.644814 14.529359-72.655689 33.531343-21.23385 20.67366-51.412948 98.646704-12.012953 123.51734 27.653799 16.485577 42.192051 51.973137 53.644814 81.876586 10.901466 26.542312 19.837822 49.45673 37.728319 65.666658v-0.560189l0.275648 0.560189c9.781087 8.669599 24.310446 26.266663 31.575126 45.828836 5.593003 14.529359 6.713382 29.058719-2.783164 39.124347h0.275649c-10.341276 11.452763-13.96917 32.135315-9.220897 46.389025 7.824869 24.870635 13.40898 48.060702 15.925387 70.414932 2.516407 20.958201 3.076596 40.520374-0.275648 59.798006-3.352245 23.474608-21.242742 64.279522-46.664675 93.898431-13.417872 15.934279-27.947232 27.387042-40.235833 25.155176-13.693521-1.956217-27.111393 0-39.408887 5.584111a73.358149 73.358149 0 0 0-27.387042 23.474608l-2.489732 2.774272c-5.868652 8.936356-20.958201 14.529359-38.564156 17.605955-23.190067 4.188083-49.465622 3.627894-69.027796 3.076597-46.664675-0.56019-87.185049-10.056735-118.760174-31.859667-27.387042-18.157253-48.620892-45.828836-62.314413-84.668642l-1.120379-3.076596c-10.341276-31.023828-16.209928-65.391009-15.649738-98.922352 0.56019-29.903449 5.308462-58.686519 15.089549-82.721317a35.923263 35.923263 0 0 0 4.196975-25.706474c-4.196975-25.706474-24.870635-26.826853-12.582034-60.358195 7.26468-18.441794 21.242742-36.04775 31.023828-45.268647l1.111487-1.671677h0.56019c17.045766-15.934279 26.266663-38.555265 36.607939-64.546279 12.297493-29.903449 26.826853-65.951199 54.213895-82.996965 12.297493-6.144301 20.682552-19.001984 20.682552-34.651722 0-33.531343-5.584111-62.590062-30.739287-87.736347-18.441794-19.010875-44.708457-30.739287-73.206987-33.531343-34.376073-2.516407-92.217862-20.398011-133.574075-60.358195-26.835745-25.733149-45.837728-60.651628-45.837728-107.885385z"  horiz-adv-x="1024" />

    
    <glyph glyph-name="duihuan" unicode="&#58957;" d="M512 895.091C229.732 895.091 0.91 666.268 0.91 384S229.732-127.091 512-127.091 1023.09 101.732 1023.09 384 794.268 895.091 512 895.091z m149.828-823.577l-46.752-46.753c-8.714-8.621-22.877-8.621-31.503 0-8.625 8.721-8.625 22.881 0 31.508 2.089 2.088 0.18 5.625-2.724 4.994-104.761-22.156-218.159 7.171-299.862 87.874-102.041 100.773-124.104 252.476-66.001 375.31 5.174 10.982 19.789 13.526 28.415 4.9 6.082-6.083 7.716-15.433 4.087-23.238-50.113-108.399-30.233-241.308 59.098-330.005 77.717-77.082 187.928-101.589 286.251-73.445 2.176 0.635 2.901 3.358 1.266 4.988l-10.707 10.717c-8.626 8.715-8.626 22.877 0 31.503 8.716 8.622 22.877 8.622 31.497 0l46.663-46.752c8.715-8.627 8.715-22.882 0.272-31.601z m-58.826 348.622c16.615 0 30.048-13.438 30.048-29.961 0-16.522-13.526-29.962-30.048-29.962h-63.096v-17.52h63.096c16.615 0 30.048-13.437 30.048-29.963 0-16.517-13.526-29.953-30.048-29.953h-63.096v-46.572c0-16.525-13.439-29.958-30.049-29.958-16.616 0-30.052 13.433-30.052 29.958v46.572h-63.094c-16.616 0-30.053 13.437-30.053 29.953 0 16.526 13.438 29.963 30.053 29.963h63.094v17.52h-63.094c-16.616 0-30.053 13.439-30.053 29.962s13.438 29.961 30.053 29.961h35.86l-70.725 94.231c-9.987 13.257-7.263 32.049 5.993 41.942 13.254 9.99 32.048 7.264 42.033-5.99l80.073-106.58 80.071 106.58c10.079 13.254 28.874 15.888 42.123 5.99 13.26-9.894 15.891-28.777 5.992-41.85l-70.811-94.324h35.682z m194.192-198.732c-6.27-11.076-21.522-12.801-30.06-3.271a18.65 18.65 0 0 0-2.268 21.699c64.005 111.942 47.94 257.378-47.661 352.246-78.895 78.351-191.467 102.317-290.964 71.995l14.255-14.252c8.622-8.625 8.622-22.788 0-31.413-8.625-8.625-22.789-8.625-31.413 0l-6.082 6.082-46.665 52.023c-1.359 6.986 0.726 14.524 6.083 19.972l46.756 46.752c8.624 8.624 22.787 8.624 31.41 0 8.624-8.625 8.624-22.785 0-31.41l-7.264-7.265c107.491 26.237 225.51-2.266 309.757-85.519 108.218-107.037 126.557-271.45 54.116-397.639z"  horiz-adv-x="1024" />

    
    <glyph glyph-name="shengyinyinliangmianxing-" unicode="&#58885;" d="M877.07625 18.787859c-6.399097-6.599069-15.197856-10.298547-24.396558-10.098575-9.198702 0.199972-17.897475 4.199407-23.996614 11.098434-13.098152 14.697926-12.698208 36.99478 0.899873 51.292763 79.888728 81.588488 125.882239 193.77266 125.882239 313.755731 0 119.28317-45.393595 230.867426-124.482436 312.355929-13.598081 14.297983-13.898039 36.694823-0.699902 51.292762 6.099139 6.899027 14.797912 10.798476 23.996615 10.998449 9.198702 0.099986 17.997461-3.599492 24.296571-10.198561 92.186993-94.986598 145.279502-225.16823 145.279502-364.348593 0-140.080236-53.692424-271.061755-146.77929-366.148339z m-135.980814 170.875891c-6.299111-6.599069-14.997884-10.398533-24.0966-10.498519-9.098716-0.099986-17.897475 3.499506-24.196586 9.998589-13.39811 13.598081-13.598081 35.395006-0.399944 49.293045 37.794667 39.394442 58.791705 91.887035 58.591733 146.479333 0.199972 53.79241-20.19715 105.585103-56.991958 144.779572-12.998166 13.998025-12.598222 35.79495 0.999859 49.293045 6.499083 6.399097 15.297842 9.898603 24.296571 9.698632 9.098716-0.199972 17.697503-4.099422 23.896629-10.69849 48.993087-52.292622 76.18925-121.382874 75.989278-193.072759 0-73.889575-28.395994-143.479756-78.088982-195.272448zM508.828208-116.892997L268.762079 39.484939H68.290365C30.595683 39.484939 0 70.080622 0 107.775304V637.000633c0 18.097447 7.198984 35.494992 19.997179 48.293186 12.798194 12.798194 30.19574 19.997179 48.293186 19.997179h200.471714L505.128729 882.366014c20.69708 15.497813 48.393172 17.997461 71.489914 6.399097s37.694682-35.195034 37.694681-61.091381v-887.474782c0-24.996473-13.698067-48.093214-35.694963-59.991536-22.096882-11.898321-48.893101-10.798476-69.790153 2.899591z m0 0"  horiz-adv-x="1024" />

    
    <glyph glyph-name="shouye" unicode="&#58891;" d="M778-12.2H596.7c-26.2 0-47.6 21.4-47.6 47.6V217.5h-72v-182.1c0-26.2-21.4-47.6-47.6-47.6H245.7c-26.2 0-47.6 21.4-47.6 47.6V334.2h-81.5c-20.1 0-37.6 12.2-44.6 31-7 18.7-1.7 39.3 13.3 52.4l387.7 346 0.2 0.2c25.6 22.1 63.6 21.3 88.4-1.7l380.1-345.6 0.2-0.2c14.3-13.5 18.9-34 11.6-52.2-7.2-18.2-24.6-30-44.2-30h-83.7v-298.7c0-26.2-21.4-47.6-47.6-47.6z m-170.9 58h160.5V392.1h114.7l-360 327.3-0.1 0.1c-3.1 2.9-7.8 3-10.9 0.4L144 392.2h112.1v-346.4h163V227.9c0 26.2 21.4 47.6 47.6 47.6h92.8c26.2 0 47.6-21.4 47.6-47.6v-182.1z"  horiz-adv-x="1024" />

    
    <glyph glyph-name="icon-test" unicode="&#58896;" d="M956.2 612.8c-0.6 2.9-1.7 5.8-3.5 8.4L896 706.3c-4.2 6.3-11 9.9-18.1 10.4-2.4 0.8-4.9 1.3-7.5 1.3H435.8c-4.1 0-7.9-1.1-11.3-3L341 760.5H200c-76.2 0-138.2-62-138.2-138.2V171c0-76.2 62-138.2 138.2-138.2h621.4c76.2 0 138.2 62 138.2 138.2V612.8h-3.4zM863 670.7l28.4-42.5H583.6l-78 42.5H863z m-41.7-590.6H200c-50.1 0-90.9 40.8-90.9 90.9V622.3c0 50.1 40.8 90.9 90.9 90.9h129l211.5-115.3c2.9-9.8 11.8-17 22.6-17h349.3v-399.8c-2.4 0.8-4.9 1.3-7.5 1.3H275.1c-13 0-23.6-10.6-23.6-23.6 0-13 10.6-23.6 23.6-23.6h629.7c-13.8-32.4-46-55.1-83.5-55.1zM177.5 182.4h-18.9c-13 0-23.6-10.6-23.6-23.6 0-13 10.6-23.6 23.6-23.6h18.9c13 0 23.6 10.6 23.6 23.6 0 13.1-10.6 23.6-23.6 23.6zM461.7 343.3l-7.8-55.9c-2.1-14.9 4.4-29.3 16.8-37.7 6.6-4.4 14.1-6.7 21.7-6.7 6.7 0 13.4 1.8 19.5 5.3l45.6 26.4 47.8-24.6c13.2-6.8 28.7-5.5 40.6 3.4 11.9 8.9 17.5 23.4 14.7 38L649.8 348l36.6 39c10.4 11.1 13.7 26.9 8.5 41.3-5.2 14.3-17.8 24.4-32.9 26.3l-50.7 6.4-24.9 49.3c-6.8 13.4-20.5 21.3-35.3 21.1-15-0.4-28.1-9.1-34.2-22.8L494.5 458l-53.6-9.5c-14.4-2.5-26-12.8-30.2-26.8-4.3-14-0.4-28.9 10.2-39.1l40.8-39.3z m50 77.5c6.5 1.1 12 5.4 14.7 11.5l25.7 57.9 28.6-56.5c3-5.9 8.7-9.9 15.2-10.7l61.7-8.1c0.1-0.4 0.1-0.5-0.1-0.7L614 367.7c-4.3-4.6-6.2-11-5-17.3l12.2-64-55.2 28.5c-6 3.1-13.2 2.9-19-0.5l-53.9-32.6 9.2 65.9c0.9 6.3-1.3 12.6-5.9 17l-46.7 45 62 11.1z"  horiz-adv-x="1024" />

    
    <glyph glyph-name="manhua" unicode="&#58919;" d="M638.38208 278.26688c20.97664-184.69888-251.8784-239.27296-335.83616-247.68 12.60032 130.16064-4.20352 348.44672 201.48736 348.44672-20.97152 12.59008 33.59232 134.30272 88.14592 197.27872 71.38304 335.84128-197.28384 230.8864-314.8288 184.71936-491.1616-361.00608-151.13728-734.65344-134.32832-755.61984 365.3376-339.55328 779.54048 217.66144 663.28576 394.61376-12.6464-7.59296-117.57056-117.5552-167.92576-121.75872z m-205.71648 428.1856c43.48416 0 78.70976-35.24608 78.70976-78.70464 0-43.48928-35.22048-78.72-78.70976-78.72-43.47392 0-78.70976 35.23072-78.70976 78.72 0 43.45856 35.24096 78.70464 78.70976 78.70464zM180.79232 171.21792c-43.45344 0-78.69952 35.24608-78.69952 78.70464 0 43.47904 35.23584 78.70976 78.69952 78.70976 43.48416 0 78.70976-35.23072 78.70976-78.70976 0-43.45856-35.23072-78.70464-78.70976-78.70464z m62.96576 230.89152c-43.45344 0-78.70464 35.23072-78.70464 78.71488s35.24608 78.70976 78.70464 78.70976c43.48416 0 78.73024-35.2256 78.73024-78.70976s-35.24096-78.71488-78.73024-78.71488z m381.32736-83.95776c118.9376 48.96768 384.7936 521.23136 384.7936 521.23136l-24.48384 20.98688s-398.64832-346.6496-440.20224-484.35712c14.29504-9.83552 61.63456-47.42656 79.89248-57.86112z m-80.45056 55.98208c0.16384 0.6144 0.36352 1.23392 0.55808 1.87392-4.90496 3.35872-5.92384 3.47136-0.55808-1.87392z m-122.46528-62.976c-59.45856-45.47584-41.97888-181.9136-73.45664-230.8864 66.46272 48.96768 164.4288 34.98496 216.88832 122.4192 17.49504 48.99328-13.98272 171.4432-143.43168 108.4672z m0 0"  horiz-adv-x="1024" />

    
    <glyph glyph-name="shanchu" unicode="&#58884;" d="M512 864C246.4 864 32 649.6 32 384s214.4-480 480-480 480 214.4 480 480S777.6 864 512 864m201.6-681.6c-12.8-12.8-35.2-12.8-48 0L512 336 358.4 182.39999999999998c-12.8-12.8-35.2-12.8-48 0-12.8 12.8-12.8 35.2 0 48L464 384 310.4 537.6c-12.8 12.8-12.8 35.2 0 48 12.8 12.8 35.2 12.8 48 0L512 432l153.6 153.6c12.8 12.8 35.2 12.8 48 0 12.8-12.8 12.8-35.2 0-48L560 384l153.6-153.6c16-12.8 16-35.2 0-48m0 0z"  horiz-adv-x="1024" />

    
    <glyph glyph-name="re" unicode="&#58882;" d="M740.864 712.704c20.48-60.928 30.72-142.336-20.48-183.296C638.976 835.072 445.44 896 445.44 896c20.48-162.816-81.408-335.872-193.536-458.24 0 60.928-10.24 112.128-40.96 173.056-10.24-122.368-101.888-224.256-122.368-335.872-20.48-101.888 0-183.296 60.928-264.704 112.128-112.128 397.312-244.224 692.736 0 275.456 274.944-40.448 651.776-101.376 702.464zM358.4 16.896l-43.008 11.264c15.872 30.72 28.672 57.344 37.888 79.872l45.056-8.192c-11.776-25.088-25.088-52.736-39.936-82.944z m13.824 109.056h-45.056v4.608c-1.024 8.704-3.584 18.944-6.656 31.744H353.28c14.848 0 22.528 6.144 22.528 18.944v36.864l-58.88-11.264-7.168 39.936c20.48 3.072 23.552 3.584 8.704 1.536 14.848 2.048 33.792 5.12 56.832 9.728v51.2H318.464v36.864h56.832V398.848h41.472v-52.736h43.008v-36.864h-43.008v-44.544c9.216 1.024 22.016 3.072 37.888 6.144 3.584 1.024 5.632 1.536 6.656 1.536v-38.4l-45.056-8.192v-49.664c2.048-32.256-12.8-49.152-44.032-50.176z m81.408-102.4c-4.608 18.944-12.8 44.032-24.064 75.264l43.008 4.608c4.608-12.8 11.264-30.208 20.48-52.736 2.048-8.704 4.608-15.36 6.656-20.992l-46.08-6.144z m108.544 4.608c-9.216 23.552-18.944 48.128-29.184 73.728l43.008 6.144c4.608-8.704 10.24-20.992 17.408-36.864 6.656-14.848 12.288-26.624 15.36-35.328l-46.592-7.68z m115.712-3.072c-12.8 27.648-26.624 54.272-41.472 79.872l43.008 9.728c1.024-2.048 3.584-5.12 6.656-9.728 17.408-28.672 29.696-51.2 37.888-67.072l-46.08-12.8z m50.176 177.152c0-8.704-1.536-20.992-5.12-36.864-5.632-26.624-19.968-39.936-43.008-39.936-28.672 1.024-45.568 20.992-50.176 58.88-2.56 17.92-3.584 59.392-3.584 124.416h-50.176c-1.024-26.624-5.12-51.2-12.288-73.728l50.176-30.208-24.064-36.864c-4.608 3.072-11.776 8.192-20.48 14.336-10.24 6.144-17.92 11.264-22.528 14.336-14.848-27.648-39.936-54.272-74.24-79.872-10.24 9.728-22.016 18.944-34.304 28.672 34.304 22.528 59.392 47.104 74.24 73.728l-45.056 27.136 22.528 30.208 12.288-6.144c10.24-6.144 18.432-11.264 24.064-14.336 4.608 15.872 6.656 33.792 6.656 52.736h-50.176v38.4h51.712v51.2h43.008c0-17.92-0.512-35.328-1.536-51.2h91.648v-103.936c1.024-22.528 2.048-40.96 3.584-55.808 2.048-12.8 6.656-19.968 13.824-20.992 5.632 0 9.216 5.12 10.24 15.872 2.048 17.92 4.096 35.328 5.12 51.2 2.048-1.024 5.632-2.048 10.24-3.072 10.24-3.072 17.408-5.12 20.48-6.144-0.512-4.608-2.048-12.288-3.072-22.016z"  horiz-adv-x="1024" />

    
    <glyph glyph-name="shipin" unicode="&#58981;" d="M667.733333 459.52v-146.346667l270.933334-161.706666v469.333333zM701.013333 667.733333H135.253333c-27.306667 0-49.92-22.186667-49.92-49.92v-463.786666c0-27.306667 22.186667-49.92 49.92-49.92h566.186667c27.306667 0 49.92 22.186667 49.92 49.92V618.24c-0.426667 27.306667-22.613333 49.493333-50.346667 49.493333z m-399.786666-456.533333v349.866667l285.013333-174.933334-285.013333-174.933333z"  horiz-adv-x="1024" />

    
    <glyph glyph-name="wodeziliao" unicode="&#58926;" d="M959.944007-128h-180.457443c-104.754906 0-77.174353 112.817898-11.51856 127.984002h63.992001c59.448569 0 70.391201 13.310336 63.992001 63.992001v63.992001h-191.976003v127.984002h191.976003v63.992001h-255.968004v127.984002h255.968004v63.992001c-2.175728 63.992001-4.543432 66.167729-63.992001 63.992001h-127.984002c-35.323585 0-55.673041 97.651794 0 127.984002h255.968004a63.992001 63.992001 0 0 0 63.992001-63.992001v-703.912011a63.992001 63.992001 0 0 0-63.992001-63.992001z m-383.952006 0a63.992001 63.992001 0 0 0-63.992001 63.992001v191.976003a64.823897 64.823897 0 0 1-63.992001 63.992001H192.039995a64.823897 64.823897 0 0 1-63.992001-63.992001v-191.976003a63.992001 63.992001 0 0 0-127.984002 0v191.976003a192.487939 192.487939 0 0 0 191.976003 191.976003h255.968004a192.487939 192.487939 0 0 0 191.976003-191.976003v-191.976003a63.992001 63.992001 0 0 0-63.992001-63.992001z m-255.968004 511.936008a255.968004 255.968004 0 1 0 255.968004 255.968004 255.968004 255.968004 0 0 0-255.968004-255.968004z m0 383.952006a127.984002 127.984002 0 1 1 127.984002-127.984002 127.984002 127.984002 0 0 1-127.984002 127.984002z"  horiz-adv-x="1024" />

    
    <glyph glyph-name="quanxian" unicode="&#58972;" d="M868.571 815.323a289.938 289.938 0 0 0-87.478-14.628 417.719 417.719 0 0 0-232.96 70.217L511.56 895.781 474.99 870.912a417.719 417.719 0 0 0-232.96-70.217c-27.648 0-57.052 4.974-87.406 14.628l-81.481 25.82v-467.53c0-44.909 16.31-98.01 47.177-153.6 29.989-53.906 74.24-111.469 128-166.4 47.25-48.274 102.473-95.085 155.575-131.656 21.138-14.629 41.326-27.283 59.977-37.596a89.015 89.015 0 0 1 87.26 0.732c18.578 10.752 38.765 23.698 59.83 38.4a1217.829 1217.829 0 0 1 158.5 132.827c55.59 55.442 101.23 112.933 132.024 166.327 32.183 55.808 48.493 106.569 48.493 150.894V841.143l-81.408-25.82z m-41.325-441.782c0-14.41-4.389-46.52-34.231-98.158-25.966-44.91-65.317-94.354-113.884-142.775A1094.217 1094.217 0 0 0 536.65 13.166a814.811 814.811 0 0 0-30.208-20.188 679.79 679.79 0 0 0-28.745 18.871 976.31 976.31 0 0 0-138.02 117.029c-46.812 47.762-84.846 96.987-110.007 142.263-21.797 39.277-33.792 75.63-33.792 102.4V690.98a374.975 374.975 0 0 1 46.153-2.853c55.661 0 110.592 8.119 163.181 24.137a532.334 532.334 0 0 1 106.35 45.495c33.646-19.017 69.34-34.23 106.35-45.422 52.663-16.091 107.52-24.137 163.182-24.137 15.213 0 30.646 0.878 46.153 2.78v-317.44zM511.561 663.99c-106.642 0-193.39-79.579-193.39-177.444 0-78.263 55.443-144.823 132.17-168.375a51.785 51.785 0 0 1-0.147-3.73v-153.015c0-31.085 27.502-56.32 61.44-56.32 33.865 0 61.294 25.235 61.294 56.32V314.514c0 1.244 0 2.487-0.146 3.657 76.8 23.626 132.242 90.186 132.242 168.448 0 97.866-86.82 177.445-193.463 177.445z m0-242.321c-38.985 0-70.656 29.11-70.656 64.877s31.671 64.805 70.656 64.805c38.985 0 70.73-29.038 70.73-64.805 0-35.84-31.745-64.877-70.73-64.877z"  horiz-adv-x="1024" />

    
    <glyph glyph-name="remen1" unicode="&#58931;" d="M859.91 286.075v-45.6c-0.68-2.22-1.51-4.435-1.964-6.705-4.66-24.1-7.285-48.83-14.316-72.22-20.85-69.02-59.92-126.54-114.694-173.5-42.245-36.25-89.786-62.366-144.135-75.22-17.87-4.236-36.194-6.73-54.32-10.036h-45.575c-2.22 0.685-4.49 1.72-6.754 1.87-48.126 2.996-93.726 15.525-136.5 37.385-80.866 41.186-139.196 102.515-165.836 190.74-5.675 18.855-8.04 38.62-11.975 57.976v43.51c1.715 10.69 3.2 21.474 5.22 32.16 8.62 46.685 29.366 88.025 56.84 126.19 25.915 35.92 53.44 70.704 78.016 107.535 26.569 39.95 39.424 84.294 31.89 132.915-1.485 9.605-2.875 19.21-4.336 28.764 0.98 0.251 1.965 0.45 2.95 0.731 59.31-62.16 68.966-138.465 60.495-220.92 2.17 2.32 3.986 3.935 5.37 5.8 50.34 68.084 71.965 143.3 55.555 227.546-10.43 53.59-32.994 101.766-70.324 141.816C369.306 834.154 349.695 848.344 331.62 864h18.655c1.536-0.63 2.976-1.715 4.535-1.865 32.82-2.82 63.65-12.955 93.02-27.2C515 802.419 569.45 754.35 615 695.715c66.95-86.28 110.485-181.995 119.106-292.2 3.305-42.07-0.986-82.956-12.2-123.29-4.236-15.275-10.21-30.045-15.68-45.95 21.725 9.251 38.24 23.39 50.995 41.716 38.04 54.775 48.675 115.855 40.055 183.38 2.8-3.25 4.236-4.535 5.215-6.145 22.914-36.2 40.055-74.814 49.005-116.784 3.554-16.612 5.619-33.607 8.414-50.367m-358.345 80.31c-0.855-0.606-1.79-1.236-2.67-1.841-1.185-16.64-2.07-33.3-3.68-49.935-2.37-25.385-8.445-49.86-20.32-72.625-14.52-27.88-38.79-45.22-65.69-59.01-29.01-14.97-47.285-36.35-49.656-70.101-2.469-34.71 7.966-63.87 35.945-85.2 26.216-19.961 56.841-26.471 89.306-25.386 51.83 1.69 90.445 26.321 105.925 78.196 11.116 37.23 9.3 74.714 1.865 112.194-10.16 51.375-28.765 99.265-60.6 141.235-8.945 11.728-20.24 21.684-30.425 32.473"  horiz-adv-x="1024" />

    
    <glyph glyph-name="tingzhi" unicode="&#58922;" d="M512 384m-512 0a512 512 0 1 1 1024 0 512 512 0 1 1-1024 0ZM512 822.857143a437.211429 437.211429 0 1 0-170.8-34.457143A436.217143 436.217143 0 0 0 512 822.857143m0 73.142857C229.234286 896 0 666.765714 0 384s229.234286-512 512-512 512 229.222857 512 512S794.777143 896 512 896zM364.64 531.017143h292.571429v-292.571429h-292.571429z"  horiz-adv-x="1024" />

    
    <glyph glyph-name="jifenjilu" unicode="&#58952;" d="M729.792 287.872c109.12 0 166.144-41.344 166.208-82.208l-0.064-220.352C895.04-55.232 838.08-96 729.792-96c-108.992 0-166.112 41.344-166.112 82.176v219.52c0 40.832 57.024 82.176 166.112 82.176z m0-43.264c-80.64 0-122.24-27.296-122.24-38.944 0-11.616 41.6-38.912 122.24-38.912 80.64 0 122.24 27.296 122.24 38.912 0 11.648-41.6 38.944-122.24 38.944z m0-297.344c80.64 0 122.24 27.296 122.24 38.912v52.416c-27.904-14.944-68.768-24.896-122.24-24.896-53.44 0-94.4 9.952-122.24 24.896v-52.416c0-11.616 41.6-38.912 122.24-38.912z m0 109.76c80.64 0 122.24 27.296 122.24 38.944v52.416c-27.904-14.944-68.768-24.896-122.24-24.896-53.44 0-94.4 9.952-122.24 24.896v-52.416c0-11.648 41.6-38.944 122.24-38.944z m33.504 313.76V699.584a18.432 18.432 0 0 1-18.4 18.272h-74.272v-72.96c0-20.256-16.512-36.64-36.928-36.64H299.712a36.768 36.768 0 0 0-36.896 36.64v72.96h-74.24a18.432 18.432 0 0 1-18.432-18.24v-621.12c0-9.952 8.224-18.272 18.4-18.272h259.648c20.48 0 37.056-16.352 37.056-36.544a36.8 36.8 0 0 0-37.056-36.544h-315.2A36.832 36.832 0 0 0 96 23.776V754.304c0 9.696 3.84 19.008 10.816 25.888 6.944 6.848 16.352 10.72 26.208 10.752h129.792V827.36C262.816 847.584 279.36 864 299.744 864h333.984c20.384 0 36.896-16.384 36.896-36.64v-36.416h129.792c20.48 0 37.024-16.448 37.024-36.64v-383.52a36.8 36.8 0 0 0-37.088-36.544 36.8 36.8 0 0 0-37.056 36.544zM336.96 772.8v-73.408c0-9.856 8.352-18.112 18.688-18.112h222.144a18.656 18.656 0 0 1 13.152 5.248 18.112 18.112 0 0 1 5.536 12.864V772.8a18.464 18.464 0 0 1-18.688 18.112h-222.144a18.656 18.656 0 0 1-13.12-5.248 18.112 18.112 0 0 1-5.568-12.864z m-111.2-292.48c0 20.16 16.544 36.544 37.024 36.576h407.872c20.48 0 37.024-16.224 37.024-36.544 0-20.16-16.544-36.512-37.024-36.544H262.784c-9.856 0-19.264 3.84-26.24 10.688a36.16 36.16 0 0 0-10.784 25.856z m0-292.256c0 20.16 16.704 36.544 37.216 36.544h147.968c20.48 0 37.088-16.352 37.088-36.544a36.8 36.8 0 0 0-37.088-36.544H263.008a37.344 37.344 0 0 0-26.336 10.656 36.256 36.256 0 0 0-10.912 25.888z m0 146.144c0 20.16 16.544 36.544 36.928 36.544h204.16c20.416 0 36.96-16.224 36.96-36.544 0-20.16-16.576-36.544-36.928-36.544H262.688a36.64 36.64 0 0 0-36.928 36.544z"  horiz-adv-x="1024" />

    
    <glyph glyph-name="mima1" unicode="&#58933;" d="M860.58 406.6c-0.09 47.06-29.76 88.04-72.49 101.63-16.6 5.3-33.82 6.09-51.12 5.3-7.68-0.35-12.01-0.71-11.12 10.95 2.12 28.52 2.47 57.39 1.23 86.09-4.06 94.48-70.11 174.13-163.18 198.41-88.3 23.04-182.87-15.72-233.64-93.86-40.62-62.34-35.23-130.94-31.97-201.58-11.92 0-22.69 0.26-33.38 0-56.25-1.5-101.1-46-101.37-102.16-0.53-117.88-0.62-235.75 0-353.63 0.35-57.31 44.94-104.2 101.9-104.54 165.29-1.06 330.68-0.97 495.97 0 55.01 0.35 98.9 46.71 99.16 101.89 0.45 117.15 0.36 234.33 0.01 351.5zM566.02 229.82c-8.65-6.53-11.3-12.72-11.04-22.87 0.62-25.78 0.44-51.66 0.18-77.44-0.44-29.76-17.31-47.68-43.97-47.24-25.7 0.35-41.77 18.01-42.21 46.8-0.26 15.1-0.44 30.11 0 45.21 0.8 26.23-0.09 48.39-23.75 69.58-25.52 22.95-25.96 57.83-10.95 89.88 15.54 33.03 42.91 48.39 72.4 50.51 42.12-0.44 75.76-25.34 87.33-59.96 11.47-34.51 1.06-72.48-27.99-94.47z m59.86 283.44c-37.35 0.71-74.7 0.27-112.05 0.27-38.06 0-76.2 0.79-114.26-0.35-14.84-0.45-17.75 4.68-17.22 18.1 1.06 22.96 0.09 46 0.35 68.96 0.8 71.88 57.39 128.65 128.48 129 71.17 0.35 128.65-55.8 130.15-127.68 0.53-24.46-0.71-48.92 0.35-73.29 0.54-12.88-4.23-15.18-15.8-15.01z"  horiz-adv-x="1024" />

    
    <glyph glyph-name="tixianjilu" unicode="&#59035;" d="M826.813575 778.445866c-12.414217 0-22.569049-10.160343-22.569049-22.575938v-834.590543h-705.368891V846.720615h629.187673c12.414217 0 22.569049 10.160343 22.56905 22.575937S740.477525 891.866979 728.063308 891.866979H98.875635C74.044446 891.866979 53.729271 871.551804 53.729271 846.720615v-925.44123c0-24.829812 20.315175-45.144987 45.146364-45.144986h705.368891c24.824301 0 45.139476 20.315175 45.139476 45.144986V755.869928c0 12.415595-10.154832 22.575938-22.570427 22.575938z m0 0M804.244526-127.998622h-705.368891c-27.173234 0-49.279385 22.106151-49.279385 49.279385V846.720615C49.59625 873.893849 71.702401 896 98.875635 896h629.187673c14.724576 0 26.703448-11.978872 26.703448-26.703448 0-14.727331-11.978872-26.708958-26.703448-26.708958H103.008656v-917.175188h697.102849V755.869928c0 14.727331 11.978872 26.708958 26.703448 26.708959s26.703448-11.981627 26.703448-26.708959v-834.590543c-0.001378-27.171857-22.104773-49.278008-49.273875-49.278007zM98.875635 887.733958C76.261123 887.733958 57.862292 869.335127 57.862292 846.720615v-925.44123c0-22.614512 18.398831-41.013344 41.013343-41.013343h705.368891c22.611757 0 41.007833 18.397453 41.007833 41.013343V755.869928c0 10.168609-8.271552 18.442917-18.437406 18.442917s-18.437406-8.27293-18.437406-18.442917v-838.723564h-713.634932V850.853636h633.320693c10.165854 0 18.437406 8.27293 18.437406 18.442916 0 10.165854-8.271552 18.437406-18.437406 18.437406H98.875635zM801.418918 868.731706c0-12.469324 10.106614-22.570427 22.57456-22.570427 12.463813 0 22.570427 10.101103 22.570426 22.570427 0 12.463813-10.106614 22.570427-22.570426 22.570427-12.467946 0-22.57456-10.106614-22.57456-22.570427z m0 0M823.993478 842.028258c-14.725953 0-26.708958 11.978872-26.708959 26.703448s11.981627 26.703448 26.708959 26.703448c14.724576 0 26.703448-11.978872 26.703447-26.703448s-11.978872-26.703448-26.703447-26.703448z m0 45.140854c-10.169987 0-18.442917-8.270175-18.442917-18.437406s8.27293-18.437406 18.442917-18.437406c10.165854 0 18.437406 8.270175 18.437406 18.437406s-8.271552 18.437406-18.437406 18.437406zM164.895133 601.818465c-12.414217 0-22.569049-10.154832-22.569049-22.570427 0-12.415595 10.154832-22.570427 22.569049-22.570427h71.101735v-65.460162c0-12.415595 10.154832-22.570427 22.570427-22.570427 12.414217 0 22.57456 10.154832 22.57456 22.570427v65.460162h71.101735c12.414217 0 22.569049 10.154832 22.569049 22.570427 0 12.415595-10.154832 22.570427-22.569049 22.570427h-70.541022V620.437724h71.105868c12.410084 0 22.570427 10.160343 22.570427 22.575937s-10.160343 22.570427-22.570427 22.570427h-53.610791l56.995735 108.911988c5.640196 11.284525 1.689028 24.824301-9.595497 30.470007-11.284525 5.645706-24.829812 1.694539-30.470007-9.595497l-57.560581-110.036169-60.376546 110.036169c-6.209175 10.725189-19.750329 14.674979-30.475518 9.030651-11.284525-6.205042-15.234315-19.750329-9.589986-31.036232l59.815833-108.345763h-53.045945c-12.414217 0-22.569049-10.154832-22.569049-22.570427s10.154832-22.570427 22.569049-22.570427h71.101735v-18.62477h-71.101735v0.564847z m302.464109-183.956625c0-12.415595 10.154832-22.575938 22.570427-22.575938h265.218703c12.415595 0 22.570427 10.160343 22.570427 22.575938 0 12.408706-10.154832 22.569049-22.570427 22.569049H489.929669c-12.980441 0-22.570427-10.160343-22.570427-22.569049z m287.78913-383.726188H247.281393c-12.415595 0-22.570427-10.154832-22.570427-22.570426 0-12.414217 10.154832-22.569049 22.570427-22.56905h507.866979c12.415595 0 22.570427 10.154832 22.570427 22.56905 0 12.415595-10.154832 22.570427-22.570427 22.570426z m0 225.718046H247.281393c-12.415595 0-22.570427-10.154832-22.570427-22.570427 0-12.414217 10.154832-22.570427 22.570427-22.570427h507.866979c12.415595 0 22.570427 10.15621 22.570427 22.570427 0 12.415595-10.154832 22.570427-22.570427 22.570427zM427.858584 637.934178c0-12.415595 10.15621-22.570427 22.570427-22.570426h116.246722l-21.444868-21.446246c-9.030651-9.029273-9.030651-23.133895 0-32.164545 4.514636-4.516014 10.154832-6.769888 15.799161-6.769889 5.645706 0 11.285902 2.253874 15.800539 6.769889l58.121294 58.125427c4.514636 4.510503 6.775399 9.589986 6.775399 15.235693v2.255251c0 1.694539 0 3.384944-0.564846 4.514637-1.13107 5.079483-3.384944 9.595497-7.336112 13.545287l-57.560581 57.55507c-9.030651 9.030651-23.135273 9.030651-32.165924 0-9.023762-9.029273-9.023762-23.135273 0-32.164546l21.446245-21.440734h-115.117029c-12.980441 1.125559-22.570427-9.030651-22.570427-21.444868z m0 0M755.148372-15.136844H247.281393c-14.724576 0-26.703448 11.978872-26.703448 26.703447s11.978872 26.703448 26.703448 26.703448h507.866979c14.724576 0 26.703448-11.978872 26.703447-26.703448s-11.98025-26.703448-26.703447-26.703447z m-507.866979 45.139476c-10.165854 0-18.437406-8.271552-18.437406-18.437406s8.271552-18.437406 18.437406-18.437406h507.866979c10.165854 0 18.437406 8.271552 18.437406 18.437406s-8.271552 18.437406-18.437406 18.437406H247.281393zM755.148372 210.579823H247.281393c-14.724576 0-26.703448 11.978872-26.703448 26.703448s11.978872 26.703448 26.703448 26.703447h507.866979c14.724576 0 26.703448-11.978872 26.703447-26.703447s-11.98025-26.703448-26.703447-26.703448z m-507.866979 45.140854c-10.165854 0-18.437406-8.271552-18.437406-18.437406s8.271552-18.437406 18.437406-18.437406h507.866979c10.165854 0 18.437406 8.271552 18.437406 18.437406s-8.271552 18.437406-18.437406 18.437406H247.281393z m507.866979 135.432204H489.929669c-14.724576 0-26.703448 11.981627-26.703448 26.708959 0 14.972557 11.729513 26.70207 26.703448 26.70207h265.218703c14.724576 0 26.703448-11.978872 26.703447-26.70207 0-14.727331-11.98025-26.708958-26.703447-26.708959zM489.929669 436.297868c-10.33944 0-18.437406-8.097966-18.437406-18.436028 0-10.169987 8.271552-18.442917 18.437406-18.442917h265.218703c10.165854 0 18.437406 8.27293 18.437406 18.442917 0 10.165854-8.271552 18.436028-18.437406 18.436028H489.929669z m-231.362374 28.216133c-14.724576 0-26.703448 11.978872-26.703448 26.703448v61.327141h-66.968714c-14.723198 0-26.70207 11.978872-26.70207 26.703448s11.978872 26.703448 26.70207 26.703447h4.133021v-0.564846h62.835693v10.358728h-66.968714c-14.723198 0-26.70207 11.978872-26.70207 26.703448s11.978872 26.703448 26.70207 26.703448h46.04323l-56.509417 102.363904c-6.663807 13.323482-1.701427 29.359602 11.295546 36.506974a26.667628 26.667628 0 0 0 12.410084 3.0791c9.7002 0 18.755649-5.233782 23.632613-13.661011l56.713312-103.35583 53.985519 103.20153c4.412689 8.833643 13.415786 14.363625 23.461781 14.363625 4.283187 0 8.611838-1.033255 12.520298-2.988174 13.207757-6.607323 18.234888-22.427149 11.442957-36.013766l-53.865661-102.931506h46.783041c14.724576 0 26.703448-11.978872 26.703448-26.703448 0-14.727331-11.978872-26.708958-26.703448-26.708958h-66.972847v-10.353218h66.408001c14.723198 0 26.70207-11.978872 26.70207-26.703447s-11.978872-26.703448-26.70207-26.703448h-66.968715v-61.327141c0-14.724576-11.98025-26.703448-26.70758-26.703448z m-97.805183 132.704411c-8.182004-1.881902-14.303007-9.224903-14.303008-17.970374 0-10.165854 8.270175-18.437406 18.436029-18.437406h75.234756v-69.593183c0-10.165854 8.271552-18.437406 18.437406-18.437406 10.168609 0 18.441539 8.271552 18.441539 18.437406v69.593183h75.234756c10.165854 0 18.436028 8.270175 18.436028 18.437406s-8.270175 18.437406-18.436028 18.437406h-74.674043V624.570744h75.238889c10.165854 0 18.437406 8.27293 18.437406 18.442917 0 10.165854-8.271552 18.437406-18.437406 18.437406h-60.438541l60.161629 114.961353c4.685468 9.373691 1.282614 20.322063-7.782479 24.855987a19.839878 19.839878 0 0 1-8.821244 2.114729c-6.892501 0-13.063101-3.778959-16.102249-9.861388l-61.170086-116.939692-64.086621 116.797792c-3.358768 5.798628-9.672646 9.453596-16.432891 9.453596-2.999195 0-5.856491-0.703991-8.494736-2.092686-9.153263-5.034019-12.547851-15.982392-7.854117-25.458031l63.158069-114.399262h-60.04866c-10.165854 0-18.436028-8.270175-18.436028-18.437405s8.270175-18.437406 18.436028-18.437406h75.234756v-26.890812h-79.367777v0.10057z m400.267914-46.36836c-6.928321 0-13.576973 2.833875-18.722584 7.980863-5.148366 5.148366-7.983619 11.897589-7.983619 19.005007 0 7.107418 2.835252 13.856641 7.983619 19.005008l14.389801 14.389801h-106.26961c-14.724576 0-26.703448 11.978872-26.703448 26.703447 0 14.389801 10.871222 25.663304 24.748529 25.663305 0.701236 0 1.416248-0.028931 2.125751-0.085416h104.964952l-14.388423 14.38429c-10.650795 10.657683-10.650795 27.352332-0.001378 38.008637 5.149744 5.149744 11.898967 7.984996 19.006386 7.984997s13.858019-2.835252 19.005007-7.983619l57.560582-57.553693c4.217059-4.217059 6.951741-9.180817 8.352835-15.161298 0.75772-1.870881 0.75772-3.959434 0.75772-5.820671v-2.255252c0-6.754734-2.686464-12.864716-7.987752-18.159116l-58.119916-58.12405c-5.1401-5.148366-11.790131-7.982241-18.718452-7.98224z m-112.555934 104.481389c-9.395734 0-16.482487-7.47939-16.482487-17.397263 0-10.165854 8.271552-18.437406 18.437406-18.437406h126.223834l-28.499934-28.501311c-3.587462-3.587462-5.563046-8.260531-5.563046-13.159539s1.975584-9.573454 5.563046-13.159538c3.584707-3.586084 8.157205-5.560291 12.877115-5.560291s9.292409 1.974206 12.878493 5.558913l58.121295 58.125428c3.744517 3.741762 5.564424 7.768702 5.564423 12.313647v2.255251c0 0.855535 0 2.288316-0.154299 2.725039l-0.227316 0.454632-0.085416 0.436722c-1.019478 4.584898-3.05568 8.352835-6.222952 11.520107l-57.560581 57.553693c-3.587462 3.587462-8.260531 5.563046-13.160916 5.563046s-9.573454-1.975584-13.160916-5.563046c-7.374687-7.377442-7.374687-18.940257 0-26.319077l28.502689-28.495801-125.453714 0.015155a17.915268 17.915268 0 0 1-1.596724 0.071639z"  horiz-adv-x="1102" />

    
    <glyph glyph-name="yinpin" unicode="&#58963;" d="M512-24.8c20 0 36 16 36 36V756.8c0 20-16 36-36 36s-36-16-36-36v-744.8c0-20 16-36.8 36-36.8z m188 138.4c20 0 36 16 36 36V618.4c0 20-16 36-36 36s-36-16-36-36v-469.6c0-19.2 16.8-35.2 36-35.2z m185.6 133.6c20 0 36 16 36 36V484.8c0 20-16 36-36 36s-36-16-36-36v-201.6c0-20 15.2-36 35.2-36h0.8z m-747.2 0c20 0 36 16 36 36V484.8c0 20-16 36-36 36s-36-16-36-36v-201.6c0-20 16.8-36 36-36z m174.4-133.6c20 0 36 16 36 36V618.4c0 20-16 36-36 36s-36-16-36-36v-469.6c0-19.2 16-35.2 36-35.2z"  horiz-adv-x="1024" />

    
    <glyph glyph-name="add-fill" unicode="&#59051;" d="M825.82 696.975C741.931 780.456 630.434 826.434 511.806 826.434S281.64 780.456 197.744 696.976 67.6 502.386 67.6 384.234s46.225-229.24 130.143-312.75 195.394-129.458 314.033-129.458 230.155 45.928 314.013 129.457 130.143 194.63 130.143 312.781-46.156 229.201-130.114 312.711z m-91.916-344.472H543.537v-190.377c0-17.524-14.206-31.731-31.73-31.731s-31.731 14.207-31.731 31.73V352.504H289.698c-17.524 0-31.73 14.206-31.73 31.73s14.206 31.731 31.73 31.731h190.377V606.3330000000001c0 17.524 14.206 31.73 31.73 31.73 17.526 0 31.731-14.206 31.731-31.73v-190.377h190.367c17.524 0 31.73-14.207 31.73-31.73s-14.206-31.732-31.73-31.732v0.009z"  horiz-adv-x="1028" />

    
    <glyph glyph-name="xuanzhong" unicode="&#58939;" d="M855.133091 727.133091c-189.207273 189.207273-497.105455 189.207273-686.266182 0-189.207273-189.207273-189.207273-497.105455 0-686.266182 189.207273-189.207273 497.105455-189.207273 686.266182 0 189.207273 189.207273 189.207273 497.105455 0 686.266182z m-56.133818-216.669091l-325.725091-346.763636a30.533818 30.533818 0 0 0-5.771637-4.142546c-1.768727-1.163636-3.025455-2.141091-4.794181-2.885818a33.978182 33.978182 0 0 0-25.367273-0.325818l-3.909818 2.327273c-2.048 1.070545-4.328727 2.187636-6.469818 4.096v0.09309a3.584 3.584 0 0 0-0.41891 0.372364l-1.070545 1.070546-184.925091 182.178909a33.698909 33.698909 0 0 0-0.372364 47.662545 34.583273 34.583273 0 0 0 47.662546 0.279273l160.907636-158.487273 301.149091 320.698182a34.769455 34.769455 0 0 0 47.662546 1.489454 33.652364 33.652364 0 0 0 1.396363-47.662545z"  horiz-adv-x="1024" />

    
    <glyph glyph-name="erji" unicode="&#58958;" d="M1024 240.64c0-122.88-97.28-220.16-220.16-220.16-20.48 0-35.84 15.36-35.84 35.84V424.96c0 46.08-10.24 92.16-35.84 128-46.08 76.8-128 128-220.16 128-92.16 0-168.96-46.08-215.04-117.76-25.6-40.96-40.96-87.04-40.96-138.24v-373.76c0-20.48-15.36-35.84-35.84-35.84-122.88 0-220.16 97.28-220.16 220.16 0 112.64 81.92 204.8 189.44 220.16 5.12 30.72 10.24 66.56 25.6 92.16 51.2 117.76 163.84 199.68 302.08 199.68s256-87.04 302.08-209.92c10.24-25.6 15.36-56.32 20.48-81.92 102.4-15.36 184.32-107.52 184.32-215.04z"  horiz-adv-x="1024" />

    
    <glyph glyph-name="ziyuan" unicode="&#58903;" d="M925.416149 892.819876h-190.807453a31.801242 31.801242 0 0 1-31.801243-31.801242v-387.021118L121.798758 885.823602 110.668323 893.455901A31.801242 31.801242 0 0 1 98.583851 896a31.801242 31.801242 0 0 1-31.801242-31.801242v-960.397516a31.801242 31.801242 0 0 1 31.801242-31.801242 31.801242 31.801242 0 0 1 12.084472 2.544099l11.130435 7.632299L702.807453 294.002484V-93.018634a31.801242 31.801242 0 0 1 31.801243-31.801242h190.807453a31.801242 31.801242 0 0 1 31.801242 31.801242v954.037268a31.801242 31.801242 0 0 1-31.801242 31.801242z"  horiz-adv-x="1024" />

    


  </font>
</defs>
</svg>
