<svg width="236" height="236" viewBox="0 0 236 236" fill="none" xmlns="http://www.w3.org/2000/svg">
<circle cx="118.099" cy="118.099" r="102.099" fill="#BA7F39"/>
<circle cx="118" cy="118" r="114.478" stroke="#BA7F39" stroke-width="7.04478"/>
<path d="M167.627 89.4847C164.759 86.6162 161.378 85.3224 157.477 85.3224H144.97L142.101 77.77C141.319 75.9446 140.015 74.3799 138.2 73.0862C136.374 71.7823 134.298 71 132.473 71H103.828C101.742 71 99.9265 71.7823 98.1012 73.0862C96.2758 74.39 94.9719 75.9547 94.1996 77.77L91.0703 85.3224H78.3125C74.4109 85.3224 71.021 86.6262 68.1625 89.4847C65.2939 92.3532 64 95.7332 64 99.6448V149.904C64 153.805 65.3039 157.195 68.1624 160.064C71.0308 162.932 74.4109 164.226 78.3124 164.226H157.467C161.368 164.226 164.758 162.922 167.617 160.064C170.485 157.195 171.779 153.815 171.779 149.904V99.6448C171.789 95.7332 170.495 92.3532 167.627 89.4847H167.627ZM117.89 147.557C104.871 147.557 94.1896 136.885 94.1896 123.857C94.1896 110.838 104.861 100.156 117.89 100.156C130.918 100.156 141.59 110.828 141.59 123.857C141.59 136.885 130.908 147.557 117.89 147.557Z" fill="white"/>
<path d="M117.889 108.24C109.033 108.24 102.002 115.271 102.002 124.127C102.002 132.984 109.033 140.014 117.889 140.014C126.745 140.014 133.776 132.984 133.776 124.127C133.776 115.271 126.745 108.24 117.889 108.24Z" fill="white"/>
</svg>
