<svg width="68" height="68" viewBox="0 0 68 68" fill="none" xmlns="http://www.w3.org/2000/svg">
<g clip-path="url(#clip0)">
<path d="M34 0C24.9826 0 16.3346 3.58213 9.95837 9.95837C3.58213 16.3346 0 24.9826 0 34C0 43.0174 3.58213 51.6654 9.95837 58.0416C16.3346 64.4179 24.9826 68 34 68C43.0174 68 51.6654 64.4179 58.0416 58.0416C64.4179 51.6654 68 43.0174 68 34C68 24.9826 64.4179 16.3346 58.0416 9.95837C51.6654 3.58213 43.0174 0 34 0V0Z" fill="#23E249"/>
<path d="M35.9766 26.1073C35.5274 26.1244 35.0793 26.0507 34.6592 25.8906C34.2391 25.7305 33.8556 25.4873 33.5317 25.1755C33.2079 24.8638 32.9502 24.4899 32.7742 24.0762C32.5982 23.6625 32.5075 23.2175 32.5075 22.768C32.5075 22.3184 32.5982 21.8735 32.7742 21.4598C32.9502 21.0461 33.2079 20.6722 33.5317 20.3604C33.8556 20.0486 34.2391 19.8054 34.6592 19.6453C35.0793 19.4852 35.5274 19.4116 35.9766 19.4287C36.8402 19.4616 37.6574 19.8279 38.2568 20.4505C38.8561 21.0731 39.1909 21.9038 39.1909 22.768C39.1909 23.6322 38.8561 24.4628 38.2568 25.0855C37.6574 25.7081 36.8402 26.0743 35.9766 26.1073ZM24.5575 35.9964C22.9303 37.3467 29.0357 29.6821 31.2215 28.3221C33.4072 26.967 37.2783 27.9918 36.744 31.1296C36.2097 34.2721 32.8146 45.7398 32.0423 48.4696C31.2652 51.1993 36.8023 45.939 37.8952 45.2736C38.988 44.613 33.718 51.4616 31.2215 52.9041C28.7249 54.3467 24.9946 52.3941 25.7329 49.781C26.476 47.163 29.23 37.3953 30.3569 33.5193C31.4837 29.6384 26.1797 34.6461 24.5575 35.9964Z" fill="white"/>
</g>
<defs>
<clipPath id="clip0">
<rect width="68" height="68" fill="white"/>
</clipPath>
</defs>
</svg>
