<?xml version="1.0" standalone="no"?>
<!DOCTYPE svg PUBLIC "-//W3C//DTD SVG 1.1//EN" "http://www.w3.org/Graphics/SVG/1.1/DTD/svg11.dtd" >
<!--
2013-9-30: Created.
-->
<svg>
<metadata>
Created by iconfont
</metadata>
<defs>

<font id="iconfont" horiz-adv-x="1024" >
  <font-face
    font-family="iconfont"
    font-weight="500"
    font-stretch="normal"
    units-per-em="1024"
    ascent="896"
    descent="-128"
  />
    <missing-glyph />
    
    <glyph glyph-name="iconmima" unicode="&#58909;" d="M854.1696 491.623168l-68.886528 0c0 141.278208-123.38688 255.8464-275.56352 255.8464-152.175616 0-275.5584-114.568192-275.5584-255.8464l-68.891648 0c-38.075392 0-68.886528-28.622848-68.886528-63.975424l0-511.721472c0-35.385344 30.811136-64.047104 68.886528-64.047104l688.90112 0c38.075392 0 68.885504 28.66176 68.885504 64.047104L923.056128 427.647744C923.055104 463.00032 892.244992 491.623168 854.1696 491.623168zM509.718528 683.521792c113.969152 0 206.671872-86.07232 206.671872-191.898624L303.046656 491.623168C303.046656 597.449472 395.75552 683.521792 509.718528 683.521792zM578.612224 125.55136l0-145.7152L440.825856-20.16384l0 145.7152c-41.003008 22.235136-68.886528 62.934016-68.886528 110.19776 0 70.566912 61.754368 127.922176 137.7792 127.922176 76.025856 0 137.780224-57.356288 137.780224-127.922176C647.498752 188.485376 619.58144 147.786496 578.612224 125.55136z"  horiz-adv-x="1024" />

    
    <glyph glyph-name="46" unicode="&#59044;" d="M808.004267 610.929778 659.911111 610.929778 659.911111 634.311111c0 37.649067-30.6176 68.266667-68.266667 68.266667L443.733333 702.577778c-37.649067 0-68.266667-30.6176-68.266667-68.266667l0-23.381333L227.7376 610.929778c-50.267022 0-91.022222-40.7552-91.022222-91.022222l0-357.330489c0-50.267022 40.7552-91.022222 91.022222-91.022222l580.266667 0c50.267022 0 91.022222 40.7552 91.022222 91.022222L899.026489 519.907556C899.026489 570.185956 858.271289 610.929778 808.004267 610.929778zM420.977778 634.311111c0 12.549689 10.205867 22.755556 22.755556 22.755556l147.911111 0c12.549689 0 22.755556-10.205867 22.755556-22.755556l0-23.381333L420.977778 610.929778 420.977778 634.311111zM602.737778 402.0224c-11.992178-3.982222-24.814933 2.446222-28.797156 14.358756-4.869689 14.5408-22.471111 31.527822-56.069689 31.527822-27.591111 0-43.918222-18.454756-45.806933-36.681956-2.3552-22.766933 16.509156-40.584533 50.4832-47.695644 69.677511-14.597689 90.100622-61.348978 86.4256-96.938667-3.822933-36.852622-31.721244-66.070756-68.334933-74.774756l0-25.270044c0-12.561067-10.194489-22.755556-22.755556-22.755556s-22.755556 10.194489-22.755556 22.755556l0 24.484978c-43.451733 7.486578-68.152889 35.828622-76.470044 60.654933-3.9936 11.912533 2.434844 24.814933 14.358756 28.797156 11.901156 4.004978 24.814933-2.446222 28.797156-14.358756 4.869689-14.5408 22.482489-31.527822 56.069689-31.527822 27.591111 0 43.918222 18.454756 45.806933 36.681956 2.3552 22.766933-16.509156 40.584533-50.4832 47.695644-69.677511 14.597689-90.100622 61.348978-86.4256 96.938667 3.822933 36.852622 31.721244 66.070756 68.334933 74.774756l0 25.270044c0 12.561067 10.194489 22.755556 22.755556 22.755556s22.755556-10.194489 22.755556-22.755556l0-24.484978c43.463111-7.486578 68.164267-35.828622 76.470044-60.643556C621.078756 418.895644 614.638933 406.016 602.737778 402.0224z"  horiz-adv-x="1024" />

    
    <glyph glyph-name="heyue" unicode="&#58917;" d="M894.185422 541.863401C890.144386 659.602965 791.720749 752.089379 674.789597 748.007411c-57.94062-2.016937-111.23543-27.070542-150.225443-70.543659l-15.758915-16.040325-8.445346 9.089006c-40.079834 47.518247-99.151207 75.071789-161.575956 75.071789-116.971062 0-212.166167-95.797833-212.166167-213.619262 0-58.302871 22.988574-112.850208 64.807005-153.537885 0 0 18.467607-19.836791 43.719734-46.950312l-12.281721-12.564154c-21.98164-22.50455-21.494547-58.990532 1.050935-81.416288 11.030218-10.867512 25.573445-16.808828 40.929178-16.688077 2.62478 0.039909 4.968152 1.171686 7.55507 1.576915-0.566912-16.202007 4.927219-32.769334 17.574261-45.333488 13.980409-13.858636 32.770358-18.547425 50.42546-16.000416-1.211595-16.607236 3.880377-33.538861 16.649192-46.222741 13.613042-13.536294 32.081673-17.940604 49.616024-15.275915-0.687662-16.60519 4.846378-33.615609 17.816784-46.464241 11.79872-11.717879 27.315112-18.061354 43.517119-17.940604 12.20088 0.12075 23.153326 4.849448 32.685423 11.877515l2.100848-2.181689c15.030321-15.835663 34.669614-24.039509 53.53631-24.039509 14.628162 0 28.768207 5.052063 39.556924 15.352663 15.07023 14.46648 18.99154 35.96205 14.507412 56.970526 3.795443-0.684592 7.594979-2.423189 11.351536-2.423189 15.356756 0 30.141484 5.454222 41.657772 16.443507 15.678074 14.990413 20.122293 36.609803 16.000416 57.778938 4.042059-0.805342 8.039093-2.302439 12.121062-2.302439 15.192004 0 29.698392 5.252631 40.84936 15.919575 15.717983 15.030321 19.760043 37.294394 15.111163 58.910715 4.041036-0.769526 8.083096-2.548032 12.164041-2.548032 15.554254 0 30.584576 5.498224 42.342364 16.648169 11.637038 11.150968 18.262946 26.627451 18.710131 43.558052 0.483001 19.312858-7.233752 38.787398-21.173229 53.53324l-0.889253 1.010003 26.627451 26.949792C870.991164 418.71157 896.367111 479.036493 894.185422 541.863401L894.185422 541.863401zM285.167808 257.173476c-5.455245-5.575995-12.688997-8.646937-20.525476-8.727779-8.042163-0.039909-15.638165 3.070942-21.494547 8.807596-11.757788 11.717879-12.084223 30.66951-0.728594 42.346457l81.090876 82.990133c5.658883 5.816472 13.254885 8.726755 20.770046 8.726755 7.635911 0 15.311731-2.950192 21.253046-8.766664 11.673877-11.597129 12.08013-30.303166 0.967024-41.940205l-78.949097-80.808444c-0.160659-0.12075-0.160659-0.284479-0.281409-0.446162L285.167808 257.173476 285.167808 257.173476zM309.247226 196.769758c-12.443403 12.32163-13.372565 31.513738-2.423189 43.150776l79.033008 80.974219c0.080841 0.080841 0.12075 0.201591 0.201591 0.321318l2.221598 2.26253c5.17179 5.334495 12.240789 8.283664 19.998473 8.324596 8.645914 0.080841 16.929578-3.353374 23.315008-9.736758 12.526291-12.406564 13.456477-31.960922 2.060939-43.598984l-81.093946-83.069951C341.207126 183.759443 321.773518 184.363194 309.247226 196.769758L309.247226 196.769758zM419.59238 134.505669c-11.757788-12.000312-31.19242-11.95938-43.35339 0.080841-12.123109 12.000312-12.486382 31.55467-0.768503 43.558052l82.868359 84.84948c5.615904 5.695722 13.091156 8.887414 21.092387 8.968256 8.280594 0.080841 16.162098-3.151783 22.180162-9.049097 5.981225-5.901407 9.253758-13.81975 9.334599-22.143323 0.080841-7.918343-2.950192-15.312754-8.284687-21.012569l-80.68667-82.667791c-0.161682-0.12075-0.161682-0.36225-0.322341-0.523933L419.59238 134.505669 419.59238 134.505669zM467.75531 62.786231c-8.931416-0.039909-17.453511 3.514033-24.042579 10.019191-12.723789 12.647041-13.774725 32.487925-2.464121 44.528146l80.647785 82.627882c0.160659 0.12075 0.201591 0.2415 0.325411 0.402159l2.222621 2.263553c5.373381 5.498224 12.643971 8.525164 20.605294 8.606005 8.887414 0.080841 17.413602-3.474125 24.038486-10.0591 6.625908-6.505158 10.304693-15.071254 10.344602-24.039509 0.080841-7.961322-2.829442-15.436574-8.162914-20.890796l-82.868359-84.84948C482.987223 65.898105 475.673653 62.867072 467.75531 62.786231L467.75531 62.786231zM576.969711 56.241164c-5.579065-5.373381-12.929474-7.91732-20.770046-7.91732-11.432377 0-23.917736 5.414313-33.574676 15.675004 0 0-1.090844 1.130753-1.494027 1.576915l48.118927 49.334615c0.326435-0.366344 0.205685-0.849344 0.567935-1.211595l2.302439-2.427282C588.403111 93.937718 590.5848 69.250456 576.969711 56.241164L576.969711 56.241164zM783.074835 271.719774c-14.507412-13.858636-39.883359-11.274788-56.607252 5.735631-0.080841 0.12075-0.201591 0.161682-0.282433 0.2415l-91.113137 92.811826c-5.333472 5.41329-13.980409 5.535063-19.393699 0.12075-5.333472-5.334495-5.454222-14.060227-0.080841-19.47454l93.536326-95.395674c16.724917-17.779945 18.744923-43.35646 4.363378-57.091276-13.131065-12.607132-35.800367-10.868535-52.68799 3.997034-0.566912 0.487094-1.130753 0.648776-1.738597 1.011027l-90.911546 92.610234c-5.333472 5.454222-13.980409 5.494131-19.433608 0.161682-5.334495-5.374404-5.414313-14.141068-0.080841-19.555381l93.780897-95.516424c0.322341-0.285502 0.724501-0.406253 0.926092-0.688685 13.899568-17.09126 14.669094-40.527019 1.130753-53.375651-14.060227-13.452383-38.747489-10.948353-55.029314 5.656837-0.484024 0.566912-1.251503 0.36532-1.775436 0.808412l3.067872 3.151783c10.465352 10.747785 16.162098 25.133424 16.040325 40.527019-0.161682 16.322757-6.746658 31.760354-18.544355 43.474141-11.676947 11.556197-26.909883 17.899672-42.990117 17.899672l-0.523933 0c-2.548032-0.039909-4.64888-1.090844-7.072069-1.412163 0.080841 1.251503 0.688685 2.422166 0.688685 3.63376-0.124843 15.759939-6.384407 30.547737-17.578354 41.577954-11.150968 11.110035-25.939789 17.131169-41.533952 17.010419-3.799536-0.039909-7.151887-1.457188-10.750855-2.221598 0.325411 15.919575-5.290493 32.121582-17.696034 44.363394-11.556197 11.435447-26.546609 17.698081-42.302455 17.698081l-0.48607 0c-2.342348 0-4.403287-1.050935-6.665817-1.335415 0.808412 15.879666-4.364401 32.04074-16.60826 44.161802-22.546505 22.343891-58.786894 22.223141-80.808444-0.2415l-49.655933-50.867528-43.272549 46.584991c-36.891212 35.96205-56.929594 83.436294-56.929594 134.183072 0 102.589516 82.869383 186.025811 184.729282 186.025811 54.302767 0 105.737206-24.042579 140.930753-65.942875l9.576099-10.261715-69.175499-69.862137c0.124843-0.080841 0.366344-0.201591 0.487094-0.322341l-92.043323-92.00239c-5.212722-5.248537-5.857405-13.170974-0.849344-18.625196l10.787694-11.919471c30.547737-30.422893 70.992891-47.031153 113.944122-46.789653 42.989093 0.24457 83.271542 17.336854 113.533776 48.082088l52.043307 53.054333 161.536047-173.701111c9.012258-9.455349 13.980409-21.86089 13.657045-33.861202C793.012162 286.303934 789.374308 277.737838 783.074835 271.719774L783.074835 271.719774zM544.562627 658.432303c34.344203 38.385239 80.772628 60.162218 131.156132 61.941747 2.181689 0.039909 4.323469 0.080841 6.505158 0.080841 98.909707 0 181.090405-79.234599 184.528714-179.557492 1.896186-54.668087-20.203134-107.23328-60.568471-144.166447 0 0-10.465352-10.54517-26.627451-26.90886l-15.473413 16.442484L620.48376 541.058059c0 0-5.373381 1.332345-15.231913-9.736758l-5.901407-7.841595c-18.786878-19.067264-52.928466-53.696969-52.928466-53.696969-25.009603-25.493627-58.504462-39.677675-94.103238-39.879266l-0.806365 0c-35.273365 0-68.567655 13.737886-93.701079 38.748513 0 0-0.523933 0.566912-0.604774 0.647753"  horiz-adv-x="1024" />

    
    <glyph glyph-name="jiesuantixing" unicode="&#58922;" d="M659.329998 194.762031l0 14.82873 0 118.611421 44.482097 0 0-118.611421 88.960101 0 0-44.481074L659.329998 165.109688 659.329998 194.762031zM948.451862 194.762031 903.971811 194.762031c-4.098341 0-7.41283 3.316535-7.41283 7.414877l0 7.413853-0.376577 0c-3.924379 107.085924-91.738377 192.744839-199.783139 192.744839-110.548792 0-200.160739-89.610924-200.160739-200.159716 0-110.548792 89.610924-200.161762 200.160739-200.161762 47.708582 0 91.24719 16.998139 125.606743 44.899606l-88.539522 88.539522 177.920202 0 0-177.920202-47.2747 47.2747c-45.233204-38.558178-103.612823-62.102407-167.712723-62.102407-143.30073 0-259.467473 116.166743-259.467473 259.46952 0 143.30073 116.166743 259.46645 259.467473 259.46645 136.959302 0 248.564146-106.263186 258.207783-240.760412 0.723477-1.143033 1.258667-2.417049 1.258667-3.880377l0-14.82566C955.865715 198.078567 952.54918 194.762031 948.451862 194.762031zM570.371944 565.431166 570.371944 609.911216l148.266835 0 0-44.480051L570.371944 565.431166zM214.530516 209.590761l177.920202 0 0-44.481074L214.530516 165.109688 214.530516 209.590761zM496.238526 476.470041l0-44.480051L377.624035 431.989991l0-133.439128-44.480051 0 0 133.439128L214.530516 431.989991l0 44.480051 118.613468 0 0 88.961124L214.530516 565.431166 214.530516 609.911216l55.600319 0-55.600319 55.599296 33.359782 33.360805 88.961124-88.960101 37.066197 0 88.961124 88.960101 33.359782-33.360805-55.600319-55.599296 55.600319 0 0-44.480051L377.624035 565.431166l0-88.961124L496.238526 476.470041zM807.597857 743.350344c0 16.376992-13.276375 29.65439-29.652344 29.65439l-622.722754 0c-16.374946 0-29.653367-13.277398-29.653367-29.65439l0-682.027441c0-16.375969 13.277398-29.652344 29.653367-29.652344l289.562908 0c14.986319-22.082948 32.94739-41.904389 53.073776-59.307757L132.984269-27.637198c-36.849256 0-66.719564 29.870308-66.719564 66.718541L66.264705 765.590881c0 36.85028 29.870308 66.720587 66.719564 66.720587l667.200758 0c36.849256 0 66.720587-29.870308 66.720587-66.720587L866.905614 453.795623c-18.388812 12.481266-38.32691 22.790052-59.307757 31.04404L807.597857 743.350344z"  horiz-adv-x="1024" />

    
    <glyph glyph-name="ai-hot" unicode="&#58908;" d="M288-128c-249.6 108.8-313.6 217.6-275.2 364.8 25.6 108.8 128 192 140.8 300.8 38.4-57.6 38.4-102.4 44.8-160 121.6 121.6 249.6 281.6 224 428.8 0 0 307.2-172.8 326.4-403.2 25.6 44.8 64 211.2 38.4 256 83.2-51.2 544-505.6-89.6-787.2 121.6 185.6 32 435.2-172.8 550.4 12.8-51.2-6.4-179.2-96-262.4 19.2 83.2-32 166.4-32 166.4s-19.2-102.4-83.2-179.2c-57.6-70.4-102.4-147.2-25.6-275.2z"  horiz-adv-x="1027" />

    
    <glyph glyph-name="jiaoyijilu" unicode="&#58931;" d="M832.194 733.289l-58.217 0 0-58.214 29.109 0 0-465.717-232.869 0 0-232.859-349.303 0 0 698.577 29.109 0 0 58.214-58.217 0c-16.01 0-29.109-13.098-29.109-29.108l0-756.791c0-16.009 13.1-29.108 29.109-29.108l458.461 0 211.037 211.028 0 574.87c0 16.009-13.1 29.108-29.109 29.108l0 0zM628.434-23.503l0 174.644 174.651 0-174.651-174.644zM744.869 733.289l-116.434 0 0 58.214c0 32.018-26.197 58.214-58.217 58.214l-116.434 0c-32.023 0-58.217-26.196-58.217-58.214l0-58.214-116.434 0 0-116.43 465.738 0 0 116.43zM570.217 733.289l-116.434 0 0 58.11c0.032 0.036 0.064 0.073 0.105 0.105l116.221 0c0.041-0.032 0.079-0.068 0.109-0.105l0-58.11zM570.217 733.289zM555.492 370.549l71.502 0 0.116 47.148-47.149 0 76.946 141.734-80.422 0-52.971-117.305-22.338-0.099-54.196 117.403-80.415 0 76.542-141.734-47.746 0 0-47.175 70.985 0 6.937-14.389 0-22.855-77.92 0 0-47.158 77.92 0 0-68.503 75.404 0 0 68.503 78.426 0-0.006 47.158-78.4 0 0 22.855 6.788 14.419zM555.492 370.549z"  horiz-adv-x="1024" />

    
    <glyph glyph-name="shouji" unicode="&#58887;" d="M702.699388 835.054953 321.284238 835.054953c-57.463044 0-104.022314-46.591131-104.022314-104.018052l0-693.454702c0-57.426921 46.560293-104.019075 104.022314-104.019075l381.416174 0c57.463044 0 104.022314 46.592155 104.022314 104.019075L806.722726 731.036901C806.722726 788.462798 760.163456 835.054953 702.699388 835.054953zM477.317197 800.382269l69.349233 0c9.582632 0 17.336541-7.754614 17.336541-17.33583 0-9.582239-7.753909-17.336854-17.336541-17.336854l-69.349233 0c-9.581609 0-17.336541 7.754614-17.336541 17.336854C459.980656 792.627654 467.735588 800.382269 477.317197 800.382269zM511.992325-24.077116c-24.482581 0-44.324277 19.840884-44.324277 44.322461 0 24.480554 19.84272 44.322461 44.324277 44.322461 24.481557 0 44.324277-19.84293 44.324277-44.322461C556.317626-4.237255 536.473882-24.077116 511.992325-24.077116zM737.373493 124.263397c0-9.582239-7.753909-17.33583-17.336541-17.33583L303.946674 106.927567c-9.582632 0-17.337564 7.753591-17.337564 17.33583L286.60911 713.700047c0 9.582239 7.754932 17.33583 17.337564 17.33583l416.090278 0c9.582632 0 17.336541-7.754614 17.336541-17.33583L737.373493 124.263397z"  horiz-adv-x="1024" />

    
    <glyph glyph-name="mianfei" unicode="&#58927;" d="M742.15424 74.46656C675.26656 24.64128 595.68-1.69472 512-1.69472c-212.67328 0-385.696 173.02272-385.696 385.69728 0 81.248 24.95488 158.94528 72.1664 224.6912 16.49408 22.96832 11.2448 54.95936-11.72352 71.45216-22.96832 16.4928-54.95936 11.2448-71.45216-11.72352-59.78752-83.26016-91.39072-181.61024-91.39072-284.41984 0-65.87008 12.91264-129.79712 38.37696-190.00576 24.58624-58.12736 59.77216-110.32064 104.5824-155.13088 44.80896-44.80896 97.00352-79.99616 155.13088-104.5824 60.20864-25.4656 124.1344-38.37696 190.00448-38.37696 105.89056 0 206.62912 33.34912 291.32672 96.4416 22.67648 16.89216 27.3664 48.96896 10.47424 71.64672C796.91008 86.6688 764.832 91.36 742.15424 74.46656zM961.71776 574.00576c-24.58624 58.12864-59.77216 110.32192-104.5824 155.13088C812.3264 773.9456 760.13312 809.13152 702.0032 833.71776 641.79584 859.18336 577.87008 872.096 512 872.096c-105.8752 0-206.60352-33.34016-291.29216-96.416-22.67776-16.89088-27.37024-48.96768-10.47936-71.64544 16.8896-22.67776 48.96768-27.37024 71.64544-10.47936C348.75392 743.3664 428.33024 769.696 512 769.696c212.672 0 385.69472-173.02144 385.69472-385.69344 0-83.51232-26.23872-162.96704-75.87968-229.77536-16.864-22.69696-12.13568-54.76864 10.56128-71.63392 9.17504-6.81728 19.88096-10.10688 30.496-10.10688 15.64416 0.00128 31.08992 7.14496 41.13792 20.66688 62.85824 84.59904 96.08448 185.17248 96.08448 290.848C1000.09472 449.87136 987.18208 513.7984 961.71776 574.00576zM355.5712 652.02432c-24.39296-46.66368-51.4368-88.0256-93.32864-143.17312l87.4944 0c18.0288 22.272 34.46784 46.13376 49.31584 70.52672l219.0016 0c3.712 0 7.42528-2.12096 9.01504-4.77312 1.59232-3.1808 1.59232-6.8928 0.52992-10.07488l-37.64736-69.4656L315.80032 495.06432c-19.08992 0-34.99776-15.90784-34.99776-35.52896l0-97.57056c0-19.61984 15.90784-35.52896 34.99776-35.52896l120.9024 0c-36.5888-58.85952-95.97952-98.6304-165.44512-115.59936l0-60.45184c112.41856 18.0288 200.97408 74.76864 247.10784 165.97504L518.36544 186.4448c0-19.08992 15.90784-34.99904 35.52768-34.99904l207.86688 0 0 30.22592L618.5856 181.67168c-11.13472 0-19.61984 9.01376-19.61984 20.14976l0 124.61312 109.23776 0c20.14976 0 35.52768 15.90912 35.52768 35.52896l0 97.57056c0 19.62112-15.37792 35.52896-35.52768 35.52896l-36.06016 0 41.89312 77.41952c4.24192 7.95392 4.24192 16.96896-1.05984 24.92288-4.77312 7.95392-12.19712 12.19584-21.2096 12.19584L417.0816 609.60128c7.95392 13.78688 15.90912 28.10496 23.33312 42.42176L355.5712 652.02304zM452.61056 356.66304l-71.05664 0c-11.136 0-20.15104 9.01504-20.15104 20.14976l0 67.87456c0 11.136 9.01504 20.15104 20.15104 20.15104l93.85856 0C474.88128 424.5376 466.39744 388.47872 452.61056 356.66304zM663.1296 444.68736l0-67.87456c0-11.13472-9.01504-20.14976-20.15232-20.14976l-107.64544 0c11.13728 32.34688 16.97024 68.9344 18.03008 108.17536l89.61536 0C654.11456 464.8384 663.1296 455.82336 663.1296 444.68736z"  horiz-adv-x="1024" />

    
    <glyph glyph-name="guanyuwomen" unicode="&#58995;" d="M727.59 384.996c90.158 43.013 152.797 135.373 152.797 242.474 0 147.981-119.336 268.383-265.996 268.383-146.662 0-265.992-120.402-265.992-268.383 0-107.099 62.674-199.461 152.792-242.474-224.396-55.89-328.167-277.361-328.167-485.411 0-14.89 11.963-26.876 26.643-26.876 14.759 0 26.679 12.027 26.679 26.876 0 214.47 121.4 445.342 388.010 445.342 266.605 0 388.005-230.871 388.005-445.342 0-14.89 11.959-26.876 26.678-26.876 14.722 0 26.643 12.027 26.643 26.876 0.074 208.052-103.656 429.522-328.093 485.411M401.72 627.47c0 118.314 95.371 214.582 212.67 214.582 117.297 0 212.675-96.268 212.675-214.582 0-118.276-95.376-214.512-212.675-214.512-117.301 0-212.67 96.235-212.67 214.512M289.591 402.325c12.113 1.162 21.894 10.48 23.806 22.626 1.877 12.146-4.674 24.098-15.868 28.931-5.364 2.321-130.794 58.097-120.828 189.134 11.424 149.219 172.499 167.28 179.477 168.017 14.607 1.428 25.339 14.541 23.924 29.32-1.381 14.813-14.225 25.602-29.058 24.251-73.483-7.082-215.624-61.614-227.544-217.452-7.323-96.924 44.314-166.582 95.412-207.43-88.819-31.207-234.37-119.9-216.354-364.073 1.034-14.118 12.728-24.947 26.524-24.947 0.691 0 1.347 0 2.038 0.078 14.681 1.121 25.719 14.041 24.607 28.853-21.62 293.563 223.52 321.686 233.866 322.691M1105.17 647.152c-11.888 155.797-153.985 210.334-227.468 217.451-14.759 1.318-27.679-9.477-29.060-24.213-1.415-14.773 9.355-27.928 23.999-29.356 6.861-0.654 167.901-17.871 179.359-167.977 10.010-131.041-115.456-186.853-120.708-189.098-11.23-4.797-17.787-16.667-15.952-28.812 1.804-12.146 11.615-21.582 23.731-22.782 10.429-1.008 255.568-29.124 233.949-322.655-1.111-14.813 9.926-27.726 24.609-28.848 0.69-0.083 1.345-0.083 2.033-0.083 13.799 0 25.493 10.793 26.527 24.947 18.052 244.097-127.497 332.79-216.354 363.997 51.1 40.924 102.771 110.506 95.336 207.43z"  horiz-adv-x="1229" />

    
    <glyph glyph-name="yly_gangyinzhidaojia" unicode="&#58893;" d="M761.525 585.415h-89.058c-8.199 0-14.843-6.647-14.843-14.843 0-8.199 6.644-14.843 14.843-14.843h54.333l-167.326-167.325-110.726 110.723c-5.207 5.211-13.449 5.535-19.035 0.975-0.389-0.314-0.766-0.649-1.127-1.010l-180.076-180.072c-5.525-5.525-5.525-14.487 0-20.011 5.528-5.522 14.484-5.522 20.008 0l170.065 170.065 110.723-110.717c4.529-4.539 11.355-5.371 16.731-2.504 2.308 1.228 4.182 3 5.499 5.15l175.146 174.585v-54.072c0-8.199 6.644-14.843 14.843-14.843 8.196 0 14.843 6.644 14.843 14.843v89.058c0 8.195-6.647 14.842-14.843 14.842zM809.125 739.983h-267.172v29.689c0 16.395-13.29 29.686-29.686 29.686s-29.686-13.29-29.686-29.686v-29.689h-267.172c-65.582 0-118.743-53.161-118.743-118.743v-356.225c0-65.579 53.161-118.743 118.743-118.743h73.895l-124.679-124.674c-12.112-12.118-12.112-31.755 0-43.869 12.115-12.115 31.755-12.115 43.869 0l168.544 168.544h270.452l168.544-168.544c12.115-12.115 31.755-12.115 43.869 0 12.112 12.115 12.112 31.752 0 43.869l-124.679 124.674h73.898c65.579 0 118.743 53.164 118.743 118.743v356.225c-0.001 65.582-53.164 118.743-118.743 118.743zM868.496 265.015c0-32.791-26.581-59.374-59.371-59.374h-593.714c-32.791 0-59.371 26.583-59.371 59.374v356.225c0 32.791 26.581 59.374 59.371 59.374h593.714c32.791 0 59.371-26.583 59.371-59.374v-356.225z"  horiz-adv-x="1024" />

    
    <glyph glyph-name="icon-test" unicode="&#59024;" d="M879.202137 727.866767H710.502696v47.010671c0 13.80095-11.19721 25.002256-25.002256 25.002255-13.80095 0-25.002256-11.201305-25.002256-25.002255v-47.010671H357.093318v47.010671c0 13.80095-11.201305 25.002256-25.002256 25.002255-13.804022 0-25.002256-11.201305-25.002256-25.002255v-47.010671H143.731998c-12.957269 0-23.437759-10.547043-23.437759-23.505335v-712.811558c0-12.954197 10.48049-23.438783 23.437759-23.438782h735.470139c12.957269 0 23.505335 10.484586 23.505336 23.438782V704.361432c-0.001024 12.957269-10.548067 23.505335-23.505336 23.505335zM848.925848 21.761659h-129.111939c42.646872 13.150783 87.052778 31.512119 129.112963 56.904474v-56.904474zM594.544611 28.921689c57.167613 32.165357 120.648503 77.025869 157.044555 113.681987 17.904683-16.081143 44.859488-30.535332 69.925224-40.433231-77.282864-43.882701-162.512103-64.394196-226.969779-73.248756zM848.925848 126.7826c-25.979042 8.853536-75.655911 32.292319-82.949045 46.549923a16.484554 16.484554 0 0 1-12.827236 8.987665c-5.5341 0.650167-11.000624-1.49692-14.647703-5.664133-54.040667-62.830723-208.544963-153.464028-243.180956-154.894396H171.923657V430.971763h677.003215V126.7826zM848.925848 464.307422H171.923657V676.236326h135.166173v-29.558546c-24.415569-9.897899-41.736637-33.792311-41.736638-61.724927 0-36.786152 29.885165-66.671317 66.671317-66.671317 36.722671 0 66.671317 29.885165 66.671317 66.671317 0 27.865039-17.251444 51.760475-41.603532 61.657351v29.625098h303.40589v-30.471852c-23.308749-10.417009-39.586478-33.725759-39.586478-60.810597 0-36.786152 29.885165-66.671317 66.671317-66.671317 36.722671 0 66.671317 29.885165 66.671317 66.671317 0 28.711792-18.358264 52.997328-43.752668 62.37407v28.908379h138.423152v-211.92788zM476.112819 209.92516c-13.280817-31.382085-23.048683-70.188363-29.234997-116.478218h78.719375c2.60374 33.205625 7.55013 62.047451 15.037804 86.46302 9.440223 31.448638 22.268482 59.834834 38.546211 85.422753 13.347369 21.095109 30.145232 40.693298 50.133521 58.664533v53.257395H398.893436V310.71336h140.373654c-28.778345-35.872846-49.873454-69.406115-63.154271-100.7882z"  horiz-adv-x="1024" />

    
    <glyph glyph-name="42" unicode="&#59009;" d="M283.136 806.912h420.352c42.496 0 77.312-34.816 77.312-77.312v-717.312c0-42.496-34.816-77.312-77.312-77.312h-420.352c-42.496 0-77.312 34.816-77.312 77.312v717.312c0 42.496 34.816 77.312 77.312 77.312zM270.336 682.496v-306.688h443.392v306.688h-443.392zM384 766.464v-32.768h201.728v32.768h-201.728zM446.976 342.528c-14.848 0-27.136-12.288-27.136-27.136v-41.984c0-14.848 12.288-27.136 27.136-27.136h82.432c14.848 0 27.136 12.288 27.136 27.136v41.984c0 14.848-12.288 27.136-27.136 27.136h-82.432zM400.384 309.248h-122.368v-29.696h122.368v29.696zM698.368 309.248h-122.368v-29.696h122.368v29.696zM399.872 220.16h-122.368v-57.856h122.368v57.856zM549.376 220.16h-122.88v-57.856h122.368v57.856h0.512zM697.344 220.16h-122.368v-57.856h122.368v57.856zM399.872 144.896h-122.368v-57.856h122.368v57.856zM549.376 144.896h-122.88v-57.856h122.368v57.856h0.512zM697.344 144.896h-122.368v-57.856h122.368v57.856zM399.872 64.512h-122.368v-57.856h122.368v57.856zM549.376 64.512h-122.88v-57.856h122.368v57.856h0.512zM697.344 64.512h-122.368v-57.856h122.368v57.856z"  horiz-adv-x="1024" />

    
    <glyph glyph-name="shouji1" unicode="&#58942;" d="M737.004 829.886H287.49c-29.913 0-54.156-24.243-54.156-54.15v-785.733c0-29.909 24.243-54.15 54.156-54.15h449.513c29.903 0 54.149 24.242 54.149 54.15V775.736c0 29.902-24.246 54.15-54.15 54.15z m-274.905-67.702h100.287c7.917 0 14.331-6.41 14.331-14.327 0-7.912-6.414-14.328-14.331-14.328H462.099c-7.912 0-14.323 6.416-14.323 14.328 0 7.916 6.411 14.327 14.323 14.327z m50.142-783.833c-24.53 0-44.41 19.885-44.41 44.41 0 24.53 19.88 44.421 44.41 44.421 24.532 0 44.416-19.89 44.416-44.42 0-24.526-19.884-44.41-44.416-44.41z m226.366 126.075h-452.73V686.09h452.73v-581.665z m0 0"  horiz-adv-x="1024" />

    
    <glyph glyph-name="qiandaoguanli" unicode="&#58971;" d="M834.397091 695.063273a38.050909 38.050909 0 0 1-10.356364-50.688 350.161455 350.161455 0 0 0 51.362909-183.389091c0-66.792727-33.233455-149.015273-98.746181-244.433455L543.790545-18.059636a39.796364 39.796364 0 0 0-63.604363 0l-230.749091 231.773091-2.397091 3.16509c-27.461818 39.168-98.443636 143.569455-98.443636 244.13091 0 65.396364 17.640727 128.139636 51.339636 183.38909a38.027636 38.027636 0 0 1-10.333091 50.688c-18.688 13.591273-45.428364 8.517818-57.367273-11.077818A426.077091 426.077091 0 0 1 69.818182 461.009455c0-128.395636 86.737455-251.694545 115.246545-292.212364l273.943273-270.312727A66.187636 66.187636 0 0 1 512.023273-128c20.852364 0 40.657455 9.890909 52.968727 26.484364l261.352727 253.602909 12.706909 16.919272C916.549818 280.762182 954.181818 376.273455 954.181818 461.009455c0 79.476364-21.457455 155.741091-62.417454 222.952727-11.938909 19.595636-38.679273 24.669091-57.367273 11.101091z m-487.005091-135.633455c-18.571636 12.986182-44.078545 5.585455-53.713455-14.731636a232.168727 232.168727 0 0 1-22.272-92.858182c-3.770182-128.954182 103.377455-240.477091 234.449455-243.712 135.517091-3.328 246.830545 104.145455 246.830545 236.730182a232.401455 232.401455 0 0 1-20.526545 95.883636c-10.146909 22.504727-38.376727 30.673455-58.786909 16.430546l-0.465455-0.325819c-15.709091-10.961455-20.061091-31.115636-12.334545-48.47709a156.392727 156.392727 0 0 0 13.358545-63.534546c0-94.091636-83.386182-169.378909-181.271272-158.161454-71.377455 8.145455-130.513455 64.279273-140.8 134.23709a157.882182 157.882182 0 0 0 12.567272 89.6c7.354182 15.965091 3.374545 34.676364-11.147636 44.846546l-5.888 4.072727zM465.454545 444.858182a46.545455 46.545455 0 1 1 93.09091 0 46.545455 46.545455 0 0 1-93.09091 0zM279.668364 735.953455C344.785455 789.410909 426.053818 818.501818 512 818.501818c85.946182 0 167.214545-29.090909 232.354909-82.548363a39.726545 39.726545 0 0 1 52.782546 2.071272c16.407273 15.941818 15.685818 42.589091-2.001455 57.181091C715.799273 860.485818 616.773818 895.976727 512 895.976727c-104.773818 0-203.799273-35.490909-283.112727-100.770909-17.687273-14.568727-18.432-41.239273-2.001455-57.181091a39.726545 39.726545 0 0 1 52.782546-2.094545z m374.807272-131.677091l1.024 0.930909a37.888 37.888 0 0 1-4.514909 58.88A240.989091 240.989091 0 0 1 512 707.490909c-50.688 0-98.676364-15.150545-138.984727-43.357091a37.888 37.888 0 0 1-4.491637-58.88l1.024-0.954182c13.824-12.962909 34.629818-13.288727 50.315637-2.56a162.164364 162.164364 0 0 0 92.16 28.253091c33.512727 0 65.303273-9.867636 92.16-28.229818 15.639273-10.752 36.468364-10.426182 50.292363 2.536727z"  horiz-adv-x="1024" />

    
    <glyph glyph-name="wodeweituo" unicode="&#58903;" d="M929.557755 19.994507c-13.598624-19.797997-28.397127-36.996257-46.795266-51.59478-33.196641-26.397329-70.792838-43.995549-110.588811-57.594173-33.796581-11.598827-68.393081-20.597916-103.7895-25.59741-20.597916-2.999697-41.195832-6.199373-61.993728-8.399151-17.798199-1.999798-35.796378-2.999697-53.794557-3.599635-22.797694-0.799919-45.795367-1.599838-68.79304-0.999899-21.797795 0.599939-43.39561 2.599737-65.193405 4.599534-16.7983 1.599838-33.796581 2.999697-50.394901 6.199373-27.997167 5.199474-55.994335 10.998887-83.591543 17.7982-31.596803 7.799211-61.793748 19.398037-90.790814 33.99656-23.797592 11.998786-45.995347 26.397329-65.393384 44.595488-27.597208 25.99737-46.195326 57.594173-61.593769 91.590734-13.598624 30.196945-23.997572 61.393789-31.396823 93.590531-5.599433 24.197552-10.198968 48.595084-13.998584 72.992615C18.049974 259.370289 16.050176 281.368063 14.050378 303.365838c-1.399858 14.598523-1.999798 29.197046-2.399757 43.795569-0.599939 18.998078-1.399858 37.796176-0.999899 56.594274 0.599939 23.597613 1.399858 47.195225 3.599636 70.792838 4.399555 47.795164 11.598827 94.99039 23.997572 141.385696 7.999191 29.796985 17.798199 58.794052 30.796885 86.791219 10.998887 23.397633 23.797592 45.595387 39.995953 65.793344 16.598321 20.797896 37.196237 37.196237 59.99393 51.19482 29.597006 17.998179 61.193809 31.196844 94.190471 41.595792 31.596803 9.998988 63.793546 17.798199 96.590228 22.597713 18.198159 2.599737 36.196338 5.199474 54.394497 7.199272 16.99828 1.799818 34.19654 2.999697 51.3948 3.599636C493.801841 895.50593 521.998988 896.505829 549.996156 895.70591c23.397633-0.599939 46.995245-3.599636 70.392878-5.599434 39.995954-3.599636 79.391968-11.598827 117.988063-21.997774 26.397329-7.199272 52.394699-16.198361 77.19219-27.597208 21.197855-9.799009 41.395812-20.997876 60.19391-34.996459 25.79739-19.198058 46.195326-43.19563 62.193708-70.992818 17.59822-30.596904 31.196844-62.593667 40.595893-96.390248 7.599231-26.997269 13.598624-54.594477 19.198058-82.191685 4.199575-20.597916 6.999292-41.595792 9.599029-62.393687 1.599838-11.598827 2.199777-23.397633 2.599737-35.196439 0.999899-36.396318 2.399757-72.792635 2.199777-108.988974-0.19998-21.797795-2.999697-43.39561-4.599535-65.193404-0.19998-1.199879 0-2.399757 0-3.599636-0.19998-9.599029-0.19998-9.799009-8.999089-7.799211-39.595994 8.79911-78.192089 20.997876-115.188346 37.596197-41.995751 18.798098-83.191583 39.595994-124.587396 59.593971-14.798503 7.199272-30.396925 12.598725-46.795265 12.198765-14.798503-0.39996-29.796985-2.999697-44.195529-6.399352-35.596399-7.999191-70.792838-17.798199-106.389236-25.59741-36.396318-7.799211-73.192595-14.198564-109.988873-20.997876-14.598523-2.599737-29.597006-4.199575-44.395508-5.999393-6.799312-0.799919-10.398948-5.199474-11.598827-14.598523-3.999595-32.196743 19.598017-61.993728 47.995145-70.992818 9.599029-2.999697 20.397936-3.599636 30.596904-3.999595 17.798199-0.599939 35.596399-0.799919 53.194618 0 21.397835 0.999899 42.595691 2.999697 63.993526 4.599535 13.598624 0.999899 26.997269 2.399757 40.595893 3.799615 7.799211 0.799919 15.398442 1.399858 23.197653 2.399757 14.398543 1.799818 15.598422-7.399251 12.798705-18.398138-3.399656-13.198665-12.798705-22.197754-23.597613-29.796986-24.397532-16.99828-51.99474-27.197248-80.191886-36.196338-16.398341-5.199474-32.996662-10.998887-49.794963-13.398644-18.198159-2.399757-37.196237-1.999798-55.594375-1.199879-14.198564 0.599939-28.397127 3.799616-42.395711 5.799414-19.198058 2.599737-36.396318 9.998988-53.394598 19.198057-21.397835 11.798806-43.39561 22.797694-65.993323 32.596703-28.597107 12.398746-57.594173 23.597613-86.991199 34.19654-15.198462 5.599433-30.996864 9.799009-47.795164 9.599029-30.996864-0.599939-46.195326-21.597815-44.795468-49.195023 0.19998-1.999798 2.399757-4.399555 4.399555-5.599434 32.796682-21.397835 65.593364-42.99565 98.790005-63.793546 33.796581-21.197855 68.193101-41.595792 102.189661-62.793647 15.798402-9.998988 30.996864-20.997876 46.795266-31.196843 24.397532-15.998381 48.995043-31.796783 77.39217-40.395913 15.998381-4.799514 32.196743-6.399353 48.395104-3.399656 47.995144 8.99909 95.790309 18.398139 143.585473 27.797187 28.197147 5.599433 56.394294 11.598827 84.591441 16.798301 21.997774 3.999595 44.395508 6.399353 66.593263 9.998988 22.197754 3.799616 43.19563-1.599838 64.393485-6.399352 23.597613-5.199474 46.995245-11.198867 70.592858-16.798301 1.799818-0.599939 2.999697-1.199879 4.599535-1.799818zM422.009105 542.9416c-60.39389 0-120.78778 0-181.38165-0.19998-4.999494 0-9.998988-0.799919-14.598523-2.199778-27.197248-7.799211-36.796277-38.596095-26.997268-62.593667 7.799211-19.398037 23.597613-27.197248 43.595589-27.197248 110.788791-0.19998 221.577583-0.19998 332.366374 0 11.798806 0 23.597613 0.39996 35.396419 1.199878 10.798907 0.799919 19.398037 6.399353 26.397329 14.598523 8.99909 10.798907 11.398847 23.597613 9.799009 37.396217-1.399858 11.598827-6.399353 21.397835-15.198463 28.797086-8.59913 7.599231-19.198058 9.998988-30.396924 9.998989-59.593971 0.19998-119.187942 0.19998-178.981892 0.19998z m-0.39996 184.981285H242.027314c-4.599535 0-9.199069-0.39996-13.598625-1.599838-29.397026-7.599231-38.996055-38.796075-28.997066-63.393587 7.799211-19.198058 23.397633-26.997269 43.19563-26.997268 114.188447-0.19998 228.576874-0.19998 342.765322 0 8.19917 0 16.398341 0.39996 24.597511 1.199878 14.198564 1.199879 24.597511 8.79911 31.396824 20.797896 5.399454 9.599029 6.999292 19.997977 5.399453 30.996864-1.599838 12.198766-6.799312 22.197754-16.59832 29.796985-8.59913 6.799312-18.598118 9.199069-28.997067 9.19907-59.99393 0.19998-119.787881 0-179.581831 0z"  horiz-adv-x="1024" />

    
    <glyph glyph-name="zhidaoshu-" unicode="&#58890;" d="M889.856 723.968a29.696 29.696 0 0 1-31.744-31.744v-635.392a68.096 68.096 0 0 0-62.976-63.488H241.152c-37.888 0-81.92 31.744-81.92 63.488V128c0 31.744 37.888 51.2 75.776 51.2h528.896a29.696 29.696 0 0 1 31.744 31.744V730.112A113.152 113.152 0 0 1 669.696 844.8H241.152C171.52 844.8 102.4 806.4 102.4 730.112v-698.88A134.656 134.656 0 0 1 222.208-76.8h573.44A125.952 125.952 0 0 1 921.6 44.032V691.2a33.792 33.792 0 0 1-31.744 31.744zM768 114.176H256a31.744 31.744 0 0 1 0-63.488h512a31.744 31.744 0 0 1 0 63.488z"  horiz-adv-x="1024" />

    
    <glyph glyph-name="piliangfenpeiziyuan" unicode="&#58907;" d="M960-128h-128a64 64 0 0 0-64 64v128a64 64 0 0 0 64 64v64a64 64 0 0 1-64 64H576v-128a64 64 0 0 0 64-64v-128a64 64 0 0 0-64-64H448a64 64 0 0 0-64 64v128a64 64 0 0 0 64 64v128H256a64 64 0 0 1-64-64v-64a64 64 0 0 0 64-64v-128a64 64 0 0 0-64-64H64a64 64 0 0 0-64 64v128a64 64 0 0 0 64 64v128a128 128 0 0 0 128 128h256V576H384a64 64 0 0 0-64 64V832a64 64 0 0 0 64 64h256a64 64 0 0 0 64-64v-192a64 64 0 0 0-64-64H576v-192h256a128 128 0 0 0 128-128v-128a64 64 0 0 0 64-64v-128a64 64 0 0 0-64-64z"  horiz-adv-x="1024" />

    
    <glyph glyph-name="guanyuwomen1" unicode="&#58928;" d="M256 500.363636a186.181818 186.181818 0 0 0 207.802182 184.971637c80.733091-9.122909 148.154182-72.238545 161.768727-152.366546a185.972364 185.972364 0 0 0-83.293091-189.393454c103.307636-36.026182 181.154909-125.952 199.307637-236.078546A22.341818 22.341818 0 0 0 719.685818 81.454545h-2.257454c-11.101091 0-20.061091 8.308364-21.922909 19.269819C675.165091 221.858909 569.553455 314.181818 442.181818 314.181818S209.198545 221.858909 188.834909 100.724364c-1.838545-10.961455-10.798545-19.269818-21.899636-19.269819h-2.257455a22.341818 22.341818 0 0 0-21.922909 26.042182c18.176 110.126545 96.023273 200.029091 199.330909 236.078546A185.809455 185.809455 0 0 0 256 500.363636z m46.545455 0a139.636364 139.636364 0 0 1 279.272727 0 139.636364 139.636364 0 0 1-279.272727 0zM713.053091 374.411636a157.323636 157.323636 0 0 1 72.843636 132.701091 157.602909 157.602909 0 0 1-135.144727 155.950546 19.805091 19.805091 0 0 1-22.388364-19.665455c0-9.728 7.121455-17.92 16.756364-19.316363a118.225455 118.225455 0 0 0 101.399273-116.968728 118.225455 118.225455 0 0 0-100.328728-116.829091 20.829091 20.829091 0 0 1-17.826909-20.573091v-0.162909c0-10.658909 7.959273-19.874909 18.571637-20.759272 99.095273-8.354909 179.176727-82.944 195.653818-179.130182 1.652364-9.681455 9.565091-16.989091 19.386182-16.989091h0.209454a19.781818 19.781818 0 0 1 19.316364 23.226182c-15.732364 92.625455-81.408 168.168727-168.448 198.516363"  horiz-adv-x="1024" />

    
    <glyph glyph-name="zuoyezhidaoshu" unicode="&#58905;" d="M843.851852 395.851852h23.703704c33.185185 0 59.259259 26.074074 59.259259 59.259259v196.740741c0 33.185185-26.074074 59.259259-59.259259 59.259259h-194.370371c-33.185185 0-59.259259-26.074074-59.259259-59.259259v-194.370371c0-33.185185 26.074074-59.259259 59.259259-59.259259h80.592593c7.111111 0 11.851852 4.740741 11.851852 11.851852s-4.740741 11.851852-11.851852 11.851852h-80.592593c-21.333333 0-35.555556 16.592593-35.555555 35.555555v194.370371c0 21.333333 16.592593 35.555556 35.555555 35.555555h194.370371c21.333333 0 35.555556-16.592593 35.555555-35.555555v-142.222222c-2.37037 2.37037-7.111111 2.37037-11.851852 2.37037h-23.703703c-28.444444 0-52.148148-23.703704-52.148149-52.148148v-33.185185c0-18.962963 14.222222-30.814815 28.444445-30.814815z m-4.740741 61.629629c0 16.592593 14.222222 28.444444 30.814815 28.444445h23.703704c7.111111 0 11.851852-4.740741 11.851851-11.851852v-21.333333c0-21.333333-16.592593-35.555556-35.555555-35.555556h-23.703704c-2.37037 0-4.740741 2.37037-4.740741 4.740741v35.555555zM677.925926 618.666667h194.37037c7.111111 0 11.851852 4.740741 11.851852 11.851852s-4.740741 11.851852-11.851852 11.851851h-194.37037c-7.111111 0-11.851852-4.740741-11.851852-11.851851s4.740741-11.851852 11.851852-11.851852zM884.148148 559.407407c0 7.111111-4.740741 11.851852-11.851852 11.851852h-194.37037c-7.111111 0-11.851852-4.740741-11.851852-11.851852s4.740741-11.851852 11.851852-11.851851h194.37037c4.740741 0 11.851852 4.740741 11.851852 11.851851zM677.925926 497.777778c-7.111111 0-11.851852-4.740741-11.851852-11.851852s4.740741-11.851852 11.851852-11.851852h113.777778c7.111111 0 11.851852 4.740741 11.851852 11.851852s-4.740741 11.851852-11.851852 11.851852h-113.777778zM168.296296 668.444444c78.222222-18.962963 144.592593 40.296296 144.592593 111.407408C312.888889 843.851852 260.740741 896 199.111111 896 123.259259 896 66.37037 824.888889 87.703704 746.666667c9.481481-37.925926 42.666667-68.740741 80.592592-78.222223zM317.62963 507.259259c0 9.481481 7.111111 18.962963 18.962963 18.962963l210.962963 2.370371c9.481481 0 16.592593 4.740741 21.333333 11.851851l33.185185 61.62963c4.740741 9.481481 0 18.962963-11.851852 21.333333L338.962963 635.259259H215.703704l9.481481-16.592592-11.851852-23.703704 23.703704-175.407407c0-7.111111-2.37037-14.222222-7.111111-18.962963l-33.185185-33.185186v-2.37037l-2.370371 2.37037-2.37037-2.37037v2.37037l-33.185185 35.555556c-4.740741 4.740741-7.111111 11.851852-7.111111 18.962963l23.703703 175.407407-11.851851 23.703704 14.222222 14.222222H71.111111c-7.111111 0-14.222222-4.740741-16.592592-14.222222 0 0-59.259259-218.074074-52.148149-286.814815l2.370371-2.37037c14.222222-11.851852 56.888889-42.666667 56.888889-42.666667 9.481481-7.111111 14.222222-16.592593 11.851851-26.074074l-21.333333-367.407407c0-11.851852 9.481481-23.703704 21.333333-23.703704h64c11.851852 0 21.333333 9.481481 21.333334 21.333333l16.592592 324.740741h45.037037l21.333334-324.740741c0-11.851852 9.481481-18.962963 21.333333-18.962963h56.888889c11.851852 0 21.333333 9.481481 21.333333 21.333334L327.111111 279.703704l-9.481481 227.555555zM955.259259 874.666667H384c-18.962963 0-35.555556-16.592593-35.555556-35.555556s16.592593-35.555556 35.555556-35.555555h571.259259c16.592593 0 30.814815-14.222222 30.814815-30.814815V232.296296c0-16.592593-14.222222-30.814815-30.814815-30.814815H384c-18.962963 0-35.555556-16.592593-35.555556-35.555555s16.592593-35.555556 35.555556-35.555556h194.37037v-116.148148c0-18.962963 14.222222-33.185185 33.185186-33.185185s33.185185 14.222222 33.185185 33.185185v116.148148h310.518518c56.888889 0 101.925926 45.037037 101.925926 101.925926V772.740741c0 56.888889-45.037037 101.925926-101.925926 101.925926zM805.925926-40.296296H417.185185c-18.962963 0-35.555556-16.592593-35.555555-35.555556s16.592593-35.555556 35.555555-35.555555H805.925926c18.962963 0 35.555556 16.592593 35.555555 35.555555s-16.592593 35.555556-35.555555 35.555556z"  horiz-adv-x="1057" />

    
    <glyph glyph-name="gupiao" unicode="&#58987;" d="M273.066667 97.28H157.013333c-6.826667 0-13.653333 6.826667-13.653333 13.653333v213.902223c0 6.826667 6.826667 13.653333 13.653333 13.653333H273.066667c6.826667 0 13.653333-6.826667 13.653333-13.653333v-213.902223c0-6.826667-4.551111-13.653333-13.653333-13.653333z m195.697777 0h-118.328888c-6.826667 0-13.653333 6.826667-13.653334 13.653333V607.004444c0 6.826667 6.826667 13.653333 13.653334 13.653334h118.328888c6.826667 0 13.653333-6.826667 13.653334-13.653334v-496.071111c0-6.826667-6.826667-13.653333-13.653334-13.653333z m195.697778 0H546.133333c-6.826667 0-13.653333 6.826667-13.653333 13.653333V468.195556c0 6.826667 6.826667 13.653333 13.653333 13.653333h118.328889c6.826667 0 13.653333-6.826667 13.653334-13.653333v-357.262223c0-6.826667-6.826667-13.653333-13.653334-13.653333z m195.697778 0h-118.328889c-6.826667 0-13.653333 6.826667-13.653333 13.653333V745.813333c0 6.826667 6.826667 13.653333 13.653333 13.653334h118.328889c6.826667 0 13.653333-6.826667 13.653333-13.653334v-634.88c0-6.826667-6.826667-13.653333-13.653333-13.653333z m20.48-100.124444H134.257778c-6.826667 0-13.653333 6.826667-13.653334 13.653333v27.306667c0 6.826667 6.826667 13.653333 13.653334 13.653333h746.382222c6.826667 0 13.653333-6.826667 13.653333-13.653333V8.533333c0-6.826667-4.551111-11.377778-13.653333-11.377777z m0 0"  horiz-adv-x="1024" />

    
    <glyph glyph-name="xingming" unicode="&#59014;" d="M1024.2-18.1c0-32.7-12.8-78.5-70.4-78.5H70.4C12.8-96.5 0-50.8 0-18.1 0 93.1 96 250 268.9 250c0 0 51.2-85 243.3-85 192 0 243.2 85 243.2 85 172.8 0 268.8-156.9 268.8-268.1zM518.5 864.5c-147.2 0-268.9-137.3-268.9-307.3S371.3 250 518.5 250s268.9 137.3 268.9 307.3S665.7 864.5 518.5 864.5z m0 0"  horiz-adv-x="1024" />

    
    <glyph glyph-name="bangzhuzhongxin" unicode="&#59242;" d="M512-64C265.6-64 64 137.6 64 384S265.6 832 512 832s448-201.6 448-448-201.6-448-448-448z m0 64c211.2 0 384 172.8 384 384S723.2 768 512 768 128 595.2 128 384s172.8-384 384-384z m0 160c-19.2 0-32 12.8-32 32s12.8 32 32 32 32-12.8 32-32-12.8-32-32-32z m12.8 131.2c-16-6.4-35.2 0-41.6 12.8s0 35.2 12.8 41.6c86.4 44.8 140.8 89.6 140.8 131.2 0 51.2-44.8 96-99.2 96-38.4 0-73.6-22.4-86.4-57.6 0-3.2-3.2-9.6-3.2-16-3.2-16-19.2-28.8-38.4-25.6-16 3.2-28.8 19.2-25.6 38.4 3.2 9.6 6.4 22.4 9.6 32 25.6 57.6 83.2 96 147.2 96 89.6 0 163.2-70.4 163.2-160 0-76.8-67.2-134.4-179.2-188.8z"  horiz-adv-x="1024" />

    
    <glyph glyph-name="tianjia" unicode="&#59279;" d="M544 416h160c19.2 0 32-12.8 32-32s-12.8-32-32-32h-160v-160c0-19.2-12.8-32-32-32s-32 12.8-32 32v160h-160c-19.2 0-32 12.8-32 32s12.8 32 32 32h160v160c0 19.2 12.8 32 32 32s32-12.8 32-32v-160z m-32-480c-246.4 0-448 201.6-448 448s201.6 448 448 448 448-201.6 448-448-201.6-448-448-448z m0 64c211.2 0 384 172.8 384 384s-172.8 384-384 384-384-172.8-384-384 172.8-384 384-384z"  horiz-adv-x="1024" />

    
    <glyph glyph-name="icon--" unicode="&#59240;" d="M512 61.44c20.48 0 38.4 17.92 38.4 38.4s-17.92 38.4-38.4 38.4-38.4-17.92-38.4-38.4 17.92-38.4 38.4-38.4z m192 742.4h-384c-56.32 0-102.4-46.08-102.4-102.4v-614.4c0-56.32 46.08-102.4 102.4-102.4h384c56.32 0 102.4 46.08 102.4 102.4v614.4c0 56.32-46.08 102.4-102.4 102.4z m51.2-716.8c0-28.16-23.04-51.2-51.2-51.2h-384c-28.16 0-51.2 23.04-51.2 51.2v76.8h486.4v-76.8z m0 128h-486.4v409.6h486.4v-409.6z m0 460.8h-486.4v25.6c0 28.16 23.04 51.2 51.2 51.2h384c28.16 0 51.2-23.04 51.2-51.2v-25.6z"  horiz-adv-x="1024" />

    
    <glyph glyph-name="kefu1" unicode="&#59312;" d="M870.1 333.6v25.5c2 116.5-32.2 214.5-99.6 284-32.2 33.2-71 58.2-116 75.6-7.2 62.8-74.6 112.4-156.8 112.4-82.2 0-150.2-49.5-156.8-112.4-45-17.4-83.8-42.4-116-75.6-67.4-69.5-101.7-167-99.6-283.5v-31.2c-17.4-17.9-31.2-44.4-20.9-82.2 7.7-28.1 28.1-48.5 53.1-57.7 12.8-8.2 27.6-12.8 43.9-12.8 32.2-141 148.1-237 299.9-237 151.7 0 267.7 96 299.9 237.5 1 0 2-0.5 3.1-0.5 19.9 0 38.3 7.2 53.1 18.9 18.9 10.7 33.7 29.1 39.8 52.1 10.7 41-7.2 69.1-27.1 86.9z m-88.9-77.1c0-18.9-1.5-36.8-4.1-54.1-49.5-79.7-131.3-131.8-232.9-143-7.7 10.2-23 16.9-40.9 16.9-25.5 0-46-13.8-46-31.2 0-16.9 20.4-31.2 46-31.2 23 0 41.4 11.2 45.5 26.1 32.7 3.6 63.9 11.7 93.5 23.5 41.9 16.9 78.7 41.9 109.8 73.6 5.1 5.1 9.7 10.2 14.3 15.8-36.8-113-135.4-185.5-263.6-185.5h-1c-165 0-279.9 119-279.9 289.1l-0.5 16.3c0 7.2 1 26.6 2 45 68.5 25 130.3 120.6 155.3 164.5 23-31.2 75.6-91.4 156.3-122.6 30.1-11.7 60.8-17.9 90.9-24.5 59.8-12.8 116.5-25 154.8-75.1l1.5-1.5-1-2.1z m0 0"  horiz-adv-x="1024" />

    
    <glyph glyph-name="tuiguang1" unicode="&#58912;" d="M802.15 805.86c15.92 1.75 32.46-1.34 46.26-9.63 15.12-9.01 27.03-22.54 36.73-37.06 9.92-14.72 17.22-30.99 23.64-47.49 13.72-34.75 22.76-71.16 29.51-107.85 6.43-34.63 10.61-69.65 13.3-104.76 2.49-33.97 3.64-68.06 2.32-102.11-2.47-56.73-10.92-113.44-28.01-167.68-7.23-22.47-15.71-44.62-26.69-65.54-8.71-17.36-19.43-33.99-33.54-47.46-8.3-8.21-18.21-14.9-29.2-18.91-11.12-3.63-23.28-4.35-34.63-1.36-12.25 3.13-23.08 10.18-32.63 18.26-8.53 7.1-15.84 15.48-23.3 23.65-21.2 22.46-48.18 38.7-76.52 50.53-41.56 18.25-85.31 31.01-129.52 41.06-45.45 10.69-91.71 17.21-137.8 24.4-41.05 6.41-82.3 11.89-122.94 20.67-8.99 2.12-18.18 4.43-26.1 9.37-2.72 1.8-5.89 4.41-5.55 8.03 0.05 96.95-0.02 193.89 0.03 290.84 1.15 6.52 6.49 11.37 11.86 14.74 9.05 5.7 19.47 8.52 29.61 11.57 28.71 8.15 58.17 13.17 87.47 18.62 26.55 4.94 53.18 9.4 79.66 14.65 58.88 12.37 117.08 29.37 171.65 54.97 36.21 16.07 69.77 38.08 98.89 64.94 13.27 12.32 27.19 24.26 43.26 32.81 9.98 5.46 20.88 9.46 32.24 10.74zM87.1 561.99c10.63 10.87 25.64 17.14 40.83 17.22 20.19 0.09 40.38 0.01 60.57 0.04 0.01-88.08-0.01-176.16 0.01-264.24-15.84-0.02-31.68-0.01-47.52-0.01-6.92 0.02-13.87-0.18-20.75 0.74-23.82 3.08-44.85 22.42-49.21 46.15-1.37 6.96-0.98 14.09-1.03 21.13V522.03c0.02 14.93 6.25 29.69 17.1 39.96zM250.43 222.98c6.29-0.82 12.45-2.37 18.6-3.91 14.9-3.37 29.76-6.97 44.82-9.59 25.77-5.4 51.21-12.49 75.71-22.21 8.22-18.8 17.07-37.38 27.71-54.95 10.44-17.58 22.41-34.17 34.03-50.98 17.24-25.68 36-50.98 46.73-80.26 3.12-8.78 4.93-18.43 2.76-27.66-1.06-4.08-4.18-7.39-7.91-9.24-5.22-2.59-11.14-3.25-16.89-3.43h-48.95c-7-0.02-14.05-0.07-20.96 1.17-16.87 2.48-32.45 10.83-45.05 22.14-10.27 9.08-19.04 19.7-27.31 30.59-12.21 16.43-23.12 33.79-33.64 51.34-9.65 16.55-19.82 32.85-27.86 50.27-8.44 17.54-13.93 36.31-18.54 55.17-3.85 16.81-7.2 34.43-3.25 51.55z"  horiz-adv-x="1024" />

    
    <glyph glyph-name="laba" unicode="&#58892;" d="M620.6 34.1c-13.8 0-25 11.2-25 25v606c0 13.3-6.5 21.7-12.5 25.2-4.8 2.7-9.7 2.7-14.6-0.2L364.6 568.5c-18.5-11-39.3-16.8-60.1-16.8H162.8c-23.6 0-42.9-24.3-42.9-54.2v-229.6c0-29.9 19.2-54.2 42.9-54.2h141.7c20.9 0 41.7-5.8 60.1-16.8l161-96c11.9-7.1 15.7-22.4 8.7-34.3-7.1-11.9-22.4-15.7-34.3-8.7l-161 96c-10.7 6.4-22.7 9.8-34.5 9.8H162.8c-25.5 0-49.3 11.3-67 32-16.7 19.5-25.9 45.2-25.9 72.3V497.4c0 27.1 9.2 52.8 25.9 72.3 17.6 20.6 41.4 32 67 32h141.7c11.9 0 23.8 3.4 34.5 9.8L542.9 733c20.2 12.1 44.5 12.3 64.9 0.8 23.3-13.3 37.8-39.5 37.8-68.6v-606c0-13.9-11.2-25.1-25-25.1zM850.7 153.6c-6.4 0-12.8 2.4-17.7 7.3-9.8 9.8-9.8 25.6 0 35.4 102.7 102.7 102.7 269.9 0 372.6-9.8 9.8-9.8 25.6 0 35.4 9.8 9.8 25.6 9.8 35.4 0 59.2-59.2 91.8-137.9 91.8-221.7S927.5 220.2 868.3 161c-4.8-4.9-11.2-7.4-17.6-7.4zM729.5 236.5c-6.4 0-12.8 2.4-17.7 7.3-9.8 9.8-9.8 25.6 0 35.4 57 57 57 149.8 0 206.9-9.8 9.8-9.8 25.6 0 35.4 9.8 9.8 25.6 9.8 35.4 0 76.5-76.5 76.5-201.1 0-277.6-4.9-5-11.3-7.4-17.7-7.4z"  horiz-adv-x="1024" />

    
    <glyph glyph-name="shouji2" unicode="&#58880;" d="M170.666667 896v-967.111111h682.666666V896z m341.333333-910.222222a85.333333 85.333333 0 1 0 85.333333 85.333333A85.333333 85.333333 0 0 0 512-14.222222z m227.555556 227.555555H284.444444V782.222222h455.111112z"  horiz-adv-x="1024" />

    
    <glyph glyph-name="weituodaikuanhuankuanmingxichaxun" unicode="&#58968;" d="M977.92 94.72c15.36-10.24 0-25.6 0-25.6L819.2-92.16s-15.36-20.48-43.52 0c-12.8 10.24-69.12 56.32-69.12 56.32s-17.92 15.36-46.08 17.92H307.2s-15.36-5.12-28.16 5.12c-12.8 10.24-184.32 153.6-232.96 194.56-10.24 12.8 0 33.28 0 33.28s33.28 58.88 122.88 0c53.76-38.4 138.24-97.28 138.24-97.28h204.8l58.88 38.4s15.36 10.24 0 10.24c-46.08 2.56-110.08 7.68-135.68 12.8-30.72 5.12-48.64 30.72-48.64 56.32 0 40.96 25.6 46.08 48.64 46.08h307.2s12.8 0 25.6-10.24c10.24-12.8 194.56-166.4 209.92-176.64zM250.88 307.2c-25.6 0-46.08 20.48-46.08 46.08V691.2c0 15.36 7.68 30.72 20.48 38.4L488.96 896l256-166.4c12.8-7.68 20.48-23.04 20.48-38.4v-340.48c0-25.6-20.48-46.08-46.08-46.08H250.88z m23.04 368.64v-299.52h435.2V675.84l-212.48 135.68-222.72-135.68zM358.4 588.8h256c15.36 0 25.6-10.24 25.6-25.6s-10.24-25.6-25.6-25.6H358.4c-15.36 0-25.6 10.24-25.6 25.6s10.24 25.6 25.6 25.6z m0-102.4h256c15.36 0 25.6-10.24 25.6-25.6s-10.24-25.6-25.6-25.6H358.4c-15.36 0-25.6 10.24-25.6 25.6s10.24 25.6 25.6 25.6z m51.2 204.8h153.6c15.36 0 25.6-10.24 25.6-25.6s-10.24-25.6-25.6-25.6h-153.6c-15.36 0-25.6 10.24-25.6 25.6s10.24 25.6 25.6 25.6z"  horiz-adv-x="1024" />

    
    <glyph glyph-name="zijinchijiaoyichaxun" unicode="&#58973;" d="M663.04 312.32c-125.44-51.2-273.92 0-343.04 125.44-76.8 135.68-33.28 312.32 99.84 391.68 87.04 53.76 194.56 53.76 281.6 2.56 87.04-51.2 140.8-148.48 140.8-253.44 0-89.6-40.96-171.52-107.52-227.84l115.2-199.68c5.12-10.24 7.68-20.48 5.12-30.72s-10.24-17.92-17.92-23.04c-17.92-10.24-43.52-5.12-53.76 15.36l-120.32 199.68z m256 327.68c43.52 0 79.36-35.84 79.36-81.92v-578.56c0-46.08-35.84-81.92-79.36-81.92H104.96C61.44-102.4 25.6-66.56 25.6-20.48V558.08C25.6 604.16 61.44 640 104.96 640h122.88c-2.56-12.8-5.12-28.16-5.12-40.96s2.56-28.16 5.12-40.96H104.96v-578.56h814.08V640z m-460.8 117.76c-94.72-56.32-128-184.32-71.68-281.6 53.76-99.84 176.64-133.12 271.36-76.8 61.44 35.84 99.84 104.96 99.84 179.2s-38.4 140.8-99.84 179.2-138.24 38.4-199.68 0z m5.12-69.12c-5.12 10.24 0 17.92 10.24 25.6s20.48 2.56 28.16-7.68l53.76-84.48 56.32 84.48c7.68 10.24 15.36 12.8 25.6 7.68s12.8-12.8 10.24-25.6l-53.76-84.48H640c5.12-2.56 7.68-7.68 7.68-15.36 0-5.12-2.56-10.24-7.68-15.36h-58.88v-23.04H640c5.12-2.56 7.68-7.68 7.68-15.36 0-5.12-2.56-10.24-7.68-15.36h-58.88v-61.44c0-17.92-5.12-25.6-23.04-25.6-15.36 0-23.04 7.68-23.04 25.6v61.44h-58.88c-5.12 2.56-10.24 7.68-10.24 15.36s2.56 10.24 10.24 15.36h58.88v23.04h-58.88c-5.12 2.56-7.68 7.68-10.24 15.36 0 5.12 2.56 10.24 10.24 15.36h46.08l-58.88 84.48zM184.32 194.56c-2.56 2.56-2.56 7.68 0 7.68L307.2 332.8c2.56 2.56 7.68 0 7.68-5.12v-74.24h235.52c15.36 0 28.16-12.8 28.16-30.72s-12.8-30.72-28.16-30.72H184.32z m394.24-46.08c2.56-2.56 2.56-7.68 0-7.68l-122.88-130.56c-2.56-2.56-7.68 0-7.68 5.12v74.24H209.92c-15.36 0-28.16 12.8-28.16 30.72s12.8 30.72 28.16 30.72H578.56z"  horiz-adv-x="1024" />

    
    <glyph glyph-name="kefu2" unicode="&#59170;" d="M516.547178 95.449695c4.870109 0 9.82536 0.299212 14.809802 0.887907 47.835076 5.744636 88.453779 39.178591 103.443595 85.251233 1.131169 3.444593-0.503553 7.136096-3.800972 8.651619-3.264579 1.520389-7.212724 0.20434-9.055435-2.883873-0.176365-0.294347-19.181223-30.991602-93.166983-40.983596-11.074511-1.487548-21.851026-2.265987-32.065605-2.265988-51.835522 0.03284-74.936916 19.570443-75.146121 19.750457-2.607771 2.318289-6.588756 2.38032-9.264641 0.119199-2.697778-2.256257-3.320529-6.186157-1.481466-9.189229 22.567433-36.5842 63.057207-59.337728 105.727826-59.337729z m397.820029 458.524891c-0.655592 0-1.249151-0.117982-1.867037-0.117982C869.149632 741.538244 703.502681 881.538063 504.907083 881.538063c-204.060483 0-373.50719-147.734341-411.06079-343.179693C57.328991 531.786642 29.533854 499.693062 29.533854 460.874499v-155.349663c0-43.540282 34.916638-78.846139 78.028778-78.846139 24.317704 0 45.783159 11.483191 60.060217 29.119699 34.503092-91.256159 104.741399-164.834456 193.631833-203.651802 0.212854 0.460982 1.895012 3.734075 3.918954 6.343061 1.402406 1.805005 2.970231 3.287688 4.314254 3.287689 1.397541 0 2.674668-0.503553 3.768132-1.278343-20.572683 15.31822-94.881982 94.050026-110.978641 203.921824-7.06555 48.362955 29.157405 95.836786 71.343933 103.68564 67.724192 12.614361 135.095654 26.977776 202.819846 39.348875 43.051325 7.854936 72.470237 31.468396 90.463124 70.789295 4.214517 9.192878 10.300937 27.780541 13.094804 54.581953 0.740733 3.985851 4.010177 7.046089 8.195503 7.046089 2.793866 0 5.169321-1.425516 6.742011-3.483515l1.867037 1.16401c26.691943-38.755315 79.63066-124.562401 87.232603-215.043771 8.728247-103.44846 3.858138-174.298571-75.32127-246.783404-0.094872-0.090007-0.214071-0.20434-0.328404-0.299212a6.458611 6.458611 0 0 1-1.752704-4.428588c0-2.228282 1.188336-4.133025 2.9082-5.293385 0.650726-0.271237 1.306318-0.627616 1.961909-0.897638 0.532744-0.119198 1.039946-0.289482 1.57269-0.289482 0.536393 0 1.011971 0.1715 1.487548 0.289482 1.126304 0.59356 2.195441 1.283208 3.292554 1.876768 80.077046 44.115597 141.505612 117.782684 169.889444 206.393367 11.492922-17.070924 29.480944-29.358097 50.382031-33.64316-33.520313-152.462141-169.499008-247.880516-337.962936-262.366779-10.096597 25.043842-34.944613 42.832389-64.132426 42.832389-38.119184 0-69.03051-30.193702-69.03051-67.400653s30.90646-67.362948 69.03051-67.362948c30.731312 0 56.473316 19.745591 65.404687 46.870541 195.008697 15.854613 351.328976 131.765395 383.960166 311.859687 28.830218 12.048776 49.075713 40.33287 49.075713 73.34963V474.405958c-0.001216 43.935583-35.867793 79.568628-80.106237 79.568628z m-71.938709-45.150678c-50.861257 137.771538-182.655843 236.192985-337.696564 236.192985-154.396075 0-285.715084-97.585841-337.047054-234.469472-2.556686 3.127135-5.54881 5.803019-8.48985 8.504446C188.257563 685.859179 331.811443 812.683918 504.907083 812.683918c172.264899 0 315.371177-125.579237 345.38973-291.221323-2.970231-3.985851-5.702066-8.148067-7.868315-12.638687z m-481.160437-456.677314h-0.013379c-0.029191-0.070546-0.029191-0.080277 0.013379 0z m0 0"  horiz-adv-x="1024" />

    
    <glyph glyph-name="qiquankaihuyuyue" unicode="&#58923;" d="M960 370.902V782c0 18.778-15.222 34-34 34H34C15.222 816 0 800.778 0 782v-644c0-18.778 15.222-34 34-34h533.263A258.142 258.142 0 0 0 562 156H52V764h856v-366.828a256.11 256.11 0 0 0 52-26.27zM0 646h960v-102H0zM390.733 265.387c41.666-19.814 54.506-18.097 54.456-54.145 0.05-3.973 0.05-5.518 0.074-6.327H150.104s-0.172-4.463-0.074 6.327c-0.073 36.048 12.79 34.331 54.433 54.145 14.192 6.768 59.056 26.632 59.056 26.632s2.263 10.127 0 17.754c-10.577 6.106-21.399 33.203-22.727 44.386-9.839 4.438-12.766 23.271-13.627 26.631-0.811 3.114 0.886 12.139 7.478 12.654a58.71 58.71 0 0 0-2.952 18.416c0 1.496 0.123 2.967 0.246 4.439-0.098 1.47-0.246 2.942-0.246 4.438 0 34.307 29.491 53.263 65.87 53.263 36.378 0 65.87-18.931 65.87-53.263 0-1.496-0.124-2.967-0.247-4.438 0.099-1.472 0.246-2.943 0.246-4.439a58.71 58.71 0 0 0-2.951-18.416c6.616-0.515 8.289-9.54 7.477-12.654-0.86-3.36-3.788-22.193-13.626-26.631-1.329-11.183-12.127-38.28-22.728-44.386-2.804-8.313 0-17.754 0-17.754s44.938-19.864 59.13-26.632zM830 156V264h-52v-160h162v52H830z m-11-205c-113.218 0-205 91.782-205 205s91.782 205 205 205 205-91.782 205-205-91.782-205-205-205z"  horiz-adv-x="1024" />

    
    <glyph glyph-name="benyue" unicode="&#58958;" d="M755.2 675.2h24c20.8 0 35.2 14.4 35.2 30.4V840c-1.6 19.2-16 32-35.2 32h-24c-20.8 0-35.2-14.4-35.2-33.6v-132.8c0-16 14.4-30.4 35.2-30.4zM252.8 675.2h24c20.8 0 35.2 14.4 35.2 30.4V840c-1.6 19.2-16 32-35.2 32h-24c-20.8 0-35.2-14.4-35.2-33.6v-132.8c0-16 14.4-30.4 35.2-30.4zM928 763.2h-68.8v-57.6c0-43.2-35.2-76.8-78.4-76.8h-24c-43.2 0-78.4 33.6-78.4 76.8V763.2H356.8v-57.6c0-43.2-35.2-76.8-78.4-76.8h-24c-43.2 0-78.4 33.6-78.4 76.8V763.2H104c-38.4 0-68.8-28.8-68.8-67.2v-732.8c0-36.8 30.4-67.2 68.8-67.2h820.8c38.4 0 68.8 28.8 70.4 67.2V696c1.6 38.4-28.8 67.2-67.2 67.2z m-824-800V540.8h820.8s0-577.6 1.6-577.6H104zM360 440v-169.6c0-52.8-4.8-91.2-9.6-116.8-8-24-25.6-51.2-51.2-76.8 20.8-14.4 38.4-30.4 59.2-48 20.8 19.2 35.2 36.8 43.2 54.4 9.6 20.8 16 46.4 22.4 76.8h201.6v-32c0-20.8-9.6-30.4-35.2-30.4-22.4 0-46.4 0-76.8 1.6 6.4-20.8 12.8-44.8 16-67.2 46.4 0 78.4 1.6 99.2 1.6 20.8 0 35.2 8 44.8 20.8 9.6 14.4 16 33.6 16 59.2V440H360z m260.8-219.2H422.4c1.6 24 1.6 43.2 0 51.2h198.4v-51.2z m0 108.8H422.4v51.2h198.4v-51.2z"  horiz-adv-x="1024" />

    
    <glyph glyph-name="jiaoyi" unicode="&#58894;" d="M512 896C229.228 896 0 666.772 0 384s229.228-512 512-512 512 229.228 512 512S794.772 896 512 896z m0-954.182C267.818-58.182 69.818 139.795 69.818 384S267.818 826.182 512 826.182c244.228 0 442.182-197.977 442.182-442.182S756.228-58.182 512-58.182zM456.909 317.284l-57.637-57.637V593.466c0 19.272-15.636 34.909-34.909 34.909-19.272 0-34.909-15.637-34.909-34.909v-336.738l-57.613 57.67c-13.659 13.591-35.772 13.591-49.363-0.022-13.659-13.659-13.705-35.772-0.068-49.364l115.204-115.204c5.364-5.363 12.068-8.103 19-9.228 0.387-0.091 0.773-0.193 1.159-0.261 1.432-0.193 2.818-0.433 4.25-0.433 0.796-0.057 1.546-0.238 2.341-0.238 11.909 0 22.409 5.978 28.705 15.08l113.204 113.17c13.637 13.637 13.637 35.75 0.023 49.363-13.683 13.636-35.796 13.682-49.387 0.023zM686.363 618.216c-5.295 5.295-11.932 8-18.772 9.159-0.5 0.113-1 0.25-1.522 0.352-1.364 0.17-2.659 0.398-4.022 0.409-0.818 0.045-1.592 0.239-2.433 0.239-11.886 0-22.341-5.966-28.659-15.034l-113.25-113.239c-13.636-13.636-13.636-35.75-0.022-49.364 13.682-13.613 35.796-13.659 49.387-0.022l57.636 57.636v-333.795c0-19.296 15.637-34.909 34.909-34.909 19.273 0 34.909 15.613 34.909 34.909V511.284l57.614-57.659c13.659-13.591 35.772-13.591 49.363 0 13.659 13.659 13.704 35.795 0.068 49.386L686.363 618.216z"  horiz-adv-x="1024" />

    
    <glyph glyph-name="wode1" unicode="&#58882;" d="M361.37472 213.85728h308.1728c157.34784 0 228.57728-119.83872 243.50208-275.4304l36.41344 40.1152H81.46432l36.41344-40.1152c14.9248 155.62752 86.05184 275.4304 243.49696 275.4304z m-279.9104-308.55168h868.00384c21.58592 0 38.4768 18.6112 36.41344 40.12032-18.5088 193.07008-121.20576 341.66272-316.32896 341.66272h-308.1728c-195.22048 0-297.81504-148.57728-316.32384-341.66272-2.06848-21.50912 14.81728-40.12032 36.40832-40.12032z m688.0768 675.13856c0 144.91648-117.36576 262.37952-262.1184 262.37952-144.77824 0-262.144-117.46304-262.144-262.37952 0-144.91136 117.36576-262.39488 262.144-262.39488 144.75264 0 262.1184 117.48352 262.1184 262.39488z m-451.11296 0c0 104.46848 84.61312 189.13792 188.98944 189.13792 104.35072 0 188.95872-84.67456 188.95872-189.13792s-84.608-189.1584-188.95872-189.1584c-104.3712 0-188.98944 84.68992-188.98944 189.1584z"  horiz-adv-x="1024" />

    
    <glyph glyph-name="qianbao" unicode="&#59146;" d="M864 0H160c-52.8 0-96 43.2-96 96V672c0 52.8 43.2 96 96 96h704c52.8 0 96-43.2 96-96v-64c0-17.6-14.4-32-32-32s-32 14.4-32 32v64c0 17.6-14.4 32-32 32H160c-17.6 0-32-14.4-32-32v-576c0-17.6 14.4-32 32-32h704c17.6 0 32 14.4 32 32v64c0 17.6 14.4 32 32 32s32-14.4 32-32v-64c0-52.8-43.2-96-96-96z m-96 352h-32c-17.6 0-32 14.4-32 32s14.4 32 32 32h32c17.6 0 32-14.4 32-32s-14.4-32-32-32z m160-96H672c-52.8 0-96 43.2-96 96v64c0 52.8 43.2 96 96 96h256c17.6 0 32-14.4 32-32v-192c0-17.6-14.4-32-32-32zM672 448c-17.6 0-32-14.4-32-32v-64c0-17.6 14.4-32 32-32h224V448H672z"  horiz-adv-x="1024" />

    
    <glyph glyph-name="shanchu" unicode="&#58910;" d="M790.864 577.904c0.72-8.832 1.136-17.808 1.136-26.896v-444.16c0-73.04-35.824-138.8-112-138.8h-336c-76.176 0-112 65.776-112 138.8v444.16a235.104 235.104 0 0 0 1.68 26.896H176v111.04l168 0.128V710.4c0 49.472 45.84 89.6 102.4 89.6h131.2c56.56 0 102.4-40.112 102.4-89.6v-20.592l168-0.736v-111.168h-57.136zM624 710.4c0 18.464-21.248 34.064-46.4 34.064h-131.2c-25.152 0-46.4-15.6-46.4-34.064v-21.344h224V710.4z m112-159.408a190.4 190.4 0 0 1-1.872 26.896H289.888a188.544 188.544 0 0 1-1.888-26.88v-444.16c0-42.592 10.72-83.28 56-83.28h336c45.344 0 56 40.704 56 83.28v444.16z m-112-28.336h56v-443.728H624V522.672z m-140 0h56v-443.728h-56V522.672z m-140 0H400v-443.728h-56V522.672z"  horiz-adv-x="1024" />

    
    <glyph glyph-name="shouye" unicode="&#58920;" d="M998.870372 445.640348L552.428633 858.86887l-0.26713 0.200347-1.558261 1.246609-0.601044 0.467478-1.892174 1.380174-0.289391 0.222609-2.203826 1.446956-0.022261 0.022261a63.532522 63.532522 0 0 1-74.50713-5.097739L24.756981 445.640348a57.878261 57.878261 0 0 1-5.832348-83.812174c22.394435-24.665043 61.417739-27.225043 87.062261-5.632l42.295652 35.617391v-348.560695c0-82.075826 24.887652-148.880696 110.146783-148.880696h92.16c34.05913 0 61.68487 26.601739 61.684869 59.392V234.162087c0 16.562087 14.024348 30.052174 31.209739 30.052174h136.592696c17.229913 0 31.276522-13.490087 31.276522-30.052174v-273.430261c0-4.051478 0.422957-8.102957 1.29113-12.109913l1.491478-6.967652c5.965913-27.514435 31.187478-47.282087 60.416-47.282087h90.646261c85.25913 0 110.146783 66.80487 110.146783 148.880696V391.791304l42.295652-35.59513a62.998261 62.998261 0 0 1 40.603826-14.647652c17.14087 0 34.259478 6.856348 46.458435 20.279652a57.878261 57.878261 0 0 1-5.832348 83.812174z"  horiz-adv-x="1024" />

    
    <glyph glyph-name="shouji3" unicode="&#58884;" d="M701.44 757.76c16.896 0 30.72-13.824 30.72-30.72v-686.08c0-16.896-13.824-30.72-30.72-30.72H322.56c-16.896 0-30.72 13.824-30.72 30.72V727.04c0 16.896 13.824 30.72 30.72 30.72h378.88m0 61.44H322.56c-50.688 0-92.16-41.472-92.16-92.16v-686.08c0-50.688 41.472-92.16 92.16-92.16h378.88c50.688 0 92.16 41.472 92.16 92.16V727.04c0 50.688-41.472 92.16-92.16 92.16zM734.72 139.776h-445.44c-32.256 0-58.88-26.112-58.88-58.88v-44.544c0-32.256 26.112-58.88 58.88-58.88h445.44c32.256 0 58.88 26.112 58.88 58.88v44.544c0 32.768-26.624 58.88-58.88 58.88z m-223.744-120.32c-25.6 0-46.592 20.992-46.592 46.592s20.992 46.592 46.592 46.592 46.592-20.992 46.592-46.592-20.992-46.592-46.592-46.592z"  horiz-adv-x="1024" />

    
    <glyph glyph-name="jiesuan" unicode="&#58906;" d="M868.848485-128H155.151515A116.363636 116.363636 0 0 0 38.787879-11.636364V779.636364A116.363636 116.363636 0 0 0 155.151515 896h713.69697a116.363636 116.363636 0 0 0 116.363636-116.363636v-791.272728a116.363636 116.363636 0 0 0-116.363636-116.363636zM155.151515 818.424242a38.787879 38.787879 0 0 1-38.787879-38.787878v-791.272728a38.787879 38.787879 0 0 1 38.787879-38.787878h713.69697a38.787879 38.787879 0 0 1 38.787879 38.787878V779.636364a38.787879 38.787879 0 0 1-38.787879 38.787878zM659.393939 143.515152H349.090909a38.787879 38.787879 0 0 0 0 77.575757h310.30303a38.787879 38.787879 0 0 0 0-77.575757zM659.393939 27.151515H349.090909a38.787879 38.787879 0 0 0 0 77.575758h310.30303a38.787879 38.787879 0 0 0 0-77.575758zM674.909091 384H356.848485a38.787879 38.787879 0 1 0 0 77.575758h318.060606a38.787879 38.787879 0 0 0 38.787879-38.787879 38.787879 38.787879 0 0 0-38.787879-38.787879zM674.909091 515.878788H356.848485a38.787879 38.787879 0 0 0-38.787879 38.787879 38.787879 38.787879 0 0 0 38.787879 38.787878h318.060606a38.787879 38.787879 0 0 0 38.787879-38.787878 38.787879 38.787879 0 0 0-38.787879-38.787879zM512 275.393939a38.787879 38.787879 0 0 0-38.787879 38.787879V554.666667a38.787879 38.787879 0 0 0 77.575758 0v-240.484849a38.787879 38.787879 0 0 0-38.787879-38.787879zM519.757576 531.393939h-31.030303a38.787879 38.787879 0 0 0 0 54.303031l139.636363 139.636363a38.787879 38.787879 0 1 0 54.303031-54.30303L543.030303 539.151515zM519.757576 531.393939h-31.030303L356.848485 671.030303a38.787879 38.787879 0 1 0 54.30303 54.30303l131.878788-131.878788a46.545455 46.545455 0 0 0 7.757576-54.30303z"  horiz-adv-x="1024" />

    
    <glyph glyph-name="bangzhuzhongxin2" unicode="&#59350;" d="M514.048-109.056c-270.848 0-491.52 220.672-491.52 491.52s220.672 491.52 491.52 491.52 491.52-220.672 491.52-491.52-220.672-491.52-491.52-491.52z m0 921.6c-237.056 0-430.08-193.024-430.08-430.08s193.024-430.08 430.08-430.08 430.08 193.024 430.08 430.08-193.024 430.08-430.08 430.08zM515.072 188.416c-16.896 0-30.72 13.824-30.72 30.72V271.36c0 45.568 33.792 73.728 64 98.304 6.656 5.632 13.824 11.264 19.968 16.896 41.984 37.888 61.44 80.896 51.2 113.152-10.24 30.72-34.816 54.272-68.608 64.512-33.792 10.24-69.632 4.096-93.696-14.848C401.92 504.32 405.504 448 405.504 445.44c1.536-16.896-10.752-31.744-27.648-33.28-16.896-1.536-31.744 11.264-33.28 28.16-0.512 3.584-7.168 90.624 74.752 156.672 39.936 32.256 96.256 41.984 149.504 26.112 53.248-15.872 93.184-53.76 109.568-104.448 17.92-56.32-7.68-122.368-68.608-177.664-7.168-6.656-14.848-12.8-22.016-18.944-26.112-21.504-41.472-35.328-41.472-50.688v-51.712c-0.512-17.408-14.336-31.232-31.232-31.232zM515.072 120.32m-36.864 0a36.864 36.864 0 1 1 73.728 0 36.864 36.864 0 1 1-73.728 0Z"  horiz-adv-x="1024" />

    
    <glyph glyph-name="wodedangxuan" unicode="&#58881;" d="M961.72259555-133.29749332999995H59.94723555c-18.64135111 0-37.28270222 9.32067555-48.93354666 23.30168888-11.65084445 16.31118222-16.31118222 34.95253333-11.65084444 53.59388445 46.60337778 237.67722667 240.00739555 414.77006222 473.02428444 433.41141333 78.06065778 0 162.52928-9.90321778 246.99790222-44.27320888 24.46677333-9.90321778 32.62236445-16.31118222 46.60337778-23.3016889 135.14979555-76.89557333 228.35655111-209.7152 258.64874666-365.83651555 4.66033778-18.64135111 0-37.28270222-13.98101333-53.59388445-11.65084445-13.98101333-30.29219555-23.30168889-48.93354667-23.30168888zM61.11232-95.43224888999998c-7.57304889 0-14.56355555 2.91271111-18.64135111 8.15559111-0.58254222 0.58254222-0.58254222 1.16508445-1.16508444 1.74762667-5.82542222 5.82542222-6.40796445 15.72864-5.24288 21.55406222 43.10812445 221.36604445 224.27875555 387.39057778 440.98446222 403.11921778h17.47626666c104.27505778 0 204.47232-32.62236445 253.40586667-63.49710222C876.08888889 198.75157333000004 961.72259555 78.16533332999995 988.51953778-63.974968890000014c1.16508445-8.15559111-0.58254222-15.72864-6.40796445-23.30168889-4.07779555-5.24288-11.06830222-8.15559111-18.64135111-8.15559111H61.11232zM494.52373333 325.16323554999997c101.36234667 0 198.64689778-31.45728 245.83281778-61.16693333h0.58254222c124.66403555-73.98286222 207.38503111-191.07384889 233.01688889-329.71889777 0.58254222-2.91271111 0.58254222-6.99050667-4.07779555-12.23338667-0.58254222-1.16508445-3.49525333-2.33016889-6.99050667-2.33016889H61.11232c-3.49525333 0-6.40796445 1.16508445-6.99050667 2.33016889-0.58254222 1.16508445-1.74762667 2.33016889-2.91271111 2.91271111-1.16508445 1.16508445-2.33016889 4.66033778-1.16508444 8.73813333 41.94304 214.95808 217.28824889 375.73973333 427.58599111 391.46837333 5.24288-0.58254222 11.06830222 0 16.89372444 0m0 29.12711112c-5.82542222 0-12.23338667 0-18.05880888-0.58254222C252.76871111 337.39662222000004 66.3552 167.29429332999996 22.08199111-61.06225777999998c-2.33016889-11.65084445 0-25.63185778 9.32067556-34.95253333 6.99050667-9.32067555 18.64135111-13.98101333 30.29219555-13.98101334H963.47022222c11.65084445 0 23.30168889 4.66033778 30.29219556 13.98101334 6.99050667 9.32067555 11.65084445 20.97152 9.32067555 34.95253333-27.96202667 149.13080889-116.50844445 271.46467555-246.99790222 349.52533333-49.51608889 30.87473778-150.87843555 65.82727111-261.56145778 65.82727112zM512 356.03797333c-146.80064 0-267.96942222 121.16878222-267.96942222 267.96942222S365.19936 891.97681778 512 891.97681778s267.96942222-121.16878222 267.96942222-267.96942223S658.80064 356.03797333 512 356.03797333zM512 393.90321778c-126.99420445 0-230.10417778 103.10997333-230.10417778 230.10417777S385.00579555 854.11157333 512 854.11157333s230.10417778-103.10997333 230.10417778-230.10417778-103.10997333-230.10417778-230.10417778-230.10417777zM512 839.54801778c118.83861333 0 215.54062222-96.70200889 215.54062222-215.54062223S630.83861333 408.46677333 512 408.46677333s-215.54062222 96.70200889-215.54062222 215.54062222 96.70200889 215.54062222 215.54062222 215.54062223m0 29.12711111c-135.14979555 0-244.66773333-109.51793778-244.66773333-244.66773334s109.51793778-244.66773333 244.66773333-244.66773333 244.66773333 109.51793778 244.66773333 244.66773333S647.14979555 868.67512889 512 868.67512889z"  horiz-adv-x="1024" />

    
    <glyph glyph-name="peizizonge" unicode="&#58963;" d="M420.04898 524.27222c119.843399 0 244.378176 26.442316 319.184339 76.51212v-25.077551a34.545606 34.545606 0 1 1 69.347106 0v133.917534C808.580425 830.235402 608.386506 895.147022 420.04898 895.147022 231.711454 895.147022 31.517534 830.064806 31.517534 709.709621v-546.588255c0-112.763682 175.372262-176.907622 352.279884-184.584423a34.545606 34.545606 0 0 1 2.900125 69.091212C208.68105 54.537276 100.86464 117.316451 100.86464 163.036068V327.404915c67.299958-45.20783 174.945773-70.967763 283.188671-75.659142a34.630904 34.630904 0 1 1 2.644232 69.091212C208.68105 327.746106 100.86464 390.525281 100.86464 436.244898V600.78434c74.720866-50.2404 199.340941-76.51212 319.18434-76.51212z m0 301.527697c197.805581 0 319.18434-67.726447 319.184339-116.260892s-121.378759-116.004998-319.184339-116.004998-319.18434 67.64115-319.18434 116.004998c0 48.619742 121.378759 116.260891 319.18434 116.260892z m310.483965-339.485215c-172.045648 0-261.949521-66.276385-261.949521-131.529196v-351.25631c0-65.252811 89.903873-131.529196 262.034818-131.529196 170.680883 0 260.670054 65.167514 261.949521 130.079134h0.170596V354.785506c0 65.423407-90.074469 131.529196-262.120117 131.529196z m0-69.347105c127.179009 0 192.773011-43.501874 192.773011-62.267389 0-18.594919-65.594002-62.182091-192.773011-62.182091-127.093711 0-192.687713 43.501874-192.687714 62.267389 0 18.594919 65.594002 62.267389 192.773011 62.267389z m0-475.620492c-127.093711 0-192.687713 43.501874-192.687714 62.267389V87.376926c44.013661-23.883382 108.498792-39.663474 192.773011-39.663473 84.188921 0 148.674052 15.865389 192.687714 39.663473v-83.762432c0.085298-18.765514-65.423407-62.267389-192.773011-62.267389z m0 175.713453c-127.093711 0-192.687713 43.501874-192.687714 62.182091V263.090379c44.013661-23.883382 108.498792-39.748771 192.773011-39.748771 84.188921 0 148.674052 15.865389 192.687714 39.748771v-83.84773c0.085298-18.680217-65.423407-62.352686-192.773011-62.267389z"  horiz-adv-x="1024" />

    


  </font>
</defs>
</svg>
