<?xml version="1.0" encoding="UTF-8"?>
<svg width="22px" height="23px" viewBox="0 0 22 23" version="1.1" xmlns="http://www.w3.org/2000/svg">
    <g stroke="none" stroke-width="1" fill="none" fill-rule="evenodd">
        <path d="M22,14.1 C22,19 17,23 11,23 C5,23 0,19 0,14.1 C0,9.2 5,5.2 11,5.2 C17,5.3 22,9.2 22,14.1 Z" fill="#ED897D" fill-rule="nonzero"></path>
        <path d="M5.4,7.2 C5.4,7.2 5.2,4.6 5.9,3.6 C7.9,0.7 14,1 14,1 L14,3.2 C14,3.2 9.5,3.2 7.8,4.1 C6.7,4.7 6.6,5.8 6.5,7" fill="#ED897D" fill-rule="nonzero"></path>
        <path d="M12.9,7.2 C12.9,7.2 15.8,7.4 18.3,10.4" stroke="#FFFFFF" stroke-linecap="round" stroke-linejoin="round"></path>
        <path d="M19.3,12 C19.3,12 19.9,12.4 19.9,13.2" stroke="#FFFFFF" stroke-linecap="round" stroke-linejoin="round"></path>
    </g>
</svg>
