<?xml version="1.0" encoding="utf-8"?>
<!-- Generator: Adobe Illustrator 22.0.0, SVG Export Plug-In . SVG Version: 6.00 Build 0)  -->
<svg version="1.1" id="图层_1" xmlns="http://www.w3.org/2000/svg" xmlns:xlink="http://www.w3.org/1999/xlink" x="0px" y="0px"
	 viewBox="0 0 217 47" style="enable-background:new 0 0 217 47;" xml:space="preserve">
<style type="text/css">
	.st0{fill:#FFFFFF;}
	.st1{fill:none;}
</style>
<g>
	<path class="st0" d="M43.6,6.5h-4.3L40.1,2H58l-0.5,3.1h11l0.8-4.3h9.3l-0.8,4.3h4.3L81.9,2h5.8l0.1,7.9H77l-6.1,34.5h-9.3
		l6.1-34.5H56.9l0.6-3.4H53l-2,11.4h3.6l-0.8,4.4h-3.6l-3.1,17.6h4.2l7.1-19.3l-1-8.5h7l0.9,8.6l-8.1,23.6h-7.4l0,0H32.6l0.8-4.4
		h4.4l3.1-17.6h-4l0.8-4.4h4L43.6,6.5z M75.3,20.7l4-8.6h6.9l-4,8.5l-0.7,23.7h-7.3L75.3,20.7z"/>
	<path class="st0" d="M104.8,14l-0.3,1.7l3.6,2.9l-1.1,6.3l-3.6-3.1l-4,22.6h-10L93,24.1l-6.5,5.6l1.4-7.9l13.9-12.3H90l0.8-4.4h6.2
		l-0.4-4.2h8.9l0.4,4.2h4.8l-0.8,4.3L104.8,14z M114.3,40.4H106l6.6-37.2h8.3l0.4-2.3h9.2l-0.4,2.3h8.5L132,40.4h-8.5l-0.8,4.6h-9.2
		L114.3,40.4z M118.9,22.4h-2.5l-2.5,14h2.5L118.9,22.4z M119.6,18.7l2-11.3h-2.5l-2,11.3H119.6z M125.5,22.4l-2.5,14h2.4l2.5-14
		H125.5z M126.1,18.7h2.4l2-11.3h-2.4L126.1,18.7z"/>
	<path class="st0" d="M147.2,16.6h-1.9l-4.8,27.3h-4.8l5.6-31.6h6.7l0.7-3.8h-7.4L142,4h7.4l0.6-3.1h8.3L157.7,4h2.8l-0.8,4.4h-2.8
		l-0.7,3.8h1.5l-0.8,4.4h-1.5l-0.7,4.1h13.1l0.4-2.4h9.6l-0.4,2.4h10l-0.7,4.1H168l-0.5,3h17.9l-2.9,16.7h-9.7l2.3-12.9h-8.2
		l-2.3,12.9h-10l3.5-19.6h-4l-3.5,19.6h-8.3L147.2,16.6z M171.5,12.3h17.4l-1.1,6.5h-7.6l0.4-2.4h-14l-0.5,2.6h-7.6l1.2-6.7h3.4
		l-0.6-3.8h8.3L171.5,12.3z M170.2,3l0.4-2.1h9.7L179.9,3h10.6l-0.7,4.1H188l-1.9,3.8h-8.5l2.1-3.8h-18.3L162,3H170.2z"/>
</g>
<polygon class="st1" points="1.1,20.3 202.5,20.3 202.5,20.3 1.1,20.3 "/>
</svg>
