<svg xmlns="http://www.w3.org/2000/svg" xmlns:xlink="http://www.w3.org/1999/xlink" width="57" height="22" viewBox="0 0 57 22">
    <defs>
        <path id="a" d="M0 .171h56.185v21.057H0z"/>
    </defs>
    <g fill="none" fill-rule="evenodd">
        <g transform="translate(0 .215)">
            <mask id="b" fill="#fff">
                <use xlink:href="#a"/>
            </mask>
            <path fill="#FEFEFE" d="M48 4.775c-3.314 0-5.342 2.102-5.342 2.102l-.135.117c-.218-.595-.872-1.51-2.836-1.526v4.001l-3.714 3.24c.005-.176.008-.354.008-.54 0-4.278-3.858-7.394-7.889-7.394-3.342 0-5.187 1.394-6.256 2.25V2.724S21.86.053 18.868.176V10.29c2.434 1.051 4.328-.396 5.169-1.014.84-.618 2.126-1.558 3.882-1.558 3.067 0 4.996 2.473 4.996 5.197 0 2.13-.952 3.257-1.368 3.648-1.168 1.002-2.125 1.69-3.628 1.69-1.78 0-3.684-1.509-3.684-1.509S14.813 7.668 14.07 6.976c-.742-.693-2.844-2.374-5.639-2.374-1.457 0-3.688.688-5.49 2.11V3.687C2.943 2.154 2.573.176 0 .176v13.13h.03c.39 5.606 4.897 7.914 8.254 7.914 3.512 0 5.404-1.595 6.504-2.695 1.1-1.101 2.671-2.77 2.671-2.77-3.413-1.039-4.847.396-5.787 1.236-.94.84-1.73 1.113-3.338 1.113S3.24 16.522 3.24 12.915c0-3.606 3.363-5.147 5.316-5.147 1.954 0 3.066 1.087 3.066 1.087l10.684 10.288s1.953 2.085 5.564 2.085c3.61 0 5.366-1.961 5.366-1.961l1.512-1.38c1.264-1.152 3.143-2.865 4.939-4.5v7.841s2.946-.008 2.946-2.728v-7.796a401.98 401.98 0 0 1 2.152-1.948c.84-.741 2.027-1.014 3.09-1.014 4.13 0 5.219 4.155 5.219 4.155v6.974c.741 2.621 3.09 2.349 3.09 2.349v-9.743c-1.26-5.07-4.87-6.702-8.185-6.702" mask="url(#b)"/>
        </g>
        <path fill="#FEFEFE" d="M41.05 4.52s1.064-.99 1.311-1.335c.248-.346.52-.619.52-1.212 0-.594-.767-1.583-1.83-1.583-1.064 0-1.756.965-1.756 1.583s.593 1.236.593 1.236l1.162 1.31z"/>
    </g>
</svg>
