<?xml version="1.0" encoding="UTF-8"?>
<svg width="47px" height="27px" viewBox="0 0 47 27" version="1.1" xmlns="http://www.w3.org/2000/svg" xmlns:xlink="http://www.w3.org/1999/xlink">
    <!-- Generator: Sketch 54.1 (76490) - https://sketchapp.com -->
    <title>Fill-1</title>
    <desc>Created with Sketch.</desc>
    <g id="页面-1" stroke="none" stroke-width="1" fill="none" fill-rule="evenodd">
        <g id="yabo首页2" transform="translate(-434.000000, -2295.000000)" fill="#FFFFFF" fill-rule="nonzero">
            <g id="游戏板块" transform="translate(359.000000, 2271.000000)">
                <g id="hover" transform="translate(1.000000, 0.000000)">
                    <g id="真人视讯">
                        <g id="logo_ag" transform="translate(70.000000, 24.000000)">
                            <path d="M22.0360094,24.9457821 L27.7185961,24.9457821 C27.6058312,25.600473 27.4930663,26.2551638 27.3803014,26.9094666 C27.2782396,27.0561609 27.1283961,26.9804853 27.0041636,26.9804853 C19.4653519,26.9847541 11.9269224,26.9820376 4.38849296,26.9913515 C4.03337907,26.9921277 3.95692829,26.9059739 4.02000018,26.5497165 C4.73443275,22.4981618 5.43433967,18.4438905 6.13806913,14.3903954 C6.76840583,10.7599074 7.40141831,7.1305837 8.02296318,3.49854341 C8.07380295,3.20205032 8.24161242,3.2063192 8.45911489,3.20670728 C10.3883504,3.2102 12.3175859,3.2082596 14.2464392,3.20903576 C18.1580435,3.20942384 22.07003,3.21058808 25.9820166,3.21175232 L23.5864313,16.3513634 C22.2236961,12.8726147 20.8663125,9.39114943 19.4951677,5.91589344 C19.4649696,5.84060593 19.4485327,5.75561642 19.328505,5.66092491 C14.9257044,11.6183403 10.5255796,17.5757557 6.12545475,23.5316187 C6.25198079,23.6721037 6.38309388,23.6212652 6.49777006,23.6224294 C7.12734226,23.6278625 7.75729671,23.6038016 8.3861044,23.6325195 C8.77447437,23.6507593 9.01567659,23.4974677 9.24005964,23.1889441 C10.3287188,21.6905674 11.4479583,20.2154755 12.5274433,18.7108895 C12.8317174,18.2867181 13.1665719,18.1050967 13.6910242,18.1109179 C16.0170393,18.135755 18.3438189,18.1213961 20.6702162,18.1217842 C21.4148468,18.1221722 21.409113,18.1342027 21.678602,18.8265374 C22.0291289,19.7264948 22.3804202,20.6264522 22.7301825,21.5267977 L22.6674929,21.5267977 L22.0360094,24.9457821 Z M50.527305,0.0042715016 C51.0498461,0.0042715016 51.04373,0.0034953417 50.9535181,0.520029761 C50.1679863,5.01166715 49.383219,9.50369262 48.6011275,13.9957181 C48.0590914,17.1088955 47.5136151,20.2209086 46.9906917,23.3368026 C46.9310601,23.6899553 46.8110324,23.7745568 46.4731199,23.7737806 C40.4640884,23.7633024 34.4546746,23.7656309 28.4456431,23.7675713 C28.2690418,23.7675713 28.0924405,23.79008 27.9154569,23.8021104 C27.8489447,23.8149171 27.7866373,23.8525608 27.7185961,23.8525608 C26.3470691,23.8572178 24.9751598,23.9076682 23.6043972,23.8261714 C23.5290932,23.8028866 23.4656391,23.7644667 23.4312362,23.6891792 C23.4660213,22.843553 23.6865818,22.0270327 23.8188417,21.1965416 C23.9812996,20.173951 24.1804539,19.1567934 24.335649,18.1322623 C24.4151578,17.6976128 24.4893151,17.2621871 24.5661481,16.8271494 L27.0465937,3.219902 C27.0488873,3.21718544 27.0504163,3.2140808 27.0527098,3.2121404 C27.1819116,2.48875937 27.3241101,1.76693065 27.4437556,1.04238538 L27.5454351,0.485102565 L27.530145,0.482386005 C27.534732,0.450175369 27.5404658,0.418352813 27.5450529,0.386530256 C27.5935991,0.0419152571 27.7373266,-0.000385457845 28.0236348,2.62210939e-06 C33.2249638,0.00621190137 38.426675,0.0042715016 43.6283863,0.0042715016 L50.527305,0.0042715016 Z M45.8607492,8.63905048 C45.5075466,7.27844216 44.8710938,6.08470822 43.8267761,5.14361433 C41.9602302,3.46128773 39.743922,3.00839843 37.3567463,3.42092742 C33.0911749,4.15827933 29.6382753,7.57726373 28.775146,11.8872797 C28.3558134,13.9821353 28.6184218,16.0032557 29.8810065,17.7659148 C31.7433476,20.3648863 34.3614047,21.091372 37.3582754,20.5992866 C39.9484279,20.173951 42.0420326,18.8086857 43.7101887,16.7798037 C44.2552827,16.1169631 44.839749,15.4548987 44.9655105,14.5328207 C45.0480774,13.9293564 45.1543439,13.3278325 45.2774297,12.7309655 C45.3359146,12.446891 45.2640508,12.37432 44.9838587,12.3754843 C42.5748945,12.3847982 40.1663126,12.3859624 37.7573484,12.3735439 C37.490153,12.3723796 37.4033813,12.4744447 37.3643914,12.7119496 C37.255449,13.3821637 37.1407729,14.0512135 37.0165404,14.718323 C36.9637893,15.0020094 37.0348885,15.1052387 37.3410739,15.1013579 C38.6682595,15.0854466 39.9958274,15.0928201 41.3237775,15.0974771 C41.4675049,15.0978652 41.621171,15.0509075 41.7538131,15.1370612 C41.7538131,15.1731527 41.7629872,15.2045871 41.7522841,15.2247673 C41.7255263,15.2728892 41.6930347,15.3186826 41.6571029,15.3598191 C40.231678,16.9948 38.4866889,17.9863443 36.2986675,18.0076887 C33.2306976,18.0379589 31.0132426,15.6295347 31.372179,12.4383532 C31.7032109,9.49515486 33.9462769,6.98039676 36.7753381,6.2302382 C39.3138864,5.55691948 41.842496,6.50849153 42.8642607,8.7799235 C42.9422405,8.95300716 43.0550054,8.97706812 43.2174634,8.97590388 C44.0110225,8.97008268 44.8049639,8.96115684 45.598523,8.97978468 C45.8829199,8.98638204 45.9230566,8.88004813 45.8607492,8.63905048 L45.8607492,8.63905048 Z M15.0625513,15.4529583 C16.203197,13.9045193 17.305235,12.4084711 18.4615531,10.8386877 C19.0727771,12.4057545 19.6591546,13.9107286 20.26044,15.4529583 L15.0625513,15.4529583 Z" id="Fill-1"></path>
                        </g>
                    </g>
                </g>
            </g>
        </g>
    </g>
</svg>