<?xml version="1.0" encoding="UTF-8"?>
<svg width="100px" height="33px" viewBox="0 0 100 33" version="1.1" xmlns="http://www.w3.org/2000/svg" xmlns:xlink="http://www.w3.org/1999/xlink">
    <!-- Generator: sketchtool 54 (76480) - https://sketchapp.com -->
    <title>DE0216D9-B1A4-4A19-A401-1F74D4073468</title>
    <desc>Created with sketchtool.</desc>
    <defs>
        <polygon id="path-1" points="0.000118049084 0.177073625 32.5816651 0.177073625 32.5816651 32.7584731 0.000118049084 32.7584731"></polygon>
        <polygon id="path-3" points="0 32.7586207 100 32.7586207 100 0.862068966 0 0.862068966"></polygon>
    </defs>
    <g id="页面-1" stroke="none" stroke-width="1" fill="none" fill-rule="evenodd">
        <g id="yabo首页2" transform="translate(-655.000000, -2482.000000)">
            <g id="游戏板块" transform="translate(359.000000, 2271.000000)">
                <g id="hover" transform="translate(1.000000, 0.000000)">
                    <g id="电竞" transform="translate(248.000000, 0.000000)">
                        <g id="分组-4-copy" transform="translate(20.000000, 142.000000)">
                            <g id="编组-3" transform="translate(0.000000, 69.000000)">
                                <g id="logo_fanya" transform="translate(27.000000, 0.000000)">
                                    <path d="M16.3723642,20.5304946 C15.7344268,18.9333744 15.0540372,17.203402 14.4354487,15.6112022 C14.8108759,14.730731 15.1790833,13.8742833 15.5238988,13.0754337 C16.1615474,14.6740011 16.8416482,16.4057102 17.4602366,17.9993571 C17.0848095,18.8780917 16.7168908,19.7330922 16.3723642,20.5304946 M24.137931,9.25832211 L24.137931,8.62068966 L18.6252161,8.62068966 L18.6252161,9.25832211 C20.590433,9.48611001 20.8783567,9.69074285 20.3507371,11.011739 C19.8424665,12.3069752 19.2409166,13.7741376 18.6171299,15.2641657 C17.8815815,13.3706607 17.1590285,11.4977058 16.5545908,9.92923997 L15.7638834,9.92923997 C15.3462928,10.9338801 14.6592611,12.54663 13.9185144,14.2751552 C13.2990595,12.6684835 12.786457,11.3139125 12.5135503,10.5561632 C12.1779762,9.71360847 12.2738545,9.44037877 14.0476036,9.25832211 L14.0476036,8.62068966 L7.95990742,8.62068966 L7.95990742,9.25832211 C9.4217631,9.39464753 9.82924599,9.62214599 10.5003943,11.3075449 C11.1432411,12.8936665 11.9403019,14.9148138 12.7512246,16.9909543 C11.7938853,19.2147083 10.9324243,21.2066223 10.6346817,21.8992481 C9.77206554,23.9510758 9.36429387,24.1559981 7.75862069,24.3614992 L7.75862069,25 L13.2710469,25 L13.2710469,24.3614992 C11.30583,24.1334219 11.018195,23.9284996 11.5455258,22.6057668 C12.0540852,21.3085046 12.6559239,19.8387372 13.2797106,18.3463936 C14.0152591,20.2370042 14.7375232,22.1067753 15.3416722,23.6729256 L16.1326684,23.6729256 C16.5496813,22.6703116 17.2361355,21.060456 17.9765934,19.3351146 C18.5966258,20.945549 19.1095171,22.302725 19.3827126,23.0619215 C19.7182867,23.905634 19.6224084,24.1788637 17.8489482,24.3614992 L17.8489482,25 L23.9366443,25 L23.9366443,24.3614992 C22.4744998,24.2248844 22.0673057,23.9970965 21.3961574,22.3093821 C20.7530218,20.7215238 19.955961,18.6983505 19.1450383,16.6193156 C20.1023776,14.3984559 20.9638386,12.4091469 21.2615812,11.7176789 C22.1244862,9.66787723 22.5319691,9.46324439 24.137931,9.25832211" id="Fill-1" fill="#FFFFFF"></path>
                                    <path d="M16.3793103,29.4710695 C9.1604325,29.4710695 3.28755114,23.5981882 3.28755114,16.3793103 C3.28755114,9.1604325 9.1604325,3.28755114 16.3793103,3.28755114 C23.5981882,3.28755114 29.4710695,9.1604325 29.4710695,16.3793103 C29.4710695,23.5981882 23.5981882,29.4710695 16.3793103,29.4710695 M16.3793103,2.5862069 C8.77381648,2.5862069 2.5862069,8.77381648 2.5862069,16.3793103 C2.5862069,23.9850964 8.77381648,30.1724138 16.3793103,30.1724138 C23.9848042,30.1724138 30.1724138,23.9850964 30.1724138,16.3793103 C30.1724138,8.77381648 23.9848042,2.5862069 16.3793103,2.5862069" id="Fill-3" fill="#FFFFFF"></path>
                                    <g id="编组">
                                        <mask id="mask-2" fill="white">
                                            <use xlink:href="#path-1"></use>
                                        </mask>
                                        <g id="Clip-6"></g>
                                        <path d="M16.2908916,32.0501786 C7.69868903,32.0501786 0.70841255,25.0599021 0.70841255,16.4676996 C0.70841255,7.87549705 7.69868903,0.885220565 16.2908916,0.885220565 C24.8830941,0.885220565 31.8733706,7.87549705 31.8733706,16.4676996 C31.8733706,25.0599021 24.8830941,32.0501786 16.2908916,32.0501786 M16.2908916,0.176926064 C7.30824169,0.176926064 0.000118049084,7.4850497 0.000118049084,16.4676996 C0.000118049084,25.4506446 7.30824169,32.7584731 16.2908916,32.7584731 C25.2735415,32.7584731 32.5816651,25.4506446 32.5816651,16.4676996 C32.5816651,7.4850497 25.2735415,0.176926064 16.2908916,0.176926064" id="Fill-5" fill="#FFFFFF" mask="url(#mask-2)"></path>
                                    </g>
                                    <polygon id="Fill-7" fill="#FFFFFF" points="48.2758621 8.15235865 48.3129618 10.3448276 54.8016831 9.78234478 55.1724138 7.75862069"></polygon>
                                    <polygon id="Fill-9" fill="#FFFFFF" points="56.8965517 11.2068966 57.4968974 16.3793103 59.4827586 16.3409653 58.9282865 11.2068966"></polygon>
                                    <path d="M63.4405161,18.2027811 L62.7234409,18.2027811 L62.7234409,10.0787558 C62.7234409,10.1204405 63.4405161,10.0787558 63.4405161,10.0787558 L63.4405161,18.2027811 Z M65.4648421,10.0787558 L68.1643481,10.0787558 L68.9655172,8.62068966 L57.4938311,8.62068966 L57.4938311,10.0787558 L60.699115,10.0787558 L60.699115,18.2444659 L51.6315435,18.2444659 L55.7645929,14.1614609 L55.7645929,12.7033948 C55.7645929,12.7033948 48.2574646,12.66171 48.1308684,12.66171 L48.1308684,14.2031456 L53.1075892,14.2031456 L47.4137931,19.8275862 L49.7757091,19.8275862 L50.7034745,19.1192456 L51.8003386,19.7856016 L67.826758,19.8275862 L68.6704295,18.2444659 L65.4648421,18.2444659 L65.4648421,10.0787558 Z" id="Fill-11" fill="#FFFFFF"></path>
                                    <path d="M66.3400997,11.2068966 L68.1034483,11.2068966 C68.1034483,11.2068966 67.5550641,16.3409653 67.3590111,16.3409653 C67.1629581,16.3409653 65.5172414,16.3793103 65.5172414,16.3793103 L66.3400997,11.2068966 Z" id="Fill-13" fill="#FFFFFF"></path>
                                    <path d="M74.7844828,15.6747536 L72.3121812,15.6747536 L72.3121812,13.382086 C72.2540651,13.4471638 74.7844828,13.4253674 74.7844828,13.4253674 L74.7844828,15.6747536 Z M72.3508327,11.9980161 L74.7458313,11.9980161 L74.7458313,9.74862994 L72.3508327,9.74862994 L72.3508327,11.9980161 Z M76.6386394,9.70534856 L79.1882438,9.70534856 L79.1882438,15.7613163 L76.5999879,15.7180349 L76.5999879,13.3388047 L78.4930741,13.3388047 L78.9952647,12.0412975 L76.5616146,11.9977047 L76.6386394,9.70534856 Z M84.8282945,16.9725722 L83.7079591,18.3136721 L76.5616146,18.3136721 L76.5616146,17.0588235 L79.4971772,17.0588235 L81.0426784,15.4153767 L81.0426784,8.32096723 L76.5616146,8.3642486 L76.5616146,7.75862069 L74.7844828,7.75862069 L74.7844828,8.3642486 C74.7844828,8.3642486 70.6896552,8.49409274 70.6896552,8.40752998 L70.6896552,17.1024163 L74.707458,17.1456977 L74.707458,19.8275862 L84.7123402,19.8275862 L87.0689655,16.9725722 L84.8282945,16.9725722 Z" id="Fill-15" fill="#FFFFFF"></path>
                                    <path d="M82.7993965,8.75123838 L86.9969591,8.75123838 L87.0271743,8.7279157 C87.465441,7.6091916 88.9533183,7.26393943 89.4828173,8.75123838 L93.9655172,8.75123838 L93.4360183,10.3448276 L82.7586207,10.3448276 L82.7993965,8.75123838 Z" id="Fill-17" fill="#FFFFFF"></path>
                                    <polygon id="Fill-19" fill="#FFFFFF" points="83.7550691 10.3448276 83.9992765 11.2594205 82.7586207 11.285369 82.7586207 12.9310345 93.3959927 12.9310345 93.9655172 11.3113176 92.6229619 11.285369 92.8873736 10.3448276 90.751876 10.3448276 90.4672602 11.2327198 86.2366736 11.2327198 85.9315606 10.3448276"></polygon>
                                    <path d="M84.5067538,15.9511231 L84.5067538,14.9960963 C84.4052134,14.9960963 91.153405,14.9771277 91.153405,14.9771277 L91.153405,15.9511231 L84.5067538,15.9511231 Z M90.4016551,18.681774 L90.4016551,17.1351474 L91.417644,17.1351474 L93.3890489,15.7982748 L93.3890489,13.7931034 C93.3890489,13.7931034 82.7586207,13.8126218 82.7586207,13.7931034 L82.7586207,17.1730846 L88.3687993,17.1730846 L88.3687993,19.8275862 L96.8244493,19.8275862 L97.4137931,18.681774 L90.4016551,18.681774 Z" id="Fill-21" fill="#FFFFFF"></path>
                                    <path d="M46.5517241,9.9137931 C46.5517241,10.628011 45.9725148,11.2068966 45.2586207,11.2068966 C44.5444028,11.2068966 43.9655172,10.628011 43.9655172,9.9137931 C43.9655172,9.19957522 44.5444028,8.62068966 45.2586207,8.62068966 C45.9725148,8.62068966 46.5517241,9.19957522 46.5517241,9.9137931" id="Fill-23" fill="#FFFFFF"></path>
                                    <path d="M46.5517241,12.5 C46.5517241,13.2142179 45.9725148,13.7931034 45.2586207,13.7931034 C44.5444028,13.7931034 43.9655172,13.2142179 43.9655172,12.5 C43.9655172,11.7857821 44.5444028,11.2068966 45.2586207,11.2068966 C45.9725148,11.2068966 46.5517241,11.7857821 46.5517241,12.5" id="Fill-25" fill="#FFFFFF"></path>
                                    <path d="M53.4482759,11.637931 C53.4482759,12.3521892 52.8690695,12.9310345 52.1551724,12.9310345 C51.4409142,12.9310345 50.862069,12.3521892 50.862069,11.637931 C50.862069,10.9236728 51.4409142,10.3448276 52.1551724,10.3448276 C52.8690695,10.3448276 53.4482759,10.9236728 53.4482759,11.637931" id="Fill-27" fill="#FFFFFF"></path>
                                    <path d="M44.8766817,14.6551724 C44.9717799,14.6551724 44.8766817,18.2828026 44.8766817,18.2828026 L40.917092,18.2828026 L40.5172414,19.8275862 L46.5517241,19.8275862 L46.5517241,14.6551724 L44.8766817,14.6551724 Z" id="Fill-29" fill="#FFFFFF"></path>
                                    <path d="M69.5252034,20.6896552 C69.7309336,20.6896552 69.9104402,20.7113633 70.0643477,20.7554181 C70.2179429,20.7991536 70.3356368,20.8630011 70.4171173,20.9463221 C70.499222,21.0296431 70.5629079,21.1321184 70.6091113,21.2531094 C70.6546904,21.3744196 70.6777921,21.5212689 70.6777921,21.6942956 L70.6777921,22.1329279 L69.4983554,22.1329279 C69.4983554,22.0470531 69.4933604,21.9739477 69.4833705,21.9136118 C69.4733806,21.8532759 69.4440351,21.7967708 69.395022,21.7447351 C69.3463211,21.6923802 69.2548507,21.6665219 69.1212354,21.6665219 L68.2561694,21.6665219 C68.1044473,21.6665219 67.9901874,21.6767375 67.9133898,21.697488 C67.8365921,21.7185577 67.7744672,21.7447351 67.7263907,21.7757012 C67.6783141,21.8073057 67.6277401,21.8756225 67.573732,21.9809709 C67.5200361,22.0863193 67.4928759,22.2089065 67.4928759,22.3487325 L67.4928759,23.3597577 C67.4928759,23.5723699 67.5144167,23.7157075 67.5571861,23.7884937 C67.5999555,23.8619183 67.6636414,23.9232119 67.7473071,23.9733322 C67.831285,24.0231332 67.9758269,24.048353 68.1812449,24.048353 L69.1212354,24.048353 C69.267026,24.048353 69.3722325,24.0237717 69.4371671,23.9749284 C69.5017894,23.9257658 69.5333202,23.8395717 69.5314471,23.716346 L69.5433101,23.3437958 L68.4269349,23.3437958 L68.4269349,22.5897568 L70.6896552,22.5897568 L70.6896552,23.3597577 C70.6896552,23.5934395 70.6859089,23.8124365 70.6777921,24.0170677 C70.6696753,24.2213797 70.6378324,24.3985565 70.5819512,24.5476405 C70.52607,24.6970436 70.4202391,24.8094152 70.2647707,24.8860322 C70.1089902,24.9620107 69.9631996,25 69.8277111,25 L67.6455346,25 C67.5059877,25 67.3458366,24.9814842 67.1650812,24.9450911 C66.984638,24.9086981 66.8372864,24.826654 66.7236509,24.6995975 C66.6100154,24.5722217 66.5325934,24.4429305 66.4916971,24.3114047 C66.4508008,24.1798788 66.4217676,24.0343065 66.4049096,23.8746878 C66.3880515,23.715069 66.3793103,23.5433193 66.3793103,23.3597577 L66.3793103,22.2516843 C66.3793103,22.1118583 66.3799347,21.9943789 66.3808713,21.8995653 C66.3818078,21.8044325 66.4024121,21.6872724 66.4423718,21.5474464 C66.4820194,21.4076203 66.5316569,21.2869485 66.5903477,21.1857503 C66.6493508,21.084552 66.7405089,20.987823 66.8644466,20.8949249 C66.988072,20.8020268 67.0848495,20.7531834 67.1547791,20.7493526 L67.5977702,20.6896552 L69.5252034,20.6896552 Z" id="Fill-31" fill="#FFFFFF"></path>
                                    <path d="M72.6173307,23.3345379 L73.9131656,23.3345379 L73.2819495,21.8414641 L72.6173307,23.3345379 Z M72.5545837,20.6896552 L73.9671718,20.6896552 L75.862069,25 L74.5871497,25 L74.2219059,24.1422088 L72.29704,24.1422088 L71.9108805,25 L70.6896552,25 L72.5545837,20.6896552 Z" id="Fill-33" fill="#FFFFFF"></path>
                                    <polygon id="Fill-35" fill="#FFFFFF" points="76.7241379 20.6959939 78.2474129 20.6959939 79.3352596 23.4400355 80.3619782 20.6896552 81.8965517 20.6896552 81.8965517 24.6459812 80.9187934 24.9876395 80.9187934 22.1225279 79.7767717 24.9439021 78.810312 24.9439021 77.6989992 22.0882987 77.6989992 24.6551724 76.7241379 25"></polygon>
                                    <polygon id="Fill-37" fill="#FFFFFF" points="81.8965517 20.6896552 83.6206897 20.6960079 83.6206897 24.6480573 81.8965517 25"></polygon>
                                    <path d="M85.8461954,20.7273358 L87.9310345,23.7810331 L87.9310345,20.7273358 C87.9310345,20.7273358 85.7934454,20.7819726 85.8461954,20.7273358 L85.8461954,20.7273358 Z M87.8046163,24.936885 L86.409772,24.9293489 L84.7166171,22.2813458 L84.7166171,24.6307303 L83.6206897,25 L83.6206897,20.6896552 L85.1352826,20.7019014 L86.9403039,23.5499255 L87.8046163,24.936885 Z" id="Fill-39" fill="#FFFFFF"></path>
                                    <path d="M95.1428884,21.8590222 L91.6925713,21.9136118 C91.6832398,21.8529567 91.6558285,21.7967708 91.6100459,21.7447351 C91.5645549,21.6923802 91.4791135,21.6662027 91.3543049,21.6662027 L90.5459649,21.6662027 C90.4045345,21.6662027 90.2978056,21.6767375 90.2260698,21.697488 C90.154334,21.7185577 90.0960122,21.7447351 90.0513961,21.7757012 C90.0064883,21.8073057 89.9592476,21.8756225 89.9087993,21.9809709 C89.858351,22.0863193 89.8332726,22.2089065 89.8332726,22.3487325 L89.8332726,23.3597577 C89.8332726,23.5723699 89.853102,23.7153883 89.893344,23.7884937 C89.9332945,23.861599 89.9924911,23.9232119 90.0706423,23.9733322 C90.1490851,24.0231332 90.2843916,24.048353 90.4762703,24.048353 L91.3543049,24.048353 C91.4904863,24.048353 91.5887585,24.0237717 91.6494131,23.9749284 C91.7097762,23.9257658 91.7392287,23.8395717 91.7371874,23.716346 L91.7482686,23.3437958 L90.705475,23.3437958 L90.705475,22.5897568 L92.8193483,22.5897568 L92.8193483,23.3597577 C92.8193483,23.5934395 92.8158489,23.8124365 92.8082671,24.0170677 C92.8006853,24.2213797 92.7709412,24.3985565 92.7187432,24.5476405 C92.6665452,24.6970436 92.5676897,24.8094152 92.4224685,24.885713 C92.2769556,24.9620107 92.1407742,25 92.0142159,25 L89.9755778,25 C89.8452285,25 89.6956332,24.9814842 89.5270832,24.9450911 C89.3582416,24.9086981 89.2206022,24.826654 89.1144565,24.6992783 C89.0083109,24.5722217 88.9362834,24.4429305 88.8977911,24.3114047 C88.8595903,24.1798788 88.8324707,24.0339873 88.8170154,23.8743685 C88.8009769,23.7147498 88.7931034,23.5433193 88.7931034,23.3597577 L88.7931034,22.2513651 C88.7931034,22.1118583 88.7936867,21.9943789 88.7942699,21.8995653 C88.7951447,21.8044325 88.8143909,21.6872724 88.8517168,21.5471271 C88.8890428,21.4076203 88.935117,21.2869485 88.9899395,21.1857503 C89.0450536,21.084552 89.130495,20.987823 89.2459722,20.8946057 C89.3617409,20.8017075 89.4518481,20.7531834 89.5171685,20.7490333 L89.9309616,20.6896552 L95.6896552,20.6896552 L95.1428884,21.8590222 Z" id="Fill-41" fill="#FFFFFF"></path>
                                    <path d="M46.7554266,23.3345867 L48.0516264,23.3345867 L47.4199857,21.8418927 L46.7554266,23.3345867 Z M46.6925233,20.6896552 L48.1054038,20.6896552 L50,25 L48.7249853,25 L48.3596245,24.1423819 L46.4350433,24.1423819 L46.0491493,25 L44.8275862,25 L46.6925233,20.6896552 Z" id="Fill-43" fill="#FFFFFF"></path>
                                    <polygon id="Fill-45" fill="#FFFFFF" points="53.7903182 20.6926448 55.1724138 20.6926448 53.3100323 25 51.9061982 25 50 20.6896552 51.3977202 20.6896552 52.629684 23.4566999"></polygon>
                                    <polygon id="Fill-47" fill="#FFFFFF" points="54.3103448 20.6896552 56.0344828 20.6959346 56.0344828 24.648351 54.3103448 25"></polygon>
                                    <path d="M57.9623232,23.3345867 L59.2585229,23.3345867 L58.6268822,21.8418927 L57.9623232,23.3345867 Z M57.8994199,20.6896552 L59.3123004,20.6896552 L61.2068966,25 L59.9318819,25 L59.5665211,24.1423819 L57.6419399,24.1423819 L57.2560459,25 L56.0344828,25 L57.8994199,20.6896552 Z" id="Fill-49" fill="#FFFFFF"></path>
                                    <mask id="mask-4" fill="white">
                                        <use xlink:href="#path-3"></use>
                                    </mask>
                                    <g id="Clip-52"></g>
                                    <polygon id="Fill-51" fill="#FFFFFF" mask="url(#mask-4)" points="62.0689655 23.2758621 65.5172414 23.2758621 65.5172414 22.4137931 62.0689655 22.4137931"></polygon>
                                    <path d="M94.2142378,22.5561843 C94.2142378,22.5561843 94.3211916,24.4500406 93.756534,24.9781151 C93.344249,25.5836723 92.5656838,25.6146654 92.5656838,25.6146654 L67.0725811,25.5836723 C67.0725811,25.5836723 66.3244904,25.3816213 66.003922,25.2108613 C65.6681163,24.9626186 65.3627851,24.1395138 65.3627851,24.1395138 L62.233287,24.1395138 C62.233287,24.1395138 62.4014828,24.8538448 61.9279558,25.288642 C61.7448157,25.5058916 60.9814877,25.630162 60.9814877,25.630162 L43.6098429,25.630162 L45.7621054,20.5845473 L39.2133082,20.5380576 L40.3124419,17.2155393 L44.2354495,17.2155393 C44.2354495,17.2155393 44.3119288,14.9488719 44.4185896,14.7158278 C44.5255434,14.4830816 44.8156373,14.2345409 44.8156373,14.2345409 C44.8156373,14.2345409 44.0065976,13.380741 44.1440259,12.5114446 C44.2202122,11.4555936 44.8461118,10.9123206 44.8461118,10.9123206 C44.8461118,10.9123206 44.0675466,10.011733 44.1592632,9.09594694 C44.0983142,8.3351263 44.739451,7.49682294 45.8078172,7.18629607 C47.212282,6.92225882 47.5328505,7.72956909 47.5328505,7.72956909 L47.9146609,7.62109329 L68.9959918,7.62109329 L69.2096064,7.91612363 L69.9729343,7.72956909 L73.2700423,7.68307946 C73.2700423,7.68307946 73.9114722,7.24858025 73.957184,7.2327857 C74.0028957,7.21728915 75.315937,7.18629607 76.1554513,7.20209062 C76.9949655,7.21728915 76.9337235,7.77605872 76.9337235,7.77605872 L80.7808378,7.79185327 L81.4067374,8.05589052 L81.4676864,7.96261325 C81.5289285,7.869634 82.1240606,7.65208638 82.1240606,7.65208638 L85.9099328,7.65208638 C85.9099328,7.65208638 86.4529066,6.93805337 87.6147475,6.93805337 C88.6831136,6.93805337 89.3752367,7.69887402 89.3752367,7.69887402 L94.6265228,7.69887402 L93.8479576,10.0582226 L94.64176,10.8035467 L93.9244369,12.4801535 L93.9244369,17.3862993 L98.4123951,17.3862993 L96.290314,22.5561843 L94.2142378,22.5561843 Z M100,16.3462429 L95.1454686,16.408229 L95.1454686,12.495948 L95.6342329,10.6327868 L95.053752,9.85676759 L96.0614621,6.5962354 L89.5279022,6.50325615 C89.5279022,6.50325615 88.6423832,5.99097621 87.4210585,6.03746583 C86.566307,6.03746583 85.5893644,6.65851958 85.5893644,6.65851958 C85.5893644,6.65851958 82.5058711,6.6275265 82.2005399,6.6275265 C81.8952087,6.6275265 81.2540718,6.90676228 81.2540718,6.90676228 L77.3463015,6.72050575 C77.3463015,6.72050575 76.4303079,6.14623964 74.6900374,6.19272927 C73.4994802,6.22372236 72.7056777,6.78249193 72.7056777,6.78249193 L69.5914169,6.81378302 L68.9807545,6.6275265 L47.7619954,6.5962354 C47.7619954,6.5962354 44.9735774,5.64409206 43.7622154,7.24858025 C42.4699789,8.72850008 43.6403174,10.9433136 43.6403174,10.9433136 C43.6403174,10.9433136 42.6326073,12.7134956 43.5486008,14.2345409 C43.4264097,14.9020843 43.3349862,16.1909794 43.3349862,16.1909794 L39.4881649,16.1909794 L37.9310345,21.5939086 L44.3119288,21.5939086 L42.1136615,26.5927357 C42.1136615,26.5927357 60.4218115,26.8412764 61.0122552,26.6547219 C61.2405211,26.5829013 61.5464383,26.5307495 61.9279558,26.3751881 C62.9509031,25.9874765 63.118806,25.1023855 63.118806,25.1023855 L64.76736,25.1023855 C64.76736,25.1023855 65.0422166,25.6456585 65.4240271,25.9561854 C65.8055446,26.2667123 66.901455,26.5575705 67.4236241,26.6237288 C67.8306346,26.6755826 92.2594736,26.7813763 93.0693924,26.5614446 C94.4035314,26.1999579 94.5960483,25.5991689 94.8706119,25.1023855 C95.1454686,24.6056021 95.1149941,23.51846 95.1149941,23.51846 L97.1605958,23.4877649 L100,16.3462429 Z" id="Fill-53" fill="#FFFFFF" mask="url(#mask-4)"></path>
                                </g>
                            </g>
                        </g>
                    </g>
                </g>
            </g>
        </g>
    </g>
</svg>