<svg xmlns="http://www.w3.org/2000/svg" xmlns:xlink="http://www.w3.org/1999/xlink" width="123" height="22" viewBox="0 0 123 22">
    <defs>
        <path id="a" d="M0 21.488h124.732V0H0z"/>
    </defs>
    <g fill="none" fill-rule="evenodd">
        <path fill="#FFF" d="M21.566 18.443h5.123V5.123h-5.123zM26.689 18.443h6.147v-3.074H26.69zM26.689 13.832h6.147v-3.074H26.69zM26.689 9.221h6.147V5.123H26.69z"/>
        <g transform="translate(-2)">
            <path fill="#FFF" d="M39.602 4.986c-1.276.613-1.914 1.87-1.914 3.77 0 .881.115 1.62.345 2.22.372.984 1.01 1.595 1.913 1.837.66.179 1.736.25 3.227.211.53-.013.881.051 1.053.191.2.115.301.314.301.593 0 .307-.114.517-.344.632-.258.115-.846.173-1.763.173-1.506 0-2.904-.102-4.194-.307v3.369c2.366.33 4.359.497 5.979.497 1.964 0 3.405-.306 4.322-.919.99-.676 1.484-1.85 1.484-3.52 0-1.583-.48-2.623-1.44-3.12-.603-.344-1.75-.517-3.442-.517h-.645c-.874 0-1.311-.268-1.311-.804 0-.305.128-.51.386-.612.344-.153.911-.23 1.7-.23.616 0 1.355.038 2.215.115.86.077 1.57.16 2.129.248v-3.98c-2.036-.383-3.857-.574-5.462-.574-2.022 0-3.535.242-4.539.727"/>
            <mask id="b" fill="#fff">
                <use xlink:href="#a"/>
            </mask>
            <path fill="#FFF" d="M107.476 9.12h3.742V4.509h-3.742v4.613zm-5.592 8.803h5.592V4.508h-5.592v13.415zm-3.656-8.802h3.656V4.508h-3.656v4.613zM114.271 4.986c-1.276.613-1.913 1.87-1.913 3.77 0 .881.113 1.62.344 2.22.372.984 1.01 1.595 1.914 1.837.659.179 1.735.25 3.225.211.53-.013.882.051 1.054.191.2.115.301.314.301.593 0 .307-.114.517-.344.632-.258.115-.846.173-1.763.173-1.506 0-2.903-.102-4.194-.307v3.369c2.365.33 4.358.497 5.979.497 1.963 0 3.405-.306 4.323-.919.988-.676 1.484-1.85 1.484-3.52 0-1.583-.481-2.623-1.441-3.12-.602-.344-1.75-.517-3.441-.517h-.646c-.874 0-1.312-.268-1.312-.804 0-.305.13-.51.388-.612.343-.153.91-.23 1.7-.23.615 0 1.354.038 2.214.115.86.077 1.57.16 2.13.248v-3.98c-2.037-.383-3.859-.574-5.464-.574-2.022 0-3.534.242-4.538.727M57.087 8.259h1.398c.473 0 .809.057 1.01.173.345.216.517.605.517 1.166 0 .587-.201 1.009-.603 1.263-.257.166-.652.25-1.183.25h-1.139V8.258zm-5.42-3.733v13.397h5.42v-3.637h3.204c.344 0 .71-.024 1.097-.075.802-.116 1.476-.326 2.022-.632.538-.31.97-.731 1.299-1.26a2.366 2.366 0 0 1-.024-.31l-.005-1.561c0-.104.007-.209.02-.312-1.985-.882-3.315-2.903-3.315-5.157 0-.147.008-.292.02-.435a6.46 6.46 0 0 0-.447-.018h-9.29zM88.356 8.182h1.678c1.004 0 1.505.44 1.505 1.32 0 .626-.23 1.034-.688 1.225-.315.128-.739.192-1.268.192h-1.227V8.182zM86.91 4.508c.013.155.02.312.02.47 0 2.218-1.242 4.176-3.162 5.094.02.124.031.25.03.376l-.004 1.56a2.285 2.285 0 0 1-.877 1.795v4.12h5.44l-.085-3.67h.13l11.186 7.264-6.37-9.125c.99-.115 1.72-.331 2.193-.651 1.076-.689 1.614-1.823 1.614-3.406 0-1.467-.51-2.532-1.527-3.196-.63-.421-1.485-.63-2.56-.63H86.91zM18.337 14.034c-.257.286-.676.319-.937.073L12.518 9.08c-.26-.246-.264-.675-.007-.96.256-.285.676-.317.936-.073l4.88 5.03c.263.244.266.674.01.958zm-4.374 0c-.257.286-.676.319-.94.073l-3.702-3.815v3.194c0 .405-.308.734-.688.734-.379 0-.686-.33-.686-.734v-4.86a.725.725 0 0 1 .014-.158l.005-.018a.694.694 0 0 1 .03-.104.69.69 0 0 1 .597-.46l.015-.002c.009 0 .017-.003.025-.003.014 0 .026.004.039.005a.607.607 0 0 1 .402.16l4.88 5.03c.261.244.264.674.009.958zm-7.8-.548c0 .405-.308.734-.688.734-.38 0-.689-.33-.689-.734V8.614c0-.404.309-.733.689-.733.38 0 .687.33.687.733v4.872zM15.91 1.878h-8.51c-2.625 0-4.754 2.173-4.754 4.854v8.69c0 2.68 2.129 4.854 4.755 4.854h8.51c2.625 0 4.754-2.174 4.754-4.855V6.732c0-2.68-2.129-4.854-4.755-4.854zM75.77 16.665a.522.522 0 0 0 .517-.528.522.522 0 0 0-.518-.528.523.523 0 0 0-.517.528c0 .291.232.528.517.528M72.79 15.609a.523.523 0 0 0-.518.528c0 .291.232.528.518.528a.522.522 0 0 0 .517-.528.522.522 0 0 0-.517-.528" mask="url(#b)"/>
            <path fill="#FFF" d="M82.601 11.882c0 .069-.007.137-.02.202-.005.02-.013.04-.02.06-.01.043-.021.087-.038.128-.014.033-.034.064-.052.096-.013.024-.024.05-.04.074a.99.99 0 0 1-.102.126c-.007.007-.011.015-.017.021-.089.09-.194.162-.31.213l-.003.002a.928.928 0 0 1-.15.047c-.012.003-.022.009-.034.011-.038.008-.077.008-.116.012-.027.002-.053.008-.081.008h-.127v-.104l.01-3.464h.126a.968.968 0 0 1 .718.327h.002c.012.014.022.03.033.045.025.03.05.06.07.092.013.022.024.046.036.07.017.03.035.061.048.095.013.033.02.068.03.103.008.027.018.052.024.08.012.063.018.129.018.196l-.005 1.56zm-1.594-2.153l-.01 3.314a.179.179 0 0 1-.177.179.178.178 0 0 1-.176-.18l.012-3.893c0-.048.02-.094.053-.127a.17.17 0 0 1 .124-.052.178.178 0 0 1 .176.18l-.003.58zm-.37 5.278V13.7a.674.674 0 0 0 .35.003 7.29 7.29 0 0 1-.35 1.303zm-.48.647l-.002.045c0 .065-.004.128-.008.19a1.62 1.62 0 0 1-.364.333 1.562 1.562 0 0 1-.937.243.49.49 0 0 0-.456-.325h-.604c-.27 0-.49.225-.49.5v.065c0 .275.22.5.49.5h.604a.491.491 0 0 0 .473-.382c.022.001.043.004.065.004.382 0 .73-.101 1.043-.304.03-.019.056-.041.085-.061-.368 1.39-1.715 2.022-3.302 2.036h-4.946c-1.855-.017-3.382-.874-3.404-2.801l-.001-.023v-.71c1.636-.746 3.672-1.188 5.877-1.188 2.205 0 4.24.442 5.877 1.187v.691zM67.81 13.213c-.014.004-.029.009-.045.009l-.005-.001-.007.001a.177.177 0 0 1-.175-.179l-.012-3.314h.012l-.002-.58a.178.178 0 0 1 .175-.18c.047 0 .091.019.125.053.033.033.05.079.051.127l.014 3.893c0 .082-.056.15-.13.17zm2.616-3.88l1.648 1.683a1.149 1.149 0 0 1-1.648 0 1.209 1.209 0 0 1 0-1.683zm7.707 0a1.209 1.209 0 0 1 0 1.683 1.15 1.15 0 0 1-1.648 0l1.648-1.683zm-11.05 3.55h-.128a.995.995 0 0 1-.984-1.001l-.004-1.56a1.01 1.01 0 0 1 .237-.656l.014.002a.966.966 0 0 1 .74-.354h.124l.012 3.568h-.011zm19.15-8.027c0-2.384-1.68-4.365-3.896-4.785a2.488 2.488 0 0 1 1.564 2.322c0 1.363-1.075 2.487-2.406 2.506h-1.881a23.853 23.853 0 0 0-10.668 0h-2.03c-1.331-.019-2.405-1.143-2.405-2.506 0-1.06.65-1.963 1.562-2.322-2.216.42-3.895 2.4-3.895 4.785 0 2.242 1.484 4.127 3.502 4.694-.132.227-.209.491-.208.774l.006 1.56c.003.83.668 1.506 1.482 1.503l.215-.001a.669.669 0 0 0 .747.318v2.017c.033 2.19 1.772 3.262 3.884 3.283h4.95c2.084-.02 3.803-1.068 3.878-3.2.472-.768.677-1.813.76-2.41 0-.003.002-.005.004-.008h.215c.814.004 1.48-.671 1.482-1.502l.005-1.56c.001-.3-.085-.579-.232-.815 1.948-.612 3.365-2.462 3.365-4.653z" mask="url(#b)"/>
        </g>
    </g>
</svg>
