<?xml version="1.0" encoding="UTF-8"?>
<svg width="28px" height="28px" viewBox="0 0 28 28" version="1.1" xmlns="http://www.w3.org/2000/svg" xmlns:xlink="http://www.w3.org/1999/xlink">
    <!-- Generator: Sketch 54.1 (76490) - https://sketchapp.com -->
    <title>13_mg</title>
    <desc>Created with Sketch.</desc>
    <defs>
        <polygon id="path-1" points="0 6.66666667e-05 27.8096333 6.66666667e-05 27.8096333 27.8100333 0 27.8100333"></polygon>
    </defs>
    <g id="页面-1" stroke="none" stroke-width="1" fill="none" fill-rule="evenodd">
        <g id="yabo首页2" transform="translate(-1186.000000, -2425.000000)">
            <g id="游戏板块" transform="translate(359.000000, 2271.000000)">
                <g id="hover" transform="translate(1.000000, 0.000000)">
                    <g id="电子游戏" transform="translate(743.000000, 0.000000)">
                        <g id="13_mg" transform="translate(83.000000, 154.000000)">
                            <mask id="mask-2" fill="white">
                                <use xlink:href="#path-1"></use>
                            </mask>
                            <g id="Clip-2"></g>
                            <path d="M13.9049667,6.66666667e-05 C6.2253,6.66666667e-05 -3.33333333e-05,6.22573333 -3.33333333e-05,13.9050667 C-3.33333333e-05,15.3014 0.206633333,16.6490667 0.589966667,17.9210667 C0.611633333,17.8894 4.1023,12.8740667 5.79996667,9.92173333 C7.50296667,6.96006667 8.9343,4.29373333 9.15663333,3.77573333 C9.37863333,3.25773333 9.92163333,2.6904 10.6866333,2.86306667 C11.4519667,3.03573333 11.6493,3.6774 11.6493,4.0724 C11.6493,4.46706667 11.2543,8.51506667 11.3286333,12.4640667 C11.4023,16.4127333 11.8713,18.8817333 12.3156333,19.7700667 C12.7596333,20.6580667 12.9079667,20.4367333 13.5496333,19.7700667 C14.1913,19.1030667 17.6713,13.7227333 19.1029667,9.60106667 C19.3496333,8.8604 19.7199667,8.36706667 20.5589667,8.4164 C21.3979667,8.4654 21.6449667,9.20606667 21.6696333,9.5764 C21.6943,9.9464 22.1633,15.4207333 24.2609667,18.0637333 C24.5079667,18.4367333 24.3599667,18.6340667 24.2609667,18.7080667 C24.1623,18.7824 24.0389667,18.8560667 23.7923,18.6094 C23.5453,18.3627333 21.4723,16.4624 20.2873,13.0317333 C19.2263,15.5240667 16.3633,20.9787333 14.7836333,22.0647333 C13.2043,23.1507333 12.1923,22.9780667 11.3286333,22.4844 C10.4646333,21.9907333 8.6133,20.5674 8.83563333,10.2760667 C7.4403,13.1620667 4.1743,18.5794 2.31363333,21.5864 C4.80396667,25.3370667 9.0653,27.8100667 13.9049667,27.8100667 C21.5843,27.8100667 27.8096333,21.5847333 27.8096333,13.9050667 C27.8096333,6.22573333 21.5843,6.66666667e-05 13.9049667,6.66666667e-05" id="Fill-1" fill="#FEFEFE" mask="url(#mask-2)"></path>
                        </g>
                    </g>
                </g>
            </g>
        </g>
    </g>
</svg>