<?xml version="1.0" encoding="UTF-8"?>
<svg width="59px" height="22px" viewBox="0 0 59 22" version="1.1" xmlns="http://www.w3.org/2000/svg" xmlns:xlink="http://www.w3.org/1999/xlink">
    <!-- Generator: Sketch 54.1 (76490) - https://sketchapp.com -->
    <title>logo_gd</title>
    <desc>Created with Sketch.</desc>
    <defs>
        <polygon id="path-1" points="0 0 59 0 59 22 0 22"></polygon>
    </defs>
    <g id="页面-1" stroke="none" stroke-width="1" fill="none" fill-rule="evenodd">
        <g id="yabo首页2" transform="translate(-429.000000, -2487.000000)">
            <g id="游戏板块" transform="translate(359.000000, 2271.000000)">
                <g id="hover" transform="translate(1.000000, 0.000000)">
                    <g id="真人视讯">
                        <g id="logo_gd" transform="translate(69.000000, 216.000000)">
                            <g>
                                <mask id="mask-2" fill="white">
                                    <use xlink:href="#path-1"></use>
                                </mask>
                                <g id="path-1"></g>
                                <path d="M53.1254242,18.5710132 C52.9687453,18.804085 53.242685,18.6487038 53.242685,18.6487038 C56.1159052,16.731129 57.9834652,19.1540218 57.9834652,19.1540218 C59.0540494,20.4240654 59.9815358,20.2426777 59.9815358,20.2426777 C61.2876353,20.1261417 61.5880746,18.8432594 61.5880746,18.8432594 C62.1886221,16.2254817 59.7072648,16.2386496 59.7072648,16.2386496 C57.3564182,16.6142639 58.6495991,18.3764576 58.6495991,18.3764576 C58.388578,17.4695187 59.1590541,17.1327497 59.1590541,17.1327497 C61.0786196,16.4068694 61.3919776,18.3379415 61.3919776,18.3379415 C61.4443143,19.9575927 59.7857699,19.9315861 59.7857699,19.9315861 C58.9629571,19.8927409 57.5916022,18.4544774 57.5916022,18.4544774 C54.8883107,16.3940308 53.1254242,18.5710132 53.1254242,18.5710132 L53.1254242,18.5710132 Z M52.3416983,18.9597954 C52.2108564,19.2188737 52.4983772,18.9986406 52.4983772,18.9986406 C53.987324,17.728597 53.9479059,15.3445494 53.9479059,15.3445494 C53.5563742,12.1697697 50.6569856,12.3123121 50.6569856,12.3123121 C50.2912909,12.2991443 50.5003067,12.4676933 50.5003067,12.4676933 C51.6626457,12.3900028 52.5377953,13.0895472 52.5377953,13.0895472 C55.2281683,15.3962334 52.3416983,18.9597954 52.3416983,18.9597954 L52.3416983,18.9597954 Z M49.7950858,13.9839766 C49.7950858,13.9839766 47.6141679,14.3207455 47.7185101,16.4328761 C47.7185101,16.4328761 47.7317599,17.0807366 48.502236,17.0550592 C48.502236,17.0550592 49.2074569,16.9385233 49.129283,16.277495 C49.129283,16.277495 48.5151546,15.4350788 49.129283,14.5669852 L49.7950858,13.9839766 Z M49.3247177,20.7479956 C49.3247177,20.95539 49.403554,20.9033769 49.403554,20.9033769 C50.6964037,20.450072 51.8716614,19.1928672 51.8716614,19.1928672 C54.1698401,16.4848893 52.3807852,14.411604 52.3807852,14.411604 C50.1216934,12.2734669 48.267052,14.4892946 48.267052,14.4892946 C48.8543496,13.9448021 49.9517647,13.7894209 49.9517647,13.7894209 C52.5639638,13.6208718 52.73323,16.0444231 52.73323,16.0444231 C53.0207508,19.257719 49.3247177,20.7479956 49.3247177,20.7479956 L49.3247177,20.7479956 Z M49.6774937,20.3980588 C50.1998673,20.229839 50.6569856,19.8538955 50.6569856,19.8538955 C52.7988166,17.8974754 52.4983772,16.5494119 52.4983772,16.5494119 C52.0674273,14.8649089 51.0485173,15.4999306 51.0485173,15.4999306 C50.2912909,16.1866364 51.0485173,16.666277 51.0485173,16.666277 C52.276443,17.1715951 51.5583035,18.3764576 51.5583035,18.3764576 C51.845493,16.8736714 50.5788117,16.9385233 50.5788117,16.9385233 C49.6384067,17.2881309 50.4612197,18.1822311 50.4612197,18.1822311 C51.218446,19.4131002 49.6774937,20.3980588 49.6774937,20.3980588 L49.6774937,20.3980588 Z M12.0907783,12.4930415 L12.0907783,13.5296841 L12.4644228,13.5296841 C13.3339413,13.5398893 13.9219013,13.6771646 14.2183657,13.9464481 C14.5817415,14.2618192 14.760614,14.9021081 14.760614,15.8627062 L14.760614,16.6251274 C14.760614,17.204844 14.7096022,17.6726336 14.6122161,18.0281667 C14.5303986,18.3280655 14.3667635,18.6431075 14.1163422,18.9785596 C13.2875669,20.0817001 12.0603037,20.6357393 10.4285902,20.6357393 C9.39046802,20.6357393 8.4543693,20.3967421 7.62592524,19.9240146 C6.78688134,19.4463491 6.12737231,18.7905879 5.64673563,17.95706 C4.80769173,16.5033243 4.3883354,14.3125156 4.3883354,11.4001062 C4.3883354,7.42537668 5.1760363,4.74143023 6.75640679,3.35353397 C7.845872,2.39293594 9.12447818,1.91000334 10.5922253,1.91000334 C11.5127555,1.91000334 12.3773053,2.10850938 13.1905121,2.50486306 C14.0037188,2.90121674 14.6840964,3.45525597 15.2210447,4.15677564 C16.0395514,5.24971102 16.5917371,6.58625249 16.8729641,8.16212046 L17.8753119,8.16212046 L17.8140315,1.23909903 L16.826921,1.23909903 C16.7245663,2.08316118 16.520188,2.82517213 16.2131238,3.46052312 C14.5303986,1.61537167 12.4180484,0.690326959 9.86613602,0.690326959 C8.09629331,0.690326959 6.51592284,1.09688575 5.11475596,1.91000334 C3.72352644,2.71851217 2.57774956,3.87728704 1.67775656,5.40212942 C0.557485543,7.28777216 0,9.33142965 0,11.5271764 C0,12.8791901 0.224915439,14.1805074 0.680377484,15.4360663 C1.13550828,16.6965632 1.77481137,17.7740263 2.59298682,18.6786608 C4.46518427,20.7578716 6.88426741,21.7945143 9.85056749,21.7945143 C11.1599795,21.7945143 12.6893382,21.4998826 14.4383125,20.9099608 C15.7682617,20.4629108 16.8935013,20.2393857 17.8140315,20.2393857 C17.901149,20.2393857 18.0902899,20.2594668 18.3817857,20.2953493 L18.3817857,17.4283691 C18.3920542,15.842296 18.4483659,14.9073753 18.5454207,14.6328247 C18.7090558,14.1752403 18.9955829,13.8704035 19.4046706,13.722923 C19.798521,13.5958528 20.1565971,13.5296841 20.4891671,13.5296841 L20.7140826,13.5296841 L20.7140826,12.4930415 L12.0907783,12.4930415 Z M24.3379042,12.4186429 C23.6687891,12.4186429 23.0854664,12.6652118 22.5895925,13.1599955 C22.3265838,13.4236826 22.1135933,13.85954 21.9492957,14.4678968 C21.7846668,15.0759244 21.701193,15.7343192 21.701193,16.4470316 C21.701193,17.5804582 21.8900027,18.5242672 22.267291,19.2784584 C22.3832267,19.5141638 22.5895925,19.7449311 22.8834069,19.969773 C23.3176693,20.3075295 23.8354053,20.4754202 24.4409214,20.4754202 C25.1428299,20.4754202 25.7370836,20.1942856 26.2220265,19.6316873 C26.3972551,19.4223177 26.5529403,19.12604 26.6847759,18.7425251 C26.9414909,18.0015017 27.0706765,17.2384221 27.0706765,16.4536155 C27.0706765,15.6187709 26.9414909,14.8339643 26.6847759,14.0995249 C26.4959662,13.5500944 26.206458,13.1382684 25.8162512,12.8653638 C25.3972261,12.5671109 24.9036709,12.4186429 24.3379042,12.4186429 L24.3379042,12.4186429 Z M24.45384,11.9215549 C25.8424195,11.9215549 26.9742841,12.3988911 27.8471151,13.3538927 C28.5927478,14.1670104 28.9657298,15.1960815 28.9657298,16.4404477 C28.9657298,17.1182651 28.8428379,17.7572373 28.5950665,18.3544013 C28.3496139,18.9538698 28.005119,19.4509579 27.5642317,19.8476408 C27.1650814,20.2051491 26.6890821,20.4820042 26.1342466,20.6782058 C25.5790797,20.8744075 24.995757,20.9725083 24.3836161,20.9725083 C23.6797201,20.9725083 23.0284923,20.8480717 22.4249636,20.601832 C21.8240849,20.3555923 21.3219174,20.0023636 20.9184608,19.5467544 C20.176803,18.7119097 19.8061397,17.6831679 19.8061397,16.4601994 C19.8061397,15.5140862 20.0320488,14.6726575 20.4818798,13.9359138 C20.887655,13.270935 21.4643528,12.7563995 22.2099855,12.3946115 C22.8615447,12.078582 23.6094962,11.9215549 24.45384,11.9215549 L24.45384,11.9215549 Z M36.696991,18.1210004 L36.6396857,20.8023133 L29.3844237,20.8023133 L29.3844237,20.368431 L29.5838333,20.368431 C29.8140487,20.368431 29.9939147,20.3447288 30.1211129,20.2943616 C30.2463235,20.2462988 30.3427159,20.1636703 30.4063149,20.048122 C30.5182757,19.8693678 30.5775687,19.4203425 30.586181,18.7010462 L30.586181,14.1169723 C30.5775687,13.4259869 30.5182757,12.9812413 30.4063149,12.7807601 C30.3582844,12.7001067 30.3076039,12.6474351 30.2529485,12.6214286 C30.1671559,12.5493343 29.9283282,12.5124642 29.5377902,12.5124642 L29.3844237,12.5124642 L29.3844237,12.078582 L33.5475124,12.078582 L33.5475124,12.5124642 L33.2533667,12.5124642 C32.9834019,12.5124642 32.7839924,12.532216 32.6587817,12.5733657 C32.5319148,12.6148446 32.4398287,12.6826593 32.384842,12.7807601 C32.2728812,12.9812413 32.2139196,13.4259869 32.2049759,14.1169723 L32.2049759,18.8231784 C32.2049759,19.3485775 32.2225319,19.664607 32.2553252,19.7755466 C32.303687,19.9674686 32.3762296,20.1024396 32.4749407,20.1788134 C32.6196949,20.2854733 32.9333839,20.3401201 33.4136894,20.3447288 L33.8830638,20.3447288 C34.288839,20.3447288 34.5892783,20.3141135 34.782063,20.2551872 C35.4578031,20.076433 35.9579831,19.366025 36.2782972,18.1210004 L36.696991,18.1210004 Z M39.5877672,12.4752649 L39.5877672,18.3609853 C39.5877672,18.9802056 39.6006858,19.3788637 39.6268542,19.5576179 C39.6772035,19.8868152 39.7673021,20.0961848 39.896819,20.1896769 C40.041573,20.2923865 40.2784133,20.3447288 40.6030335,20.3447288 C41.6358559,20.3447288 42.3576389,20.1244958 42.7677205,19.686334 C43.4020548,19.0127962 43.7197189,17.9814207 43.7197189,16.5931953 C43.7197189,14.995271 43.3318309,13.852956 42.5573798,13.1665795 C42.2834401,12.9200106 41.9979068,12.7458651 41.7021049,12.6431555 C41.3556225,12.5190481 40.890223,12.4581466 40.3072317,12.4581466 C40.1048409,12.4581466 39.8660132,12.4644014 39.5877672,12.4752649 L39.5877672,12.4752649 Z M45.51838,16.9717722 C45.4998302,17.203198 45.4667057,17.4290274 45.418344,17.6489313 C45.5246736,17.7815978 45.5246736,17.9880046 45.5246736,17.9880046 C45.4650494,18.3033757 45.3146641,18.440651 45.1513604,18.4897014 C45.0221747,18.7905879 44.8668208,19.0618465 44.6852984,19.3034774 L44.7015295,19.3097322 C46.8827786,19.49112 46.4256603,17.7549329 46.4256603,17.7549329 C46.2298945,17.1656695 45.8532687,16.9934993 45.51838,16.9717722 L45.51838,16.9717722 Z M22.5187061,0.650164875 L22.5187061,7.9040297 C22.5187061,8.66710929 22.5346057,9.15860101 22.567399,9.37916328 C22.6293419,9.78473448 22.740309,10.0428252 22.8996379,10.1583735 C23.0781791,10.2844561 23.370006,10.3489788 23.7701501,10.3489788 C25.0434563,10.3489788 25.9328495,10.0777202 26.4383296,9.53750723 C27.2194056,8.70727137 27.6115998,7.43656939 27.6115998,5.72540127 C27.6115998,3.7558132 27.1332819,2.34816509 26.1789646,1.50179856 C25.8410946,1.19827856 25.4896435,0.98331265 25.1246114,0.856900846 C24.6973052,0.70415325 24.1242512,0.628767044 23.405118,0.628767044 C23.1563528,0.628767044 22.861876,0.636667782 22.5187061,0.650164875 L22.5187061,0.650164875 Z M20.5236166,8.3234272 L20.5236166,2.7270713 C20.5126856,1.8780712 20.4368304,1.32732393 20.2937325,1.08273027 C20.2423895,0.978045491 20.1827654,0.91088922 20.1208226,0.883895033 C20.0207866,0.795340932 19.7286283,0.752216071 19.2476604,0.752216071 L19.0177763,0.752216071 L19.0177763,0.214965905 C19.2827724,0.20673597 19.7988523,0.180070981 20.5640286,0.139908897 C21.2397686,0.104684775 21.8101727,0.0859205228 22.2752408,0.0806533643 L22.5750177,0.0806533643 C24.097089,0.0806533643 25.2948714,0.214965905 26.1653835,0.480957409 C27.3277227,0.838136594 28.2144659,1.43464229 28.8279319,2.27014531 C29.5093032,3.18663089 29.8501544,4.31215681 29.8501544,5.64738149 C29.8501544,6.46938741 29.7067252,7.23773416 29.4228481,7.94978814 C29.1363211,8.65920855 28.736177,9.24221716 28.2197658,9.6935468 C27.4900328,10.327581 26.5436655,10.7117543 25.3760265,10.8434333 C24.9649512,10.8891918 24.2650303,10.9132232 23.278251,10.9132232 L18.9879642,10.9132232 L18.9879642,10.3786066 L19.2963535,10.3786066 C19.8395955,10.3624759 20.1748155,10.2360641 20.3016824,9.99970038 C20.4398116,9.77387096 20.5126856,9.21522297 20.5236166,8.3234272 L20.5236166,8.3234272 Z M34.8234686,6.46412025 C34.8370497,6.38083331 34.8449995,6.29754637 34.8449995,6.21425942 C34.8449995,5.64211433 34.6936205,5.22831319 34.3938437,4.96495527 C34.1775406,4.78225071 33.9234756,4.69106303 33.6260175,4.69106303 C33.1990425,4.69106303 32.8744223,4.84940698 32.6528194,5.16905766 C32.4580472,5.45117983 32.3285303,5.88374522 32.2662563,6.46412025 L34.8234686,6.46412025 Z M35.9483771,9.37389612 L36.4319949,9.52137655 C36.2941969,9.84399002 36.0997561,10.1231494 35.8456911,10.3598423 C35.272637,10.8997261 34.5720535,11.1709848 33.7502345,11.1709848 C32.7962485,11.1709848 31.9933103,10.8243399 31.3444011,10.1313793 C30.7577659,9.50261231 30.465939,8.68587354 30.465939,7.68379664 C30.465939,7.13831654 30.565975,6.6227934 30.7660471,6.13887321 C30.9661192,5.65264865 31.244365,5.2523446 31.5984661,4.93796107 C32.1771513,4.41947517 32.8717724,4.15908002 33.6773605,4.15908002 C34.4425368,4.15908002 35.0831648,4.38721382 35.6022259,4.8467734 C36.2021109,5.38665714 36.4999002,6.07994688 36.494269,6.93158057 L32.2500253,6.93158057 C32.2284944,7.20020565 32.2175633,7.4474329 32.2175633,7.67326232 C32.2175633,8.24804099 32.2851373,8.75302981 32.4229352,9.18855798 C32.5607332,9.62112337 32.7502054,9.94340763 32.9936706,10.14751 C33.3262407,10.4214023 33.7045226,10.5583484 34.1261977,10.5583484 C34.9344358,10.5583484 35.5426018,10.1636407 35.9483771,9.37389612 L35.9483771,9.37389612 Z M39.3592081,0 L39.3592081,8.79615467 C39.3648393,9.51347581 39.4161823,9.9592091 39.5105872,10.1261122 C39.5943922,10.2953197 39.8352074,10.3812402 40.2297203,10.3865073 L40.3731495,10.3865073 L40.3731495,10.9132232 L36.6913599,10.9132232 L36.6913599,10.3865073 L36.8748697,10.3865073 C37.2074397,10.3865073 37.432024,10.3193511 37.5482911,10.1876721 C37.6642268,10.0642231 37.7265009,9.59939634 37.737432,8.79615467 L37.737432,2.34289794 C37.7318008,1.77042365 37.6834391,1.40238094 37.5940028,1.23844063 C37.494298,1.05046892 37.2534828,0.953684883 36.8748697,0.948417724 L36.7639026,0.948417724 L36.7639026,0.429931811 C37.0209487,0.40853398 37.3508689,0.36540912 37.7510131,0.303520008 C38.4751148,0.190934495 38.9646951,0.0885541021 39.2190914,0 L39.3592081,0 Z M55.0267713,4.94355743 L55.0267713,4.41684159 L52.5126208,4.41684159 L52.5126208,4.94355743 L52.575226,4.94355743 C52.6292191,4.94355743 52.666981,4.94619102 52.6885119,4.95145818 C52.7073928,4.95705452 52.7209739,4.95968811 52.7262738,4.95968811 C53.0697751,5.00248377 53.242685,5.10749774 53.242685,5.27374243 C53.242685,5.35702938 53.1207868,5.54269672 52.8776528,5.8244897 L52.0233717,6.82393301 L51.1041664,5.66087858 C50.9286066,5.44591268 50.8421516,5.29283588 50.8421516,5.20395258 C50.8421516,5.03474512 51.0097616,4.94882459 51.3476317,4.94355743 L51.4261367,4.94355743 L51.4261367,4.41684159 L48.0361742,4.41684159 L48.0361742,4.94355743 L48.114348,4.94355743 C48.263077,4.94355743 48.4336683,5.00808013 48.6228092,5.13416273 C48.8119503,5.24444386 49.1392204,5.58022522 49.5989886,6.14710315 L51.0259926,7.90139612 L49.7636175,9.30377707 C49.1687012,9.98093613 48.6039282,10.3381153 48.076586,10.3812402 L47.9709189,10.3812402 L47.9709189,10.382557 C47.6529235,10.3637927 47.4525202,10.2762262 47.3716964,10.1178823 C47.2637105,9.95130836 47.2093863,9.51084224 47.2040863,8.79615467 L47.2040863,4.41684159 L44.6008309,4.41684159 L44.6008309,4.94355743 L44.7197479,4.94355743 C45.1089609,4.94882459 45.3467949,5.03474512 45.4309312,5.20395258 C45.5276548,5.36789289 45.5766791,5.8113218 45.5823102,6.5339101 L45.5823102,8.34482503 C45.5823102,8.92223728 45.4060879,9.40056111 45.057618,9.78736806 C44.698217,10.1824049 44.2924417,10.3812402 43.8436046,10.3812402 C43.4815537,10.3812402 43.2112577,10.2228962 43.0327165,9.90554992 C42.9273806,9.7310753 42.8733876,9.37389612 42.8733876,8.83368317 L42.8733876,4.41684159 L40.269801,4.41684159 L40.269801,4.94355743 L40.348306,4.94355743 C40.7458002,4.94882459 40.9866154,5.03770789 41.0783703,5.21218252 C41.1890062,5.41628491 41.2459804,5.85675103 41.250949,6.5339101 L41.250949,8.83368317 C41.250949,9.67478255 41.4135903,10.2521948 41.7348981,10.5718454 C42.1406735,10.9721496 42.6431722,11.1709848 43.2463696,11.1709848 C44.1761747,11.1709848 44.954932,10.7091208 45.5823102,9.78736806 C45.587279,10.2442941 45.614441,10.5692119 45.6604841,10.7627799 C45.6929461,10.9428509 45.7280581,11.0768343 45.7628388,11.1736184 L45.8579062,11.1736184 C46.138802,11.0742007 46.5740581,10.9991437 47.1663244,10.9533852 C47.5121444,10.9270495 47.8294771,10.9135524 48.1176604,10.9132232 L48.1312415,10.9132232 L50.6798414,10.9132232 L50.6798414,10.3891409 L50.6636104,10.3891409 L50.6149174,10.3891409 L50.5205126,10.3891409 L50.5122314,10.3891409 C50.3366715,10.3891409 50.1909236,10.3568796 50.0822753,10.2953197 C49.9716394,10.230797 49.9173152,10.14751 49.9173152,10.0428252 C49.9173152,9.9592091 50.0445134,9.77123739 50.2962596,9.47594731 L51.3151696,8.28820308 L52.3642229,9.62639053 C52.561645,9.86802142 52.659031,10.024061 52.659031,10.099118 C52.659031,10.2495612 52.5450828,10.3381153 52.3181798,10.3651095 C52.1260577,10.3812402 52.0180717,10.3891409 51.9909097,10.3891409 L51.9127358,10.3891409 L51.9127358,10.9132232 L55.4487776,10.9132232 L55.4487776,10.3891409 L55.3619912,10.3730102 C55.2135935,10.3624759 55.0595645,10.3084876 54.9025543,10.2093991 C54.7160633,10.1099815 54.4484172,9.84102724 54.0996162,9.40615746 L52.3155299,7.18670855 L53.4321572,5.94300076 L53.5593554,5.84094956 C53.8727132,5.54269672 54.0837164,5.34912863 54.1943522,5.25794095 C54.4861792,5.05350937 54.7485253,4.94882459 54.9863593,4.94355743 L55.0267713,4.94355743 Z M59.425044,6.46412025 C59.4382938,6.38083331 59.4465749,6.29754637 59.4465749,6.21425942 C59.4465749,5.64211433 59.2951959,5.22831319 58.9950878,4.96495527 C58.7784535,4.78225071 58.5247198,4.69106303 58.2269304,4.69106303 C57.7999554,4.69106303 57.4756665,4.84940698 57.2540634,5.16905766 C57.0592913,5.45117983 56.9294432,5.88374522 56.8675004,6.46412025 L59.425044,6.46412025 Z M60.54929,9.37389612 L61.033239,9.52137655 C60.8954411,9.84399002 60.700669,10.1231494 60.4469352,10.3598423 C59.8735499,10.8997261 59.1736289,11.1709848 58.3514785,11.1709848 C57.3971613,11.1709848 56.5945544,10.8243399 55.9456452,10.1313793 C55.3590101,9.50261231 55.0668519,8.68587354 55.0668519,7.68379664 C55.0668519,7.13831654 55.1668879,6.6227934 55.3672912,6.13887321 C55.5670321,5.65264865 55.8456092,5.2523446 56.1997102,4.93796107 C56.7780642,4.41947517 57.4730164,4.15908002 58.2786046,4.15908002 C59.0434495,4.15908002 59.6844089,4.38721382 60.20347,4.8467734 C60.8036862,5.38665714 61.100813,6.07994688 61.0955131,6.93158057 L56.8512694,6.93158057 C56.8297384,7.20020565 56.8184761,7.4474329 56.8184761,7.67326232 C56.8184761,8.24804099 56.8863814,8.75302981 57.0241793,9.18855798 C57.1623085,9.62112337 57.3514495,9.94340763 57.5945835,10.14751 C57.9271535,10.4214023 58.3057667,10.5583484 58.7271105,10.5583484 C59.5356799,10.5583484 60.1438459,10.1636407 60.54929,9.37389612 L60.54929,9.37389612 Z M43.9999523,19.9835993 C44.3308662,20.375015 46.5548459,22.8025166 49.5989886,21.2144684 C49.5989886,21.2144684 51.5583035,20.2943616 52.7729794,19.1151765 C52.7729794,19.1151765 55.5411949,16.7179611 57.5916022,19.2705577 C57.5916022,19.2705577 58.9758755,21.2273071 56.7687894,22.6138865 C56.7687894,22.6138865 55.6064502,23.5079868 54.3397688,22.5750413 C54.3397688,22.5750413 53.0078322,21.3961854 54.104916,20.2426777 C54.104916,20.2426777 54.3530187,20.1518191 54.0658291,20.5926144 C54.0658291,20.5926144 53.2950217,22.0437166 55.1234948,22.769597 C55.1234948,22.769597 56.8211261,23.0155074 57.3173312,21.4867147 C57.3173312,21.4867147 57.6045208,20.8648607 57.5134284,20.164987 C57.5134284,20.164987 57.5654339,21.8234836 55.9463077,22.0697233 C55.9463077,22.0697233 54.1698401,22.3548082 54.261595,20.5145947 C54.261595,20.5145947 54.4311925,18.9206209 55.9853946,19.5816492 C55.9853946,19.5816492 56.7167839,20.0352833 55.7114549,20.786841 C55.7114549,20.786841 55.1234948,20.8260154 55.3192607,20.4760786 C55.3192607,20.4760786 55.7896288,20.8260154 56.0244816,20.164987 C56.0244816,20.164987 55.8807211,19.4131002 54.9668159,19.7370304 C54.9668159,19.7370304 54.1698401,20.2426777 54.6140398,21.2533137 C54.6140398,21.2533137 55.3192607,22.3808148 56.6121103,21.6032505 C56.6121103,21.6032505 57.9705466,20.5666079 56.8078762,19.3097322 C56.8078762,19.3097322 55.345429,17.9359914 52.8511533,19.9315861 C52.8511533,19.9315861 50.0564381,22.5233573 47.0132892,22.2251045 C47.0132892,22.2251045 45.1851474,22.01771 43.8399609,20.164987 L43.8929601,20.0596439 C43.3523681,20.4280158 42.6908716,20.6571372 41.9061519,20.7456913 C41.572588,20.7825614 41.0045026,20.8023133 40.2038832,20.8023133 L36.7228282,20.8023133 L36.7228282,20.368431 L36.9729182,20.368431 C37.4138055,20.3555923 37.686089,20.2528828 37.788775,20.0612899 C37.9007358,19.8782561 37.9600287,19.4246221 37.968641,18.7010462 L37.968641,14.1604264 C37.9600287,13.4714162 37.8984171,13.0246954 37.7824813,12.8265185 C37.7407444,12.7415856 37.6923826,12.6866096 37.6420334,12.6652118 C37.5608783,12.5931175 37.324038,12.5582227 36.9335001,12.5582227 L36.7470091,12.5582227 L36.7470091,12.1223652 C36.9619872,12.1157813 37.3810123,12.0940542 38.0017656,12.0611345 C38.5499763,12.0328235 39.0130569,12.0176804 39.3900139,12.0134009 L39.6338103,12.0134009 C40.8683609,12.0134009 41.8402341,12.1223652 42.5464487,12.3379895 C43.4895035,12.6280125 44.208968,13.1119326 44.7068293,13.7897501 C45.2596775,14.5330778 45.5362672,15.4466006 45.5362672,16.5296602 C45.5362672,16.6083382 45.5342797,16.6863581 45.5309672,16.7637195 C46.5727332,16.7900553 46.7390182,18.1822311 46.7390182,18.1822311 C46.3445052,20.0023636 44.8866955,19.569469 44.5677064,19.4509579 L44.5521379,19.4693929 L45.1718975,20.0484512 C46.7260997,21.4995534 47.875189,19.8538955 47.875189,19.8538955 C47.9931123,20.6314598 47.4048209,20.9033769 47.4048209,20.9033769 C49.0636965,21.007074 49.129283,19.6204946 49.129283,19.6204946 C49.1422016,18.2214056 47.6794231,18.4544774 47.6794231,18.4544774 C46.399492,18.9077822 47.2093863,19.9315861 47.2093863,19.9315861 C45.7853635,18.7859792 47.3120723,18.0228995 47.3660652,18.02685 C49.1190145,17.4244187 49.6384067,19.2705577 49.6384067,19.2705577 C49.6092572,21.1173552 47.7185101,21.4867147 47.7185101,21.4867147 C45.6796963,21.7016805 44.5620753,20.3114799 44.225199,19.8025407 L44.2136054,19.8127458 C44.1447064,19.8723306 44.0734887,19.9292817 43.9999523,19.9835993 L43.9999523,19.9835993 Z" id="Fill-1" fill="#FFFFFF" fill-rule="nonzero" mask="url(#mask-2)"></path>
                            </g>
                        </g>
                    </g>
                </g>
            </g>
        </g>
    </g>
</svg>