<?xml version="1.0" encoding="UTF-8"?>
<svg width="87px" height="15px" viewBox="0 0 87 15" version="1.1" xmlns="http://www.w3.org/2000/svg" xmlns:xlink="http://www.w3.org/1999/xlink">
    <!-- Generator: Sketch 54.1 (76490) - https://sketchapp.com -->
    <title>编组</title>
    <desc>Created with Sketch.</desc>
    <defs>
        <polygon id="path-1" points="0.18646629 0.0388026316 11.5835526 0.0388026316 11.5835526 14.6052632 0.18646629 14.6052632"></polygon>
    </defs>
    <g id="页面-1" stroke="none" stroke-width="1" fill="none" fill-rule="evenodd">
        <g id="yabo首页2" transform="translate(-910.000000, -2364.000000)">
            <g id="游戏板块" transform="translate(359.000000, 2271.000000)">
                <g id="hover" transform="translate(1.000000, 0.000000)">
                    <g id="彩票" transform="translate(465.000000, 0.000000)">
                        <g id="分组-4-copy" transform="translate(51.000000, 93.000000)">
                            <g id="logo_lb" transform="translate(34.000000, 0.000000)">
                                <g id="编组">
                                    <g>
                                        <path d="M5.43055263,-7.10542736e-15 L4.50963158,9.12592105 C4.49542105,10.0121053 4.94542105,10.5007895 5.85963158,10.5911842 L14.7972632,10.6014474 L14.4104211,14.7355263 L4.27910526,14.7355263 C1.08371053,14.5752632 -0.321947368,12.7369737 0.0617368421,9.21986842 L0.992921053,-7.10542736e-15 L5.43055263,-7.10542736e-15 Z" id="Fill-1" fill="#FEFEFE"></path>
                                        <path d="M20.9459211,5.64118421 L20.9459211,5.64118421 L26.0009211,5.65144737 C26.8030263,5.62381579 27.255,5.32697368 27.3560526,4.76171053 C27.4571053,4.19684211 27.0718421,3.84789474 26.1998684,3.71526316 L21.1342105,3.71526316 L20.9459211,5.64118421 Z M20.4438158,11.1252632 L20.4438158,11.1252632 L25.4984211,11.1355263 C26.3009211,11.1078947 26.7525,10.8094737 26.8539474,10.2406579 C26.955,9.67184211 26.5484211,9.34223684 25.6342105,9.25144737 L20.6321053,9.19934211 L20.4438158,11.1252632 Z M17.0632895,0.0311842105 L27.2044737,0.0311842105 C30.0161842,0.261710526 31.4392105,1.52802632 31.4743421,3.83052632 C31.4253947,5.27447368 30.9753947,6.38052632 30.1243421,7.14789474 C31.2264474,7.80394737 31.6488158,9.03552632 31.3906579,10.8426316 C30.9931579,13.4167105 29.0707895,14.6865789 25.6243421,14.6518421 L15.6398684,14.6625 L17.0632895,0.0311842105 Z" id="Fill-3" fill="#FEFEFE"></path>
                                        <polygon id="Fill-5" fill="#FEFEFE" points="45.8727632 14.6734737 41.3044737 7.01952632 38.5598684 9.42386842 37.8382895 14.6734737 36.4357895 14.6734737 38.4193421 0.447947368 39.8218421 0.447947368 38.8401316 7.46044737 46.8146053 0.447947368 48.7780263 0.447947368 42.4267105 6.01768421 47.5961842 14.6734737"></polygon>
                                        <polygon id="Fill-7" fill="#FEFEFE" points="58.4958553 13.2309868 58.2953289 14.6733553 49.2590132 14.6733553 51.2425658 0.447828947 60.0183553 0.447828947 59.8182237 1.91032895 52.4248026 1.91032895 51.7434868 6.69888158 57.7742763 6.69888158 57.5741447 8.16138158 51.5433553 8.16138158 50.8419079 13.2309868"></polygon>
                                        <polygon id="Fill-9" fill="#FEFEFE" points="71.7195395 14.6734737 69.9361184 14.6734737 64.0857237 2.39123684 62.3623026 14.6734737 60.9799342 14.6734737 62.9634868 0.447947368 64.7670395 0.447947368 70.6174342 12.6697895 72.3207237 0.447947368 73.7030921 0.447947368"></polygon>
                                        <g transform="translate(75.000000, 0.228513)">
                                            <mask id="mask-2" fill="white">
                                                <use xlink:href="#path-1"></use>
                                            </mask>
                                            <g id="Clip-12"></g>
                                            <path d="M1.88889474,6.51051316 L1.88889474,6.51051316 L1.6485,8.17353947 C1.20757895,11.3594605 2.46994737,13.2028816 5.05468421,13.2028816 C7.59915789,13.2028816 9.42244737,11.3195921 9.86336842,8.17353947 L10.1037632,6.51051316 C10.5446842,3.40511842 9.26218421,1.42117105 6.71731579,1.42117105 C4.13297368,1.42117105 2.32942105,3.36485526 1.88889474,6.51051316 M11.4861316,6.51051316 C11.4462632,6.81130263 11.3057368,7.85301316 11.2457368,8.17353947 C10.6848158,12.2211711 8.05981579,14.6053816 4.85415789,14.6053816 C1.72863158,14.6053816 -0.295184211,12.3613026 0.285868421,8.17353947 C0.385736842,7.57235526 0.446131579,7.13182895 0.526263158,6.51051316 C1.10731579,2.42340789 3.69205263,0.0388026316 6.91784211,0.0388026316 C10.1440263,0.0388026316 12.0470526,2.54340789 11.4861316,6.51051316" id="Fill-11" fill="#FEFEFE" mask="url(#mask-2)"></path>
                                        </g>
                                    </g>
                                </g>
                            </g>
                        </g>
                    </g>
                </g>
            </g>
        </g>
    </g>
</svg>