<?xml version="1.0" encoding="UTF-8"?>
<svg width="28px" height="28px" viewBox="0 0 28 28" version="1.1" xmlns="http://www.w3.org/2000/svg" xmlns:xlink="http://www.w3.org/1999/xlink">
    <!-- Generator: Sketch 54.1 (76490) - https://sketchapp.com -->
    <title>编组</title>
    <desc>Created with Sketch.</desc>
    <defs>
        <polygon id="path-1" points="0.000175 0.189875 27.3723625 0.189875 27.3723625 27.5625 0.000175 27.5625"></polygon>
    </defs>
    <g id="页面-1" stroke="none" stroke-width="1" fill="none" fill-rule="evenodd">
        <g id="yabo首页2" transform="translate(-939.000000, -2551.000000)">
            <g id="游戏板块" transform="translate(359.000000, 2271.000000)">
                <g id="hover" transform="translate(1.000000, 0.000000)">
                    <g id="彩票" transform="translate(496.000000, 0.000000)">
                        <g id="logo_tcg" transform="translate(70.000000, 280.000000)">
                            <g id="编组" transform="translate(13.000000, 0.000000)">
                                <g transform="translate(0.000000, 0.247669)">
                                    <mask id="mask-2" fill="white">
                                        <use xlink:href="#path-1"></use>
                                    </mask>
                                    <g id="Clip-2"></g>
                                    <path d="M23.6208,11.2614687 C23.3823625,10.3527812 23.021425,9.49440625 22.5581125,8.70209375 L24.2748625,6.98621875 C25.110925,8.26853125 25.7208,9.71271875 26.0467375,11.2614687 L23.6208,11.2614687 Z M24.2748625,20.7665937 L22.5581125,19.0502812 C23.021425,18.2579687 23.3823625,17.3995937 23.6208,16.4909062 L26.0467375,16.4909062 C25.7208,18.0396562 25.110925,19.4838437 24.2748625,20.7665937 L24.2748625,20.7665937 Z M21.6166125,18.6245937 C21.5908,18.6674687 21.56455,18.7094687 21.5378625,18.7519062 C21.4932375,18.8240937 21.4473,18.8954062 21.4004875,18.9662812 C21.37205,19.0095937 21.3436125,19.0524687 21.3147375,19.0940312 C21.2569875,19.1789062 21.1974875,19.2620312 21.1371125,19.3442812 C21.1134875,19.3766562 21.089425,19.4094687 21.0653625,19.4418437 C20.9958,19.5332812 20.924925,19.6234062 20.8523,19.7122187 C20.8208,19.7515937 20.7879875,19.7896562 20.7556125,19.8281562 C20.700925,19.8929062 20.6458,19.9567812 20.5893625,20.0202187 C20.5561125,20.0574062 20.5219875,20.0954687 20.4878625,20.1326562 C20.4152375,20.2118437 20.3413,20.2892812 20.26605,20.3658437 C20.2363,20.3960312 20.2061125,20.4262187 20.1754875,20.4564062 C20.0993625,20.5312187 20.021925,20.6051562 19.943175,20.6777812 C19.9059875,20.7123437 19.867925,20.7460312 19.8298625,20.7797187 C19.7668625,20.8357187 19.7029875,20.8912812 19.6382375,20.9455312 C19.5997375,20.9779062 19.561675,21.0102812 19.5227375,21.0422187 C19.433925,21.1144062 19.3442375,21.1857187 19.2528,21.2548437 C19.21955,21.2793437 19.1863,21.3034062 19.1534875,21.3279062 C19.071675,21.3878437 18.98855,21.4469062 18.90455,21.5046562 C18.8621125,21.5335312 18.8192375,21.5619687 18.7768,21.5899687 C18.705925,21.6372187 18.634175,21.6827187 18.5619875,21.7282187 C18.51955,21.7540312 18.47755,21.7807187 18.434675,21.8069687 C17.7727375,22.2037812 17.05655,22.5187812 16.30055,22.7414687 C16.1049875,22.7992187 15.9063625,22.8499687 15.70555,22.8954687 C15.690675,22.8989687 15.6762375,22.9020312 15.6613625,22.9055312 C15.57605,22.9239062 15.4907375,22.9409687 15.40455,22.9571562 C15.35555,22.9663437 15.3069875,22.9746562 15.258425,22.9834062 C15.183175,22.9960937 15.107925,23.0096562 15.032675,23.0205937 C14.91455,23.0376562 14.79555,23.0529687 14.6761125,23.0656562 C14.626675,23.0709062 14.5772375,23.0748437 14.5273625,23.0792187 C14.432425,23.0879687 14.3366125,23.0954062 14.2408,23.1010937 C14.1957375,23.1037187 14.150675,23.1063437 14.1056125,23.1085312 C13.9664875,23.1150937 13.826925,23.1194687 13.68605,23.1194687 C13.5456125,23.1194687 13.40605,23.1150937 13.266925,23.1085312 C13.2218625,23.1063437 13.1768,23.1037187 13.1317375,23.1010937 C13.035925,23.0954062 12.9401125,23.0879687 12.8447375,23.0792187 C12.7953,23.0748437 12.7458625,23.0709062 12.696425,23.0656562 C12.5769875,23.0529687 12.4579875,23.0376562 12.3398625,23.0205937 C12.264175,23.0096562 12.1893625,22.9960937 12.11455,22.9834062 C12.06555,22.9746562 12.01655,22.9663437 11.9679875,22.9571562 C11.8818,22.9409687 11.7964875,22.9239062 11.711175,22.9055312 C11.6963,22.9020312 11.681425,22.8985312 11.6661125,22.8950312 C11.466175,22.8499687 11.2679875,22.7992187 11.0728625,22.7419062 C10.316425,22.5192187 9.6002375,22.2042187 8.9378625,21.8069687 C8.8949875,21.7807187 8.8529875,21.7540312 8.81055,21.7282187 C8.7383625,21.6827187 8.6666125,21.6372187 8.5957375,21.5904062 C8.5533,21.5619687 8.5099875,21.5335312 8.4679875,21.5046562 C8.3839875,21.4469062 8.3008625,21.3878437 8.21905,21.3279062 C8.1858,21.3034062 8.15255,21.2789062 8.1197375,21.2548437 C8.0283,21.1857187 7.9386125,21.1144062 7.8498,21.0422187 C7.8108625,21.0102812 7.7723625,20.9779062 7.7338625,20.9455312 C7.66955,20.8908437 7.605675,20.8357187 7.542675,20.7797187 C7.5046125,20.7460312 7.46655,20.7123437 7.4293625,20.6777812 C7.3506125,20.6051562 7.273175,20.5312187 7.1966125,20.4564062 C7.166425,20.4262187 7.1362375,20.3960312 7.10605,20.3658437 C7.0312375,20.2892812 6.9573,20.2118437 6.884675,20.1330937 C6.8501125,20.0954687 6.816425,20.0574062 6.7827375,20.0197812 C6.7267375,19.9567812 6.6716125,19.8929062 6.616925,19.8285937 C6.58455,19.7900937 6.5517375,19.7515937 6.5202375,19.7122187 C6.4476125,19.6238437 6.3767375,19.5337187 6.30805,19.4427187 C6.2831125,19.4099062 6.25905,19.3766562 6.2349875,19.3434062 C6.1746125,19.2611562 6.1151125,19.1784687 6.0578,19.0944687 C6.0284875,19.0524687 6.0004875,19.0091562 5.97205,18.9662812 C5.9252375,18.8954062 5.8793,18.8240937 5.834675,18.7523437 C5.808425,18.7094687 5.7817375,18.6674687 5.755925,18.6241562 C5.691175,18.5169687 5.628175,18.4084687 5.5682375,18.2977812 C5.5678,18.2977812 5.5678,18.2973437 5.5673625,18.2969062 C5.257175,17.7285937 5.0073625,17.1235312 4.8209875,16.4909062 C4.7632375,16.2957812 4.7124875,16.0971562 4.667425,15.8963437 C4.663925,15.8814687 4.660425,15.8661562 4.656925,15.8512812 C4.6381125,15.7659687 4.6214875,15.6806562 4.6053,15.5944687 C4.5961125,15.5459062 4.5873625,15.4969062 4.57905,15.4479062 C4.565925,15.3730937 4.5532375,15.2982812 4.5418625,15.2230312 C4.5248,15.1044687 4.5094875,14.9854687 4.4968,14.8655937 C4.4911125,14.8165937 4.4876125,14.7671562 4.4828,14.7177187 C4.4744875,14.6227812 4.46705,14.5269687 4.4613625,14.4302812 C4.4587375,14.3856562 4.455675,14.3405937 4.453925,14.2959687 C4.4478,14.1564062 4.443425,14.0168437 4.443425,13.8764062 C4.443425,13.7355312 4.4478,13.5959687 4.453925,13.4568437 C4.455675,13.4117812 4.4587375,13.3667187 4.4613625,13.3220937 C4.46705,13.2254062 4.4744875,13.1300312 4.4828,13.0346562 C4.4876125,12.9847812 4.4911125,12.9353437 4.4968,12.8867812 C4.5094875,12.7664687 4.5248,12.6479062 4.5423,12.5293437 C4.5532375,12.4545312 4.565925,12.3797187 4.57905,12.3044687 C4.5873625,12.2554687 4.5961125,12.2064687 4.6053,12.1579062 C4.6214875,12.0721562 4.6381125,11.9864062 4.656925,11.9015312 C4.660425,11.8862187 4.663925,11.8713437 4.667425,11.8560312 C4.7124875,11.6552187 4.7632375,11.4570312 4.8209875,11.2614687 C5.0073625,10.6288437 5.257175,10.0237812 5.5673625,9.45546875 C5.5678,9.45503125 5.5678,9.45459375 5.5682375,9.45459375 C5.628175,9.34434375 5.691175,9.23540625 5.755925,9.12821875 C5.7817375,9.08490625 5.808425,9.04290625 5.834675,9.00003125 C5.8797375,8.92828125 5.9252375,8.85696875 5.97205,8.78653125 C6.0004875,8.74321875 6.0284875,8.70034375 6.0578,8.65790625 C6.1151125,8.57390625 6.174175,8.49121875 6.23455,8.40940625 C6.25905,8.37571875 6.28355,8.34246875 6.3084875,8.30921875 C6.377175,8.21821875 6.44805,8.12853125 6.5202375,8.04015625 C6.5517375,8.00078125 6.58455,7.96228125 6.616925,7.92378125 C6.6716125,7.85946875 6.7267375,7.79559375 6.7827375,7.73303125 C6.816425,7.69496875 6.8501125,7.65690625 6.884675,7.61928125 C6.9573,7.54053125 7.0312375,7.46309375 7.10605,7.38696875 C7.1362375,7.35634375 7.166425,7.32615625 7.1966125,7.29640625 C7.273175,7.22115625 7.3506125,7.14721875 7.4293625,7.07459375 C7.46655,7.04046875 7.5046125,7.00634375 7.542675,6.97265625 C7.605675,6.91621875 7.66955,6.86109375 7.7338625,6.80684375 C7.7723625,6.77446875 7.8108625,6.74209375 7.8498,6.71015625 C7.9386125,6.63796875 8.0283,6.56709375 8.1197375,6.49796875 C8.15255,6.47346875 8.1858,6.44896875 8.21905,6.42446875 C8.3008625,6.36453125 8.3839875,6.30546875 8.4679875,6.24771875 C8.510425,6.21884375 8.5533,6.19040625 8.5957375,6.16196875 C8.6666125,6.11515625 8.7383625,6.06965625 8.81055,6.02415625 C8.8529875,5.99834375 8.8949875,5.97121875 8.9378625,5.94584375 C9.5998,5.54859375 10.31555,5.23359375 11.0711125,5.01090625 C11.266675,4.95315625 11.4653,4.90240625 11.6661125,4.85734375 C11.6809875,4.85384375 11.6963,4.85034375 11.711175,4.84684375 C11.7964875,4.82846875 11.8822375,4.81140625 11.9679875,4.79521875 C12.01655,4.78603125 12.0651125,4.77771875 12.1141125,4.76896875 C12.1893625,4.75628125 12.264175,4.74315625 12.3398625,4.73178125 C12.4579875,4.71471875 12.5769875,4.69940625 12.696425,4.68671875 C12.7458625,4.68146875 12.7953,4.67753125 12.8447375,4.67271875 C12.9401125,4.66440625 13.035925,4.65696875 13.1317375,4.65128125 C13.1768,4.64865625 13.2218625,4.64603125 13.266925,4.64384375 C13.40605,4.63728125 13.5456125,4.63334375 13.68605,4.63334375 C13.826925,4.63334375 13.9664875,4.63728125 14.1056125,4.64384375 C14.150675,4.64603125 14.1957375,4.64865625 14.2403625,4.65128125 C14.3366125,4.65696875 14.432425,4.66440625 14.5278,4.67315625 C14.5772375,4.67753125 14.626675,4.68146875 14.6761125,4.68671875 C14.79555,4.69940625 14.91455,4.71471875 15.032675,4.73178125 C15.1083625,4.74315625 15.183175,4.75628125 15.2579875,4.76896875 C15.3069875,4.77771875 15.35555,4.78603125 15.40455,4.79521875 C15.4903,4.81140625 15.57605,4.82846875 15.6613625,4.84684375 L15.70555,4.85690625 C15.9068,4.90240625 16.105425,4.95315625 16.301425,5.01090625 C16.9336125,5.19728125 17.538675,5.44753125 18.1069875,5.75728125 L18.1069875,5.75771875 C18.217675,5.81809375 18.3266125,5.88109375 18.434675,5.94584375 C18.47755,5.97121875 18.51955,5.99834375 18.5619875,6.02459375 C18.634175,6.06965625 18.705925,6.11515625 18.7763625,6.16196875 C18.8192375,6.19040625 18.86255,6.21884375 18.90455,6.24771875 C18.98855,6.30503125 19.0708,6.36409375 19.1526125,6.42359375 C19.1863,6.44896875 19.220425,6.47390625 19.2541125,6.49884375 C19.3451125,6.56753125 19.4343625,6.63840625 19.5223,6.71015625 C19.561675,6.74209375 19.600175,6.77446875 19.6382375,6.80684375 C19.7029875,6.86109375 19.7668625,6.91621875 19.829425,6.97221875 C19.8674875,7.00634375 19.9059875,7.04046875 19.943175,7.07503125 C20.0214875,7.14678125 20.0984875,7.22028125 20.1746125,7.29509375 C20.205675,7.32571875 20.2367375,7.35678125 20.266925,7.38784375 C20.342175,7.46353125 20.415675,7.54096875 20.4878625,7.61928125 C20.5219875,7.65690625 20.5561125,7.69496875 20.5898,7.73259375 C20.6458,7.79559375 20.700925,7.85946875 20.7556125,7.92378125 C20.7879875,7.96228125 20.8208,8.00078125 20.8523,8.04015625 C20.9244875,8.12853125 20.9953625,8.21821875 21.06405,8.30921875 C21.0889875,8.34246875 21.1134875,8.37571875 21.1379875,8.40896875 C21.197925,8.49121875 21.257425,8.57390625 21.3147375,8.65790625 C21.3436125,8.70034375 21.37205,8.74321875 21.4004875,8.78609375 C21.4473,8.85696875 21.4928,8.92828125 21.5378625,9.00046875 C21.5641125,9.04290625 21.5908,9.08490625 21.6166125,9.12778125 C22.0138625,9.79015625 22.3293,10.5059062 22.5519875,11.2623437 C22.6093,11.4574687 22.6604875,11.6556562 22.7051125,11.8560312 C22.7086125,11.8717812 22.7121125,11.8862187 22.7156125,11.9010937 C22.734425,11.9859687 22.75105,12.0721562 22.7672375,12.1579062 C22.776425,12.2064687 22.785175,12.2554687 22.79305,12.3044687 C22.8066125,12.3797187 22.8193,12.4545312 22.8302375,12.5293437 C22.8477375,12.6479062 22.86305,12.7664687 22.8757375,12.8867812 C22.881425,12.9357812 22.884925,12.9852187 22.8893,13.0350937 C22.89805,13.1300312 22.9054875,13.2254062 22.911175,13.3216562 C22.9138,13.3667187 22.9168625,13.4117812 22.9186125,13.4572812 C22.9247375,13.5959687 22.9291125,13.7355312 22.9291125,13.8764062 C22.9291125,14.0168437 22.9247375,14.1564062 22.9186125,14.2955312 C22.9168625,14.3405937 22.9138,14.3856562 22.911175,14.4307187 C22.9054875,14.5269687 22.89805,14.6223437 22.8893,14.7172812 C22.884925,14.7671562 22.881425,14.8165937 22.8757375,14.8655937 C22.86305,14.9854687 22.8477375,15.1044687 22.8302375,15.2230312 C22.8193,15.2982812 22.8066125,15.3730937 22.79305,15.4479062 C22.785175,15.4969062 22.776425,15.5459062 22.7672375,15.5944687 C22.75105,15.6806562 22.734425,15.7659687 22.7156125,15.8512812 C22.7121125,15.8661562 22.7086125,15.8810312 22.7051125,15.8959062 C22.6604875,16.0967187 22.6093,16.2949062 22.5519875,16.4900312 C22.3293,17.2464687 22.0138625,17.9622187 21.6166125,18.6245937 L21.6166125,18.6245937 Z M16.301425,26.2366562 L16.301425,23.8111562 C17.2101125,23.5727187 18.0684875,23.2109062 18.8603625,22.7484687 L20.576675,24.4647812 C19.2934875,25.3012812 17.8497375,25.9107188 16.301425,26.2366562 L16.301425,26.2366562 Z M11.0711125,26.2366562 C9.5228,25.9107188 8.07905,25.3012812 6.7958625,24.4647812 L8.512175,22.7484687 C9.30405,23.2109062 10.162425,23.5727187 11.0711125,23.8111562 L11.0711125,26.2366562 Z M3.097675,20.7665937 C2.2616125,19.4838437 1.6517375,18.0396562 1.3258,16.4909062 L3.7513,16.4909062 C3.990175,17.3995937 4.3511125,18.2579687 4.8139875,19.0502812 L3.097675,20.7665937 Z M3.097675,6.98621875 L4.8139875,8.70209375 C4.3511125,9.49440625 3.990175,10.3527812 3.7513,11.2614687 L1.3258,11.2614687 C1.6517375,9.71271875 2.2616125,8.26853125 3.097675,6.98621875 L3.097675,6.98621875 Z M11.0711125,1.51571875 L11.0711125,3.94165625 C10.162425,4.17965625 9.30405,4.54146875 8.512175,5.00390625 L6.7958625,3.28759375 C8.07905,2.45109375 9.5228,1.84165625 11.0711125,1.51571875 L11.0711125,1.51571875 Z M16.301425,1.51571875 C17.8497375,1.84165625 19.2934875,2.45109375 20.576675,3.28759375 L18.8603625,5.00390625 C18.0684875,4.54146875 17.2101125,4.17965625 16.301425,3.94165625 L16.301425,1.51571875 Z M27.3679875,13.5342812 C27.3671125,13.4782812 27.36405,13.4231563 27.3623,13.3675937 C27.3601125,13.3111563 27.3583625,13.2542813 27.3557375,13.1974062 C27.3518,13.1225937 27.3469875,13.0482188 27.342175,12.9734062 C27.33955,12.9379687 27.3378,12.9016563 27.335175,12.8662187 C27.32905,12.7791562 27.321175,12.6925313 27.3133,12.6054688 C27.31155,12.5831563 27.3093625,12.5612813 27.3076125,12.5394062 C27.2979875,12.4435937 27.2874875,12.3477812 27.2761125,12.2532813 C27.2748,12.2405937 27.2734875,12.2287812 27.272175,12.2165312 C27.2594875,12.1145938 27.2463625,12.0135312 27.2314875,11.9120313 C27.2306125,11.9072187 27.230175,11.9019687 27.2297375,11.8967187 C27.214425,11.7912812 27.1978,11.6867188 27.1798625,11.5817188 C27.1798625,11.5804062 27.1798625,11.5799688 27.179425,11.5790937 C27.1614875,11.4727812 27.1422375,11.3673437 27.1221125,11.2619062 C27.1221125,11.2619062 27.1221125,11.2614687 27.121675,11.2614687 C26.766425,9.42528125 26.045425,7.71990625 25.035675,6.22453125 C24.2976125,5.13209375 23.4059875,4.15209375 22.391425,3.31515625 C22.391425,3.31471875 22.391425,3.31471875 22.391425,3.31471875 C22.22255,3.17559375 22.050175,3.03996875 21.8743,2.90828125 L21.8743,2.90828125 C21.698425,2.77659375 21.5194875,2.64971875 21.3374875,2.52678125 C19.7563625,1.45884375 17.9403,0.71378125 15.982925,0.38303125 C15.9824875,0.38259375 15.98205,0.38259375 15.9816125,0.38259375 C15.8766125,0.36509375 15.7707375,0.34846875 15.6648625,0.33315625 C15.660925,0.33228125 15.65655,0.33184375 15.6526125,0.33140625 C15.550675,0.31609375 15.4483,0.30253125 15.3454875,0.29028125 C15.3341125,0.28896875 15.3227375,0.28765625 15.310925,0.28634375 C15.2151125,0.27540625 15.1193,0.26446875 15.0226125,0.25528125 C15.0016125,0.25309375 14.9797375,0.25134375 14.9583,0.24915625 C14.8712375,0.24128125 14.7837375,0.23340625 14.6962375,0.22684375 C14.6608,0.22421875 14.624925,0.22290625 14.589925,0.22071875 C14.5151125,0.21546875 14.4398625,0.21021875 14.36505,0.20671875 C14.30905,0.20409375 14.25305,0.20234375 14.19705,0.20059375 C14.14105,0.19840625 14.0846125,0.19578125 14.028175,0.19403125 C13.914425,0.19140625 13.800675,0.18965625 13.68605,0.18965625 C13.5718625,0.18965625 13.4581125,0.19140625 13.3443625,0.19403125 C13.287925,0.19578125 13.231925,0.19840625 13.1754875,0.20059375 C13.1194875,0.20234375 13.0634875,0.20409375 13.0074875,0.20671875 C12.9322375,0.21021875 12.857425,0.21546875 12.78305,0.22071875 C12.747175,0.22290625 12.7117375,0.22421875 12.6763,0.22684375 C12.5888,0.23340625 12.5013,0.24128125 12.4142375,0.24915625 C12.3928,0.25134375 12.370925,0.25309375 12.3494875,0.25528125 C12.2532375,0.26403125 12.157425,0.27496875 12.0616125,0.28634375 C12.0502375,0.28765625 12.038425,0.28896875 12.02705,0.29028125 C11.924675,0.30253125 11.8227375,0.31609375 11.7212375,0.33096875 C11.7168625,0.33184375 11.7116125,0.33228125 11.7072375,0.33315625 C11.6013625,0.34846875 11.4963625,0.36509375 11.3913625,0.38259375 C11.3904875,0.38259375 11.39005,0.38259375 11.389175,0.38303125 C11.2828625,0.40096875 11.1769875,0.42021875 11.07155,0.44078125 L11.0711125,0.44078125 C5.5043625,1.51790625 1.1407375,5.96771875 0.192675,11.5799688 L0.192675,11.5804062 C0.1747375,11.6854062 0.1581125,11.7912812 0.1428,11.8975937 C0.1423625,11.9015312 0.1414875,11.9059062 0.14105,11.9098437 C0.126175,12.0122187 0.1126125,12.1141562 0.1003625,12.2174063 C0.09905,12.2283438 0.0977375,12.2392812 0.096425,12.2502187 C0.08505,12.3464687 0.07455,12.4431562 0.064925,12.5398437 C0.063175,12.5608437 0.061425,12.5818438 0.059675,12.6024062 C0.0513625,12.6903437 0.0434875,12.7782812 0.036925,12.8662187 C0.0347375,12.9016563 0.03255,12.9370937 0.0303625,12.9729687 C0.02555,13.0477812 0.0203,13.1225937 0.0168,13.1974062 C0.014175,13.2534062 0.012425,13.3098438 0.0102375,13.3658437 C0.0084875,13.4214062 0.005425,13.4778437 0.0041125,13.5342812 C0.0014875,13.6480312 0.000175,13.7617812 0.000175,13.8764062 C0.000175,13.9905938 0.0014875,14.1043437 0.0041125,14.2180937 C0.005425,14.2745313 0.0084875,14.3309687 0.0102375,14.3869687 C0.012425,14.4425313 0.014175,14.4989687 0.0168,14.5545313 C0.0203,14.6297812 0.02555,14.7045938 0.0303625,14.7794062 C0.03255,14.8148437 0.0347375,14.8507188 0.036925,14.8861562 C0.0434875,14.9740938 0.0513625,15.0624688 0.059675,15.1499687 C0.061425,15.1709688 0.063175,15.1915313 0.064925,15.2120937 C0.07455,15.3092187 0.08505,15.4059062 0.096425,15.5017188 C0.0977375,15.5130938 0.09905,15.5240312 0.1003625,15.5354062 C0.1126125,15.6382188 0.126175,15.7401563 0.14105,15.8425313 C0.1414875,15.8464687 0.1423625,15.8504063 0.1428,15.8547812 C0.1581125,15.9610938 0.1747375,16.0665313 0.192675,16.1724062 L0.192675,16.1728437 C0.5614875,18.3555312 1.4461125,20.3627812 2.7183625,22.0637813 C2.7183625,22.0642187 2.7183625,22.0642187 2.7188,22.0642187 C2.8496125,22.2400937 2.9852375,22.4120313 3.1248,22.5813437 C3.1248,22.5813437 3.1248,22.5813437 3.1248,22.5817812 C3.962175,23.5959062 4.942175,24.4875312 6.03505,25.2255937 C7.5299875,26.2357812 9.2353625,26.9567812 11.0711125,27.3120313 C11.07155,27.3120313 11.0719875,27.3120313 11.0719875,27.3124688 C11.177425,27.3321563 11.2828625,27.3514063 11.3887375,27.3693437 C11.3896125,27.3693437 11.390925,27.3697812 11.3922375,27.3697812 C11.4963625,27.3872813 11.6013625,27.4039062 11.7068,27.4196562 C11.71205,27.4205312 11.7173,27.4209688 11.72255,27.4218438 C11.8236125,27.4362813 11.924675,27.4498437 12.0266125,27.4620937 C12.038425,27.4634062 12.0511125,27.4647187 12.062925,27.4660313 C12.1583,27.4774062 12.253675,27.4883438 12.3494875,27.4970938 C12.370925,27.4992813 12.3928,27.5010312 12.4142375,27.5032188 C12.5013,27.5115313 12.5888,27.5189687 12.6763,27.5255313 C12.7117375,27.5281562 12.7476125,27.5299062 12.7834875,27.5320937 C12.8578625,27.5369063 12.9322375,27.5421563 13.0074875,27.5456563 C13.063925,27.5487187 13.1208,27.5495937 13.177675,27.5517812 C13.2332375,27.5539687 13.2888,27.5565938 13.3443625,27.5583437 C13.4581125,27.5609687 13.5718625,27.5627187 13.68605,27.5627187 C13.800675,27.5627187 13.914425,27.5609687 14.028175,27.5583437 C14.0846125,27.5565938 14.14105,27.5539687 14.19705,27.5517812 C14.25305,27.5495937 14.30905,27.5487187 14.36505,27.5456563 C14.4398625,27.5421563 14.5151125,27.5369063 14.589925,27.5320937 C14.624925,27.5299062 14.6608,27.5281562 14.6962375,27.5255313 C14.7837375,27.5189687 14.8712375,27.5115313 14.9583,27.5032188 C14.9797375,27.5010312 15.0016125,27.4992813 15.0226125,27.4970938 C15.1193,27.4883438 15.2151125,27.4774062 15.310925,27.4660313 C15.3227375,27.4647187 15.3341125,27.4634062 15.3454875,27.4620937 C15.4478625,27.4498437 15.5498,27.4362813 15.6513,27.4218438 C15.6561125,27.4209688 15.6604875,27.4205312 15.6653,27.4196562 C15.7707375,27.4039062 15.876175,27.3872813 15.9807375,27.3697812 C15.9816125,27.3697812 15.9824875,27.3693437 15.9833625,27.3693437 C16.089675,27.3514063 16.1951125,27.3321563 16.30055,27.3120313 L16.301425,27.3120313 C18.137175,26.9567812 19.84255,26.2357812 21.3374875,25.2255937 L21.337925,25.2255937 C21.5194875,25.1026562 21.6979875,24.9757812 21.8738625,24.8445312 C21.8738625,24.8440937 21.8743,24.8440937 21.8747375,24.8436563 C22.928675,24.0552813 23.8653625,23.1190312 24.6537375,22.0642187 C24.654175,22.0642187 24.654175,22.0637813 24.654175,22.0637813 C24.785425,21.8883437 24.9127375,21.7094062 25.0352375,21.5278437 C25.035675,21.5278437 25.035675,21.5274063 25.035675,21.5274063 C26.045425,20.0329062 26.766425,18.3270937 27.121675,16.4909062 C27.1221125,16.4909062 27.1221125,16.4904687 27.1221125,16.4904687 C27.1422375,16.3850312 27.1614875,16.2795938 27.179425,16.1737187 C27.1798625,16.1728437 27.1798625,16.1715313 27.1798625,16.1706563 C27.1978,16.0656562 27.214425,15.9610938 27.2297375,15.8556562 C27.230175,15.8504063 27.2306125,15.8455937 27.2314875,15.8403437 C27.2463625,15.7388438 27.2594875,15.6377812 27.272175,15.5362812 C27.2734875,15.5235938 27.2748,15.5117813 27.2761125,15.4995312 C27.2874875,15.4041563 27.2979875,15.3087812 27.3076125,15.2129687 C27.3093625,15.1910937 27.31155,15.1692188 27.3133,15.1469062 C27.321175,15.0602812 27.32905,14.9732187 27.335175,14.8861562 C27.3378,14.8502813 27.33955,14.8148437 27.342175,14.7789687 C27.3469875,14.7041562 27.3518,14.6297812 27.3557375,14.5549687 C27.3583625,14.4980937 27.3601125,14.4416562 27.3623,14.3847812 C27.36405,14.3292188 27.3671125,14.2740937 27.3679875,14.2180937 C27.37105,14.1043437 27.3723625,13.9905938 27.3723625,13.8764062 C27.3723625,13.7617812 27.37105,13.6480312 27.3679875,13.5342812 L27.3679875,13.5342812 Z" id="Fill-1" fill="#FEFEFE" mask="url(#mask-2)"></path>
                                </g>
                                <path d="M14.3311875,13.4462563 C14.175,12.5852563 14.1675625,11.9981313 14.1675625,11.9981313 L12.9145625,11.9981313 C12.947375,12.5091312 12.999875,12.9912563 13.0685625,13.4462563 L5.259625,13.4462563 C5.2416875,13.6702563 5.229875,13.8951313 5.229875,14.1239438 C5.229875,18.7238188 8.9035625,22.4626938 13.4763125,22.5746938 L13.4763125,21.2696313 C9.5563125,21.0320688 7.8369375,18.6669438 7.0923125,16.8609438 L10.8180625,16.8609438 L10.8180625,17.7250063 L9.3699375,17.7250063 L9.3699375,19.0217563 L12.13625,19.0217563 L12.13625,18.7194438 L12.13625,17.7250063 L12.13625,16.8609438 L12.13625,16.2755688 L12.13625,15.5611313 L6.675375,15.5611313 C6.565125,15.0881938 6.538875,14.7863188 6.538875,14.7863188 L13.335875,14.7863188 C13.6285625,15.9509438 14.0380625,16.8998813 14.50225,17.6716313 C14.1964375,17.7053188 13.857375,17.7250063 13.4763125,17.7250063 L13.4763125,19.0217563 C13.4763125,19.0217563 14.36575,19.1171313 15.406125,18.9058188 C16.94525,20.6352563 18.6213125,20.9555063 18.6580625,20.9625063 C19.8016875,20.1290688 20.72875,19.0169438 21.33775,17.7250063 L19.8296875,17.7250063 C19.8296875,17.7250063 19.462625,18.5033188 18.3386875,19.4758813 C17.7515625,19.1792563 17.2475625,18.8143813 16.814,18.4070688 C17.5573125,18.0001938 18.20875,17.3413188 18.4900625,16.2755688 C17.9930625,16.2755688 17.08525,16.2746938 17.08525,16.2746938 C17.08525,16.2746938 16.95925,16.9173813 15.8939375,17.3470063 C15.3033125,16.5144438 14.9139375,15.6101313 14.6584375,14.7863188 L22.1143125,14.7863188 C22.1309375,14.5675688 22.1423125,14.3470688 22.1423125,14.1239438 C22.1423125,13.8951313 22.1309375,13.6702563 22.113,13.4462563 L14.3311875,13.4462563 Z" id="Fill-3" fill="#FEFEFE"></path>
                                <path d="M13.6159625,10.7879187 C14.9459625,12.6031062 19.4194,12.6258563 19.4194,12.6258563 L22.00765,12.6258563 C21.92715,12.1761063 21.81165,11.7381687 21.6629,11.3155437 C20.25415,11.3207937 16.947525,11.2512312 15.6372125,10.5284812 L21.3404625,10.5284812 C21.1260875,10.0721687 20.871025,9.63904375 20.5814,9.23173125 L14.40915,9.23173125 C14.2870875,8.93029375 14.2538375,8.65423125 14.2512125,8.45385625 L19.9597125,8.45385625 C19.5104,7.95685625 19.0024625,7.51454375 18.4477125,7.13566875 L8.92465,7.13566875 C8.3699,7.51454375 7.8624,7.95685625 7.4130875,8.45385625 L12.85515,8.45385625 C12.8485875,8.65860625 12.8219,8.93773125 12.7409625,9.23173125 L6.790525,9.23173125 C6.5013375,9.63904375 6.2467125,10.0721687 6.0319,10.5284812 L11.725525,10.5284812 C10.500525,11.1007313 8.8883375,11.3054812 5.7059625,11.3260437 C5.5589625,11.7451688 5.4452125,12.1791687 5.36515,12.6249812 L7.6843375,12.6249812 C7.6843375,12.6249812 12.1783375,12.7330437 13.6159625,10.7879187" id="Fill-5" fill="#FEFEFE"></path>
                            </g>
                        </g>
                    </g>
                </g>
            </g>
        </g>
    </g>
</svg>