<?xml version="1.0" encoding="UTF-8"?>
<svg width="21px" height="28px" viewBox="0 0 21 28" version="1.1" xmlns="http://www.w3.org/2000/svg" xmlns:xlink="http://www.w3.org/1999/xlink">
    <!-- Generator: Sketch 54.1 (76490) - https://sketchapp.com -->
    <title>14_pp</title>
    <desc>Created with Sketch.</desc>
    <defs>
        <polygon id="path-1" points="0 0.0875374836 20.3225882 0.0875374836 20.3225882 19.5293395 0 19.5293395"></polygon>
    </defs>
    <g id="页面-1" stroke="none" stroke-width="1" fill="none" fill-rule="evenodd">
        <g id="yabo首页2" transform="translate(-1190.000000, -2485.000000)">
            <g id="游戏板块" transform="translate(359.000000, 2271.000000)">
                <g id="hover" transform="translate(1.000000, 0.000000)">
                    <g id="电子游戏" transform="translate(743.000000, 0.000000)">
                        <g id="logo_pp" transform="translate(74.000000, 214.000000)">
                            <g id="14_pp" transform="translate(13.000000, 0.000000)">
                                <path d="M4.42816471,8.52934118 C4.51875294,8.76345882 4.60181176,8.73475294 4.78016471,8.63569412 C6.15404706,7.87192941 7.62863529,7.43898824 9.19781176,7.35451765 C9.47898824,7.33945882 9.46110588,7.24698824 9.40369412,7.03498824 C9.10698824,5.93875294 9.03357647,4.82581176 9.19122353,3.69875294 C9.29098824,2.98416471 9.52110588,2.30745882 9.78134118,1.6364 C8.41992941,2.64792941 7.79169412,4.01734118 7.79334118,5.70604706 C6.84181176,3.68510588 5.86487059,1.69898824 4.39028235,0.000164705882 C4.34016471,0.205341176 4.34487059,0.391929412 4.33969412,0.578282353 C4.28345882,2.47969412 4.56204706,4.34628235 4.92792941,6.20345882 C4.9004,6.27287059 4.94769412,6.36722353 4.85781176,6.41592941 C3.82745882,5.05404706 2.0564,4.0884 0.946282353,4.28275294 C0.960164706,4.30087059 0.970988235,4.32487059 0.989341176,4.33592941 C2.63428235,5.32487059 3.74181176,6.75710588 4.42816471,8.52934118" id="Fill-1" fill="#FEFEFE"></path>
                                <g id="编组" transform="translate(0.000000, 8.240000)">
                                    <mask id="mask-2" fill="white">
                                        <use xlink:href="#path-1"></use>
                                    </mask>
                                    <g id="Clip-4"></g>
                                    <path d="M15.2031059,16.9977412 C10.7198118,19.8833882 4.75369412,18.4438588 2.13322353,13.8443294 C0.340988235,10.6991529 0.920047059,6.52009412 3.50310588,3.92244706 C5.33675294,2.07844706 7.56310588,1.17821176 10.4859294,1.12527059 C13.8856941,1.30338824 16.7807529,2.88315294 18.4172235,6.32009412 C20.2442824,10.1572706 18.8358118,14.6596235 15.2031059,16.9977412 M18.1946353,3.90032941 C14.8344,-0.279435294 8.72357647,-1.14225882 4.2424,1.90691765 C0.697694118,4.31915294 -0.844658824,8.71374118 0.457929412,12.6890353 C1.79181176,16.7608 5.69957647,19.5273882 10.1176941,19.5292706 C11.3099294,19.5332706 12.4795765,19.3633882 13.5939294,18.9450353 C17.4685176,17.4906824 19.7882824,14.7259765 20.2645176,10.6000941 C20.5511059,8.11703529 19.7640471,5.85209412 18.1946353,3.90032941" id="Fill-3" fill="#FEFEFE" mask="url(#mask-2)"></path>
                                </g>
                                <path d="M12.9235765,14.6892706 C13.2934588,14.6946824 13.6548706,14.6535059 14.0071059,14.5426824 C14.9527529,14.2452706 15.3014588,13.4702118 14.8854588,12.5669176 C14.7976941,12.3763294 14.6833412,12.1920941 14.5529882,12.0273882 C13.7136941,10.9685647 12.0216941,10.4673882 10.7398118,10.8888 C9.88616471,11.1695059 9.52263529,11.9111529 9.8144,12.7692706 C9.90310588,13.0299765 10.0374588,13.2636235 10.2101647,13.4749176 C10.9115765,14.3330353 11.8546353,14.6535059 12.9235765,14.6892706" id="Fill-5" fill="#FEFEFE"></path>
                                <path d="M17.2237882,16.2997882 C16.9480235,16.9327294 16.5920235,17.5310824 16.2677882,18.1484941 C16.2237882,18.1172 16.1990824,18.1084941 16.1901412,18.0917882 C15.9209647,17.5812 15.6501412,17.0710824 15.3856706,16.5579059 C14.9689647,15.7480235 14.9710824,15.7470824 14.0663765,15.7941412 C14.0564941,15.7946118 14.0466118,15.8019059 13.9903765,15.8256706 C14.3941412,16.5619059 14.7449647,17.2983765 15.1840235,17.9779059 C15.6781412,18.7430824 15.8894353,19.5402588 15.8110824,20.4466118 C15.7604941,21.0329647 15.8016706,21.0268471 16.4059059,21.0277882 C16.6167294,21.0280235 16.6957882,20.9807294 16.6870824,20.7541412 C16.6692,20.2830824 16.6844941,19.8106118 16.6797882,19.3386118 C16.6783765,19.1929647 16.7084941,19.0656706 16.7802588,18.9355529 C17.2875529,18.0179059 17.7866118,17.0953176 18.2903765,16.1755529 C18.5035529,15.7859059 18.5023765,15.8207294 18.0696706,15.7776706 C17.6270824,15.7339059 17.4016706,15.8908471 17.2237882,16.2997882" id="Fill-7" fill="#FEFEFE"></path>
                                <path d="M9.31729412,20.3416 C8.86905882,20.3580706 8.41894118,20.3293647 7.97117647,20.3519529 C7.71141176,20.3653647 7.66364706,20.2726588 7.66552941,20.0331294 C7.67729412,18.7218353 7.66505882,17.4107765 7.67658824,16.0999529 C7.67894118,15.8526588 7.61094118,15.7493647 7.36082353,15.7851294 C7.27964706,15.7964235 7.194,15.7976 7.11329412,15.7848941 C6.83847059,15.7406588 6.77729412,15.8630118 6.78294118,16.1211294 C6.79941176,16.8766588 6.78882353,17.6331294 6.78882353,18.3891294 C6.78882353,19.1804235 6.79470588,19.9719529 6.78458824,20.7632471 C6.782,20.9599529 6.83188235,21.0303059 7.03941176,21.0272471 C7.79517647,21.0157176 8.55164706,21.0119529 9.30741176,21.0286588 C9.55752941,21.0340706 9.582,20.9183059 9.55823529,20.7293647 C9.53729412,20.5646588 9.65447059,20.3291294 9.31729412,20.3416" id="Fill-9" fill="#FEFEFE"></path>
                                <path d="M13.1268235,19.2269412 C12.6677647,19.2281176 12.2087059,19.2241176 11.7496471,19.2290588 C11.5216471,19.2314118 11.5741176,19.1128235 11.6242353,18.9782353 C11.8832941,18.2848235 12.1390588,17.5904706 12.4348235,16.7911765 C12.7397647,17.6123529 13.0138824,18.3448235 13.2835294,19.0791765 C13.3388235,19.2304706 13.2228235,19.2267059 13.1268235,19.2269412 M12.284,15.8558824 C12.0134118,15.8478824 11.896,15.9412941 11.8016471,16.1907059 C11.2882353,17.5452941 10.7548235,18.8921176 10.2284706,20.2415294 C10.1315294,20.4902353 10.0350588,20.7391765 9.93482353,20.9975294 C10.8327059,21.0808235 10.8327059,21.0808235 11.1343529,20.2798824 C11.1550588,20.2245882 11.1851765,20.1718824 11.1971765,20.1149412 C11.2367059,19.9302353 11.3484706,19.8841176 11.5301176,19.8883529 C12.0724706,19.8998824 12.6162353,19.9123529 13.1574118,19.8848235 C13.4755294,19.8688235 13.6327059,19.9544706 13.7404706,20.2742353 C14.0101176,21.0751765 14.0298824,21.0688235 14.9416471,21.0029412 C14.3442353,19.4643529 13.7621176,17.962 13.1771765,16.4608235 C12.9432941,15.8596471 12.94,15.8751765 12.284,15.8558824" id="Fill-11" fill="#FEFEFE"></path>
                                <path d="M4.47505882,18.2710588 C4.14847059,18.3068235 3.81694118,18.2952941 3.48776471,18.312 C3.336,18.3195294 3.276,18.2607059 3.28117647,18.108 C3.28894118,17.8724706 3.28329412,17.6367059 3.28329412,17.348 C3.31505882,17.1112941 3.15411765,16.7357647 3.34376471,16.5522353 C3.532,16.3705882 3.90517647,16.5009412 4.19647059,16.4985882 C4.88329412,16.4929412 5.21105882,16.7564706 5.25129412,17.3225882 C5.28870588,17.8534118 5.00729412,18.2127059 4.47505882,18.2710588 M4.74658824,15.8298824 C4.06494118,15.7385882 3.37858824,15.8167059 2.69576471,15.7818824 C2.45105882,15.7694118 2.39811765,15.8581176 2.40141176,16.0825882 C2.41270588,16.8496471 2.40588235,17.6169412 2.40588235,18.384 L2.40588235,20.4378824 C2.40588235,21.0348235 2.40611765,21.0211765 3.00164706,21.0291765 C3.24588235,21.032 3.29552941,20.9477647 3.28847059,20.7249412 C3.27270588,20.2414118 3.29317647,19.7567059 3.27905882,19.2734118 C3.27270588,19.06 3.33223529,18.9847059 3.55482353,18.9903529 C3.93129412,19.0002353 4.31058824,18.9936471 4.68564706,18.9604706 C5.56729412,18.8821176 6.13364706,18.2832941 6.15129412,17.4378824 C6.16964706,16.5472941 5.65223529,15.9510588 4.74658824,15.8298824" id="Fill-13" fill="#FEFEFE"></path>
                            </g>
                        </g>
                    </g>
                </g>
            </g>
        </g>
    </g>
</svg>