<?xml version="1.0" encoding="UTF-8"?>
<svg width="38px" height="26px" viewBox="0 0 38 26" version="1.1" xmlns="http://www.w3.org/2000/svg" xmlns:xlink="http://www.w3.org/1999/xlink">
    <!-- Generator: Sketch 54.1 (76490) - https://sketchapp.com -->
    <title>编组</title>
    <desc>Created with Sketch.</desc>
    <defs>
        <polygon id="path-1" points="4.67769968e-05 8.52459016e-05 37.9527429 8.52459016e-05 37.9527429 25.7213311 4.67769968e-05 25.7213311"></polygon>
    </defs>
    <g id="页面-1" stroke="none" stroke-width="1" fill="none" fill-rule="evenodd">
        <g id="yabo首页2" transform="translate(-1181.000000, -2359.000000)">
            <g id="游戏板块" transform="translate(359.000000, 2271.000000)">
                <g id="hover" transform="translate(1.000000, 0.000000)">
                    <g id="电子游戏" transform="translate(743.000000, 0.000000)">
                        <g id="编组" transform="translate(78.000000, 88.000000)">
                            <mask id="mask-2" fill="white">
                                <use xlink:href="#path-1"></use>
                            </mask>
                            <g id="Clip-2"></g>
                            <path d="M33.7823115,7.24146885 L33.7823115,7.24146885 C33.3778197,6.56504262 32.9413607,5.88563279 32.2926393,5.41763279 C30.5962459,4.11678033 28.3853934,3.83163279 26.313918,3.73146885 C24.5766066,3.75278033 22.8397213,3.96504262 21.151,4.36399344 C20.6288689,4.54300984 20.2358852,4.0340918 19.8066721,3.82566557 C21.775,2.94891148 23.8801475,2.40887869 26.0095902,2.11691148 C27.9561803,1.97838689 30.0438525,2.01291148 31.7585738,3.0648459 C33.172377,3.91304262 33.9830656,5.61071475 33.7823115,7.24146885 M30.7782459,9.58487869 L30.7782459,9.58487869 C30.2689016,11.8877967 28.7881803,13.8198951 27.1864098,15.4881574 C24.4414918,18.1938623 21.0286721,20.223141 17.3409344,21.3419934 C15.592541,21.8496328 13.7597541,22.184223 11.9380492,21.9804852 C10.7876557,21.7972066 9.56565574,21.398682 8.84277049,20.4273049 C8.09644262,19.4597639 8.03506557,18.1414361 8.34109836,16.9982885 C8.80611475,15.2788787 9.78686885,13.7295344 10.9854262,12.4278295 C11.0046066,14.3185836 10.9884098,16.2097639 10.9926721,18.1013705 C10.994377,18.6610098 11.0745082,19.2675344 11.4713279,19.6967475 C11.9572295,20.1677311 12.7223115,20.3876656 13.3642131,20.124682 C13.767,19.9661246 14.1263115,19.7197639 14.5013934,19.5104852 C18.7930984,17.0157639 23.084377,14.5223213 27.379918,12.0361246 C27.9152623,11.7262557 28.5656885,11.4483541 28.7941475,10.8200918 C29.1415246,10.0750426 28.7621803,9.14458361 28.0593279,8.76012459 C26.1131639,7.68219016 24.1478197,6.63323934 22.2084754,5.54123934 C23.6077869,5.04041967 25.117918,4.87632131 26.5973607,4.94281311 C27.951918,4.99268197 29.4194262,5.44789508 30.2411967,6.59274754 C30.8771311,7.44520656 30.9440492,8.57087869 30.7782459,9.58487869 M20.2201148,22.0516656 L20.2201148,22.0516656 C17.5289016,23.3555016 14.6382131,24.3400918 11.6413934,24.5787803 C10.6073607,24.7373377 9.56267213,24.5698295 8.54014754,24.4027475 C7.30195082,24.1406164 6.05693443,23.5720262 5.27736066,22.540977 C4.26165574,21.1996328 4.19047541,19.3246492 4.76247541,17.7863869 C4.82172131,18.928682 5.24965574,20.0650098 6.10339344,20.8505508 C7.60457377,22.277141 9.74893443,22.728518 11.7522131,22.8593705 C15.223,23.0209115 18.6792951,22.225141 21.8926393,20.9524197 C22.118541,20.8663213 22.3508361,20.795141 22.5839836,20.7286492 C21.841918,21.2456656 21.0286721,21.6488787 20.2201148,22.0516656 M14.2324426,3.08828852 L14.2324426,3.08828852 C14.7153607,3.02307541 15.1036557,3.35297705 15.4966393,3.57419016 C18.539918,5.39120656 21.5742459,7.22399344 24.6175246,9.04100984 C24.9972951,9.24773115 25.3331639,9.63005902 25.3011967,10.088682 C25.3476557,10.6065508 24.9465738,11.019141 24.5126721,11.2301246 C21.3210656,13.0629115 18.149918,14.9310754 14.9570328,16.7625836 C14.3590328,17.1858295 13.6284754,16.8354689 13.2184426,16.3274033 C13.1340492,15.9041574 13.102082,15.4723869 13.1135902,15.0401902 C13.048377,11.548518 13.0833279,8.05769836 13.0569016,4.56645246 C12.9797541,3.87127213 13.5193607,3.13645246 14.2324426,3.08828852 M36.9619836,4.39723934 C35.9062131,2.87005902 34.162082,1.99415738 32.4192295,1.49419016 C29.9142787,0.81307541 27.2797541,0.83055082 24.7138525,1.08245246 C22.3687377,1.36461639 20.0572951,1.90848525 17.8195902,2.66376393 C16.5409016,1.87353443 15.2345082,1.12891148 13.9515574,0.347632787 C13.2316557,-0.154465574 12.1302787,-0.128039344 11.5122459,0.52664918 C11.1252295,0.884681967 10.9811639,1.42514098 10.9913934,1.93789508 C10.9913934,3.18546885 10.9956557,4.43389508 10.9926721,5.68232131 C9.55585246,6.54927213 8.13267213,7.44648525 6.81945902,8.49373115 C4.5225082,10.3184197 2.40244262,12.4653377 1.03936066,15.0896328 C0.198836066,16.7625836 -0.308803279,18.7292066 0.209065574,20.5798951 C0.663,22.3355344 2.07680328,23.6888131 3.67985246,24.446223 C6.27218033,25.6814361 9.22680328,25.8340262 12.0505738,25.6639607 C15.1053607,25.4427475 18.1119836,24.7215672 20.9907377,23.6841246 C25.3318852,22.0930098 29.4586393,19.7939279 32.8816885,16.6624197 C34.9766066,14.6796 36.9214918,12.3464197 37.692541,9.51071475 C38.1844098,7.80750164 37.9994262,5.86517377 36.9619836,4.39723934" id="Fill-1" fill="#FEFEFE" mask="url(#mask-2)"></path>
                        </g>
                    </g>
                </g>
            </g>
        </g>
    </g>
</svg>