<?xml version="1.0" encoding="UTF-8"?>
<svg width="27px" height="27px" viewBox="0 0 27 27" version="1.1" xmlns="http://www.w3.org/2000/svg" xmlns:xlink="http://www.w3.org/1999/xlink">
    <!-- Generator: Sketch 54.1 (76490) - https://sketchapp.com -->
    <title>15_buyu</title>
    <desc>Created with Sketch.</desc>
    <defs>
        <polygon id="path-1" points="0 0.140640062 26.5902667 0.140640062 26.5902667 26.7306638 0 26.7306638"></polygon>
    </defs>
    <g id="页面-1" stroke="none" stroke-width="1" fill="none" fill-rule="evenodd">
        <g id="yabo首页2" transform="translate(-1187.000000, -2551.000000)">
            <g id="游戏板块" transform="translate(359.000000, 2271.000000)">
                <g id="hover" transform="translate(1.000000, 0.000000)">
                    <g id="电子游戏" transform="translate(743.000000, 0.000000)">
                        <g id="logo_fish" transform="translate(69.000000, 280.000000)">
                            <g id="15_buyu" transform="translate(15.000000, 0.000000)">
                                <path d="M17.597079,7.89713692 C17.2204188,8.27379713 17.2274052,8.89133762 17.6134819,9.27771809 C17.9986473,9.66227602 18.6174029,9.66956621 18.9940631,9.29290601 C19.3704195,8.91594204 19.3625218,8.29688276 18.9773564,7.91232484 C18.5909759,7.52624812 17.9734354,7.52047671 17.597079,7.89713692" id="Fill-1" fill="#FEFEFE"></path>
                                <g id="编组" transform="translate(0.000000, 0.163240)">
                                    <mask id="mask-2" fill="white">
                                        <use xlink:href="#path-1"></use>
                                    </mask>
                                    <g id="Clip-4"></g>
                                    <path d="M18.5658855,17.41531 C18.3808967,18.8821585 17.7445232,18.2372798 17.7445232,18.2372798 L15.7464015,16.2406769 C12.3394492,17.2816564 11.7115809,16.6537881 10.8874849,16.8284491 C10.0633888,17.0037176 10.4002566,18.3833875 10.3054841,19.9210117 C10.2094965,21.4574208 9.65939031,21.5424731 9.21711833,21.0102887 C8.91123379,20.6433488 8.5096654,19.6409466 8.2900482,19.0537819 C8.16125471,18.723293 7.97322836,18.5735402 7.84018225,18.5045871 C7.29432871,18.3041066 6.12820085,17.855152 5.72480992,17.5210179 C5.19141046,17.0787459 5.27676652,16.5286398 6.81317567,16.4314371 C8.34958481,16.3342345 9.7307735,16.6714061 9.90482697,15.8470063 C10.0791842,15.0229102 9.45101217,14.3953457 10.4886503,10.9874821 L8.48900984,8.98996792 C8.48900984,8.98996792 7.84504239,8.35541697 9.3103721,8.16799814 C9.3103721,8.16799814 12.0882411,7.82080248 12.8139196,7.86970756 C14.1331416,6.73365176 16.6394508,5.15866532 19.4637948,5.66108144 C19.8270897,5.72456691 20.2848533,5.90105045 20.5533756,6.16957272 L20.5545906,6.170484 C20.8246317,6.44022131 20.9999002,6.89676993 21.065512,7.26097606 C21.5703582,10.0844088 19.9965867,12.591933 18.8623535,13.9129776 C18.9112586,14.637441 18.5658855,17.41531 18.5658855,17.41531 M13.2950726,0.14057931 C5.95262859,0.14057931 -0.000121503293,6.09302565 -0.000121503293,13.4354697 C-0.000121503293,20.7782174 5.95262859,26.7306638 13.2950726,26.7306638 C20.6378204,26.7306638 26.5902667,20.7782174 26.5902667,13.4354697 C26.5902667,6.09302565 20.6378204,0.14057931 13.2950726,0.14057931" id="Fill-3" fill="#FEFEFE" mask="url(#mask-2)"></path>
                                </g>
                            </g>
                        </g>
                    </g>
                </g>
            </g>
        </g>
    </g>
</svg>