<?xml version="1.0" encoding="UTF-8"?>
<svg width="101px" height="10px" viewBox="0 0 101 10" version="1.1" xmlns="http://www.w3.org/2000/svg" xmlns:xlink="http://www.w3.org/1999/xlink">
    <!-- Generator: Sketch 54.1 (76490) - https://sketchapp.com -->
    <title>17_dt</title>
    <desc>Created with Sketch.</desc>
    <defs>
        <polygon id="path-1" points="0.0003 0 101 0 101 10 0.0003 10"></polygon>
    </defs>
    <g id="页面-1" stroke="none" stroke-width="1" fill="none" fill-rule="evenodd">
        <g id="yabo首页2" transform="translate(-1153.000000, -2622.000000)">
            <g id="游戏板块" transform="translate(359.000000, 2271.000000)">
                <g id="hover" transform="translate(1.000000, 0.000000)">
                    <g id="电子游戏" transform="translate(743.000000, 0.000000)">
                        <g id="logo_DT" transform="translate(50.000000, 351.000000)">
                            <g id="17_dt">
                                <mask id="mask-2" fill="white">
                                    <use xlink:href="#path-1"></use>
                                </mask>
                                <g id="Clip-2"></g>
                                <path d="M45.5493,8.3672 C45.6813,8.6182 45.9033,8.8932 45.9823,9.1802 C46.0483,9.4242 45.9163,9.6642 45.8303,9.7802 C45.5923,10.1022 44.9573,10.0402 44.7493,9.7372 C44.5733,9.4792 44.4963,9.1772 44.3393,8.9022 C44.1363,8.5522 43.9233,8.1682 43.7333,7.8112 C43.6663,7.6842 43.4883,7.1942 43.3873,7.1472 L37.6803,7.1472 C37.6583,7.1652 37.6743,7.1552 37.6373,7.1692 C37.5593,7.3642 37.4273,7.5322 37.3343,7.7042 C37.1063,8.1282 36.9093,8.5482 36.6643,8.9452 C36.4873,9.2312 36.3933,9.6742 36.1243,9.8652 C35.6793,10.1812 35.1363,9.8942 35.0213,9.4802 C34.9313,9.1572 35.1503,8.9392 35.2373,8.7742 C35.5433,8.1972 35.7963,7.6102 36.1243,7.0622 C36.3773,6.6392 36.5193,6.1802 36.7723,5.7572 C37.4203,4.6702 37.9173,3.4622 38.5673,2.3752 C38.9653,1.7082 39.2043,0.9382 39.6693,0.3422 C39.7553,0.2332 39.9663,0.1182 40.1013,0.0642 C40.1833,0.0322 40.2753,0.0442 40.3393,0.0002 C41.5413,0.0122 41.7423,1.0342 42.1553,1.8192 C43.1113,3.6362 44.0463,5.4982 45.0303,7.2982 C45.2263,7.6542 45.3593,8.0082 45.5493,8.3672 L45.5493,8.3672 Z M42.6743,5.7992 C42.6813,5.7782 42.6883,5.7572 42.6953,5.7352 C42.5313,5.5962 42.2973,4.9782 42.1773,4.7512 C41.8193,4.0702 41.4343,3.3732 41.0743,2.6962 C40.9323,2.4302 40.7883,2.1612 40.6633,1.9052 C40.6113,1.7962 40.5993,1.6362 40.4693,1.6052 C40.3323,1.9442 40.1323,2.2842 39.9503,2.5892 C39.8263,2.7972 39.7613,3.0172 39.6473,3.2312 C39.4013,3.6932 39.1613,4.1712 38.9123,4.6442 C38.8193,4.8222 38.7343,5.0132 38.6323,5.2002 C38.5313,5.3842 38.3563,5.5762 38.3293,5.8212 C39.7773,5.8142 41.2263,5.8062 42.6743,5.7992 L42.6743,5.7992 Z M21.5503,8.4682 C21.6803,8.6682 21.8843,8.8752 21.9673,9.1122 C22.1023,9.4952 21.7853,9.8592 21.5503,9.9492 C20.9433,10.1812 20.7003,9.5542 20.5073,9.2632 C20.0603,8.5862 19.5843,7.9132 19.1293,7.2432 C19.0603,7.1422 18.7513,6.5892 18.6913,6.5562 L18.4613,6.5562 C18.3833,6.5072 18.1803,6.5352 18.0643,6.5352 L17.0623,6.5352 L13.3683,6.5352 C13.2943,6.7652 13.3473,7.1642 13.3473,7.4362 L13.3473,9.3912 C13.2433,9.5482 13.2433,9.7332 13.0963,9.8422 C12.7763,10.0802 12.2503,9.9502 12.0943,9.6482 C11.9923,9.4502 12.0113,9.1362 12.0113,8.8332 L12.0113,7.2862 L12.0113,2.6042 L12.0113,1.1872 C12.0113,0.9742 11.9753,0.7002 12.0323,0.5212 C12.1973,0.0022 12.7153,0.0272 13.3893,0.0272 L15.9983,0.0272 C16.2153,0.0272 16.9503,0.0902 17.0833,0.0062 C19.0403,-0.0128 20.6423,-0.0568 21.4463,1.1232 C21.5943,1.3402 21.7343,1.6302 21.8213,1.8962 C22.1243,2.8132 21.9803,4.6082 21.6133,5.3102 C21.3123,5.8862 20.8583,6.1092 20.2353,6.3632 L20.2353,6.4062 C20.4343,6.5692 20.6083,6.9912 20.7573,7.2212 C21.0223,7.6332 21.2803,8.0502 21.5503,8.4682 L21.5503,8.4682 Z M18.8793,5.1812 L19.2753,5.1812 C19.6563,5.0962 19.9973,5.0792 20.2563,4.8812 C20.6403,4.5882 20.6533,3.8952 20.6533,3.2062 C20.6533,2.9112 20.6743,2.6162 20.6113,2.3682 C20.3343,1.2922 19.3563,1.3802 18.0643,1.3802 L13.3683,1.3802 C13.2823,1.6492 13.3473,2.2352 13.3473,2.5612 C13.3543,3.4352 13.3613,4.3082 13.3683,5.1812 L13.4093,5.1812 C13.5123,5.2472 14.0153,5.2032 14.1823,5.2032 L16.2073,5.2032 L17.9603,5.2032 C18.2533,5.2032 18.6223,5.2392 18.8793,5.1812 L18.8793,5.1812 Z M100.8973,0.2952 C101.0163,0.4722 100.9993,0.7612 100.9993,1.0742 L100.9993,2.6292 L100.9993,7.9682 L100.9993,9.5672 C100.8343,9.9222 100.6343,10.0042 100.1243,9.9992 C100.0823,9.9152 99.9883,9.9042 99.9213,9.8472 C99.8363,9.7782 99.7473,9.5792 99.7163,9.4592 L99.7163,6.0012 C99.5573,5.9452 99.2813,5.9792 99.0863,5.9792 L97.7623,5.9792 C97.6803,6.0332 97.4573,6.0012 97.3363,6.0012 L96.2773,6.0012 C94.9623,5.9872 93.6453,5.9722 92.3293,5.9582 C92.2413,6.2422 92.3083,6.7302 92.3083,7.0602 L92.3083,9.5022 C92.2753,9.5502 92.2793,9.6202 92.2483,9.6752 C92.0943,9.9462 91.8823,10.0072 91.4543,9.9992 C91.3463,9.8582 91.1703,9.8062 91.0883,9.6322 C91.0013,9.4482 91.0263,9.1382 91.0263,8.8762 L91.0263,7.3622 L91.0263,2.4562 C91.0263,1.5622 90.8363,0.2712 91.4743,0.0362 C91.8273,-0.0938 92.1333,0.1542 92.2483,0.3602 C92.3863,0.6122 92.3083,1.2262 92.3083,1.5922 L92.3083,4.5962 C92.4953,4.6612 92.8173,4.6172 93.0423,4.6172 L94.5883,4.6172 L99.7163,4.6172 L99.7163,1.6572 C99.7163,1.2662 99.6423,0.6622 99.7783,0.3822 C99.9843,-0.0458 100.6203,-0.1138 100.8973,0.2952 L100.8973,0.2952 Z M88.4943,6.3652 C88.9533,6.5102 89.0923,6.9462 88.9423,7.5682 C88.7503,8.3652 88.3793,9.0052 87.8233,9.4162 C86.9313,10.0762 85.8603,9.9742 84.3643,9.9742 L82.7163,9.9742 C82.3133,9.9742 81.8193,10.0442 81.4543,9.9532 C80.1953,9.6392 79.4143,8.9482 79.0733,7.6762 C78.9853,7.3472 79.0123,6.9392 79.0123,6.5372 L79.0123,4.6252 C79.0123,3.7092 78.9333,2.6382 79.1743,1.9612 C79.4413,1.2152 79.9923,0.6342 80.6403,0.2862 L81.2513,0.0712 C81.3533,0.0412 81.4603,0.0782 81.5353,0.0282 L85.0353,0.0282 C85.5493,0.0282 86.3113,-0.0578 86.7443,0.0712 C87.5253,0.3042 88.0753,0.6852 88.4733,1.3172 C88.7443,1.7442 88.8063,1.9722 88.9423,2.5632 C88.9843,2.7462 89.0153,3.0892 88.9423,3.2722 C88.8173,3.5822 88.3183,3.8182 87.9663,3.5512 C87.6373,3.3032 87.7913,2.9952 87.6603,2.5632 C87.5493,2.1942 87.3083,1.8322 87.0293,1.6392 C86.5003,1.2732 85.4343,1.3822 84.5673,1.3812 L82.4513,1.3812 C82.0493,1.3812 81.6073,1.3482 81.3113,1.4672 C80.7153,1.7082 80.4443,2.1802 80.2943,2.9072 L80.2943,4.8832 L80.2943,6.4722 C80.2943,6.8222 80.2713,7.1872 80.3553,7.4612 C80.5163,7.9872 80.8863,8.3722 81.3733,8.5562 C81.7783,8.7112 82.4723,8.6212 82.9803,8.6212 L84.3023,8.6212 L85.7673,8.6212 C86.0793,8.6212 86.4063,8.6462 86.6423,8.5562 C87.0973,8.3852 87.4753,8.0042 87.6393,7.5252 C87.7063,7.3332 87.6453,7.1382 87.7013,6.9022 C87.7783,6.5752 87.9813,6.3862 88.3113,6.3222 C88.3803,6.3092 88.4493,6.3512 88.4943,6.3652 L88.4943,6.3652 Z M76.0303,8.6372 C76.7983,8.6372 77.6783,8.4612 77.9243,9.0462 C77.9613,9.1332 78.0303,9.3292 77.9853,9.4982 C77.8343,10.0692 77.1923,9.9932 76.4993,9.9932 L72.5073,9.9932 L70.3473,9.9932 C69.9323,9.9932 69.4843,10.0312 69.1463,9.9292 C68.8133,9.8272 68.4893,9.6172 68.3113,9.3462 C67.9743,8.8382 68.0063,8.0062 68.0063,7.1302 L68.0063,2.9752 C68.0063,2.1852 67.9443,1.2972 68.2293,0.8012 C68.3983,0.5062 68.6643,0.2682 68.9833,0.1332 C69.1143,0.0772 69.3143,0.1042 69.4313,0.0252 L76.0713,0.0252 C76.8383,0.0252 77.6533,-0.1488 77.9243,0.4132 C77.9663,0.4982 78.0283,0.7022 77.9853,0.8652 C77.7933,1.5962 76.6653,1.3822 75.8063,1.3822 L71.5493,1.3822 C70.8683,1.3822 69.9723,1.2962 69.3703,1.4252 C69.2673,1.6162 69.2893,1.9552 69.2893,2.2642 L69.2893,4.0082 C69.4483,4.0632 69.7233,4.0302 69.9203,4.0302 L71.2643,4.0302 L75.7243,4.0302 C75.7593,4.0522 75.8103,4.0342 75.8673,4.0512 C75.9823,4.0852 76.1173,4.1642 76.1933,4.2452 C76.5193,4.5952 76.3003,5.2052 75.9683,5.3642 C75.8133,5.4392 75.5493,5.4082 75.3383,5.4082 L74.0133,5.4082 L69.3083,5.4082 C69.2333,5.6502 69.2893,6.0682 69.2893,6.3542 L69.2893,8.4222 C69.3163,8.4592 69.3323,8.5252 69.3493,8.5722 C69.6883,8.7322 70.8513,8.6372 71.3453,8.6372 L76.0303,8.6372 Z M32.0473,8.6362 C32.7833,8.6362 33.6353,8.4742 33.9003,9.0022 C33.9473,9.0952 34.0383,9.3042 33.9823,9.4972 C33.8153,10.0642 33.1993,9.9922 32.4953,9.9922 L28.6053,9.9922 L26.3853,9.9922 C25.9593,9.9922 25.4913,10.0332 25.1433,9.9282 C24.8063,9.8252 24.4883,9.6172 24.3083,9.3462 C23.9703,8.8382 24.0023,8.0082 24.0023,7.1292 L24.0023,2.9092 C24.0023,2.0752 23.9563,1.2172 24.2673,0.7142 C24.4223,0.4632 24.7003,0.2502 24.9803,0.1322 C25.1113,0.0762 25.3083,0.1042 25.4283,0.0252 L32.0683,0.0252 C32.8613,0.0252 33.7133,-0.1598 33.9413,0.4772 C33.9673,0.5502 34.0163,0.7332 33.9823,0.8642 C33.8063,1.5322 33.0333,1.3812 32.2513,1.3812 L27.3833,1.3812 L25.8563,1.3812 C25.6403,1.3812 25.3873,1.3432 25.3263,1.5102 C25.2383,1.6332 25.2853,2.0002 25.2853,2.1992 L25.2853,4.0072 C25.4453,4.0622 25.7213,4.0292 25.9173,4.0292 L27.2613,4.0292 L31.7213,4.0292 C31.7793,4.0662 31.8743,4.0432 31.9453,4.0722 C32.0413,4.1112 32.1963,4.2442 32.2513,4.3302 C32.5223,4.7572 32.2273,5.2662 31.8843,5.3852 C31.7143,5.4442 31.4383,5.4072 31.2323,5.4072 L29.8683,5.4072 L25.3063,5.4072 C25.2283,5.6552 25.2853,6.0832 25.2853,6.3752 L25.2853,8.4422 C25.3083,8.4712 25.3163,8.5042 25.3263,8.5502 C25.6193,8.7242 26.7823,8.6362 27.2613,8.6362 L32.0473,8.6362 Z M64.7833,0.0282 C65.5123,0.0282 66.6783,-0.1458 66.9313,0.3732 C67.1233,0.7652 66.8773,1.1902 66.6313,1.3212 C66.4043,1.4402 65.9073,1.3642 65.6063,1.3642 L63.1763,1.3642 C63.1023,1.5182 63.1363,1.8492 63.1363,2.0752 L63.1363,3.6692 L63.1363,9.4652 C62.9923,9.6732 62.9743,9.9422 62.6543,9.9602 C62.4853,10.0742 62.2353,9.9132 62.1523,9.8522 C61.7763,9.5762 61.8913,8.8292 61.8913,8.1722 L61.8913,3.6262 L61.8913,2.1612 C61.8913,1.9012 61.9113,1.5882 61.8713,1.3642 L58.4983,1.3642 C58.3493,1.2562 58.1973,1.2372 58.0953,1.0842 C57.9343,0.8382 57.9873,0.3692 58.1753,0.2002 C58.2583,0.1262 58.3713,0.0992 58.4573,0.0282 L64.7833,0.0282 Z M9.4573,1.2302 C9.6833,1.5632 9.8403,1.9842 9.9473,2.4362 C10.0323,2.7962 9.9883,3.2492 9.9883,3.6632 L9.9883,5.9462 C9.9883,7.4572 9.9303,8.0742 9.3143,8.9382 C8.9663,9.4272 8.3583,9.7452 7.7213,9.9292 C7.3873,10.0242 6.9283,9.9712 6.5363,9.9712 L4.2893,9.9712 C3.8743,9.9712 2.8243,10.0582 2.5323,9.9292 C2.3673,9.8552 2.2693,9.7072 2.2063,9.5192 C2.1703,9.4122 2.1383,9.2072 2.1853,9.0672 C2.3983,8.4292 3.5093,8.6152 4.3103,8.6152 L6.4543,8.6152 C6.7793,8.6152 7.2113,8.6772 7.4963,8.5942 C7.9763,8.4532 8.3513,8.1382 8.5583,7.7112 C8.8133,7.1862 8.7013,6.1402 8.7013,5.3862 L8.7013,3.5342 C8.7013,3.2082 8.7363,2.8302 8.6603,2.5652 C8.5963,2.3392 8.4773,2.1152 8.3543,1.9412 C7.9093,1.3102 7.0863,1.3602 6.0463,1.3602 L1.3073,1.3602 C1.2323,1.5142 1.2663,1.8452 1.2663,2.0702 L1.2663,3.6632 L1.2663,9.4332 C1.1663,9.5882 1.1463,9.7612 1.0013,9.8642 C0.6413,10.1182 0.1213,9.8862 0.0003,9.5622 L0.0003,0.4122 C0.1003,0.3592 0.1343,0.2012 0.2243,0.1322 C0.3053,0.0712 0.4273,0.0662 0.5103,0.0032 L5.0663,0.0032 L6.7613,0.0032 C7.1313,0.0032 7.5033,-0.0218 7.8023,0.0682 C8.5013,0.2772 9.0823,0.6792 9.4573,1.2302 L9.4573,1.2302 Z M56.9723,2.7182 L56.9723,7.8112 C56.9723,8.2932 57.0733,9.3712 56.8873,9.6732 C56.7843,9.8432 56.5823,9.9462 56.3573,9.9942 C56.2293,10.0212 56.0923,9.9472 56.0183,9.9082 C55.4903,9.6362 55.6353,8.8822 55.6353,8.1112 L55.6353,1.7122 L55.5933,1.7122 L55.5933,1.7552 C55.4823,1.8692 55.4273,2.0202 55.3393,2.1612 C55.1613,2.4452 54.9703,2.7242 54.7873,3.0172 C54.2653,3.8502 53.6753,4.6672 53.1533,5.5002 C52.8543,5.9772 52.4763,6.8082 51.9663,7.0412 C51.2983,7.3452 50.7243,6.8882 50.4593,6.5062 C50.2903,6.2632 50.1713,6.0082 50.0133,5.7572 C49.6193,5.1302 49.2043,4.5102 48.8033,3.8732 C48.4733,3.3472 48.1213,2.8262 47.7853,2.2902 C47.6663,2.0982 47.5093,1.9212 47.4033,1.7122 L47.3613,1.7122 L47.3613,9.4802 C47.2623,9.6092 47.2393,9.7732 47.1063,9.8652 C46.7783,10.0922 46.2833,9.9582 46.1093,9.6732 C45.9973,9.4882 46.0243,9.1562 46.0243,8.8602 L46.0243,7.1052 L46.0243,2.7612 C46.0243,2.1092 45.9243,1.2082 46.1303,0.7272 C46.2503,0.4492 46.4923,0.1842 46.7673,0.0642 C46.8433,0.0312 46.9363,0.0432 47.0003,0.0002 C48.0733,0.0042 48.2543,0.6222 48.6763,1.2632 C49.3623,2.3032 50.0703,3.3542 50.7353,4.4092 C50.9193,4.7002 51.1013,4.9842 51.2863,5.2642 C51.3563,5.3702 51.3943,5.5382 51.5193,5.5852 C51.6493,5.3502 51.8263,5.1422 51.9663,4.9222 C52.4083,4.2212 52.8663,3.5372 53.3013,2.8462 C53.8133,2.0362 54.2823,1.1892 54.8513,0.4282 C55.2623,-0.1218 56.2913,-0.1358 56.6973,0.4282 C57.0513,0.9212 56.9723,1.8602 56.9723,2.7182 L56.9723,2.7182 Z" id="Fill-1" fill="#FFFFFF" mask="url(#mask-2)"></path>
                            </g>
                        </g>
                    </g>
                </g>
            </g>
        </g>
    </g>
</svg>