<?xml version="1.0" encoding="UTF-8"?>
<svg width="30px" height="28px" viewBox="0 0 30 28" version="1.1" xmlns="http://www.w3.org/2000/svg" xmlns:xlink="http://www.w3.org/1999/xlink">
    <!-- Generator: Sketch 54.1 (76490) - https://sketchapp.com -->
    <title>logo_kg</title>
    <desc>Created with Sketch.</desc>
    <defs>
        <polygon id="path-1" points="0.422318409 0.02524375 16.1312074 0.02524375 16.1312074 13.7168063 0.422318409 13.7168063"></polygon>
    </defs>
    <g id="页面-1" stroke="none" stroke-width="1" fill="none" fill-rule="evenodd">
        <g id="yabo首页2" transform="translate(-937.000000, -2418.000000)">
            <g id="游戏板块" transform="translate(359.000000, 2271.000000)">
                <g id="hover" transform="translate(1.000000, 0.000000)">
                    <g id="彩票" transform="translate(465.000000, 0.000000)">
                        <g id="logo_kg" transform="translate(104.000000, 147.000000)">
                            <g transform="translate(8.000000, 0.000000)">
                                <path d="M6.19955044,18.0153827 L9.03067851,15.8004133 L11.1856961,21.4117647 L14.8286059,21.4117647 C14.8286059,21.4117647 11.9040353,19.178194 11.9040353,15.4193278 C11.9040353,11.6604616 14.5720883,8.44675259 16.4705882,7.41176471 L14.1102666,7.41176471 L7.16227772,13.4075403 L8.41476662,7.41176471 L3.18108816,7.41176471 L0,21.4117647 L5.48974684,21.4117647 L6.19955044,18.0153827 Z" id="Fill-1" fill="#FEFEFE" fill-rule="nonzero"></path>
                                <g id="编组" transform="translate(13.176471, 6.588235)">
                                    <g id="Fill-3-Clipped">
                                        <mask id="mask-2" fill="white">
                                            <use xlink:href="#path-1"></use>
                                        </mask>
                                        <g id="path-1"></g>
                                        <path d="M7.8639257,9.16943127 L10.28987,9.16943127 C10.28987,9.16943127 9.84386381,10.7186187 7.91333746,10.7186187 C5.98281115,10.7186187 5.23990093,8.61949373 5.23990093,7.27068125 C5.23990093,5.92143125 7.12144891,3.22293125 8.85389474,3.22293125 C10.5863406,3.22293125 11.279839,4.37224375 11.279839,4.37224375 L16.1312941,4.32236875 C16.1312941,4.32236875 15.3883839,0.02524375 9.34931266,0.02524375 C3.30937462,0.02524375 0.571789473,4.97599375 0.438291021,7.27068125 C0.140953561,12.3675563 4.05185139,13.7168063 7.41835294,13.7168063 C10.784421,13.7168063 12.2203963,11.8679313 12.2203963,11.8679313 L11.9724706,13.7168063 L14.6459071,13.7168063 L15.8838019,6.07149375 L10.6855975,6.07149375 L7.8639257,9.16943127 Z" id="Fill-3" fill="#FEFEFE" fill-rule="nonzero" mask="url(#mask-2)"></path>
                                    </g>
                                </g>
                                <path d="M12.0018339,25.3206116 C6.60403958,25.3206116 3.29411765,21.4117647 3.29411765,21.4117647 C5.22906662,24.0921308 8.94648704,28 15.9738294,28 C23.0007258,28 27.1764706,21.4117647 27.1764706,21.4117647 L20.0474766,21.4117647 C20.0474766,21.4117647 17.3991823,25.3206116 12.0018339,25.3206116" id="Fill-5" fill="#FEFEFE" fill-rule="nonzero"></path>
                                <path d="M18.9238623,2.75923024 C23.8423974,2.75923024 28,6.3629417 28,6.3629417 C28,6.3629417 23.335849,0 15.9831299,0 C8.63041068,0 4.11764706,6.58823529 4.11764706,6.58823529 L11.318091,6.58823529 C11.318091,6.58823529 14.0053274,2.75923024 18.9238623,2.75923024" id="Fill-7" fill="#FEFEFE" fill-rule="nonzero"></path>
                            </g>
                        </g>
                    </g>
                </g>
            </g>
        </g>
    </g>
</svg>