<?xml version="1.0" encoding="UTF-8"?>
<svg width="57px" height="22px" viewBox="0 0 57 22" version="1.1" xmlns="http://www.w3.org/2000/svg" xmlns:xlink="http://www.w3.org/1999/xlink">
    <!-- Generator: Sketch 54.1 (76490) - https://sketchapp.com -->
    <title>编组</title>
    <desc>Created with Sketch.</desc>
    <defs>
        <polygon id="path-1" points="0 0.171419657 56.1845263 0.171419657 56.1845263 21.2280316 0 21.2280316"></polygon>
    </defs>
    <g id="页面-1" stroke="none" stroke-width="1" fill="none" fill-rule="evenodd">
        <g id="yabo首页2" transform="translate(-924.000000, -2486.000000)">
            <g id="游戏板块" transform="translate(359.000000, 2271.000000)">
                <g id="hover" transform="translate(1.000000, 0.000000)">
                    <g id="彩票" transform="translate(496.000000, 0.000000)">
                        <g id="logo_bbin" transform="translate(66.000000, 215.000000)">
                            <g id="编组" transform="translate(2.000000, 0.000000)">
                                <g transform="translate(0.000000, 0.214674)">
                                    <mask id="mask-2" fill="white">
                                        <use xlink:href="#path-1"></use>
                                    </mask>
                                    <g id="Clip-2"></g>
                                    <path d="M47.9992912,4.7751193 C44.6857825,4.7751193 42.6579228,6.87708421 42.6579228,6.87708421 C42.6579228,6.87708421 42.6100632,6.91876842 42.5232211,6.99441754 C42.3051509,6.39925965 41.6509404,5.48413684 39.6867649,5.46754035 L39.6867649,9.46922456 C38.5365895,10.4727333 37.2034667,11.6356456 35.9733965,12.7082421 C35.9780281,12.5334 35.9807298,12.3550842 35.9807298,12.1690491 C35.9807298,7.89101404 32.1233965,4.7751193 28.0923789,4.7751193 C24.7499228,4.7751193 22.9046246,6.1688386 21.8358877,7.0256807 L21.8358877,2.72255789 C21.8358877,2.72255789 21.8605895,0.0520666667 18.8682035,0.175575439 L18.8682035,10.289786 C21.3024842,11.3411544 23.1960281,9.89417193 24.0370456,9.27585614 C24.8776772,8.65792632 26.1633263,7.71771579 27.9194667,7.71771579 C30.9855719,7.71771579 32.9146246,10.190593 32.9146246,12.9151193 C32.9146246,15.0452596 31.9632211,16.1715053 31.5471509,16.5628737 C30.3788351,17.5648386 29.4216421,18.2526281 27.9194667,18.2526281 C26.1386246,18.2526281 24.2346596,16.7442772 24.2346596,16.7442772 C24.2346596,16.7442772 14.8128702,7.66831228 14.0710456,6.97589123 C13.3288351,6.28347018 11.2272561,4.60220702 8.43248421,4.60220702 C6.97469474,4.60220702 4.74420351,5.28999649 2.94290526,6.71227719 L2.94290526,3.68708421 C2.94290526,2.15403158 2.57199298,0.175575439 -7.71929825e-05,0.175575439 L-7.71929825e-05,13.3064877 L0.0304140351,13.3064877 C0.420238596,18.9118561 4.92715088,21.2199263 8.28427368,21.2199263 C11.7957825,21.2199263 13.6877825,19.6251193 14.7881684,18.5247333 C15.8885544,17.4239614 17.4590456,15.7546632 17.4590456,15.7546632 C14.0459579,14.7164175 12.6117123,16.1506632 11.6718877,16.9912947 C10.7324491,17.8319263 9.94122105,18.1040316 8.33367719,18.1040316 C6.72613333,18.1040316 3.23971228,16.5215754 3.23971228,12.9151193 C3.23971228,9.30866316 6.60262456,7.76750526 8.55637895,7.76750526 C10.5097474,7.76750526 11.6224842,8.85515439 11.6224842,8.85515439 L22.305607,19.1430491 C22.305607,19.1430491 24.2593614,21.2280316 27.8696772,21.2280316 C31.4803789,21.2280316 33.2361333,19.2665579 33.2361333,19.2665579 C33.2361333,19.2665579 33.8297474,18.7250491 34.7479579,17.8878912 L34.7479579,17.8875053 C36.011993,16.7346281 37.8912561,15.0217158 39.6867649,13.3867684 L39.6867649,21.2280316 C39.6867649,21.2280316 42.6328351,21.2199263 42.6328351,18.5000316 L42.6328351,10.7043123 C43.7513614,9.68806667 44.5746246,8.94161053 44.7845895,8.75634737 C45.6252211,8.01490877 46.8120632,7.74241754 47.8757825,7.74241754 C52.0052211,7.74241754 53.0936421,11.8969439 53.0936421,11.8969439 L53.0936421,18.8709439 C53.8354667,21.4924175 56.1848351,21.2199263 56.1848351,21.2199263 L56.1848351,11.4766281 C54.9235018,6.40736491 51.313186,4.7751193 47.9992912,4.7751193" id="Fill-1" fill="#FEFEFE" mask="url(#mask-2)"></path>
                                </g>
                                <path d="M41.0504175,4.51976491 C41.0504175,4.51976491 42.1137509,3.53053684 42.3611544,3.18471228 C42.6085579,2.83850175 42.8802772,2.56601053 42.8802772,1.97278246 C42.8802772,1.37916842 42.1137509,0.390326316 41.0504175,0.390326316 C39.9870842,0.390326316 39.2946632,1.35485263 39.2946632,1.97278246 C39.2946632,2.59109825 39.8882772,3.20902807 39.8882772,3.20902807 L41.0504175,4.51976491 Z" id="Fill-3" fill="#FEFEFE"></path>
                            </g>
                        </g>
                    </g>
                </g>
            </g>
        </g>
    </g>
</svg>