<?xml version="1.0" encoding="UTF-8"?>
<svg width="78px" height="24px" viewBox="0 0 78 24" version="1.1" xmlns="http://www.w3.org/2000/svg" xmlns:xlink="http://www.w3.org/1999/xlink">
    <!-- Generator: Sketch 54.1 (76490) - https://sketchapp.com -->
    <title>编组</title>
    <desc>Created with Sketch.</desc>
    <defs>
        <polygon id="path-1" points="0.194987039 0.372631579 20.3743158 0.372631579 20.3743158 17.6931789 0.194987039 17.6931789"></polygon>
    </defs>
    <g id="页面-1" stroke="none" stroke-width="1" fill="none" fill-rule="evenodd">
        <g id="yabo首页2" transform="translate(-421.000000, -2359.000000)">
            <g id="游戏板块" transform="translate(359.000000, 2271.000000)">
                <g id="hover" transform="translate(1.000000, 0.000000)">
                    <g id="真人视讯">
                        <g id="分组-4-copy" transform="translate(20.000000, 88.000000)">
                            <g id="logo_ebet" transform="translate(41.000000, 0.000000)">
                                <g id="编组">
                                    <path d="M54.8152842,21.4552842 C55.2969684,21.0670737 55.8258105,21.0173895 56.3900211,21.1900211 C56.5344421,21.2342316 56.6548632,21.3230737 56.7382316,21.4514947 C56.7698105,21.4994947 56.7874947,21.4990737 56.8291789,21.4620211 C57.2717053,21.0687579 57.7870737,21.0232842 58.3302316,21.1744421 C58.6792842,21.2717053 58.8489684,21.5142316 58.8510737,21.8771789 C58.8548632,22.4114947 58.8510737,22.9462316 58.8544421,23.4805474 C58.8548632,23.5508632 58.8350737,23.5714947 58.7656,23.5689684 C58.6384421,23.5634947 58.5104421,23.5618105 58.3837053,23.5689684 C58.3020211,23.5736 58.2818105,23.5479158 58.2822316,23.4674947 C58.2864421,22.9988632 58.2776,22.5302316 58.2864421,22.0616 C58.2936,21.6683368 58.1917053,21.4552842 57.6561263,21.4477053 C57.5706526,21.4464421 57.4830737,21.4594947 57.4001263,21.4797053 C57.0413895,21.5664421 56.8729684,21.7752842 56.8687579,22.1483368 C56.8641263,22.5837053 56.8645474,23.0194947 56.8696,23.4552842 C56.8712842,23.5496 56.8456,23.5757053 56.7538105,23.5693895 C56.6350737,23.5609684 56.5150737,23.5609684 56.3963368,23.5693895 C56.3053895,23.5757053 56.2893895,23.5407579 56.2902316,23.4578105 C56.2940211,22.9976 56.2834947,22.5369684 56.2944421,22.0767579 C56.3062316,21.5794947 56.0805474,21.4249684 55.6169684,21.4485474 C55.2026526,21.4691789 54.9474947,21.6746526 54.8860211,22.0317053 C54.8696,22.1281263 54.8674947,22.2279158 54.8670737,22.3264421 C54.8649684,22.7045474 54.8632842,23.0830737 54.8679158,23.4611789 C54.8691789,23.5479158 54.8451789,23.5740211 54.7592842,23.5693895 C54.6321263,23.5613895 54.5041263,23.5647579 54.3769684,23.5681263 C54.3171789,23.5698105 54.2898105,23.5584421 54.2902316,23.4889684 C54.2927579,22.7365474 54.2923368,21.9841263 54.2902316,21.2317053 C54.2902316,21.1677053 54.3066526,21.1399158 54.3727579,21.1483368 C54.4009684,21.1521263 54.4300211,21.1487579 54.4590737,21.1487579 C54.5660211,21.1491789 54.6940211,21.1133895 54.7740211,21.1597053 C54.8628632,21.2119158 54.7769684,21.3546526 54.8152842,21.4552842" id="Fill-1" fill="#FEFEFE"></path>
                                    <path d="M43.0303158,21.8631579 C42.8593684,21.88 42.7044211,21.896 42.5490526,21.9094737 C42.5153684,21.9128421 42.4821053,21.9246316 42.4589474,21.8745263 C42.272,21.4703158 41.9187368,21.4168421 41.5351579,21.4589474 C41.2088421,21.4943158 40.9292632,21.624 40.8063158,21.9595789 C40.7073684,22.2311579 40.7103158,22.5103158 40.8130526,22.7797895 C40.9410526,23.1149474 41.2261053,23.2277895 41.5524211,23.2648421 C41.7465263,23.2867368 41.9389474,23.2648421 42.12,23.1877895 C42.3124211,23.1056842 42.4458947,22.9663158 42.4985263,22.7616842 C42.5170526,22.6901053 42.5477895,22.6736842 42.6168421,22.6825263 C42.7705263,22.7023158 42.9254737,22.7141053 43.0846316,22.7301053 C43.0021053,23.0917895 42.7802105,23.3305263 42.4564211,23.4635789 C41.9010526,23.6922105 41.3393684,23.6825263 40.7953684,23.4294737 C40.3246316,23.2105263 40.1317895,22.8109474 40.1545263,22.3061053 C40.1772632,21.8016842 40.4037895,21.4261053 40.8922105,21.2446316 C41.4193684,21.0484211 41.952,21.0336842 42.4783158,21.2475789 C42.7545263,21.3595789 42.9456842,21.5595789 43.0303158,21.8631579" id="Fill-3" fill="#FEFEFE"></path>
                                    <path d="M31.0593263,20.3080421 C31.0593263,20.5598316 31.0660632,20.7939368 31.0563789,21.0272 C31.0521684,21.1349895 31.0875368,21.1581474 31.1864842,21.1509895 C31.3090105,21.1421474 31.4328,21.1514105 31.5561684,21.1480421 C31.6130105,21.1463579 31.6319579,21.1615158 31.6344842,21.2225684 C31.6437474,21.4705684 31.6466947,21.4705684 31.3978526,21.4705684 C31.3153263,21.4705684 31.2328,21.4764632 31.1511158,21.4688842 C31.0706947,21.4613053 31.0576421,21.4945684 31.0580632,21.5665684 C31.0610105,22.0187789 31.0580632,22.4714105 31.0601684,22.9236211 C31.0614316,23.1480421 31.1317474,23.2154105 31.3557474,23.2208842 L31.3679579,23.2208842 C31.6568,23.2255158 31.6694316,23.2377263 31.7022737,23.5240421 C31.7073263,23.5661474 31.6997474,23.5842526 31.6563789,23.5893053 C31.3944842,23.6200421 31.1321684,23.6427789 30.8732211,23.5699368 C30.6163789,23.4975158 30.5052211,23.3690947 30.4997474,23.1038316 C30.4900632,22.6107789 30.4866947,22.1168842 30.4934316,21.6238316 C30.4951158,21.4899368 30.4530105,21.4507789 30.3304842,21.4697263 C30.2980632,21.4747789 30.2648,21.4705684 30.2319579,21.4705684 C30.0723789,21.4705684 30.0723789,21.4705684 30.0723789,21.3080421 C30.0723789,21.1488842 30.0723789,21.1488842 30.2357474,21.1488842 C30.4896421,21.1488842 30.5123789,21.1463579 30.4833263,20.8945684 C30.4521684,20.6238316 30.5431158,20.4743579 30.8041684,20.4128842 C30.8862737,20.3935158 30.9624842,20.3488842 31.0593263,20.3080421" id="Fill-5" fill="#FEFEFE"></path>
                                    <path d="M35.8222737,23.5716211 C35.7208,23.5669895 35.5873263,23.5998316 35.5262737,23.5476211 C35.4622737,23.4928842 35.5178526,23.3547789 35.5052211,23.2545684 C35.4917474,23.1493053 35.5229053,23.1114105 35.6349053,23.1202526 C35.7818526,23.1316211 35.9300632,23.1253053 36.0778526,23.1219368 C36.1346947,23.1206737 36.1637474,23.1345684 36.1544842,23.1960421 C36.1523789,23.2078316 36.1549053,23.2208842 36.1540632,23.2330947 C36.1460632,23.3417263 36.2012211,23.4874105 36.1304842,23.5488842 C36.0706947,23.6015158 35.9283789,23.5598316 35.8222737,23.5598316 L35.8222737,23.5716211 Z" id="Fill-7" fill="#FEFEFE"></path>
                                    <path d="M17.5206737,23.2692211 L17.5206737,23.2692211 C16.9379368,23.2949053 16.5956211,22.9799579 16.5695158,22.3942737 C16.5455158,21.8523789 16.8928842,21.4692211 17.4293053,21.4469053 C17.9888842,21.4237474 18.3547789,21.7500632 18.3792,22.2940632 C18.4048842,22.8582737 18.0638316,23.2456421 17.5206737,23.2692211 M18.3392,21.2818526 C17.7686737,21.0136421 17.1897263,20.9913263 16.6524632,21.3968 C16.6448842,21.4026947 16.6309895,21.4005895 16.6145684,21.4026947 C16.6145684,21.0452211 16.6112,20.6923789 16.6170947,20.3399579 C16.6179368,20.2515368 16.5926737,20.2275368 16.5076211,20.2334316 C16.3973053,20.2410105 16.2853053,20.2426947 16.1754105,20.2334316 C16.0701474,20.2241684 16.0385684,20.2515368 16.0389895,20.3639579 C16.0444632,21.3298526 16.0419368,22.2957474 16.0427789,23.2612211 C16.0427789,23.3589053 16.0112,23.4898526 16.0608842,23.5458526 C16.1198316,23.6128 16.2537263,23.5652211 16.3547789,23.5669053 C16.5741474,23.5702737 16.5741474,23.5677474 16.5770947,23.3551158 C16.5770947,23.3315368 16.5792,23.3083789 16.5817263,23.2620632 C16.7029895,23.3812211 16.8179368,23.4700632 16.9552,23.5155368 C17.5674105,23.7189053 18.1383579,23.6418526 18.6192,23.1997474 C19.1968842,22.6692211 19.0461474,21.6140632 18.3392,21.2818526" id="Fill-9" fill="#FEFEFE"></path>
                                    <path d="M9.31713684,22.0089263 L9.31713684,22.0089263 C9.40555789,21.7036632 9.63418947,21.5613474 9.91797895,21.4885053 C10.2173474,21.4118737 10.5125053,21.4278737 10.7946105,21.5651368 C11.0190316,21.6741895 11.1449263,21.8527158 11.1722947,22.1116632 L10.3205053,22.1116632 C10.0118737,22.1116632 9.70366316,22.1082947 9.39545263,22.1133474 C9.30576842,22.1146105 9.29355789,22.0906105 9.31713684,22.0089263 M9.38829474,22.4544 C9.7664,22.4628211 10.1449263,22.4573474 10.5230316,22.4573474 C10.9095579,22.4573474 11.2960842,22.4556632 11.6826105,22.4594526 C11.7584,22.4602947 11.7790316,22.4396632 11.7798737,22.3647158 C11.7857684,21.8666105 11.5727158,21.4935579 11.1217684,21.2868211 C10.5259789,21.0139789 9.91503158,21.0181895 9.32471579,21.3040842 C8.85355789,21.5318737 8.65482105,21.9344 8.67966316,22.4531368 C8.70366316,22.9584 8.97145263,23.2906105 9.42787368,23.4670316 C9.97229474,23.6779789 10.5297684,23.6741895 11.0805053,23.4880842 C11.3659789,23.3916632 11.5899789,23.2101895 11.7272421,22.9327158 C11.7579789,22.8695579 11.7525053,22.8489263 11.6784,22.8442947 C11.5390316,22.8362947 11.4000842,22.8228211 11.2615579,22.8055579 C11.1958737,22.7979789 11.1596632,22.8156632 11.1238737,22.8741895 C11.0118737,23.0573474 10.8459789,23.1710316 10.6375579,23.2257684 C10.3849263,23.2914526 10.1318737,23.2897684 9.88387368,23.2122947 C9.57271579,23.1146105 9.35755789,22.9188211 9.28429474,22.5878737 C9.26408421,22.4956632 9.27082105,22.4518737 9.38829474,22.4544" id="Fill-11" fill="#FEFEFE"></path>
                                    <path d="M23.6448421,22.0397474 L23.6448421,22.0397474 C23.6848421,21.8679579 23.7736842,21.7269053 23.9244211,21.6346947 C24.3282105,21.3879579 24.7471579,21.3770105 25.1669474,21.5866947 C25.3795789,21.6923789 25.4604211,21.8330105 25.5092632,22.1113263 C24.9012632,22.1113263 24.3016842,22.1104842 23.7016842,22.1125895 C23.6410526,22.1125895 23.6334737,22.0894316 23.6448421,22.0397474 M25.4646316,22.8683789 C25.3467368,23.0599579 25.1745263,23.1761684 24.9572632,23.2300632 C24.7117895,23.2906947 24.4667368,23.2885895 24.2267368,23.2149053 C23.9168421,23.1189053 23.6970526,22.9260632 23.6225263,22.5946947 C23.6018947,22.5016421 23.5997895,22.4523789 23.7298947,22.4540632 C24.4865263,22.4612211 25.2427368,22.4557474 25.9993684,22.4599579 C26.0890526,22.4603789 26.1172632,22.4410105 26.1168421,22.3471158 C26.1151579,21.8422737 25.8890526,21.4763789 25.4313684,21.2738526 C24.8663158,21.0237474 24.2877895,21.0275368 23.7227368,21.2738526 C23.2284211,21.4890105 22.9947368,21.8923789 23.0153684,22.4334316 C23.0347368,22.9416421 23.308,23.3066947 23.8136842,23.4902737 C24.172,23.6199579 24.5433684,23.6389053 24.9193684,23.6010105 C25.2141053,23.5711158 25.4928421,23.4961684 25.7353684,23.3197474 C25.8974737,23.2014316 26.0221053,23.0536421 26.0932632,22.8528 C25.9151579,22.8363789 25.7471579,22.8237474 25.58,22.8043789 C25.5210526,22.7972211 25.4932632,22.8216421 25.4646316,22.8683789" id="Fill-13" fill="#FEFEFE"></path>
                                    <path d="M48.7737263,23.2439158 L48.7737263,23.2439158 C48.4924632,23.2969684 48.2170947,23.2784421 47.9573053,23.1470737 C47.6945684,23.0140211 47.5488842,22.7976 47.5236211,22.5045474 C47.4659368,21.8338105 47.8280421,21.4451789 48.5063579,21.4456 C48.6389895,21.4443368 48.7686737,21.4637053 48.8945684,21.5049684 C49.3088842,21.6405474 49.5202526,21.9643368 49.4912,22.4136 C49.4608842,22.8708632 49.2116211,23.1613895 48.7737263,23.2439158 M49.4208842,21.2957053 C48.7960421,21.0110737 48.1606737,21.0186526 47.5417263,21.3154947 C47.1236211,21.5159158 46.9345684,21.8696 46.9269895,22.3298105 C46.9189895,22.7971789 47.0970947,23.1584421 47.5109895,23.3904421 C47.8166737,23.5613895 48.1501474,23.6152842 48.4048842,23.6173895 C48.7939368,23.6182316 49.0823579,23.5672842 49.3594105,23.4519158 C49.8469895,23.2485474 50.0768842,22.8805474 50.0802526,22.3567579 C50.0836211,21.8607579 49.8663579,21.4982316 49.4208842,21.2957053" id="Fill-15" fill="#FEFEFE"></path>
                                    <path d="M14.1393684,7.12046316 L14.1393684,7.12046316 C14.1482105,7.20930526 14.1124211,7.22909474 14.0282105,7.22867368 C13.2686316,7.22783158 12.5090526,7.23035789 11.7498947,7.23330526 C10.28,7.23877895 8.81010526,7.24509474 7.33978947,7.25183158 C7.31157895,7.25183158 7.28294737,7.25604211 7.25473684,7.25814737 L5.31747368,7.25814737 C5.99789474,6.38193684 6.70357895,5.56256842 7.65347368,4.99330526 C7.72842105,4.88846316 7.85094737,4.85393684 7.95536842,4.79372632 C8.46484211,4.49941053 8.99452632,4.25225263 9.57178947,4.11877895 C10.0917895,3.99793684 10.6138947,3.96846316 11.1444211,4.04341053 C11.4433684,4.08551579 11.7444211,4.11456842 12.0429474,4.16509474 C12.4425263,4.23288421 12.7701053,4.43162105 13.0665263,4.69351579 C13.2442105,4.85098947 13.4286316,5.00256842 13.5713684,5.19583158 C13.5978947,5.23162105 13.6218947,5.26993684 13.6467368,5.30698947 C13.6311579,5.30741053 13.6151579,5.30825263 13.5995789,5.30867368 C13.5983158,5.31077895 13.5983158,5.31330526 13.5974737,5.31541053 C13.8917895,5.72804211 14.0589474,6.18867368 14.12,6.69014737 C14.1364211,6.73267368 14.1170526,6.78025263 14.1368421,6.82235789 C14.1381053,6.85183158 14.1397895,6.88172632 14.1410526,6.91162105 C14.1397895,6.98109474 14.1326316,7.05141053 14.1393684,7.12046316 M17.9882105,5.7272 C17.9991579,5.61562105 17.9772632,5.50614737 17.9629474,5.39667368 C17.9178947,5.04804211 17.8635789,4.70109474 17.7427368,4.36804211 C17.7364211,4.35835789 17.7263158,4.34909474 17.7237895,4.33814737 C17.6252632,3.90488421 17.432,3.51288421 17.1983158,3.13898947 C17.024,2.82193684 16.8025263,2.54025263 16.5541053,2.2792 C16.4176842,2.13562105 16.2867368,1.98404211 16.1128421,1.88046316 C15.9473684,1.75583158 15.7932632,1.61562105 15.6168421,1.50404211 C14.8029474,0.989094737 13.9027368,0.731410526 12.9553684,0.622357895 C12.0122105,0.513305263 11.0703158,0.536042105 10.1330526,0.693936842 C9.11663158,0.865726316 8.14736842,1.18235789 7.22778947,1.64930526 C6.55621053,1.97477895 5.92547368,2.36635789 5.33136842,2.81772632 C4.912,3.11583158 4.51494737,3.44046316 4.144,3.79751579 C3.81642105,4.0792 3.51663158,4.38867368 3.23242105,4.71414737 C2.94821053,5.01856842 2.68589474,5.34067368 2.44421053,5.67962105 C2.29431579,5.86446316 2.16378947,6.06235789 2.03494737,6.26109474 C1.88210526,6.49730526 1.72505263,6.73098947 1.60126316,6.98446316 C1.45178947,7.21477895 1.33473684,7.46277895 1.21557895,7.70909474 C1.15957895,7.82530526 1.08421053,7.93393684 1.05726316,8.06362105 C0.955789474,8.25141053 0.881263158,8.45098947 0.805473684,8.64972632 C0.738947368,8.82530526 0.657263158,8.99498947 0.616842105,9.17983158 C0.480842105,9.53267368 0.373052632,9.89393684 0.294315789,10.2636211 C0.216,10.5389895 0.147368421,10.8168842 0.122105263,11.1032 C0.0576842105,11.4114105 0.0244210526,11.7229895 0.0214736842,12.0379368 C-0.016,12.3448842 0.00168421053,12.6514105 0.0294736842,12.9575158 C0.0265263158,13.0093053 0.0227368421,13.0610947 0.0475789474,13.1095158 C0.048,13.1099368 0.048,13.1103579 0.048,13.1112 C0.0488421053,13.1255158 0.0501052632,13.1398316 0.0513684211,13.1541474 C0.0715789474,13.4741474 0.136,13.7857263 0.226947368,14.0926737 C0.311157895,14.4274105 0.429473684,14.7495158 0.592842105,15.0543579 C0.792842105,15.4905684 1.05389474,15.8867789 1.37852632,16.2400421 C1.72757895,16.6560421 2.14357895,16.9886737 2.61852632,17.2493053 C2.67073684,17.2813053 2.72168421,17.3154105 2.776,17.3440421 C3.52294737,17.7389895 4.32673684,17.9512 5.16210526,18.0324632 C6.35326316,18.1482526 7.54147368,18.1183579 8.71663158,17.8678316 C9.344,17.7343579 9.95242105,17.5402526 10.5393684,17.2804632 C10.7654737,17.2050947 10.9797895,17.1010947 11.1949474,17.0004632 C11.6698947,16.7777263 12.1423158,16.5490947 12.5877895,16.2699368 C12.6905263,16.2109895 12.7953684,16.1545684 12.8964211,16.0918316 C13.4058947,15.7760421 13.9023158,15.4417263 14.3608421,15.0539368 C14.7094737,14.7882526 15.0378947,14.4994105 15.3494737,14.1907789 C15.6446316,13.9250947 15.9254737,13.6450947 16.1970526,13.3549895 C16.3334737,13.2219368 16.4694737,13.0893053 16.6063158,12.9562526 C16.624,12.9343579 16.6437895,12.9133053 16.6593684,12.8893053 C16.6888421,12.8450947 16.7275789,12.7903579 16.7073684,12.7440421 C16.6896842,12.7036211 16.6252632,12.7297263 16.5818947,12.7293053 C16.1957895,12.7284632 15.8088421,12.7301474 15.4227368,12.7305684 C15.3983158,12.7318316 15.3734737,12.7343579 15.3490526,12.7347789 C14.2458947,12.7432 13.1431579,12.7512 12.0395789,12.7596211 C11.9835789,12.7600421 11.9263158,12.7512 11.8753684,12.7920421 C11.6463158,12.9768842 11.3928421,13.1272 11.1524211,13.2960421 C10.5898947,13.6349895 10.0025263,13.9196211 9.37642105,14.1221474 C9.33305263,14.1339368 9.28968421,14.1457263 9.24631579,14.1575158 C8.02273684,14.4863579 6.80547368,14.5575158 5.60084211,14.0716211 C5.47031579,14.0143579 5.34442105,13.9507789 5.22652632,13.8669895 C4.94063158,13.6632 4.69936842,13.4160421 4.48968421,13.1368842 L4.39410526,12.9688842 C4.21978947,12.6627789 4.12421053,12.3293053 4.05052632,11.9874105 C4.01684211,11.6952 4.01178947,11.4013053 4.01852632,11.1069895 C4.02652632,10.9528842 4.04589474,10.8000421 4.06863158,10.6472 C4.08,10.5726737 4.10694737,10.5524632 4.17810526,10.5533053 C4.39578947,10.5545684 4.61347368,10.5486737 4.83157895,10.5478316 C7.05515789,10.5394105 9.27873684,10.5305684 11.5027368,10.5234105 C13.3153684,10.5170947 15.1275789,10.5124632 16.9406316,10.5069895 C17.1385263,10.5065684 17.1385263,10.5069895 17.1932632,10.3166737 C17.2854737,10.0560421 17.3852632,9.79793684 17.4538947,9.52972632 C17.5608421,9.22193684 17.6463158,8.90825263 17.7136842,8.58993684 C17.7907368,8.29730526 17.8543158,8.00214737 17.8884211,7.70109474 C17.8922105,7.66151579 17.8905263,7.62109474 17.9002105,7.58362105 C17.9587368,7.36298947 17.9701053,7.13688421 17.9848421,6.91162105 L17.9848421,6.9112 C18.0202105,6.51667368 18.0341053,6.12172632 17.9882105,5.7272" id="Fill-17" fill="#FEFEFE"></path>
                                    <path d="M58.8515789,0.494821053 C57.9795789,0.496926316 57.108,0.498610526 56.236,0.500294737 C56.1122105,0.500294737 55.9884211,0.500294737 55.8646316,0.500294737 C55.0204211,0.501136842 54.1762105,0.500715789 53.3315789,0.503663158 C53.1362105,0.504505263 52.94,0.503242105 52.7442105,0.508715789 L52.644,0.508715789 C52.5951579,0.508715789 52.5454737,0.500294737 52.4978947,0.517978947 L52.4974737,0.517978947 C52.3294737,0.516715789 52.1610526,0.513768421 51.9930526,0.514189474 C48.8974737,0.524294737 45.8018947,0.534821053 42.7063158,0.544505263 C42.6486316,0.544926316 42.5943158,0.552505263 42.5412632,0.573978947 C41.708,0.873347368 40.9189474,1.25482105 40.2498947,1.84724211 C39.9812632,2.08471579 39.7568421,2.35966316 39.6528421,2.71418947 C39.4995789,3.05355789 39.364,3.40050526 39.2322105,3.74829474 C39.2052632,3.75882105 39.2094737,3.78113684 39.2111579,3.80303158 C39.1715789,3.86155789 39.1475789,3.92724211 39.1336842,3.99629474 C39.0393684,4.19629474 38.956,4.40092632 38.8852632,4.61061053 C38.676,5.09187368 38.4806316,5.57861053 38.2949474,6.06955789 C38.1096842,6.49187368 37.9374737,6.91924211 37.7770526,7.35166316 C37.6246316,7.69229474 37.4848421,8.03755789 37.3568421,8.38787368 C37.2553684,8.6064 37.1644211,8.82871579 37.0869474,9.05650526 C37.0696842,9.09313684 37.0503158,9.12892632 37.0351579,9.1664 C36.8654737,9.58282105 36.6953684,9.99924211 36.5273684,10.4165053 C36.3,10.9819789 36.0751579,11.5474526 35.8486316,12.1133474 C35.8503158,12.1158737 35.8536842,12.1167158 35.8553684,12.1188211 L35.8549474,12.1188211 L35.8486316,12.1133474 C35.8069474,12.1651368 35.7901053,12.2266105 35.7791579,12.2901895 C35.5315789,12.8594526 35.3050526,13.4371368 35.0781053,14.0148211 L35.0671579,14.0434526 C35.0330526,14.1053474 35.0052632,14.1701895 34.9901053,14.2400842 C34.9736842,14.2720842 34.9551579,14.3036632 34.9416842,14.3373474 C34.7463158,14.8186105 34.5513684,15.2994526 34.3576842,15.7811368 C34.1244211,16.3613474 33.8924211,16.9419789 33.66,17.5226105 C33.6498947,17.5449263 33.6389474,17.5668211 33.6296842,17.5891368 C33.5206316,17.8535579 33.5210526,17.8535579 33.8044211,17.8388211 C33.9450526,17.8384 34.0852632,17.8384 34.2258947,17.8379789 C34.2709474,17.8392421 34.316,17.8421895 34.3610526,17.8417684 C35.7138947,17.8354526 37.0667368,17.8282947 38.4191579,17.8219789 C39.1265263,17.8181895 39.8334737,17.8160842 40.5408421,17.8139789 C41.3745263,17.8131368 42.2090526,17.8144 43.0431579,17.8101895 C43.3298947,17.8085053 43.6174737,17.8245053 43.9037895,17.7971368 C44.0764211,17.7975579 44.2490526,17.8000842 44.4216842,17.7992421 C47.1757895,17.7899789 49.9303158,17.7802947 52.6848421,17.7731368 C52.7757895,17.7727158 52.8435789,17.7575579 52.8789474,17.6678737 C52.9075789,17.6661895 52.9185263,17.6417684 52.9336842,17.6236632 C53.2157895,17.2927158 53.4978947,16.9626105 53.7783158,16.6308211 C54.0237895,16.3394526 54.2667368,16.0464 54.5109474,15.7541895 C54.7509474,15.4906105 54.9821053,15.2202947 55.2018947,14.9402947 C55.3298947,14.7950316 55.4574737,14.6497684 55.5972632,14.4906105 L55.0010526,14.4906105 C54.964,14.4893474 54.9273684,14.4868211 54.8903158,14.4868211 C53.2578947,14.4935579 51.6258947,14.5007158 49.9934737,14.5078737 C49.2861053,14.5108211 48.5791579,14.5129263 47.8717895,14.5158737 C47.8393684,14.5141895 47.8065263,14.5112421 47.7736842,14.5116632 C46.7067368,14.5162947 45.6393684,14.5209263 44.5724211,14.5268211 C43.9770526,14.5297684 43.3821053,14.5348211 42.7871579,14.5390316 C42.1126316,14.5394526 41.4381053,14.5398737 40.7635789,14.5402947 C40.3766316,14.5394526 39.9892632,14.5394526 39.6018947,14.5369263 C39.5610526,14.5365053 39.5113684,14.5617684 39.4793684,14.5120842 C39.4869474,14.4952421 39.4945263,14.4779789 39.5021053,14.4611368 C39.5593684,14.3213474 39.6166316,14.1811368 39.6738947,14.0409263 C40.0953684,13.0017684 40.5168421,11.9626105 40.9378947,10.9230316 C41.0389474,10.6737684 41.0381053,10.6733474 41.3113684,10.6729263 C43.2381053,10.6678737 45.1644211,10.6640842 47.0911579,10.6573474 C47.4107368,10.6560842 47.7315789,10.6674526 48.0507368,10.6413474 C48.0587368,10.6430316 48.0667368,10.6464 48.0747368,10.6464 C49.0844211,10.6434526 50.0941053,10.6405053 51.1037895,10.6384 C51.1425263,10.6384 51.1736842,10.6329263 51.2002105,10.5996632 C51.2974737,10.4784 51.3972632,10.3588211 51.4957895,10.2388211 C51.5298947,10.1992421 51.5635789,10.1592421 51.5976842,10.1196632 C52.0313684,9.60934737 52.4650526,9.09861053 52.8987368,8.58829474 C53.0734737,8.38324211 53.2477895,8.17734737 53.4225263,7.97271579 C53.4785263,7.90618947 53.5345263,7.83966316 53.5905263,7.77313684 C53.6983158,7.63082105 53.8418947,7.51671579 53.9349474,7.35966316 L52.2637895,7.35966316 C52.2187368,7.3584 52.1736842,7.35545263 52.1286316,7.35545263 C50.8587368,7.36050526 49.5892632,7.36724211 48.3193684,7.37103158 C46.7374737,7.37650526 45.1551579,7.37987368 43.5732632,7.38366316 C43.172,7.38450526 42.7698947,7.38155789 42.3686316,7.38029474 C42.3913684,7.32218947 42.4141053,7.26408421 42.4368421,7.2064 C42.5496842,6.92597895 42.6658947,6.64682105 42.7736842,6.36471579 C42.8313684,6.21355789 42.9147368,6.07082105 42.9391579,5.90787368 C42.9846316,5.87755789 42.9892632,5.82450526 43.0069474,5.78029474 C43.2549474,5.16134737 43.5033684,4.54282105 43.7454737,3.92092632 C43.7766316,3.84050526 43.8157895,3.81945263 43.8962105,3.82113684 C44.1261053,3.82576842 44.356,3.82408421 44.5863158,3.82113684 C44.9021053,3.81776842 45.2178947,3.81103158 45.5336842,3.80597895 C45.8621053,3.8064 46.1896842,3.80766316 46.5181053,3.80682105 C47.3223158,3.80429474 48.1265263,3.80092632 48.9307368,3.79755789 C48.9551579,3.79924211 48.9795789,3.80176842 49.0044211,3.80176842 C51.5134737,3.79334737 54.0225263,3.78492632 56.5315789,3.77524211 C56.5656842,3.77524211 56.6065263,3.79292632 56.6334737,3.75418947 C56.8402105,3.53229474 57.0334737,3.29861053 57.2233684,3.0624 C57.6574737,2.55208421 58.0915789,2.04176842 58.5256842,1.53103158 C58.6995789,1.32555789 58.8738947,1.12050526 59.0482105,0.915031579 C59.1665263,0.779452632 59.2852632,0.643873684 59.4153684,0.494821053 L58.8515789,0.494821053 Z" id="Fill-19" fill="#FEFEFE"></path>
                                    <g transform="translate(57.263158, 0.048589)">
                                        <mask id="mask-2" fill="white">
                                            <use xlink:href="#path-1"></use>
                                        </mask>
                                        <g id="Clip-22"></g>
                                        <path d="M19.8229053,0.376968421 C19.7942737,0.375284211 19.7656421,0.372336842 19.7370105,0.372336842 C18.2986947,0.377810526 16.8608,0.383705263 15.4224842,0.389178947 C12.8338526,0.398863158 10.2452211,0.408126316 7.65616842,0.418231579 C6.9088,0.420757895 6.16101053,0.424547368 5.41322105,0.427494737 C5.35595789,0.425810526 5.29911579,0.423284211 5.24185263,0.423284211 C4.7888,0.422021053 4.33616842,0.421178947 3.88311579,0.420336842 C3.83343158,0.420757895 3.78416842,0.420757895 3.73448421,0.421178947 C3.69322105,0.421178947 3.65237895,0.421178947 3.61111579,0.421178947 C3.56269474,0.423284211 3.51427368,0.423705263 3.46585263,0.426652632 C3.29701053,0.437178947 3.12732632,0.407705263 2.95932632,0.443494737 C2.80101053,0.607284211 2.65616842,0.782442105 2.51637895,0.962231579 C2.04564211,1.49696842 1.58711579,2.04265263 1.13111579,2.59002105 C0.955115789,2.7976 0.779115789,3.00433684 0.603115789,3.21191579 C0.546694737,3.27802105 0.490273684,3.34412632 0.434273684,3.41023158 C0.358063158,3.49991579 0.282273684,3.58917895 0.206063158,3.67886316 C0.166484211,3.76349474 0.244378947,3.72307368 0.261642105,3.72349474 C0.506273684,3.72728421 0.751326316,3.72686316 0.995957895,3.72770526 C1.04522105,3.71633684 1.09448421,3.71717895 1.14416842,3.72770526 C1.17153684,3.75465263 1.20395789,3.76728421 1.24269474,3.76307368 C1.27890526,3.75970526 1.31343158,3.75086316 1.3408,3.72517895 C1.37364211,3.72265263 1.40564211,3.71675789 1.43806316,3.71675789 C1.92648421,3.71381053 2.41448421,3.71086316 2.90248421,3.70875789 C3.64901053,3.70538947 4.39553684,3.70286316 5.14206316,3.69991579 C5.18711579,3.7016 5.23174737,3.70454737 5.2768,3.70454737 C5.74416842,3.70370526 6.21195789,3.70244211 6.67974737,3.70033684 C6.73827368,3.69991579 6.79343158,3.69402105 6.75132632,3.78033684 C6.65364211,4.01781053 6.55385263,4.25486316 6.45827368,4.49317895 C6.28058947,4.93570526 6.10543158,5.37949474 5.92901053,5.82244211 C5.67301053,6.40896842 5.44058947,7.00517895 5.20522105,7.60054737 C5.02795789,8.01738947 4.85448421,8.43633684 4.69701053,8.86117895 C4.56858947,9.17065263 4.43764211,9.47886316 4.31258947,9.78917895 C4.12606316,10.2519158 3.94290526,10.7159158 3.75848421,11.1790737 C3.7408,11.1917053 3.73448421,11.2093895 3.73658947,11.2308632 C3.70122105,11.2914947 3.67132632,11.3546526 3.65911579,11.4249684 C3.50627368,11.7938105 3.35132632,12.1618105 3.20143158,12.5319158 C3.01490526,12.9933895 2.83258947,13.4561263 2.64816842,13.9184421 C2.39385263,14.5049684 2.16101053,15.0999158 1.92564211,15.6940211 C1.70669474,16.1828632 1.48901053,16.6725474 1.24101053,17.1474947 C1.17701053,17.2565474 1.11343158,17.3656 1.04943158,17.4742316 C0.999747368,17.5445474 0.950484211,17.6152842 0.895326316,17.6931789 L1.48901053,17.6931789 C2.29448421,17.6923368 3.09995789,17.6914947 3.90585263,17.6910737 C4.45701053,17.6914947 5.00816842,17.6919158 5.55974737,17.6914947 C5.57827368,17.6914947 5.5968,17.6792842 5.61532632,17.6725474 C5.70206316,17.6165474 5.74290526,17.5247579 5.78837895,17.4392842 C6.12564211,16.8098105 6.36774737,16.1399158 6.61785263,15.4733895 C7.13574737,14.1656 7.65364211,12.8578105 8.17153684,11.5500211 C8.19090526,11.4557053 8.24311579,11.3744421 8.27890526,11.2864421 C8.47469474,10.8072842 8.66795789,10.3272842 8.86248421,9.84686316 C9.04648421,9.3976 9.23301053,8.94875789 9.41406316,8.49781053 C9.51511579,8.2456 9.63974737,8.00223158 9.70922105,7.73738947 C9.72227368,7.72181053 9.73995789,7.70833684 9.74711579,7.69065263 C9.85658947,7.42328421 9.96437895,7.15465263 10.0725895,6.88644211 C10.2696421,6.40896842 10.4662737,5.93191579 10.6633263,5.45486316 C10.6654316,5.43886316 10.6645895,5.42117895 10.6704842,5.40686316 C10.8974316,4.87296842 11.1277474,4.34075789 11.3500632,3.8056 C11.3875368,3.71549474 11.4275368,3.65907368 11.5311158,3.67549474 L11.7546947,3.67549474 C12.6258526,3.67465263 13.4974316,3.67507368 14.3690105,3.67212632 C14.4772211,3.67212632 14.5854316,3.66875789 14.6932211,3.66707368 C14.8317474,3.66707368 14.9702737,3.66707368 15.1083789,3.66665263 C15.1530105,3.66665263 15.1989053,3.67507368 15.2426947,3.65781053 C16.0106947,3.65738947 16.7782737,3.65654737 17.5462737,3.65696842 C17.5875368,3.65696842 17.6136421,3.64223158 17.6393263,3.61107368 C17.8553263,3.35338947 18.0721684,3.09696842 18.2890105,2.84012632 C18.7429053,2.30538947 19.1963789,1.77149474 19.6502737,1.23675789 C19.6839579,1.19633684 19.7176421,1.15549474 19.7517474,1.11465263 C19.8721684,0.974021053 19.9921684,0.833389474 20.1125895,0.692336842 C20.1816421,0.575284211 20.3100632,0.507915789 20.3744842,0.376968421 L19.8229053,0.376968421 Z" id="Fill-21" fill="#FEFEFE" mask="url(#mask-2)"></path>
                                    </g>
                                    <path d="M33.6896842,3.97482105 L33.6896842,3.97482105 C33.4888421,4.47376842 33.2833684,4.97018947 33.0753684,5.46618947 C33.0627368,5.49650526 33.0526316,5.52766316 33.0412632,5.5584 C32.8593684,5.99461053 32.68,6.43250526 32.5002105,6.86997895 C32.4362105,7.02450526 32.3781053,7.18113684 32.3082105,7.33313684 C32.2909474,7.37018947 32.2762105,7.40808421 32.2366316,7.42913684 C32.2227368,7.43461053 32.2084211,7.4384 32.1932632,7.44008421 C31.0964211,7.44429474 29.9991579,7.42071579 28.9031579,7.44682105 C27.4581053,7.48134737 26.0134737,7.45103158 24.5688421,7.46576842 C24.4492632,7.45397895 24.3254737,7.49271579 24.2092632,7.4384 C24.1995789,7.42787368 24.1932632,7.41524211 24.1911579,7.40134737 C24.2315789,7.17229474 24.3473684,6.97018947 24.4218947,6.75292632 C24.6277895,6.24176842 24.824,5.72724211 25.0336842,5.21776842 C25.2067368,4.7904 25.3722105,4.35966316 25.5448421,3.93187368 C25.5738947,3.88682105 25.6092632,3.85018947 25.6661053,3.84345263 C26.496,3.83587368 27.3254737,3.84218947 28.1549474,3.84008421 C28.2122105,3.83966316 28.2698947,3.84387368 28.3271579,3.83292632 C29.0467368,3.82576842 29.7663158,3.82618947 30.4854737,3.83082105 C31.4888421,3.83713684 32.4913684,3.80555789 33.4947368,3.81524211 C33.5364211,3.81355789 33.5764211,3.81818947 33.6084211,3.84976842 C33.6395789,3.85524211 33.6711579,3.86071579 33.7023158,3.86618947 C33.6955789,3.90197895 33.7048421,3.93987368 33.6896842,3.97482105 L33.6896842,3.97482105 Z M30.9010526,10.7381895 L30.9010526,10.7381895 C30.9027368,10.8219789 30.8749474,10.8981895 30.8442105,10.9744 C30.5031579,11.8080842 30.1692632,12.6451368 29.8349474,13.4817684 C29.6854737,13.8287158 29.5528421,14.1828211 29.4096842,14.5327158 C29.3865263,14.5845053 29.3469474,14.6110316 29.2905263,14.6131368 C29.0412632,14.6320842 28.792,14.6173474 28.5427368,14.6215579 C28.2404211,14.6266105 27.9381053,14.6127158 27.6357895,14.6295579 C26.9658947,14.6362947 26.296,14.6219789 25.6265263,14.6341895 C24.2955789,14.6594526 22.9650526,14.6565053 21.6341053,14.6573474 C21.552,14.6573474 21.4690526,14.6607158 21.3953684,14.6144 C21.3616842,14.5857684 21.2467368,14.6661895 21.2888421,14.5352421 C21.2572632,14.4506105 21.3229474,14.3904 21.3444211,14.3196632 C21.3621053,14.2619789 21.3861053,14.2059789 21.4105263,14.1504 C21.5090526,13.9019789 21.6181053,13.6577684 21.7086316,13.4059789 C21.7242105,13.3642947 21.7397895,13.3209263 21.7865263,13.3019789 C22.0581053,12.6350316 22.3301053,11.9685053 22.6012632,11.3019789 C22.6694737,11.1352421 22.7351579,10.9680842 22.8029474,10.8009263 C22.8206316,10.7558737 22.8345263,10.7049263 22.8993684,10.7091368 C22.96,10.6586105 23.0328421,10.6758737 23.1010526,10.6758737 C24.5793684,10.6750316 26.0576842,10.6939789 27.5355789,10.6687158 C28.5536842,10.6510316 29.5709474,10.6628211 30.5886316,10.6506105 C30.6749474,10.6493474 30.7612632,10.6506105 30.8433684,10.6826105 C30.8698947,10.6935579 30.9275789,10.6720842 30.9010526,10.7381895 L30.9010526,10.7381895 Z M39.0168421,2.00092632 C39.0138947,1.98408421 39.0113684,1.96766316 39.0084211,1.95124211 C39.0126316,1.89987368 39.0176842,1.84808421 38.9886316,1.80050526 C38.9431579,1.49313684 38.7637895,1.27250526 38.5204211,1.10071579 C38.064,0.779873684 37.5503158,0.621136842 36.9953684,0.591663158 C36.9082105,0.5584 36.8168421,0.570610526 36.7271579,0.570610526 C35.5427368,0.571452632 34.3587368,0.571873684 33.1743158,0.577768421 C32.9330526,0.578610526 32.6917895,0.570189474 32.4509474,0.581557895 C32.3970526,0.581557895 32.3427368,0.583242105 32.2884211,0.591663158 L32.2884211,0.591663158 L32.2884211,0.591663158 L32.2884211,0.591663158 C32.2513684,0.589557895 32.2151579,0.585347368 32.1781053,0.585347368 C29.9675789,0.593768421 27.7570526,0.603031579 25.5465263,0.610189474 C23.5616842,0.616505263 21.5768421,0.620715789 19.5924211,0.625768421 C19.5595789,0.626189474 19.5263158,0.624926316 19.4938947,0.626610526 C19.4787368,0.627452632 19.4745263,0.637136842 19.4884211,0.647242105 C19.4976842,0.653557895 19.5094737,0.656926316 19.52,0.661557895 C19.8223158,0.752505263 20.1145263,0.873347368 20.408,0.988715789 C20.6336842,1.10618947 20.8581053,1.22534737 21.072,1.36303158 C21.0808421,1.37018947 21.0896842,1.37734737 21.0981053,1.38408421 C21.2425263,1.50282105 21.3823158,1.62661053 21.4947368,1.77818947 C21.6475789,2.02408421 21.6446316,2.27208421 21.5368421,2.53903158 C21.3717895,2.94745263 21.2269474,3.36429474 21.0732632,3.77734737 C20.9448421,4.07671579 20.8311579,4.38155789 20.7275789,4.69018947 C20.6665263,4.84513684 20.6025263,4.99924211 20.5444211,5.15503158 C20.3814737,5.58997895 20.2210526,6.02576842 20.0593684,6.46113684 C19.864,6.9344 19.6854737,7.41397895 19.5157895,7.89734737 C19.3886316,8.19629474 19.2745263,8.50029474 19.1713684,8.80808421 C19.1625263,8.82576842 19.1511579,8.84261053 19.144,8.86113684 C18.9456842,9.38534737 18.7469474,9.90997895 18.5498947,10.4346105 C18.3861053,10.8712421 18.2244211,11.3087158 18.0618947,11.7461895 C18.0475789,11.7748211 18.0303158,11.8026105 18.0189474,11.8325053 C17.7528421,12.5377684 17.4867368,13.2430316 17.2218947,13.9487158 C17.1212632,14.2165053 17.024,14.4851368 16.9254737,14.7533474 C16.9086316,14.7904 16.8896842,14.8257684 16.8757895,14.8636632 C16.5978947,15.6194526 16.3006316,16.3655579 15.7941053,17.0059789 C15.7098947,17.0918737 15.6265263,17.1777684 15.5427368,17.2640842 L15.1701053,17.5680842 C15.0164211,17.6632421 14.8623158,17.7584 14.6917895,17.8645053 L15.5212632,17.8645053 C15.6602105,17.8661895 15.7991579,17.8695579 15.9385263,17.8695579 C16.6138947,17.8695579 17.2888421,17.8687158 17.9646316,17.8682947 C17.9806316,17.8699789 17.9966316,17.8737684 18.0130526,17.8737684 C18.8581053,17.8725053 19.7035789,17.8712421 20.5486316,17.8691368 C21.2168421,17.8678737 21.8854737,17.8653474 22.5541053,17.8632421 C22.5911579,17.8645053 22.6277895,17.8670316 22.6648421,17.8670316 C24.3646316,17.8649263 26.0648421,17.8645053 27.7646316,17.8598737 C28.5035789,17.8577684 29.2425263,17.8459789 29.9814737,17.8388211 C30.0261053,17.8434526 30.0703158,17.8447158 30.1107368,17.8207158 L30.1115789,17.8207158 C30.1498947,17.8181895 30.1877895,17.8156632 30.2261053,17.8131368 C30.3936842,17.7933474 30.5621053,17.7769263 30.7229474,17.7200842 C31.0244211,17.6674526 31.3090526,17.5596632 31.5924211,17.4510316 C31.9465263,17.3154526 32.2922105,17.1617684 32.5957895,16.9293474 C32.7625263,16.8350316 32.8926316,16.6960842 33.0378947,16.5752421 C33.1869474,16.4093474 33.32,16.2312421 33.4353684,16.0409263 C33.6138947,15.6127158 33.7924211,15.1845053 33.9709474,14.7562947 C34.1688421,14.2792421 34.3667368,13.8021895 34.5642105,13.3251368 C34.5827368,13.2838737 34.6021053,13.2434526 34.6189474,13.2017684 C34.9393684,12.4177684 35.2732632,11.6388211 35.5385263,10.8337684 L35.5292632,10.8354526 C35.5890526,10.6594526 35.6016842,10.4771368 35.6033684,10.2931368 C35.592,10.2375579 35.5827368,10.1815579 35.568,10.1268211 C35.4416842,9.65018947 35.0816842,9.42450526 34.6496842,9.28008421 C34.4555789,9.21482105 34.2555789,9.17103158 34.0547368,9.13061053 C34.0471579,9.12345263 34.0395789,9.12345263 34.032,9.12597895 C33.9271579,9.09692632 33.8197895,9.08682105 33.712,9.07924211 C33.7195789,9.06534737 33.7275789,9.05145263 33.7355789,9.03797895 C33.8092632,9.02955789 33.8854737,9.04429474 33.9566316,9.01313684 C33.9802105,9.01061053 34.0042105,9.00808421 34.0282105,9.00555789 C34.3604211,8.97018947 34.6812632,8.89018947 34.9903158,8.76303158 C35.0101053,8.75797895 35.0307368,8.75503158 35.0492632,8.74829474 C35.6265263,8.52976842 36.1591579,8.2384 36.6021053,7.79966316 C36.6484211,7.74197895 36.6947368,7.68429474 36.7410526,7.62661053 C36.8429474,7.52471579 36.9031579,7.39334737 36.9877895,7.27966316 C36.9865263,7.27082105 36.9890526,7.26324211 36.9957895,7.25692632 C37.0934737,7.2544 37.0543158,7.18029474 37.0614737,7.13018947 C37.0656842,7.11503158 37.0682105,7.09903158 37.0745263,7.08429474 C37.2505263,6.65650526 37.4273684,6.22871579 37.6037895,5.80092632 C37.8429474,5.25355789 38.0741053,4.70324211 38.2930526,4.14745263 C38.3831579,3.94492632 38.4694737,3.74029474 38.5402105,3.53018947 C38.6336842,3.29187368 38.7271579,3.05355789 38.8206316,2.81566316 C38.9452632,2.79587368 38.8669474,2.69945263 38.8867368,2.64008421 L38.8863158,2.64092632 C38.9069474,2.50661053 38.9751579,2.38450526 38.984,2.24724211 C38.9856842,2.23208421 38.9873684,2.21734737 38.9890526,2.20218947 C39.0172632,2.15461053 39.0130526,2.10282105 39.0084211,2.05103158 C39.0113684,2.03418947 39.0138947,2.01734737 39.0168421,2.00092632 L39.0168421,2.00092632 Z" id="Fill-23" fill="#FEFEFE"></path>
                                </g>
                            </g>
                        </g>
                    </g>
                </g>
            </g>
        </g>
    </g>
</svg>