<?xml version="1.0" encoding="UTF-8"?>
<svg width="28px" height="28px" viewBox="0 0 28 28" version="1.1" xmlns="http://www.w3.org/2000/svg" xmlns:xlink="http://www.w3.org/1999/xlink">
    <!-- Generator: Sketch 54.1 (76490) - https://sketchapp.com -->
    <title>编组</title>
    <desc>Created with Sketch.</desc>
    <defs>
        <polygon id="path-1" points="0 0.148184615 27.4209169 0.148184615 27.4209169 27.5692308 0 27.5692308"></polygon>
    </defs>
    <g id="页面-1" stroke="none" stroke-width="1" fill="none" fill-rule="evenodd">
        <g id="yabo首页2" transform="translate(-939.000000, -2295.000000)">
            <g id="游戏板块" transform="translate(359.000000, 2271.000000)">
                <g id="hover" transform="translate(1.000000, 0.000000)">
                    <g id="彩票" transform="translate(496.000000, 0.000000)">
                        <g id="分组-4" transform="translate(20.000000, 14.000000)">
                            <g id="logo_double" transform="translate(49.000000, 10.000000)">
                                <g id="编组" transform="translate(14.000000, 0.000000)">
                                    <g transform="translate(0.000000, 0.282455)">
                                        <mask id="mask-2" fill="white">
                                            <use xlink:href="#path-1"></use>
                                        </mask>
                                        <g id="Clip-2"></g>
                                        <path d="M16.0201785,20.2916431 C11.6349477,20.2916431 8.07980923,16.7365046 8.07980923,12.3508431 C8.07980923,7.96604308 11.6349477,4.41090462 16.0201785,4.41090462 C20.40584,4.41090462 23.9605477,7.96604308 23.9605477,12.3508431 C23.9605477,16.7365046 20.40584,20.2916431 16.0201785,20.2916431 M7.28977846,7.37158154 C6.28694769,8.30764308 5.35045538,9.11016615 4.34719385,8.30764308 C3.64460923,7.74548923 4.28042462,6.16758154 5.28368615,5.36505846 C6.28694769,4.56210462 9.56380923,1.08450462 17.2551938,2.55601231 C10.0988246,3.49250462 8.29304,6.43508923 7.28977846,7.37158154 M13.7103938,0.148012308 C6.13833231,0.148012308 -0.000129230769,6.28647385 -0.000129230769,13.8585354 C-0.000129230769,21.4310277 6.13833231,27.5694892 13.7103938,27.5694892 C21.2824554,27.5694892 27.4209169,21.4310277 27.4209169,13.8585354 C27.4209169,6.28647385 21.2824554,0.148012308 13.7103938,0.148012308" id="Fill-1" fill="#FEFEFE" mask="url(#mask-2)"></path>
                                    </g>
                                    <polygon id="Fill-3" fill="#FEFEFE" points="20.4652 9.79392615 16.6528923 10.1282031 14.2457538 7.58709538 13.7103077 11.3322031 10.3662462 13.1379877 13.7103077 14.8102338 14.2457538 18.68888 17.2551077 15.6127569 21.0669846 15.9470338 18.9269231 13.1379877"></polygon>
                                </g>
                            </g>
                        </g>
                    </g>
                </g>
            </g>
        </g>
    </g>
</svg>