<?xml version="1.0" encoding="UTF-8"?>
<svg width="49px" height="22px" viewBox="0 0 49 22" version="1.1" xmlns="http://www.w3.org/2000/svg" xmlns:xlink="http://www.w3.org/1999/xlink">
    <!-- Generator: Sketch 54.1 (76490) - https://sketchapp.com -->
    <title>编组</title>
    <desc>Created with Sketch.</desc>
    <g id="页面-1" stroke="none" stroke-width="1" fill="none" fill-rule="evenodd">
        <g id="yabo首页2" transform="translate(-1175.000000, -2296.000000)" fill="#FEFEFE">
            <g id="游戏板块" transform="translate(359.000000, 2271.000000)">
                <g id="hover" transform="translate(1.000000, 0.000000)">
                    <g id="电子游戏" transform="translate(743.000000, 0.000000)">
                        <g id="分组-4" transform="translate(20.000000, 14.000000)">
                            <g id="logo_pg" transform="translate(52.000000, 11.000000)">
                                <g id="编组">
                                    <polygon id="Fill-1" points="17.8159718 1.93014366 19.7451549 1.93014366 19.7451549 3.09859155e-05 17.8159718 3.09859155e-05"></polygon>
                                    <polygon id="Fill-2" points="0 4.15679155 1.92980282 4.15679155 1.92980282 2.22791831 0 2.22791831"></polygon>
                                    <polygon id="Fill-3" points="2.22726761 21.9724535 4.1564507 21.9724535 4.1564507 20.0426507 2.22726761 20.0426507"></polygon>
                                    <polygon id="Fill-4" points="13.3617465 17.5188479 15.2918592 17.5188479 15.2918592 15.5887352 13.3617465 15.5887352"></polygon>
                                    <path d="M15.5890141,1.93014366 L17.518507,1.93014366 L17.518507,3.09859155e-05 L15.5890141,3.09859155e-05 L15.5890141,1.93014366 Z M13.3617465,1.93014366 L15.2918592,1.93014366 L15.2918592,3.09859155e-05 L13.3617465,3.09859155e-05 L13.3617465,1.93014366 Z M11.1350986,1.93014366 L13.0642817,1.93014366 L13.0642817,3.09859155e-05 L11.1350986,3.09859155e-05 L11.1350986,1.93014366 Z M8.9084507,1.93014366 L10.8376338,1.93014366 L10.8376338,3.09859155e-05 L8.9084507,3.09859155e-05 L8.9084507,1.93014366 Z M6.68056338,1.93014366 L8.61098592,1.93014366 L8.61098592,3.09859155e-05 L6.68056338,3.09859155e-05 L6.68056338,1.93014366 Z M4.45422535,1.93014366 L6.38340845,1.93014366 L6.38340845,3.09859155e-05 L4.45422535,3.09859155e-05 L4.45422535,1.93014366 Z M2.22664789,1.93014366 L4.15614085,1.93014366 L4.15614085,3.09859155e-05 L2.22664789,3.09859155e-05 L2.22664789,1.93014366 Z M17.815662,4.15679155 L19.7457746,4.15679155 L19.7457746,2.22667887 L17.815662,2.22667887 L17.815662,4.15679155 Z M15.5887042,4.15710141 L17.5188169,4.15710141 L17.5188169,2.22698873 L15.5887042,2.22698873 L15.5887042,4.15710141 Z M13.3617465,4.15710141 L15.2918592,4.15710141 L15.2918592,2.22698873 L13.3617465,2.22698873 L13.3617465,4.15710141 Z M11.1347887,4.15710141 L13.0649014,4.15710141 L13.0649014,2.22698873 L11.1347887,2.22698873 L11.1347887,4.15710141 Z M8.90783099,4.15710141 L10.8379437,4.15710141 L10.8379437,2.22698873 L8.90783099,2.22698873 L8.90783099,4.15710141 Z M6.68056338,4.15710141 L8.61098592,4.15710141 L8.61098592,2.22698873 L6.68056338,2.22698873 L6.68056338,4.15710141 Z M4.45391549,4.15710141 L6.38402817,4.15710141 L6.38402817,2.22698873 L4.45391549,2.22698873 L4.45391549,4.15710141 Z M2.22664789,4.15710141 L4.15676056,4.15710141 L4.15676056,2.22698873 L2.22664789,2.22698873 L2.22664789,4.15710141 Z M20.0426197,6.3837493 L21.9727324,6.3837493 L21.9727324,4.45363662 L20.0426197,4.45363662 L20.0426197,6.3837493 Z M17.815662,6.3837493 L19.7457746,6.3837493 L19.7457746,4.45363662 L17.815662,4.45363662 L17.815662,6.3837493 Z M15.5887042,6.3837493 L17.5188169,6.3837493 L17.5188169,4.45363662 L15.5887042,4.45363662 L15.5887042,6.3837493 Z M2.22664789,6.38436901 L4.15676056,6.38436901 L4.15676056,4.45394648 L2.22664789,4.45394648 L2.22664789,6.38436901 Z M0,6.38343944 L1.92980282,6.38343944 L1.92980282,4.45394648 L0,4.45394648 L0,6.38343944 Z M20.0426197,8.61070704 L21.9727324,8.61070704 L21.9727324,6.68059437 L20.0426197,6.68059437 L20.0426197,8.61070704 Z M17.815662,8.61070704 L19.7457746,8.61070704 L19.7457746,6.68059437 L17.815662,6.68059437 L17.815662,8.61070704 Z M0,8.61070704 L1.92980282,8.61070704 L1.92980282,6.68059437 L0,6.68059437 L0,8.61070704 Z M2.22664789,8.6110169 L4.15676056,8.6110169 L4.15676056,6.68121408 L2.22664789,6.68121408 L2.22664789,8.6110169 Z M20.0426197,10.8379746 L21.9727324,10.8379746 L21.9727324,8.90786197 L20.0426197,8.90786197 L20.0426197,10.8379746 Z M17.815662,10.8379746 L19.7457746,10.8379746 L19.7457746,8.90786197 L17.815662,8.90786197 L17.815662,10.8379746 Z M2.22664789,10.8379746 L4.15676056,10.8379746 L4.15676056,8.90817183 L2.22664789,8.90817183 L2.22664789,10.8379746 Z M0,10.8376648 L1.92980282,10.8376648 L1.92980282,8.90848169 L0,8.90848169 L0,10.8376648 Z M20.0426197,13.0646225 L21.9727324,13.0646225 L21.9727324,11.1348197 L20.0426197,11.1348197 L20.0426197,13.0646225 Z M17.815662,13.0646225 L19.7457746,13.0646225 L19.7457746,11.1348197 L17.815662,11.1348197 L17.815662,13.0646225 Z M15.5887042,13.0646225 L17.5188169,13.0646225 L17.5188169,11.1348197 L15.5887042,11.1348197 L15.5887042,13.0646225 Z M2.22664789,13.0649324 L4.15676056,13.0649324 L4.15676056,11.1351296 L2.22664789,11.1351296 L2.22664789,13.0649324 Z M0,13.0643127 L1.92980282,13.0643127 L1.92980282,11.1351296 L0,11.1351296 L0,13.0643127 Z M17.815662,15.2918901 L19.7457746,15.2918901 L19.7457746,13.3617775 L17.815662,13.3617775 L17.815662,15.2918901 Z M15.5887042,15.2918901 L17.5188169,15.2918901 L17.5188169,13.3617775 L15.5887042,13.3617775 L15.5887042,15.2918901 Z M13.3617465,15.2918901 L15.2918592,15.2918901 L15.2918592,13.3617775 L13.3617465,13.3617775 L13.3617465,15.2918901 Z M11.1347887,15.2918901 L13.0649014,15.2918901 L13.0649014,13.3617775 L11.1347887,13.3617775 L11.1347887,15.2918901 Z M8.90783099,15.2918901 L10.8379437,15.2918901 L10.8379437,13.3617775 L8.90783099,13.3617775 L8.90783099,15.2918901 Z M6.68056338,15.2918901 L8.61098592,15.2918901 L8.61098592,13.3617775 L6.68056338,13.3617775 L6.68056338,15.2918901 Z M4.45391549,15.2918901 L6.38402817,15.2918901 L6.38402817,13.3617775 L4.45391549,13.3617775 L4.45391549,15.2918901 Z M2.22664789,15.2918901 L4.15676056,15.2918901 L4.15676056,13.3617775 L2.22664789,13.3617775 L2.22664789,15.2918901 Z M0,15.2918901 L1.92980282,15.2918901 L1.92980282,13.3617775 L0,13.3617775 L0,15.2918901 Z M11.1347887,17.518538 L13.0649014,17.518538 L13.0649014,15.5887352 L11.1347887,15.5887352 L11.1347887,17.518538 Z M8.90783099,17.518538 L10.8379437,17.518538 L10.8379437,15.5887352 L8.90783099,15.5887352 L8.90783099,17.518538 Z M6.68056338,17.518538 L8.61098592,17.518538 L8.61098592,15.5887352 L6.68056338,15.5887352 L6.68056338,17.518538 Z M4.45391549,17.518538 L6.38402817,17.518538 L6.38402817,15.5887352 L4.45391549,15.5887352 L4.45391549,17.518538 Z M2.22664789,17.518538 L4.15676056,17.518538 L4.15676056,15.5887352 L2.22664789,15.5887352 L2.22664789,17.518538 Z M0,17.5182282 L1.92980282,17.5182282 L1.92980282,15.5893549 L0,15.5893549 L0,17.5182282 Z M2.22664789,19.7454958 L4.15676056,19.7454958 L4.15676056,17.815693 L2.22664789,17.815693 L2.22664789,19.7454958 Z M0,19.7451859 L1.92980282,19.7451859 L1.92980282,17.8160028 L0,17.8160028 L0,19.7451859 Z M0,21.9724535 L1.92980282,21.9724535 L1.92980282,20.0426507 L0,20.0426507 L0,21.9724535 Z" id="Fill-5"></path>
                                    <path d="M39.7292113,1.93014366 L41.6590141,1.93014366 L41.6590141,3.09859155e-05 L39.7292113,3.09859155e-05 L39.7292113,1.93014366 Z M37.5022535,1.93014366 L39.4314366,1.93014366 L39.4314366,3.09859155e-05 L37.5022535,3.09859155e-05 L37.5022535,1.93014366 Z M35.2749859,1.93014366 L37.2050986,1.93014366 L37.2050986,3.09859155e-05 L35.2749859,3.09859155e-05 L35.2749859,1.93014366 Z M33.0480282,1.93014366 L34.9781408,1.93014366 L34.9781408,3.09859155e-05 L33.0480282,3.09859155e-05 L33.0480282,1.93014366 Z M39.7289014,4.15679155 L41.6590141,4.15679155 L41.6590141,2.22667887 L39.7289014,2.22667887 L39.7289014,4.15679155 Z M37.5019437,4.15679155 L39.4317465,4.15679155 L39.4317465,2.22667887 L37.5019437,2.22667887 L37.5019437,4.15679155 Z M35.2749859,4.15679155 L37.2050986,4.15679155 L37.2050986,2.22667887 L35.2749859,2.22667887 L35.2749859,4.15679155 Z M33.0480282,4.15679155 L34.9781408,4.15679155 L34.9781408,2.22667887 L33.0480282,2.22667887 L33.0480282,4.15679155 Z M44.1828169,4.15710141 L46.1129296,4.15710141 L46.1129296,2.22698873 L44.1828169,2.22698873 L44.1828169,4.15710141 Z M41.9558592,4.15710141 L43.885662,4.15710141 L43.885662,2.22698873 L41.9558592,2.22698873 L41.9558592,4.15710141 Z M30.8210704,4.15710141 L32.7511831,4.15710141 L32.7511831,2.22698873 L30.8210704,2.22698873 L30.8210704,4.15710141 Z M28.5941127,4.15710141 L30.5245352,4.15710141 L30.5245352,2.22698873 L28.5941127,2.22698873 L28.5941127,4.15710141 Z M44.1828169,6.3837493 L46.1129296,6.3837493 L46.1129296,4.45363662 L44.1828169,4.45363662 L44.1828169,6.3837493 Z M41.9558592,6.3837493 L43.885662,6.3837493 L43.885662,4.45363662 L41.9558592,4.45363662 L41.9558592,6.3837493 Z M30.8210704,6.3837493 L32.7511831,6.3837493 L32.7511831,4.45363662 L30.8210704,4.45363662 L30.8210704,6.3837493 Z M28.5941127,6.38436901 L30.5245352,6.38436901 L30.5245352,4.45394648 L28.5941127,4.45394648 L28.5941127,6.38436901 Z M28.5941127,8.61070704 L30.5245352,8.61070704 L30.5245352,6.68059437 L28.5941127,6.68059437 L28.5941127,8.61070704 Z M26.3671549,8.6110169 L28.2972676,8.6110169 L28.2972676,6.68121408 L26.3671549,6.68121408 L26.3671549,8.6110169 Z M28.5941127,10.8379746 L30.5245352,10.8379746 L30.5245352,8.90786197 L28.5941127,8.90786197 L28.5941127,10.8379746 Z M44.1828169,10.8379746 L46.1129296,10.8379746 L46.1129296,8.90817183 L44.1828169,8.90817183 L44.1828169,10.8379746 Z M41.9558592,10.8379746 L43.885662,10.8379746 L43.885662,8.90817183 L41.9558592,8.90817183 L41.9558592,10.8379746 Z M39.7289014,10.8379746 L41.6590141,10.8379746 L41.6590141,8.90817183 L39.7289014,8.90817183 L39.7289014,10.8379746 Z M37.5019437,10.8379746 L39.4317465,10.8379746 L39.4317465,8.90817183 L37.5019437,8.90817183 L37.5019437,10.8379746 Z M26.3671549,10.8379746 L28.2972676,10.8379746 L28.2972676,8.90817183 L26.3671549,8.90817183 L26.3671549,10.8379746 Z M41.9558592,13.0646225 L43.885662,13.0646225 L43.885662,11.1348197 L41.9558592,11.1348197 L41.9558592,13.0646225 Z M39.7289014,13.0646225 L41.6590141,13.0646225 L41.6590141,11.1348197 L39.7289014,11.1348197 L39.7289014,13.0646225 Z M37.5019437,13.0646225 L39.4317465,13.0646225 L39.4317465,11.1348197 L37.5019437,11.1348197 L37.5019437,13.0646225 Z M28.5941127,13.0646225 L30.5245352,13.0646225 L30.5245352,11.1348197 L28.5941127,11.1348197 L28.5941127,13.0646225 Z M46.4100845,13.0643127 L48.3398873,13.0643127 L48.3398873,11.1351296 L46.4100845,11.1351296 L46.4100845,13.0643127 Z M44.1828169,13.0649324 L46.1129296,13.0649324 L46.1129296,11.1351296 L44.1828169,11.1351296 L44.1828169,13.0649324 Z M26.3671549,13.0649324 L28.2972676,13.0649324 L28.2972676,11.1351296 L26.3671549,11.1351296 L26.3671549,13.0649324 Z M46.4100845,15.2918901 L48.3398873,15.2918901 L48.3398873,13.3617775 L46.4100845,13.3617775 L46.4100845,15.2918901 Z M28.5941127,15.2918901 L30.5245352,15.2918901 L30.5245352,13.3617775 L28.5941127,13.3617775 L28.5941127,15.2918901 Z M44.1828169,15.2922 L46.1129296,15.2922 L46.1129296,13.3620873 L44.1828169,13.3620873 L44.1828169,15.2922 Z M26.3671549,15.2922 L28.2972676,15.2922 L28.2972676,13.3620873 L26.3671549,13.3620873 L26.3671549,15.2922 Z M44.1828169,17.518538 L46.1129296,17.518538 L46.1129296,15.5887352 L44.1828169,15.5887352 L44.1828169,17.518538 Z M26.3671549,17.518538 L28.2972676,17.518538 L28.2972676,15.5887352 L26.3671549,15.5887352 L26.3671549,17.518538 Z M41.9558592,17.5188479 L43.885662,17.5188479 L43.885662,15.5890451 L41.9558592,15.5890451 L41.9558592,17.5188479 Z M30.8210704,17.5188479 L32.7511831,17.5188479 L32.7511831,15.5890451 L30.8210704,15.5890451 L30.8210704,17.5188479 Z M28.5941127,17.5188479 L30.5245352,17.5188479 L30.5245352,15.5890451 L28.5941127,15.5890451 L28.5941127,17.5188479 Z M44.1828169,19.7454958 L46.1129296,19.7454958 L46.1129296,17.815693 L44.1828169,17.815693 L44.1828169,19.7454958 Z M41.9558592,19.7454958 L43.885662,19.7454958 L43.885662,17.815693 L41.9558592,17.815693 L41.9558592,19.7454958 Z M39.7289014,19.7461155 L41.6590141,19.7461155 L41.6590141,17.815693 L39.7289014,17.815693 L39.7289014,19.7461155 Z M37.5019437,19.7461155 L39.4317465,19.7461155 L39.4317465,17.815693 L37.5019437,17.815693 L37.5019437,19.7461155 Z M35.2749859,19.7461155 L37.2050986,19.7461155 L37.2050986,17.815693 L35.2749859,17.815693 L35.2749859,19.7461155 Z M33.0480282,19.7461155 L34.9781408,19.7461155 L34.9781408,17.815693 L33.0480282,17.815693 L33.0480282,19.7461155 Z M30.8210704,19.7461155 L32.7511831,19.7461155 L32.7511831,17.815693 L30.8210704,17.815693 L30.8210704,19.7461155 Z M39.7292113,21.9724535 L41.6590141,21.9724535 L41.6590141,20.0426507 L39.7292113,20.0426507 L39.7292113,21.9724535 Z M37.5022535,21.9724535 L39.4317465,21.9724535 L39.4317465,20.0426507 L37.5022535,20.0426507 L37.5022535,21.9724535 Z M35.2749859,21.9724535 L37.2050986,21.9724535 L37.2050986,20.0426507 L35.2749859,20.0426507 L35.2749859,21.9724535 Z M33.0480282,21.9724535 L34.9781408,21.9724535 L34.9781408,20.0426507 L33.0480282,20.0426507 L33.0480282,21.9724535 Z M30.8216901,21.9724535 L32.7505634,21.9724535 L32.7505634,20.0426507 L30.8216901,20.0426507 L30.8216901,21.9724535 Z" id="Fill-6"></path>
                                    <polygon id="Fill-7" points="26.3671549 6.38436901 28.2969577 6.38436901 28.2969577 4.45425634 26.3671549 4.45425634"></polygon>
                                    <polygon id="Fill-8" points="30.8213803 1.93014366 32.7505634 1.93014366 32.7505634 3.09859155e-05 30.8213803 3.09859155e-05"></polygon>
                                    <polygon id="Fill-9" points="28.5941127 19.7454958 30.5242254 19.7454958 30.5242254 17.8153831 28.5941127 17.8153831"></polygon>
                                    <polygon id="Fill-10" points="41.9555493 21.9724535 43.885662 21.9724535 43.885662 20.0426507 41.9555493 20.0426507"></polygon>
                                    <polygon id="Fill-11" points="46.4100845 10.8376648 48.3398873 10.8376648 48.3398873 8.90848169 46.4100845 8.90848169"></polygon>
                                    <polygon id="Fill-12" points="46.4100845 17.5182282 48.3398873 17.5182282 48.3398873 15.5893549 46.4100845 15.5893549"></polygon>
                                </g>
                            </g>
                        </g>
                    </g>
                </g>
            </g>
        </g>
    </g>
</svg>