<?xml version="1.0" encoding="utf-8"?>
<!-- Generator: Adobe Illustrator 23.1.0, SVG Export Plug-In . SVG Version: 6.00 Build 0)  -->
<svg version="1.1" id="Layer_1" xmlns="http://www.w3.org/2000/svg" xmlns:xlink="http://www.w3.org/1999/xlink" x="0px" y="0px"
	 viewBox="0 0 200 200" style="enable-background:new 0 0 200 200;" xml:space="preserve">
<style type="text/css">
	.st0{fill:#282828;}
	.st1{fill:#FFFFFF;}
</style>
<path class="st0" d="M157.2,67.2H43.5c-3.4,0-6.1-2.7-6.1-6.1V52c0-3.4,2.7-6.1,6.1-6.1h113.7c3.4,0,6.1,2.7,6.1,6.1v9.2
	C163.3,64.5,160.5,67.2,157.2,67.2z"/>
<path class="st1" d="M157.3,66.5H42.7c-3,0-5.3-2.4-5.3-5.3v-9.9c0-3,2.4-5.3,5.3-5.3h114.5c3,0,5.3,2.4,5.3,5.3v9.9
	C162.6,64.1,160.2,66.5,157.3,66.5z"/>
<path class="st0" d="M157.2,111.1H43.5c-3.4,0-6.1-2.7-6.1-6.1v-9.2c0-3.4,2.7-6.1,6.1-6.1h113.7c3.4,0,6.1,2.7,6.1,6.1v9.2
	C163.3,108.3,160.5,111.1,157.2,111.1z"/>
<path class="st1" d="M157.3,110.3H42.7c-3,0-5.3-2.4-5.3-5.3v-9.9c0-3,2.4-5.3,5.3-5.3h114.5c3,0,5.3,2.4,5.3,5.3v9.9
	C162.6,107.9,160.2,110.3,157.3,110.3z"/>
<path class="st0" d="M157.2,154.9H43.5c-3.4,0-6.1-2.7-6.1-6.1v-9.2c0-3.4,2.7-6.1,6.1-6.1h113.7c3.4,0,6.1,2.7,6.1,6.1v9.2
	C163.3,152.2,160.5,154.9,157.2,154.9z"/>
<path class="st1" d="M157.3,154.1H42.7c-3,0-5.3-2.4-5.3-5.3v-9.9c0-3,2.4-5.3,5.3-5.3h114.5c3,0,5.3,2.4,5.3,5.3v9.9
	C162.6,151.7,160.2,154.1,157.3,154.1z"/>
</svg>
