<?xml version="1.0" encoding="utf-8"?>
<!-- Generator: Adobe Illustrator 24.1.2, SVG Export Plug-In . SVG Version: 6.00 Build 0)  -->
<svg version="1.1" id="Layer_1" xmlns="http://www.w3.org/2000/svg" xmlns:xlink="http://www.w3.org/1999/xlink" x="0px" y="0px"
	 width="487.55905px" height="147.40158px" viewBox="0 0 487.55905 147.40158"
	 style="enable-background:new 0 0 487.55905 147.40158;" xml:space="preserve">
<style type="text/css">
	.st0{fill:url(#SVGID_1_);}
	.st1{fill:url(#SVGID_2_);}
	.st2{fill:#F6E51D;}
	.st3{fill:url(#SVGID_3_);}
	.st4{fill:url(#SVGID_4_);}
	.st5{fill:url(#SVGID_5_);}
	.st6{fill:#FFFFFF;}
</style>
<g>
	<g>
		<g>
			<path d="M94.85401,49.47369l-25.34087,3.84549c-2.16925-9.95886-7.69101-14.69179-16.56524-14.29738
				C38.65052,38.6274,31.25532,51.54434,30.86091,77.67403c6.21196-8.47983,15.48061-12.91695,27.60874-13.21275
				c23.86183,1.47904,36.97598,14.29738,39.14524,38.65223c-1.47904,26.5241-16.36803,40.22988-44.66699,41.41311
				C19.81742,145.61125,3.64658,124.80609,4.4354,82.20976c1.08463-41.2159,17.05825-62.31686,48.01948-63.5001
				C75.23209,18.61107,89.33227,28.86574,94.85401,49.47369z M71.6824,104.69116
				c-0.78883-12.52253-7.3952-19.1289-19.81913-19.81913c-12.52253,0.3944-19.12891,6.60637-19.81913,18.7345
				c0.69022,13.60716,7.69101,20.80516,21.00236,21.49538C64.3858,124.01727,70.59777,117.21369,71.6824,104.69116z"/>
			<path d="M133.50624,79.84331c-14.6918-4.04272-22.28419-13.40997-22.58-28.10175
				c2.16925-21.00236,16.76245-32.04585,43.58237-33.13048c26.81992,1.08463,41.4131,11.93092,43.58235,32.53886
				c0.39441,14.69179-8.0854,24.05904-25.34087,28.10175v0.59162c18.34009,3.35248,27.90454,13.01554,28.69337,29.28497
				c-0.39441,23.56602-16.95966,35.29974-49.69574,35.29974c-28.69337-0.78882-43.58236-11.93092-44.66699-33.6235
				C107.77097,94.9295,116.54659,84.57622,133.50624,79.84331z M173.83472,109.62129
				c0.39441-9.95887-6.40916-16.56524-20.41074-19.81913c-12.52252,3.35249-18.7345,9.95887-18.7345,19.81913
				c0.69022,10.25467,7.198,15.77642,19.32613,16.56525C166.83394,125.79212,173.44031,120.27039,173.83472,109.62129z
				 M170.48222,52.82618c-0.39441-9.17005-5.71895-14.00157-15.97362-14.29738
				c-10.25467,0.39441-15.67781,5.12733-15.97363,14.29738c-0.39439,8.08541,4.93015,13.60717,15.97363,16.56524
				C165.55209,66.43334,170.87665,60.91159,170.48222,52.82618z"/>
		</g>
		<g>
			
				<linearGradient id="SVGID_1_" gradientUnits="userSpaceOnUse" x1="51.01139" y1="127.46426" x2="51.01139" y2="1.6063" gradientTransform="matrix(1 0 0 -1 0 146.17323)">
				<stop  offset="0" style="stop-color:#075951"/>
				<stop  offset="0.746" style="stop-color:#0DA929"/>
			</linearGradient>
			<path class="st0" d="M94.85401,49.47369l-25.34087,3.84549c-2.16925-9.95886-7.69101-14.69179-16.56524-14.29738
				C38.65052,38.6274,31.25532,51.54434,30.86091,77.67403c6.21196-8.47983,15.48061-12.91695,27.60874-13.21275
				c23.86183,1.47904,36.97598,14.29738,39.14524,38.65223c-1.47904,26.5241-16.36803,40.22988-44.66699,41.41311
				C19.81742,145.61125,3.64658,124.80609,4.4354,82.20976c1.08463-41.2159,17.05825-62.31686,48.01948-63.5001
				C75.23209,18.61107,89.33227,28.86574,94.85401,49.47369z M71.6824,104.69116
				c-0.78883-12.52253-7.3952-19.1289-19.81913-19.81913c-12.52253,0.3944-19.12891,6.60637-19.81913,18.7345
				c0.69022,13.60716,7.69101,20.80516,21.00236,21.49538C64.3858,124.01727,70.59777,117.21369,71.6824,104.69116z"/>
			
				<linearGradient id="SVGID_2_" gradientUnits="userSpaceOnUse" x1="154.2621" y1="127.56216" x2="154.2621" y2="1.7452" gradientTransform="matrix(1 0 0 -1 0 146.17323)">
				<stop  offset="0" style="stop-color:#075951"/>
				<stop  offset="0.746" style="stop-color:#0DA929"/>
			</linearGradient>
			<path class="st1" d="M133.50624,79.84331c-14.6918-4.04272-22.28419-13.40997-22.58-28.10175
				c2.16925-21.00236,16.76245-32.04585,43.58237-33.13048c26.81992,1.08463,41.4131,11.93092,43.58235,32.53886
				c0.39441,14.69179-8.0854,24.05904-25.34087,28.10175v0.59162c18.34009,3.35248,27.90454,13.01554,28.69337,29.28497
				c-0.39441,23.56602-16.95966,35.29974-49.69574,35.29974c-28.69337-0.78882-43.58236-11.93092-44.66699-33.6235
				C107.77097,94.9295,116.54659,84.57622,133.50624,79.84331z M173.83472,109.62129
				c0.39441-9.95887-6.40916-16.56524-20.41074-19.81913c-12.52252,3.35249-18.7345,9.95887-18.7345,19.81913
				c0.69022,10.25467,7.198,15.77642,19.32613,16.56525C166.83394,125.79212,173.44031,120.27039,173.83472,109.62129z
				 M170.48222,52.82618c-0.39441-9.17005-5.71895-14.00157-15.97362-14.29738
				c-10.25467,0.39441-15.67781,5.12733-15.97363,14.29738c-0.39439,8.08541,4.93015,13.60717,15.97363,16.56524
				C165.55209,66.43334,170.87665,60.91159,170.48222,52.82618z"/>
		</g>
	</g>
	<g>
		<path class="st2" d="M94.85401,39.21902l-25.34087,3.8455c-2.16925-9.95887-7.69101-14.69179-16.56524-14.29738
			c-14.29738-0.39441-21.69258,12.52253-22.08699,38.65223c6.21196-8.47983,15.48061-12.91695,27.60874-13.21274
			c23.86183,1.47904,36.97598,14.29738,39.14524,38.65223c-1.47904,26.5241-16.36803,40.22988-44.66699,41.41311
			C19.81742,135.35658,3.64658,114.55143,4.4354,71.95509C5.52003,30.73919,21.49366,9.63824,52.45489,8.455
			C75.23209,8.25779,89.33227,18.61107,94.85401,39.21902z M71.6824,94.33789c-0.78883-12.52253-7.3952-19.12891-19.81913-19.81914
			c-12.52253,0.3944-19.12891,6.60638-19.81913,18.7345c0.69022,13.60717,7.69101,20.80516,21.00236,21.49538
			C64.3858,113.66399,70.59777,106.86042,71.6824,94.33789z"/>
		<path class="st2" d="M133.50624,69.58862c-14.6918-4.04272-22.28419-13.40997-22.58-28.10175
			c2.16925-21.00236,16.76245-32.04585,43.58237-33.13048c26.81992,1.08463,41.4131,11.93092,43.58235,32.53887
			c0.39441,14.69179-8.0854,24.05904-25.34087,28.10176v0.59162c18.34009,3.35249,27.90454,13.01554,28.69337,29.28497
			c-0.39441,23.56602-16.95966,35.29974-49.69574,35.29974c-28.69337-0.78882-43.58236-11.93092-44.66699-33.6235
			C107.77097,84.67483,116.54659,74.32155,133.50624,69.58862z M173.83472,99.36662
			c0.39441-9.95887-6.40916-16.56525-20.41074-19.81914c-12.52252,3.35249-18.7345,9.95887-18.7345,19.81914
			c0.69022,10.25466,7.198,15.77642,19.32613,16.56524C166.83394,115.53745,173.44031,110.0157,173.83472,99.36662z
			 M170.48222,42.4729c-0.39441-9.17005-5.71895-14.00157-15.97362-14.29738c-10.25467,0.39441-15.67781,5.12733-15.97363,14.29738
			c-0.39439,8.08541,4.93015,13.60717,15.97363,16.56524C165.55209,56.08007,170.87665,50.65692,170.48222,42.4729z"/>
	</g>
	<g>
		<g>
			<path class="st2" d="M241.57472,131.11667v11.04349H214.459V13.08932h27.01712v55.21746
				c5.91615-9.56445,15.48064-14.29738,28.69337-14.29738c22.77722,1.08464,34.60953,15.48061,35.29971,42.99075
				c0,31.65146-12.71973,47.42787-38.06061,47.42787C256.06934,144.42802,247.39227,139.99091,241.57472,131.11667z
				 M241.57472,96.40853v7.198c0.39441,13.60716,6.21198,20.60794,17.64986,21.00237
				c12.52255,0.3944,18.7345-8.67704,18.7345-27.01711c-0.78879-14.69179-6.80356-22.48141-18.24149-23.17162
				C247.9839,74.71596,241.87054,82.01256,241.57472,96.40853z"/>
			<path class="st2" d="M410.38245,100.84565v6.60638h-67.83859c1.08463,11.7337,8.47983,18.24149,22.08698,19.32612
				c9.95886-0.3944,16.17081-4.04271,18.7345-11.04349l28.69336,3.35248c-7.00079,16.95965-22.57999,25.34087-46.93484,25.34087
				c-31.65146-1.08463-48.21667-15.48061-49.69571-42.99074c1.08463-30.56681,16.56522-46.34323,46.34323-47.42787
				C393.81717,53.91081,409.98801,69.58862,410.38245,100.84565z M341.95218,90.29517h42.49774
				c-1.08463-11.43791-8.08542-17.64986-21.00235-18.7345C350.23483,72.3495,343.03683,78.56147,341.95218,90.29517z"/>
			<path class="st2" d="M432.96243,117.3123V75.40619h-13.80435V55.58705h13.80435V25.80906l26.52411-4.93013v34.80673h21.00235
				v19.81913h-21.00235v35.79275c0,9.17004,3.45108,13.60716,10.45187,13.21275c2.56369,0,5.12735-0.69022,7.69101-2.16926
				l5.52173,17.05827c-5.12735,3.35248-12.52252,4.93013-22.08698,4.93013
				C442.03384,144.72382,432.6666,135.75099,432.96243,117.3123z"/>
		</g>
		<g>
			
				<linearGradient id="SVGID_3_" gradientUnits="userSpaceOnUse" x1="259.96411" y1="133.08391" x2="259.96411" y2="1.7452" gradientTransform="matrix(1 0 0 -1 0 146.17323)">
				<stop  offset="0" style="stop-color:#075951"/>
				<stop  offset="0.746" style="stop-color:#0DA929"/>
			</linearGradient>
			<path class="st3" d="M241.57472,131.11667v11.04349H214.459V13.08932h27.01712v55.21746
				c5.91615-9.56445,15.48064-14.29738,28.69337-14.29738c22.77722,1.08464,34.60953,15.48061,35.29971,42.99075
				c0,31.65146-12.71973,47.42787-38.06061,47.42787C256.06934,144.42802,247.39227,139.99091,241.57472,131.11667z
				 M241.57472,96.40853v7.198c0.39441,13.60716,6.21198,20.60794,17.64986,21.00237
				c12.52255,0.3944,18.7345-8.67704,18.7345-27.01711c-0.78879-14.69179-6.80356-22.48141-18.24149-23.17162
				C247.9839,74.71596,241.87054,82.01256,241.57472,96.40853z"/>
			
				<linearGradient id="SVGID_4_" gradientUnits="userSpaceOnUse" x1="363.74341" y1="133.0984" x2="363.74341" y2="1.77173" gradientTransform="matrix(1 0 0 -1 0 146.17323)">
				<stop  offset="0" style="stop-color:#075951"/>
				<stop  offset="0.746" style="stop-color:#0DA929"/>
			</linearGradient>
			<path class="st4" d="M410.38245,100.84565v6.60638h-67.83859c1.08463,11.7337,8.47983,18.24149,22.08698,19.32612
				c9.95886-0.3944,16.17081-4.04271,18.7345-11.04349l28.69336,3.35248c-7.00079,16.95965-22.57999,25.34087-46.93484,25.34087
				c-31.65146-1.08463-48.21667-15.48061-49.69571-42.99074c1.08463-30.56681,16.56522-46.34323,46.34323-47.42787
				C393.81717,53.91081,409.98801,69.58862,410.38245,100.84565z M341.95218,90.29517h42.49774
				c-1.08463-11.43791-8.08542-17.64986-21.00235-18.7345C350.23483,72.3495,343.03683,78.56147,341.95218,90.29517z"/>
			
				<linearGradient id="SVGID_5_" gradientUnits="userSpaceOnUse" x1="451.1546" y1="133.0984" x2="451.1546" y2="1.77173" gradientTransform="matrix(1 0 0 -1 0 146.17323)">
				<stop  offset="0" style="stop-color:#075951"/>
				<stop  offset="0.746" style="stop-color:#0DA929"/>
			</linearGradient>
			<path class="st5" d="M432.96243,117.3123V75.40619h-13.80435V55.58705h13.80435V25.80906l26.52411-4.93013v34.80673h21.00235
				v19.81913h-21.00235v35.79275c0,9.17004,3.45108,13.60716,10.45187,13.21275c2.56369,0,5.12735-0.69022,7.69101-2.16926
				l5.52173,17.05827c-5.12735,3.35248-12.52252,4.93013-22.08698,4.93013
				C442.03384,144.72382,432.6666,135.75099,432.96243,117.3123z"/>
		</g>
	</g>
	<g>
		<path class="st6" d="M241.57472,120.86199v11.0435H214.459V2.83465h27.01712v55.21747
			c5.91615-9.56445,15.48064-14.29738,28.69337-14.29738c22.77722,1.08463,34.60953,15.48061,35.29971,42.99075
			c0,31.65145-12.71973,47.42786-38.06061,47.42786C256.06934,134.07475,247.39227,129.73622,241.57472,120.86199z
			 M241.57472,86.05526v7.19799c0.39441,13.60717,6.21198,20.60795,17.64986,21.00237
			c12.52255,0.3944,18.7345-8.67703,18.7345-27.01711c-0.78879-14.69179-6.80356-22.4814-18.24149-23.17162
			C247.9839,64.36268,241.87054,71.75787,241.57472,86.05526z"/>
		<path class="st6" d="M410.38245,90.49238v6.60637h-67.83859c1.08463,11.73371,8.47983,18.24149,22.08698,19.32613
			c9.95886-0.39441,16.17081-4.04272,18.7345-11.0435l28.69336,3.35249c-7.00079,16.95965-22.57999,25.34087-46.93484,25.34087
			c-31.65146-1.08464-48.21667-15.48061-49.69571-42.99074c1.08463-30.56681,16.56522-46.34324,46.34323-47.42786
			C393.81717,43.65614,409.98801,59.23535,410.38245,90.49238z M341.95218,80.0405h42.49774
			c-1.08463-11.43791-8.08542-17.64986-21.00235-18.7345C350.23483,61.99622,343.03683,68.30679,341.95218,80.0405z"/>
		<path class="st6" d="M432.96243,107.05762V65.1515h-13.80435V45.23378h13.80435V15.45578l26.52411-4.93013v34.70812h21.00235
			v19.81913h-21.00235v35.89135c0,9.17005,3.45108,13.60717,10.45187,13.21275c2.56369,0,5.12735-0.69022,7.69101-2.16925
			l5.52173,17.05825c-5.12735,3.35249-12.52252,4.93013-22.08698,4.93013
			C442.03384,134.46916,432.6666,125.49631,432.96243,107.05762z"/>
	</g>
</g>
</svg>
