<?xml version="1.0" encoding="utf-8"?>
<!-- Generator: Adobe Illustrator 23.1.0, SVG Export Plug-In . SVG Version: 6.00 Build 0)  -->
<svg version="1.1" id="Layer_1" xmlns="http://www.w3.org/2000/svg" xmlns:xlink="http://www.w3.org/1999/xlink" x="0px" y="0px"
	 viewBox="0 0 200 200" style="enable-background:new 0 0 200 200;" xml:space="preserve">
<style type="text/css">
	.st0{fill:#15866D;}
	.st1{fill:#151515;}
</style>
<path id="Rectangle_1404" class="st0" d="M17.9,2h164.2c8.8,0,15.9,6.9,15.9,15.5v165.1c0,8.5-7.1,15.5-15.9,15.5H17.9
	C9.1,198,2,191.1,2,182.5v-165C2,8.9,9.1,2,17.9,2z"/>
<rect x="46" y="97" class="st1" width="104" height="10"/>
<g>
	<path d="M53.6,35v-3.3H73V35c-4.4,7.5-11.2,13.8-20.4,18.9c-0.6-1.1-1.3-2.2-2.1-3.4c3.4-1.8,6.2-3.5,8.3-5.1
		c-2.1-2.1-4.2-4.2-6.3-6.3l2.3-2.3c2.4,2.2,4.7,4.3,6.7,6.3c2.7-2.4,5-5.1,6.9-8.2L53.6,35L53.6,35z M51.5,71.8h16.4
		c-1.2-1.1-2.9-2.7-5.1-4.7l2.3-2.3c2,1.6,4,3.4,6,5.2l-2,1.9h11.7l-1.7-1.7c2.1-1.9,3.9-3.7,5.6-5.6l3,2.4
		c-1.5,1.5-3.2,3.1-5.1,4.8h16.7v3.3H51.5V71.8z M59,51h32.2v15h-3.7v-1.8H62.8V66H59V51z M87.5,54.2H62.8V61h24.8L87.5,54.2
		L87.5,54.2z M66.7,43.6h16.6v3.2H66.7V43.6z M79.1,29c0.7,2,1.6,3.9,2.5,5.6c3.6-2,6.7-3.8,9.4-5.7l2.4,3.1
		c-3.1,1.8-6.4,3.7-9.9,5.6c0.9,1.3,1.8,2.5,2.9,3.6c3.4-1.9,6.6-3.8,9.5-5.8l2.4,3.1c-2.7,1.7-5.7,3.4-9.1,5.2
		c3.1,2.4,6.8,4.1,10.9,4.9c-0.9,1.3-1.8,2.6-2.7,4C87,49,79.8,41.6,75.6,30.4L79.1,29z"/>
	<path d="M101,68.2c6.4-2,13.3-4.3,20.8-7.1c0.3,1.4,0.5,2.7,0.7,3.7c-6.5,2.2-13.1,4.6-20,7.1L101,68.2z M142.9,53.1l2.8,3.2
		c-2.8,1.8-6.2,4-10.3,6.4c3.8,3,8.6,5.1,14.3,6.4c-1,1.4-1.9,2.7-2.7,4c-8.9-2.7-15.4-7.3-19.5-13.8V70c0,3.9-2,5.9-6.1,5.9
		c-1.9,0-4.2,0-6.8-0.1c-0.2-1.2-0.4-2.6-0.7-4.2c2.3,0.3,4.4,0.4,6.3,0.4c2.3,0,3.5-1,3.5-3.1V51.4h-22v-3.3h36.4v-5.2h-30.3v-3.1
		h30.3v-5.2h-31.2v-3.3h34.9v16.8h7.6v3.3h-21.9v1.1c1.3,2.9,3.1,5.5,5.2,7.7C136.4,57.8,139.8,55.4,142.9,53.1z M107.8,52.7
		c3.1,1.9,6.3,3.9,9.5,6.2l-2.4,3.2c-3-2.2-6.1-4.4-9.4-6.5L107.8,52.7z"/>
	<path d="M53.4,141.8c2.3,1.6,5.2,3.8,8.6,6.6c-1.2,1.4-2.2,2.4-2.9,3.2c-3.4-3.1-6.2-5.5-8.2-7L53.4,141.8z M57.8,155.9
		c1.3,0.6,2.6,1.1,3.9,1.6c-1.8,5.7-3.7,12-5.6,18.8l-4.2-1.5C53.9,169.2,55.9,162.9,57.8,155.9z M55.2,129.1c3.2,2.4,6,4.8,8.4,7.1
		c-1.1,1.1-2.1,2.1-2.9,3c-1.8-1.9-4.4-4.3-8-7.4L55.2,129.1z M63,169.9h16.4V156H66.7v-3.7h12.7v-11.8H65.3v-3.7h15.6
		c-1.5-2.4-3.1-4.6-4.7-6.6l3.2-2.1c2.2,2.5,3.9,4.8,5.2,6.7l-3.1,2H98v3.7H83.5v11.8h12.7v3.7H83.5v13.9h15.8v3.7H63V169.9z"/>
	<path d="M109.2,176.1h-3.6v-23.8h-4.3v-3.5h4.3v-17.6h39.3v17.6h4.5v3.5h-4.5v17.1c0,4.3-2,6.4-6,6.4c-1.5,0-2.9,0-4.4,0
		c-0.2-1.3-0.4-2.6-0.7-3.8c1.7,0.1,3.1,0.2,4.2,0.2c2.2,0.1,3.3-1.1,3.3-3.7v-16.2h-8.4v21h-3.5v-21h-8.3v22.9h-3.5v-22.9h-8.3
		v23.8H109.2z M109.2,148.8h8.3v-14.2h-8.3V148.8z M121.1,148.8h8.3v-14.2h-8.3C121.1,134.6,121.1,148.8,121.1,148.8z M141.3,134.6
		h-8.4v14.2h8.4V134.6z"/>
</g>
</svg>
