<svg width="90" height="24" xmlns="http://www.w3.org/2000/svg" xmlns:xlink="http://www.w3.org/1999/xlink"><defs><path id="a" d="M19.973 7.5H.013V.054h19.96z"/></defs><g fill="none" fill-rule="evenodd"><circle fill="#FFF" fill-rule="nonzero" cx="11.876" cy="11.876" r="11.876"/><g transform="translate(1 16.394)"><mask id="b" fill="#fff"><use xlink:href="#a"/></mask><path d="M11.948 3.23C8.358 4.726 3.747 4.72.08.266.057.292-.01.322.023.405.85 2.426 3.15 5.793 7.698 7.045c1.795.495 4.17.792 7.138-.224.93-.316 1.956-.845 2.766-1.422 1.037-.738 1.686-1.488 1.892-1.713.404-.444.704-1.404.255-2.335C19.186.188 17.773-.45 16.331.55c-1.312.905-2.5 1.92-4.383 2.68" fill="#E50012" mask="url(#b)"/></g><path d="M18.068 7.197c3.084 2.369 5.372 6.373 3.331 11.77.035.006.094.05.15-.019 1.256-1.542 3.12-5.392 1.943-9.963-.464-1.802-1.388-4.012-3.745-6.081a11.443 11.443 0 0 0-2.61-1.691C15.984.682 15.015.49 14.71.453c-.591-.074-1.566.059-2.15.913-.73 1.064-.58 2.61 1.002 3.362 1.44.687 2.91 1.213 4.506 2.469" fill="#1EAA39"/><path d="M4.823 8.803C5.415 4.96 7.828 1.028 13.54.223c-.009-.033.001-.108-.088-.122-1.951-.29-6.229-.144-9.67 3.086C2.425 4.463.932 6.334.251 9.397A11.489 11.489 0 0 0 .023 12.5c.09 1.269.392 2.21.477 2.506.165.574.83 1.331 1.859 1.433 1.283.127 2.567-.745 2.466-2.498-.09-1.592-.337-3.132-.002-5.137" fill="#FFD800"/><path d="M15.828 11.07c.022-.681.063-4.316-3.737-4.296-3.799-.02-3.743 3.643-3.718 4.325-.704.818-1.18 2.795-.993 2.826.458.07.77-.165.993-.402.121-.13.134-.097.178.02.038.11.405.809.511.971.091.139.063.21-.103.241-.167.03-.4.17-.555.38-.253.344-.001.685.512.851 1.483.475 2.613.014 2.71-.043.024-.015.21-.073.253-.088l.203-.014a.79.79 0 0 1 .241.03c.11.03.172.06.29.103.106.036 1.284.487 2.733-.02.473-.163.682-.469.471-.771-.165-.23-.34-.368-.623-.439-.138-.037-.163-.072-.084-.182.11-.152.455-.838.499-.948.043-.103.087-.235.182-.097.18.259.69.543 1.014.408.3-.129-.396-2.094-.977-2.855" fill="#1695D4"/><path d="M34.187 4.994l-.745 2.887h-1.498l.795-3.3h1.086c.326 0 .451.066.362.413zm-2.088 8.12h-1.477c.297-1.128.597-2.323.873-3.473h1.499l-.895 3.473zm3.114-10.378h-4.125c-.871 3.756-1.851 7.838-2.991 12.029a75.613 75.613 0 0 1-2.222 6.926h2.172a91.914 91.914 0 0 0 2.125-6.796h1.477l-1.757 6.796h2.216l4.385-17.696c.248-1.064-.172-1.26-1.28-1.26zm6.435 16.349h-7.491l-.186-1.693h8.186z" fill="#FFF"/><path d="M39.77 11.16a12.157 12.157 0 0 0 1.696-1.584h.804c.22.564.53 1.107.91 1.584h-3.41zm2.397 2.063l-.459 1.585h-3.257l.352-1.303-.972-.694h4.06c.304 0 .362.108.276.412zm2.36-3.647h3.345l.53-1.695h-5.84c.175-.325.329-.672.482-.998h4.755l.534-1.737h-1.606c.47-.825.9-1.694 1.289-2.605h-2.28c-.343.868-.756 1.801-1.203 2.605h-.868c.278-.868.452-1.802.62-2.975h-2.302a16.591 16.591 0 0 1-.641 2.975h-.738c-.131-.934-.248-1.737-.34-2.605h-2.28l.34 2.605h-1.5l-.468 1.737h4.343c-.151.304-.306.651-.525.998h-4.06l-.467 1.695h3.257c-.862.846-2.656 1.65-3.76 1.91l-.607 2.17a10.73 10.73 0 0 0 2.13-.672l-.92 3.54h7.47c.304 0 .36.108.275.412a58.715 58.715 0 0 1-.818 2.996h-4.212l.267 1.76h5.885a208.752 208.752 0 0 0 1.43-5.842c.215-.911-.297-1.042-1.057-1.042h-1.064l.661-2.323a7.282 7.282 0 0 0 2.676 1.172l.698-1.91c-1.13-.283-2.937-1.151-3.43-2.171zm7.733 7.555c.936-.651 2.014-1.476 3.023-2.236l-.72 2.823c-1.608 1.227-3.576 2.673-5.65 3.887l-.245-.001 3.02-11.833h-2.235l.46-1.911h4.646l-2.3 9.271zm.707-10.422l-.484-4.56h2.258l.593 4.56zm15.399-2.54c-1.239 4.972-2.607 10.574-3.843 15.503h2.693l-.923 2.02h-4.69c.914-3.757 1.709-7.057 2.431-9.924H60.56l-2.43 9.923h-2.39l2.431-9.923h-2.975l.498-1.845h2.931l1.15-4.647 1.997 1.564-.758 3.083h3.474c.427-1.76.82-3.344 1.175-4.69.148-.565-.087-.63-.586-.63h-8.013l-.3-1.91h10.358c1.325 0 1.513.39 1.243 1.476M84.434 17.89l-.443 2.056h-3.426l.456 1.98h5.092l3.8-17.728c.203-.931.062-1.321-1.28-1.321H72.291l-4.295 19.05h2.532l.872-4.05.099-.298 2.828-12.72H86.99c.26 0 .318-.006.252.275" fill="#FFF"/><path d="M84.024 17.626c-.395-1.632-.831-3.75-1.03-5.321 1.26-1.935 2.283-3.637 3.068-5.16h-2.117a46.952 46.952 0 0 1-1.589 3.324c-.238-1.068-.425-2.563-.503-3.325H78.57c-.462.914-1.09 2.317-1.674 3.345a42.46 42.46 0 0 1-.3-3.345H74.62c.197 1.524.488 3.428.776 5.14-.978 1.673-2.347 3.798-3.473 5.309l-.26.371h2.203c.53-.914 1.368-2.276 2.092-3.546.131 1.149.303 2.48.447 3.546h3.002c.62-.914 1.414-2.357 2.097-3.606.17 1.168.417 2.692.603 3.606h1.973l-.056-.338zm-5.94-.927c-.266-1.49-.536-3.183-.642-4.392a130.14 130.14 0 0 0 2.624-4.413c.253 1.39.56 2.881.854 4.252-.872 1.611-1.882 3.183-2.836 4.553z" fill="#FFF"/></g></svg>