<svg width="94" height="94" viewBox="0 0 94 94" fill="none" xmlns="http://www.w3.org/2000/svg">
<path d="M47 0C59.4652 0 71.4198 4.95177 80.234 13.766C89.0482 22.5802 94 34.5348 94 47C94 59.4652 89.0482 71.4198 80.234 80.234C71.4198 89.0482 59.4652 94 47 94C34.5348 94 22.5802 89.0482 13.766 80.234C4.95177 71.4198 0 59.4652 0 47C0 34.5348 4.95177 22.5802 13.766 13.766C22.5802 4.95177 34.5348 0 47 0V0Z" fill="#D7FFDB"/>
<path opacity="0.9" d="M47.0004 9.40002C56.9725 9.40002 66.5362 13.3614 73.5876 20.4128C80.639 27.4642 84.6004 37.0279 84.6004 47C84.6004 56.9722 80.639 66.5359 73.5876 73.5872C66.5362 80.6386 56.9725 84.6 47.0004 84.6C37.0282 84.6 27.4645 80.6386 20.4132 73.5872C13.3618 66.5359 9.40039 56.9722 9.40039 47C9.40039 37.0279 13.3618 27.4642 20.4132 20.4128C27.4645 13.3614 37.0282 9.40002 47.0004 9.40002Z" fill="#23E249"/>
<path d="M71.3224 35.2501L43.5219 63.4501L42.6994 64.2256L41.8769 63.4501L24.6514 46.0131L30.2679 40.3261L42.6994 52.8986L65.7999 29.4926L71.3224 35.2501Z" fill="white"/>
</svg>
