<?xml version="1.0" encoding="UTF-8"?>
<svg width="362px" height="362px" viewBox="0 0 362 362" version="1.1" xmlns="http://www.w3.org/2000/svg" xmlns:xlink="http://www.w3.org/1999/xlink">
    <!-- Generator: Sketch 52.5 (67469) - http://www.bohemiancoding.com/sketch -->
    <title>分组 2</title>
    <desc>Created with Sketch.</desc>
    <defs>
        <filter x="-49.5%" y="-49.5%" width="199.0%" height="199.0%" filterUnits="objectBoundingBox" id="filter-1">
            <feGaussianBlur stdDeviation="33" in="SourceGraphic"></feGaussianBlur>
        </filter>
        <linearGradient x1="13.9958076%" y1="14.1132561%" x2="85.7822378%" y2="85.5978248%" id="linearGradient-2">
            <stop stop-color="#4DE4FB" offset="0%"></stop>
            <stop stop-color="#4D87FA" offset="100%"></stop>
        </linearGradient>
        <path d="M140.819205,74 L155,74 L116.294659,144.99979 L77.5893173,74 L91.5350996,74 L116.153779,117.122628 L140.819205,74 Z M45,74.1554832 L59.0424769,74.1554832 L83.5189963,117.226353 L88.7366579,108.211406 L96.6297479,121.357184 L83.8033166,145 L45,74.1554832 Z M108.184806,74.1554832 L122.225362,74.1554832 L110.746251,95.5692174 L102.776958,83.1354588 L108.184806,74.1554832 Z" id="path-3"></path>
        <filter x="-6.4%" y="-7.0%" width="112.7%" height="119.7%" filterUnits="objectBoundingBox" id="filter-4">
            <feOffset dx="0" dy="2" in="SourceAlpha" result="shadowOffsetOuter1"></feOffset>
            <feGaussianBlur stdDeviation="2" in="shadowOffsetOuter1" result="shadowBlurOuter1"></feGaussianBlur>
            <feColorMatrix values="0 0 0 0 0   0 0 0 0 0   0 0 0 0 0  0 0 0 0.0979110054 0" type="matrix" in="shadowBlurOuter1"></feColorMatrix>
        </filter>
        <path d="M20,221.602736 L69.6143072,221.602736 L69.6143072,225.723613 L35.9120539,225.723613 L34.5305076,236.827953 L65.0837481,236.827953 L65.0837481,270.484966 L51.0503253,270.484966 L51.0503253,266.363586 L61.1056132,266.363586 L61.1056132,240.949333 L33.9785687,240.949333 L31.2159616,263.444674 L23.314546,270.713792 L20.6626179,267.622883 L27.4033599,261.383732 L31.8237254,225.723613 L20,225.723613 L20,221.602736 Z M103.259619,220 L107.237754,220 L107.237754,222.003106 L124.033784,222.003106 L124.033784,226.124486 L86.5189288,226.124486 L86.5189288,222.003106 L103.259619,222.003106 L103.259619,220 Z M76.0762642,224.292873 L78.8946962,221.43079 L84.1432129,226.926131 L81.3810912,229.787711 L76.0762642,224.292873 Z M89.7232812,237.686478 L89.7232812,227.72677 L120.774092,227.72677 L120.774092,237.686478 L89.7232812,237.686478 Z M93.7019014,233.565601 L116.795957,233.565601 L116.795957,231.84815 L93.7019014,231.84815 L93.7019014,233.565601 Z M86.7398014,239.403929 L123.812911,239.403929 L123.812911,247.131704 L119.834291,247.131704 L119.834291,243.525308 L90.7179362,243.525308 L90.7179362,247.131704 L86.7398014,247.131704 L86.7398014,239.403929 Z M76.0762642,244.212289 L78.8946962,241.350206 L84.1432129,246.845043 L81.3810912,249.764459 L76.0762642,244.212289 Z M92.7621004,245.184924 L117.790127,245.184924 L117.790127,249.306304 L108.287263,249.306304 L105.856693,250.336775 L108.895027,251.538739 L108.895027,254.801142 L120.166328,250.222613 L121.602728,254 L116.464405,256.117771 L123.260001,265.962814 L120.000309,268.366743 L112.597435,257.663225 L108.895027,259.151348 L108.895027,271 L101.436328,271 L101.436328,266.879123 L104.917378,266.879123 L104.917378,264.073869 L89.33639,270.313522 L87.9558145,266.477798 L104.917378,259.724166 L104.917378,257.262403 L89.33639,263.558885 L87.9558145,259.724166 L103.14894,253.65651 L100.386818,252.511878 L89.33639,256.919415 L87.9558145,253.084194 L97.3479991,249.306304 L92.7621004,249.306304 L92.7621004,245.184924 Z M76.0762642,266.477798 L81.3810912,261.040292 L84.1432129,263.902376 L78.8946962,269.397213 L76.0762642,266.477798 Z M153.314215,220.114061 L157.291865,220.114061 L157.291865,223.376967 L179.44709,238.888844 L177.292732,242.323243 L155.30304,226.92603 L133.313833,242.323243 L131.158504,238.888844 L153.314215,223.376967 L153.314215,220.114061 Z M141.324957,242.380576 L141.324957,238.259196 L169.281609,238.259196 L169.281609,242.380576 L141.324957,242.380576 Z M130.606565,249.192042 L180,249.192042 L180,253.312919 L146.794346,253.312919 L140.49632,265.619726 L140.49632,266.306204 L169.557821,266.306204 L172.928192,259.552572 L176.46361,261.441014 L172.09907,270.427583 L136.518185,270.427583 L136.518185,264.70392 L142.319612,253.312919 L130.606565,253.312919 L130.606565,249.192042 Z" id="path-5"></path>
        <filter x="-4.7%" y="-8.8%" width="109.4%" height="129.4%" filterUnits="objectBoundingBox" id="filter-6">
            <feOffset dx="0" dy="3" in="SourceAlpha" result="shadowOffsetOuter1"></feOffset>
            <feGaussianBlur stdDeviation="2" in="shadowOffsetOuter1" result="shadowBlurOuter1"></feGaussianBlur>
            <feColorMatrix values="0 0 0 0 0   0 0 0 0 0   0 0 0 0 0  0 0 0 0.197237319 0" type="matrix" in="shadowBlurOuter1"></feColorMatrix>
        </filter>
    </defs>
    <g id="页面-1" stroke="none" stroke-width="1" fill="none" fill-rule="evenodd">
        <g id="38登录" transform="translate(-539.000000, -59.000000)" fill-rule="nonzero">
            <g id="分组" transform="translate(620.000000, 140.000000)">
                <g id="分组-2">
                    <circle id="椭圆形" fill="#FFFFFF" opacity="0.700943" filter="url(#filter-1)" cx="100" cy="100" r="100"></circle>
                    <circle id="椭圆形" fill="#FFFFFF" cx="100" cy="100" r="80"></circle>
                    <g id="logo">
                        <use fill="black" fill-opacity="1" filter="url(#filter-4)" xlink:href="#path-3"></use>
                        <use fill="url(#linearGradient-2)" xlink:href="#path-3"></use>
                    </g>
                    <g id="合并形状">
                        <use fill="black" fill-opacity="1" filter="url(#filter-6)" xlink:href="#path-5"></use>
                        <use fill="#FFFFFF" xlink:href="#path-5"></use>
                    </g>
                </g>
            </g>
        </g>
    </g>
</svg>